<svg xmlns="http://www.w3.org/2000/svg" viewBox="0 0 470 470"><g fill-rule="evenodd"><path d="M234.55 430.576c-108.092 0-196.028-87.939-196.028-196.027 0-108.087 87.936-196.027 196.027-196.027 108.087 0 196.023 87.94 196.023 196.027 0 108.088-87.936 196.027-196.023 196.027M234.55 0C105.01 0 0 105.01 0 234.55c0 129.54 105.008 234.545 234.55 234.545 129.536 0 234.544-105.005 234.544-234.546C469.094 105.01 364.086 0 234.55 0"/><path d="m354.644 255.407-31.18-20.858 31.18-20.857v41.715zM247.012 343.82v-58.133l54.034-36.138 43.62 29.172-97.654 65.1zm-12.463-79.784-44.084-29.486 44.084-29.486 44.08 29.486-44.08 29.486zm-12.466 79.784-97.653-65.1 43.623-29.172 54.031 36.138v58.133zM114.451 213.692l31.183 20.857-31.183 20.858v-41.715zm107.632-88.413v58.133l-54.031 36.146-43.623-29.18 97.654-65.099zm24.929 0 97.654 65.098-43.62 29.181-54.034-36.146V125.28zm132.45 63.458c-.026-.183-.072-.358-.102-.54a12.2 12.2 0 0 0-.219-1.047c-.054-.206-.13-.404-.194-.602-.1-.306-.199-.61-.32-.908a12.066 12.066 0 0 0-.279-.61 9.27 9.27 0 0 0-.423-.824c-.115-.199-.237-.39-.355-.58a13.896 13.896 0 0 0-.954-1.298 12.287 12.287 0 0 0-.621-.67c-.163-.168-.325-.336-.497-.489a14.234 14.234 0 0 0-.705-.595c-.187-.145-.37-.29-.565-.427-.072-.046-.137-.107-.206-.153L241.461 91.62a12.46 12.46 0 0 0-13.828 0l-132.56 88.374c-.07.046-.134.107-.206.153-.196.137-.379.282-.562.427-.244.19-.48.39-.705.595-.175.153-.335.321-.5.488a10.812 10.812 0 0 0-1.048 1.213c-.184.244-.36.496-.524.756a10.369 10.369 0 0 0-.782 1.404c-.094.198-.194.404-.277.61-.122.297-.221.602-.322.908-.065.198-.137.396-.194.602-.091.343-.153.694-.218 1.046-.03.183-.076.358-.099.541a11.988 11.988 0 0 0-.114 1.625v88.374c0 .55.041 1.091.114 1.633.023.176.07.358.1.533.064.352.126.702.218 1.046.056.206.129.404.194.603.1.304.199.61.32.915.084.207.183.405.278.603.135.281.272.556.425.831.113.192.231.381.357.572.164.26.34.512.523.756.138.191.282.366.431.541.195.23.401.458.618.672.165.167.325.335.5.487.225.208.462.406.706.596.183.146.365.29.56.427.073.046.138.107.207.152l132.56 88.375a12.46 12.46 0 0 0 6.916 2.098c2.407 0 4.817-.702 6.911-2.098l132.562-88.375c.07-.045.134-.106.207-.152.194-.137.377-.28.564-.427.24-.19.476-.388.705-.596.172-.152.334-.32.497-.487.216-.214.423-.443.621-.672.146-.175.29-.35.427-.54.188-.245.36-.497.527-.757.118-.19.24-.38.355-.572.156-.275.292-.55.423-.83.095-.199.193-.397.279-.604.121-.305.22-.61.32-.915.065-.199.14-.397.195-.603.091-.344.156-.694.218-1.046.03-.175.075-.357.101-.533.07-.542.113-1.084.113-1.633v-88.374c0-.549-.043-1.09-.113-1.625z"/></g></svg>