<svg xmlns="http://www.w3.org/2000/svg" viewBox="0 0 15 17"><path fill-rule="evenodd" d="M10.38 14.774v1.556c-.984.246-1.881.37-2.69.37-2.32 0-4.182-.736-5.585-2.207C.702 13.023 0 11.074 0 8.648 0 6.2.759 4.146 2.276 2.488 3.794.828 5.675 0 7.92 0c1.969 0 3.554.672 4.755 2.017 1.201 1.345 1.802 3.119 1.802 5.322 0 1.629-.302 2.91-.906 3.845-.603.935-1.432 1.402-2.487 1.402-.557 0-.996-.132-1.318-.396-.323-.263-.604-.726-.844-1.388-.914 1.19-1.849 1.784-2.804 1.784-.85 0-1.517-.3-2.004-.9-.486-.602-.73-1.43-.73-2.484 0-1.57.42-2.845 1.258-3.823C5.479 4.4 6.568 3.91 7.91 3.91c.433 0 1.274.053 2.522.158v4.527l.017.817c0 1.137.322 1.705.967 1.705 1.008 0 1.512-1.198 1.512-3.595 0-1.775-.463-3.215-1.389-4.32-.926-1.104-2.136-1.656-3.63-1.656-1.752 0-3.25.685-4.495 2.057-1.246 1.37-1.868 3.02-1.868 4.948 0 1.957.577 3.548 1.731 4.772 1.155 1.225 2.652 1.837 4.492 1.837.767 0 1.637-.129 2.61-.387zm-1.9-9.237a2.195 2.195 0 0 0-.808-.167c-1.524 0-2.285 1.18-2.285 3.542 0 1.383.413 2.074 1.239 2.074.557 0 1.175-.56 1.854-1.678v-3.77z"/></svg>