<svg xmlns="http://www.w3.org/2000/svg" viewBox="0 0 134 106"><path fill-rule="evenodd" d="M0 93.992c1.973.221 4.172.331 6.596.331 12.686 0 23.99-3.809 33.912-11.428-5.92-.11-11.22-1.89-15.899-5.341-4.68-3.45-7.893-7.853-9.64-13.209 1.86.276 3.58.414 5.158.414 2.424 0 4.82-.303 7.188-.91-6.314-1.27-11.543-4.348-15.687-9.234S5.412 44.056 5.412 37.597v-.331c3.834 2.098 7.95 3.23 12.347 3.395-3.72-2.43-6.68-5.604-8.88-9.523-2.198-3.92-3.298-8.171-3.298-12.754 0-4.858 1.24-9.357 3.721-13.498 6.822 8.226 15.124 14.81 24.906 19.75 9.781 4.942 20.254 7.688 31.417 8.24a29.12 29.12 0 0 1-.677-6.128c0-7.398 2.664-13.705 7.992-18.922C78.268 2.609 84.709 0 92.264 0c7.893 0 14.545 2.816 19.958 8.447a54.256 54.256 0 0 0 17.336-6.46c-2.086 6.35-6.089 11.263-12.009 14.741 5.244-.552 10.487-1.932 15.73-4.14a56.606 56.606 0 0 1-13.7 13.83c.056.772.085 1.931.085 3.477 0 7.177-1.072 14.34-3.214 21.49-2.142 7.15-5.398 14.01-9.768 20.58a81.441 81.441 0 0 1-15.602 17.43c-6.033 5.052-13.306 9.082-21.819 12.09-8.513 3.01-17.618 4.514-27.315 4.514-15.279 0-29.26-4.003-41.946-12.008z"/></svg>