<svg xmlns="http://www.w3.org/2000/svg" viewBox="0 0 56.787 56.787"><path d="M20.875 23.107c-.178.011-.756.508-.756.508.311.134.935-.519.756-.508zm.078-.102-.046.028.045-.018.001-.01zM42.363.76a5.807 5.807 0 1 1 0 11.614 5.807 5.807 0 0 1 0-11.614zM7.503 25.657h1.556v-.748H7.503c-.424 0-.73-.084-.842-.23-.085-.112-.048-.258-.048-.258l.019-4.516h-.748v4.357c-.033.152-.075.517.171.853.262.359.751.542 1.448.542zm49.185 10.612-.211-1.712c-.834-6.688-.867-6.943-.545-18.729a.748.748 0 0 0-.728-.768c-.392-.026-.756.314-.769.727-.324 11.896-.289 12.161.557 18.952l.212 1.715c.217 1.643.026 2.781-.533 3.219-.651.502-1.79.056-1.868.024-5.501-1.692-12.354 1.804-12.644 1.949a.747.747 0 1 0 .687 1.325c.045-.021 3.104-1.576 6.576-2.096V52.52h-3.107a1.145 1.145 0 1 0 0 2.29h8.826a1.146 1.146 0 1 0 0-2.29h-2.863V40.749a8.962 8.962 0 0 1 2.021.354c.08.032 1.935.794 3.281-.24 1.031-.792 1.406-2.341 1.108-4.594zm-3.556-3.395c-.129-4.919-1.741-9.636-1.868-14.534-.187-7.134-11.119-7.296-11.207-.337-4.184.712-8.363 1.09-12.617.89-3.861-.181-3.873 5.8-.039 5.979 4.468.209 8.9-.215 13.301-.937.452 2.618.987 5.223 1.157 7.871-9.104 3.18-14.15 10.885-15.438 20.677-.009.067-.011.139-.017.209v-21.68h5.741v-5.125h-20.59c.012-.065.017-.141.021-.235l.009-.188c.026-.433.102-.581.526-.663.107-.02.242-.026.378-.024v.36h5.526c.161.03.321.053.47.053.232 0 .432-.053.55-.212.062-.083.062-.198.061-.309 0-.107-.001-.217.051-.282a.557.557 0 0 1 .343-.172 1.533 1.533 0 0 0-.187.708h6.259c0-1.204-1.402-2.18-3.129-2.18-.54 0-1.037.103-1.479.27.103 1.031-.867.931-1.242.855a2.194 2.194 0 0 0-.12.171c-.017-.004-.031-.014-.05-.015a.736.736 0 0 0-.535.247c-.095.116-.093.266-.093.398.001.081.001.165-.024.198-.066.089-.196.118-.345.126v-.862H12.49v.457a2.213 2.213 0 0 0-.413.033c-.537.103-.645.35-.674.83l-.009.192a1.234 1.234 0 0 1-.023.243H0v5.125h3.125v24.858h23.278V53.38c.379 3.83 6.916 3.48 7.492-.904.996-7.575 5.414-12.633 12.842-14.307 3.088.47 6.499-1.285 6.395-5.295zM8.444 9.014l.941 13.417-2.485.174-.941-13.416 2.485-.175z"/></svg>