<svg fill="none" xmlns="http://www.w3.org/2000/svg" viewBox="0 0 150 150"><mask id="svgo-viewbox-id-0a" height="134" maskUnits="userSpaceOnUse" width="116" x="17" y="14"><path d="M17.25 14.779h115.329v132.553H17.25z" fill="#fff"/></mask><mask id="svgo-viewbox-id-0b" height="51" maskUnits="userSpaceOnUse" width="54" x="47" y="3"><path d="M47.674 3.572h52.924v49.765H47.674z" fill="#fff"/></mask><path clip-rule="evenodd" d="M120.278 142.761c-14.698-4.639-24.691-18.273-24.691-33.688 0-15.422 10.005-29.062 24.691-33.687v-17.63c-5.758 21.091-22.654 35.55-41.85 35.55-6.668 0-13.073-1.748-18.833-4.923a83.375 83.375 0 0 0 10.187 38.44c14.013 10.691 31.514 17.043 50.496 17.051z" fill="#fff" fill-rule="evenodd"/><path clip-rule="evenodd" d="M59.595 88.383c5.76 3.175 12.165 4.923 18.834 4.923 19.195 0 36.091-14.458 41.849-35.55V32.358c4.802-2.237 8.085-7.502 8.085-13.52l-.005-.535s-17.453-.176-29.503 9.594H96.46c-3.25 1.516-9.046 4.167-12.692 8.4-.476.557-.92 1.139-1.316 1.748a14.173 14.173 0 0 1-2.43 2.822c-1.806 1.63-4.032 2.887-6.443 3.786-5.372 3.002-10.96 2.973-15.08 1.07-5.419-1.314-9.098-4.696-7.576-10.011.443-1.552 1.33-3.27 2.749-5.149.942-1.252 1.636-2.094 2.149-2.666h-.359c-13.388-9.77-32.786-9.594-32.786-9.594l-.012.535a14.66 14.66 0 0 0 12.564 14.51 62.599 62.599 0 0 1 5.378 2.642 83.439 83.439 0 0 0-3.665 23.042c3.94 13.19 12.24 23.606 22.653 29.35z" fill="#fff" fill-rule="evenodd"/><path clip-rule="evenodd" d="M67.823 126.823a83.37 83.37 0 0 1-10.187-38.44c-10.413-5.744-18.714-16.16-22.654-29.35-.007.483-.012.967-.012 1.451 0 27.057 12.886 51.103 32.854 66.339z" fill="#2cc28c" fill-rule="evenodd"/><path d="M53.504 28.288h43.39" stroke="#147853" stroke-linecap="round" stroke-linejoin="round"/><g mask="url(#svgo-viewbox-id-0a)"><path clip-rule="evenodd" d="M47.79 46.606a11.173 11.173 0 0 0-4.186 3.43 11.211 11.211 0 0 0-2.206 6.697c0 3.095 1.256 5.899 3.282 7.924a11.176 11.176 0 0 0 7.923 3.282c2.016 0 3.94-.527 5.593-1.477a11.163 11.163 0 0 0 3.121-2.665 60.543 60.543 0 0 0-13.528-17.191zm-7.551-3.1a18.22 18.22 0 0 1 1.733-1.432 62.906 62.906 0 0 0-1.212-.809 80.01 80.01 0 0 0-.521 2.242zm74.624 96.837V74.214c-2.859 4.543-6.297 8.528-10.172 11.83-7.98 6.798-17.793 10.718-28.222 10.718-5.227 0-10.308-.99-15.09-2.835a80.408 80.408 0 0 0 2.366 13.432A79.878 79.878 0 0 0 70.48 124.5a79.56 79.56 0 0 0 44.383 15.843zm1.794-111.015c.134-.073.272-.137.416-.194 1.309-.652 2.466-1.622 3.399-2.817a11.715 11.715 0 0 0 2.094-4.35c-5.48.518-15.751 2.324-23.498 8.603a3.445 3.445 0 0 1-4.345-5.344c13.034-10.568 31.622-10.378 31.675-10.378a3.456 3.456 0 0 1 3.456 3.456l-.008.227.014.308c0 4.422-1.483 8.534-3.961 11.717a17.09 17.09 0 0 1-4.124 3.811v22.76c.045.319.046.648 0 .98v82.244a79.399 79.399 0 0 0 6.915-.591 3.445 3.445 0 0 1 3.86 2.97 3.446 3.446 0 0 1-2.97 3.859 86.947 86.947 0 0 1-11.218.743c-23.98 0-45.693-9.722-61.41-25.438s-25.437-37.43-25.437-61.41c0-4.312.325-8.628.966-12.903l.02-.114a85.9 85.9 0 0 1 2.054-9.732 58.814 58.814 0 0 0-2.23-1.045 18.07 18.07 0 0 1-10.647-6.002 18.078 18.078 0 0 1-4.428-11.85c0-.11.008-.22.018-.33l-.006-.204c0-.2.016-.396.05-.586l.005-.025.01-.06.005-.025a3.445 3.445 0 0 1 4.12-2.752c3.776.08 21.332.962 34.076 10.262a3.44 3.44 0 0 1 .756 4.804 3.44 3.44 0 0 1-4.804.756c-8.922-6.512-20.84-8.27-26.887-8.744a11.181 11.181 0 0 0 9.163 8c.406.056.786.184 1.128.366a67.593 67.593 0 0 1 5.276 2.594c.1.049.198.102.293.16l.015.01a67.295 67.295 0 0 1 28.16 29.932c4.239-8.665 9.906-15.965 16.522-21.494 8.661-7.239 18.967-11.457 29.85-11.77.157-.004.312.002.464.017a8.66 8.66 0 0 0 1.193-.42zM97.902 41.213c5.104-2.659 10.591-4.235 16.255-4.552.228.065.465.106.706.124v20.522c-2.733 9.672-7.951 17.789-14.655 23.501-6.731 5.735-14.99 9.042-23.739 9.042-8.252 0-16.096-2.948-22.63-8.132-2.884-2.288-5.517-5.008-7.824-8.104a18.077 18.077 0 0 0 6.588 1.237c3.201 0 6.307-.864 9.022-2.425a18.089 18.089 0 0 0 2.721-1.917c.327.862.637 1.735.925 2.616l.012.03.017.054.01.023c.067.187.147.365.243.531l.041.07.002.005.041.065.004.007.18.257.006.008.01.012.002.004.094.113.01.014.045.049.011.014.046.047.011.013.046.047.013.012.047.047.012.012.049.045.012.012.05.045.012.01.054.045.011.007.053.046.012.008c.17.136.358.252.558.354l.008.006a3.456 3.456 0 0 0 4.816-1.918 69.844 69.844 0 0 1 2.28-5.619 18.15 18.15 0 0 0 5.46 4.826 18.109 18.109 0 0 0 9.022 2.425c5 0 9.531-2.03 12.809-5.308a18.064 18.064 0 0 0 5.307-12.81c0-3.983-1.314-7.745-3.585-10.8a18.202 18.202 0 0 0-5.2-4.72zM77.523 61.07a3.43 3.43 0 0 1 1.36 1.313 11.205 11.205 0 0 0 4.095 4.079 11.217 11.217 0 0 0 5.593 1.477c3.094 0 5.897-1.256 7.923-3.282a11.177 11.177 0 0 0 3.281-7.924c0-2.484-.809-4.818-2.206-6.697A11.202 11.202 0 0 0 91.806 46a3.424 3.424 0 0 1-.802-.355c-.482.372-.956.756-1.426 1.148-4.588 3.834-8.671 8.65-12.055 14.278zm-19.256 52.124a86.742 86.742 0 0 1-4.016-22.791 46.656 46.656 0 0 1-4.702-3.286c-3.46-2.745-6.606-6.024-9.338-9.758 2.91 13.535 9.247 25.8 18.056 35.835z" fill="#147853" fill-rule="evenodd"/></g><path clip-rule="evenodd" d="M79.644 21.652c-.132 1.712-.173 3.346-.222 4.781l.769-.03c8.548-.407 14.104-3.868 16.042-5.287.803 3.383.433 5.187.74 5.678.114.182-.342.51-1.17.994-2.697 1.572-9.342 4.788-13.156 9.94-26.794 2.371-30.436-3.512-30.436-3.512.879-1.361 2.001-2.819 3.399-4.372 0 0-.022-2.368.51-5.517 0 0 4.477.872 10.345 1.503a43.592 43.592 0 0 0-.2 1.832c.057-.63.128-1.239.21-1.83a35.29 35.29 0 0 1 1.03-4.973l-.037-.005c-4.52-.67-8.272-1.566-9.939-1.992.785-2.151 1.89-4.281 3.444-6.026l.146-.158c.791.214 5.04.773 9.49 1.347C75.49 6.797 82.733 6.32 84.22 6.381l.069.004c.062.012.124.027.187.04.721.158 1.42.36 2.086.608a11.828 11.828 0 0 0-3.123 2.735c-1.317 1.64-2.183 3.57-2.76 5.594l1.472-.047c4.466-.222 7.782-1.799 10.138-3.531a43.541 43.541 0 0 1 2.322 4.557c-1.608 1.476-6.21 4.897-14.64 5.298zm-29.8 17.902c-2.514 12.099 20.17 12.658 29.404 3.005-21.26 1.82-27.705-1.612-29.403-3.004z" fill="#fff" fill-rule="evenodd"/><g clip-rule="evenodd" fill-rule="evenodd" mask="url(#svgo-viewbox-id-0b)"><path d="M84.288 6.385c-8.119-1.69-19.151 1.991-23.17 6.293 1.498.404 15.349 2.045 19.56 2.684.492-.008.984-.024 1.473-.047 4.466-.222 7.782-1.799 10.138-3.531-.056-.095-.11-.19-.168-.286-1.27-2.156-3.225-3.595-5.559-4.465a11.83 11.83 0 0 0-3.123 2.735c.904-2.902-.078-3.44.85-3.383zm-34.443 33.17c1.698 1.392 8.143 4.824 29.402 3.004a14.339 14.339 0 0 0 2.216-2.992c.35-.639.75-1.252 1.184-1.84-26.794 2.372-30.437-3.51-30.437-3.51-1.277 1.978-2.035 3.756-2.365 5.338zm7.684-20.693c-.686 1.884-1.126 3.786-1.41 5.465 0 0 4.477.872 10.346 1.503 4 .432 8.646.75 12.957.603.258-.007.514-.02.768-.03 8.549-.407 14.105-3.868 16.043-5.287-.318-1.338-.821-2.924-1.622-4.774-1.609 1.475-6.21 4.896-14.64 5.297-.11.005-.217.01-.327.013-4.08.164-8.397-.239-12.176-.798-4.52-.67-8.272-1.565-9.939-1.992z" fill="#2cc28c"/><path d="M77.901 36.58c-8.545-.058-17.134-1.896-21.015-2.846-2.316 3.168-2.731 5.96-1.909 8.062.584 1.493 1.81 2.723 3.41 3.534 1.77.898 3.986 1.293 6.353 1.021 4.476-.515 9.426-3.423 13.161-9.77zm10.002-24.055c-1.993 1.784-2.992 4.059-3.372 6.384-.545 3.34.051 6.767.85 9.273 2.28-1.03 4.454-1.887 6.229-2.584l1.943-.772c.07-1.505-.196-4.373-3.525-10.021l.006-.004-.006-.01a7.187 7.187 0 0 0-1.86-2.073zM65.57 28.498c1.117-8.93 4.799-14.232 8.842-17.364-2.217.524-4.306 1.337-6.032 2.354-1.29.759-2.343 1.62-3.035 2.53-3.023 3.967-4.711 8.44-5.568 11.32 1.538.354 3.533.774 5.793 1.16zM78.058 10.55c-4.735 2.535-9.717 7.713-11.015 18.19 3.562.553 7.647.98 11.636.947-.981-3.36-1.636-7.688-.95-11.883.418-2.55 1.297-5.066 2.837-7.33a21.647 21.647 0 0 0-1.742.023zM52.421 28.254c.625-2.727 2.658-10.138 7.446-16.421 1.236-1.622 2.976-3.076 5.03-4.285 3.753-2.212 8.718-3.683 13.575-3.936 3.57-.188 7.144.276 10.252 1.564.192.064.378.144.558.243 1.095.495 2.124 1.1 3.07 1.821a14.062 14.062 0 0 1 3.61 4.058l.007-.004c4.849 8.227 4.608 12.568 4.412 14.639.609 1.657-.079 3.039-1.887 4.169-.104.064-.21.123-.317.174-.93.516-2.314 1.064-4.056 1.748-2.27.891-5.22 2.053-7.952 3.395-4.97 11.74-13.197 16.933-20.645 17.79-3.737.43-7.308-.236-10.241-1.723-3.101-1.571-5.513-4.065-6.732-7.178-1.78-4.545-1.02-10.247 3.87-16.054z" fill="#147853"/></g><path d="M73.623 32.958s7.94.823 22.18-5.17" stroke="#147853" stroke-linecap="round" stroke-linejoin="round"/><g clip-rule="evenodd" fill-rule="evenodd"><path d="M78.138 41.723c10.752-4.15 22.834 1.202 26.985 11.954 4.15 10.751-1.201 22.833-11.954 26.984-10.751 4.15-22.833-1.202-26.984-11.954-4.15-10.751 1.201-22.833 11.953-26.984z" fill="#fff"/><path d="m86.809 80.562 2.449 6.341 8.85-3.416 1.647-.635-2.448-6.342z" fill="#2cc28c"/><path d="M91.657 47.644a14.782 14.782 0 0 0-11.334-.28l-.006.002a14.771 14.771 0 0 0-8.209 7.82 14.801 14.801 0 0 0-.33 11.215c.038.082.072.167.097.255a14.777 14.777 0 0 0 7.774 8.081 14.792 14.792 0 0 0 11.214.33c.08-.038.163-.071.249-.097a14.768 14.768 0 0 0 8.09-7.775 14.804 14.804 0 0 0 .293-11.299l-.017-.047a14.77 14.77 0 0 0-7.821-8.205zM79.12 44.136a18.216 18.216 0 0 1 13.928.35 18.22 18.22 0 0 1 9.643 10.121l.004.01a18.216 18.216 0 0 1-.335 13.969 18.3 18.3 0 0 1-4.577 6.27c.5.144.928.512 1.13 1.033l2.43 6.297.017.045c.343.885-.1 1.885-.985 2.227l-10.452 4.035-.045.017a1.725 1.725 0 0 1-2.228-.985l-2.429-6.297-.018-.045a1.72 1.72 0 0 1 .282-1.722 18.242 18.242 0 0 1-7.227-1.566 18.22 18.22 0 0 1-9.645-10.123l-.02-.053a18.22 18.22 0 0 1 .357-13.923 18.212 18.212 0 0 1 10.125-9.643zm11.124 40.54 7.282-2.811-1.207-3.127-7.282 2.811z" fill="#147853"/><path d="M84.55 53.467a7.466 7.466 0 0 1 7.106 7.81 7.465 7.465 0 0 1-7.811 7.107 7.466 7.466 0 0 1-7.107-7.81 7.466 7.466 0 0 1 7.811-7.107z" fill="#2cc28c"/><path d="M84.37 57.24a3.689 3.689 0 0 1 3.512 3.86 3.689 3.689 0 1 1-3.511-3.86z" fill="#147853"/><path d="M86.3 57.331a1.758 1.758 0 1 1-.164 3.512 1.758 1.758 0 0 1 .164-3.512zm4.603 28.937 10.273 26.612 7.205-2.781-10.273-26.612z" fill="#fff"/><path d="m96.629 86.828-2.384.92 8.411 21.792 2.386-.919zm-6.655-2.969 7.204-2.782a2.585 2.585 0 0 1 3.34 1.48l10.274 26.612a2.585 2.585 0 0 1-1.48 3.341l-7.205 2.779a2.584 2.584 0 0 1-3.34-1.478L88.494 87.199a2.584 2.584 0 0 1 1.479-3.34z" fill="#147853"/><path d="m75.153 65.684.05.13zm6.79-14.992-.135.05h.006zm8.426-.139a11.632 11.632 0 0 0-8.86-.235l-.108.042a11.597 11.597 0 0 0-6.385 6.116 11.624 11.624 0 0 0-.237 8.86l.04.107a11.598 11.598 0 0 0 6.12 6.387 11.608 11.608 0 0 0 8.905.217 11.609 11.609 0 0 0 6.448-6.141 11.624 11.624 0 0 0 .22-8.905 11.606 11.606 0 0 0-6.143-6.448zm-9.402-1.62a13.113 13.113 0 0 1 10.002.257 13.09 13.09 0 0 1 6.93 7.274 13.1 13.1 0 0 1-.243 10.04 13.092 13.092 0 0 1-7.275 6.93 13.091 13.091 0 0 1-10.043-.24 13.08 13.08 0 0 1-6.93-7.275l-.015-.043a13.106 13.106 0 0 1 .26-10 13.084 13.084 0 0 1 7.271-6.927z" fill="#ccc"/><path d="M93.627 109.073c0 15.415 6.538 26.629 21.236 31.27V76.677C100.177 81.3 93.627 93.65 93.627 109.073z" fill="#2cc28c"/><path d="M119.357 139.468a3.454 3.454 0 0 1-2.077 6.586 38.732 38.732 0 0 1-19.599-14.058 38.74 38.74 0 0 1-7.51-22.923 38.74 38.74 0 0 1 7.518-22.931 38.75 38.75 0 0 1 19.629-14.058 3.45 3.45 0 0 1 2.053 6.587 31.847 31.847 0 0 0-22.287 30.402 31.843 31.843 0 0 0 22.273 30.395zM49.208 60.296a1.723 1.723 0 0 1-2.395.44 1.722 1.722 0 0 1-.438-2.395 6.625 6.625 0 0 1 2.155-2.006l-.002-.002a5.64 5.64 0 0 1 2.805-.76c1.02 0 2.007.286 2.894.811l.114.074a6.746 6.746 0 0 1 2.072 2.067 1.723 1.723 0 0 1-2.887 1.877 3.381 3.381 0 0 0-.982-1.009l-.072-.039a2.239 2.239 0 0 0-1.139-.325c-.38 0-.756.106-1.093.297l-.002-.001-.004.001c-.38.216-.734.547-1.027.97z" fill="#147853"/></g></svg>