<svg fill="none" xmlns="http://www.w3.org/2000/svg" viewBox="0 0 150 150"><clipPath id="svgo-viewbox-id-0a"><path d="M0 0h150v150H0z"/></clipPath><g clip-path="url(#svgo-viewbox-id-0a)"><path d="M150.588 136.028c0 8.039-6.514 14.56-14.56 14.56H14.559C6.522 150.588 0 144.066 0 136.028V14.559C0 6.52 6.522 0 14.56 0h121.468c8.046 0 14.56 6.52 14.56 14.56z" fill="#f6c915"/><path d="M61.369 105.497c-4.85 0-8.658-.633-11.424-1.895-2.765-1.265-4.748-2.988-5.942-5.177-1.197-2.184-1.776-4.687-1.742-7.528.033-2.834.425-5.856 1.178-9.067L56.45 27.428l15.881-2.458-14.24 59.013c-.274 1.228-.427 2.356-.461 3.38-.036 1.023.153 1.93.562 2.714.41.787 1.11 1.418 2.1 1.895.99.48 2.374.787 4.15.923L61.37 105.49m57.358-33.9c0 4.985-.82 9.544-2.459 13.677-1.639 4.135-3.911 7.702-6.813 10.706-2.903 3.008-6.386 5.346-10.45 7.018-4.064 1.672-8.487 2.511-13.265 2.511-2.324 0-4.646-.207-6.967-.618l-4.611 18.546H59l17.006-70.89c2.732-.82 5.857-1.554 9.374-2.204 3.519-.648 7.326-.972 11.425-.972 3.825 0 7.122.58 9.886 1.74 2.767 1.162 5.037 2.75 6.814 4.765 1.775 2.015 3.089 4.372 3.942 7.069s1.281 5.584 1.281 8.659zM81.538 92.6c1.16.273 2.595.41 4.303.41 2.662 0 5.087-.494 7.273-1.487a16.04 16.04 0 0 0 5.585-4.148c1.534-1.775 2.729-3.908 3.584-6.403.853-2.492 1.28-5.24 1.28-8.247 0-2.936-.65-5.43-1.946-7.48-1.298-2.048-3.551-3.073-6.76-3.073-2.188 0-4.237.205-6.15.616z" fill="#fff"/></g></svg>