<svg xmlns="http://www.w3.org/2000/svg" viewBox="0 0 255 270"><g clip-rule="evenodd" stroke-linejoin="round" stroke-miterlimit="2"><path d="M127.244.286L.487 44.894l20.031 166.072 106.861 58.733 107.411-59.528 20.024-166.066L127.244.286z" fill="#B3B3B3"/><path d="M242.169 53.703L126.948 14.41v241.256l96.562-53.442 18.659-148.522z" fill="#A6120D"/><path d="M14.71 54.41l17.165 148.525 95.07 52.732V14.406L14.71 54.411z" fill="#DD1B16"/><path d="M155.599 135.376l-28.441-56.303-23.328 55.334h23.117l28.652.969zm3.065 7.467l-31.716 14.83H93.519l-15.713 39.305-29.229.541 78.371-174.348 31.716 119.672z" fill="#F2F2F2"/><path d="M126.946 23.171l.21 55.901 26.471 55.378h-26.621l-.06 23.188 36.811.035 17.204 39.852 27.966.519-81.981-174.873z" fill="#B3B3B3"/></g></svg>