<svg xmlns="http://www.w3.org/2000/svg" viewBox="0 0 149 155"><g fill="none" stroke="#282828" stroke-width=".25"><path fill="#364148" d="m52.179 60.965 19.476-5.473v52.104l54.13-18.446 5.749-49.681 16.891-4.387-8.612 64.084-84.59 31.809z"/><path fill="#E02127" d="m56.188 32.278 38.148-8.447 28.426 15.876-4.384 43.525-40.674 13.432-.203-48.49z"/><path fill="#61B0E1" d="m31.897 115.75 19.569 23.01 87.292-32.719-2.237 14.408-83.766 33.867-20.253-25.42z"/><path fill="#405A68" d="m26.044 120.125-1.007-21.893 23.712 28.118-2.66-65.997-20.286-17.845 3.269 49.01L7.791 68.295l4.14 33.404z"/><path fill="#2CB24B" d="m22.287 75.434-.043-.561-3.621-41.26 4.8-1.253 17.527-3.782-19.867-14.613L.894 17.33l5.451 40.117"/><path fill="#3B789A" d="m29.072 37.329 18.382-3.968 22.187 16.414-20.023 5.628zm19.77-10.454 46.098-9.848 32.607 17.229 17.537-4.555L87.683 1 28.859 12.176z"/></g></svg>