<svg xmlns="http://www.w3.org/2000/svg" viewBox="0 0 101.7 84"><path d="M0 13h23.8v7H0zM0 0h23.8v7H0zm42.7 25.9H0v7h41.1c4.5 0 15 .1 18.9 6.4v-3.9c-1.9-6.2-7.5-9.5-17.3-9.5zm.1 13H0v7h41.1c10 0 16.3.4 18.9 1.8v-3.1c-2-4.9-10.4-5.7-17.2-5.7zm-.1 33H0v-7h41.1c4.5 0 15-.1 18.9-6.4v3.9c-1.9 6.2-7.5 9.5-17.3 9.5zm.1-13H0v-7h41.1c10 0 16.3-.4 18.9-1.8v3.1c-2 4.9-10.4 5.7-17.2 5.7zM70.4 84h31.4v-4.3H71.3c-2.7 0-9.1-.1-11.4-3.8v2.4C61 82 64.4 84 70.4 84zm-.1-7.9h31.4v-4.3H71.3c-6.1 0-9.9-.2-11.4-1.1v1.9c1.2 3 6.3 3.5 10.4 3.5z" fill="#FEFEFE"/></svg>