<svg xmlns="http://www.w3.org/2000/svg" viewBox="0 0 26 25"><path d="M12.6 18.3c1 0 2-.3 3-.8 2.8-1.6 3.8-5.3 2.2-8.1-1.6-2.8-5.3-3.8-8.1-2.2-1.4.8-2.3 2.1-2.8 3.6-.4 1.5-.2 3.1.6 4.5 1 2 3 3 5.1 3zm-3.9-6.9c.3-1 .9-1.9 1.9-2.4.6-.4 1.3-.5 2-.5 1.4 0 2.7.7 3.5 2 1.1 1.9.4 4.4-1.5 5.5-1.9 1.1-4.4.4-5.5-1.5-.5-1-.7-2.1-.4-3.1zm10.5-2.9c.8 1.3 2 2.3 3.5 2.7.5.1 1 .2 1.5.2.3 0 .5 0 .8-.1-.1-.6-.2-1.2-.3-1.9-.5.1-1 0-1.5-.1-1-.3-1.8-.9-2.4-1.8-.5-.9-.7-1.9-.4-2.9.1-.5.4-.9.7-1.3-.5-.4-.9-.8-1.5-1.2-.5.6-.8 1.3-1 2-.4 1.6-.2 3.1.6 4.4zm3.5 5.1c-1.5.4-2.7 1.3-3.5 2.7-.8 1.3-1 2.9-.6 4.4.2.8.6 1.4 1 2l1.5-1.2c-.3-.4-.5-.8-.7-1.3-.3-1-.1-2 .4-2.9.5-.9 1.4-1.5 2.4-1.8.5-.1 1-.2 1.5-.1.1-.6.2-1.2.3-1.9-.8-.2-1.5-.1-2.3.1zM12.5 22c1.6 0 3 1 3.6 2.4.6-.2 1.2-.4 1.8-.7-.9-2.1-2.9-3.6-5.3-3.6s-4.5 1.5-5.3 3.6c.6.3 1.2.5 1.8.7.5-1.4 1.8-2.4 3.4-2.4zm0-17.3c2.4 0 4.5-1.5 5.3-3.6-.6-.3-1.1-.5-1.8-.7-.6 1.4-2 2.4-3.6 2.4s-3-1-3.6-2.4c-.6.2-1.2.4-1.8.7 1.1 2.1 3.1 3.6 5.5 3.6zM5.9 16.3c-.8-1.3-2-2.3-3.5-2.7-.8-.2-1.5-.2-2.3-.1.1.6.2 1.2.3 1.9h.5c.3 0 .7 0 1 .1 1 .3 1.8.9 2.4 1.8.8 1.4.6 3.1-.3 4.3.5.4.9.8 1.5 1.2 1.3-1.9 1.6-4.5.4-6.5zm-3.5-5.1c1.5-.4 2.7-1.3 3.5-2.7.8-1.3 1-2.9.6-4.4-.2-.8-.6-1.4-1-2-.6.4-1.1.8-1.5 1.2.3.4.5.8.7 1.3.3 1 .1 2-.4 2.9-.5.9-1.4 1.5-2.4 1.8-.5.1-1 .2-1.5.1-.1.6-.2 1.2-.3 1.9.3 0 .5.1.8.1.5 0 1 0 1.5-.2z"/></svg>