<svg xmlns="http://www.w3.org/2000/svg" viewBox="0 0 63 41"><g fill="none" stroke="#FFF"><path fill="#19223C" d="M34.25 1.055 3.147 20.635c-1.465.886-2.18 1.878-2.146 2.977v2.98c.035 1.1.768 2.075 2.2 2.926l15.393 8.885a.726.726 0 0 0 1.047-.373l3.456-8.352-7.33-4.15a1.316 1.316 0 0 1-.697-.976 1.345 1.345 0 0 1 .644-1.365l13.457-8.247 5.55-13.512a.324.324 0 0 0-.104-.36.311.311 0 0 0-.369-.013h.002z"/><path fill="#67A4AC" d="M59.8 11.962 44.618 2.758a.726.726 0 0 0-1.047.32l-3.56 8.352 7.225 4.31c.208.113.381.282.502.488a1.347 1.347 0 0 1-.502 1.853l-13.56 7.98-5.76 13.407a.323.323 0 0 0 .131.515.311.311 0 0 0 .34-.09l9.948-6.011 3.927 5.64a.947.947 0 0 0 .785.425h9.425a.932.932 0 0 0 .832-.506.97.97 0 0 0-.047-.984l-6.388-9.79 12.933-7.82c1.466-.887 2.2-1.88 2.2-2.98V14.94c0-1.1-.734-2.092-2.2-2.98H59.8z"/></g></svg>