<svg xmlns="http://www.w3.org/2000/svg" viewBox="0 0 520 520"><defs><linearGradient id="svgo-viewbox-id-0a" x1="99.14%" x2="33.859%" y1="112.745%" y2="37.768%"><stop offset="0%" stop-color="#0052CC"/><stop offset="100%" stop-color="#2684FF"/></linearGradient><linearGradient id="svgo-viewbox-id-0b" x1="15.202%" x2="61.142%" y1="7.214%" y2="70.966%"><stop offset="0%" stop-color="#0052CC"/><stop offset="100%" stop-color="#2684FF"/></linearGradient></defs><g fill="none"><path d="M0 0h520v520H0z"/><path fill="url(#svgo-viewbox-id-0a)" d="M12.264 242.746c-3.35 5.462-7.112 11.801-10.307 16.852a10.307 10.307 0 0 0 3.453 14.017l66.996 41.228a10.307 10.307 0 0 0 14.275-3.504c2.68-4.484 6.133-10.307 9.895-16.543 26.54-43.805 53.236-38.445 101.37-15.46l66.428 31.59a10.307 10.307 0 0 0 13.863-5.153l31.9-72.15a10.307 10.307 0 0 0-5.153-13.501c-14.017-6.597-41.898-19.738-66.996-31.85-90.29-43.804-167.025-40.918-225.724 54.474z" transform="translate(97.5 101.422)"/><path fill="url(#svgo-viewbox-id-0b)" d="M312.663 73.916c3.35-5.462 7.112-11.801 10.307-16.852a10.307 10.307 0 0 0-3.453-14.017L252.521 1.819a10.307 10.307 0 0 0-14.687 3.504c-2.68 4.483-6.133 10.307-9.895 16.543-26.54 43.805-53.236 38.445-101.37 15.46L60.347 5.786a10.307 10.307 0 0 0-13.863 5.154l-31.9 72.15a10.307 10.307 0 0 0 5.153 13.502c14.017 6.596 41.898 19.738 66.996 31.848 90.495 43.754 167.231 40.868 225.93-54.524z" transform="translate(97.5 101.422)"/></g></svg>