<svg xmlns="http://www.w3.org/2000/svg" viewBox="0 0 398.97 398.97"><path d="M225.092 276.586c-7.101 4.355-16.195 6.754-25.607 6.754-9.412 0-18.506-2.398-25.607-6.754L57.946 205.484s-10.464-6.414-10.464 8.116v71c0 37.402 68.053 77.723 152 77.723s152-40.32 152-77.723v-75.003c0-11.663-7.439-5.964-7.439-5.964l-118.951 72.953z"/><path d="M392.289 148.927c8.908-5.463 8.908-14.403 0-19.867L215.681 40.745c-8.908-5.463-23.485-5.463-32.393 0L6.681 129.06c-8.908 5.463-8.908 14.403 0 19.867l176.607 108.315c8.908 5.463 23.485 5.463 32.393 0m169.304 52.233V189.85s.083-5.666-3.279-3.795c-2.697 1.501-9.308 5.186-11.637 7.212-2.689 2.337-2.083 7.583-2.083 7.583v108.625c0 1.542-1.325 2.278-1.957 2.65-6.105 3.589-10.21 10.214-10.21 17.809 0 11.414 9.252 20.667 20.667 20.667 11.414 0 20.666-9.253 20.666-20.667 0-7.624-4.135-14.27-10.279-17.85-.611-.356-1.888-1.068-1.888-2.609z"/></svg>