<svg xmlns="http://www.w3.org/2000/svg" viewBox="0 0 25 25"><g fill="none"><path fill="#FFF" d="M21.462 12.018h-6.01v1.717h4.121c-.6 2.576-2.49 4.722-4.98 5.58L4.722 9.444c1.03-3.005 3.95-5.151 7.297-5.151 2.576 0 4.894 1.288 6.353 3.262l1.288-1.116c-1.717-2.318-4.464-3.863-7.64-3.863-4.465 0-8.242 3.176-9.186 7.383L14.165 21.29c4.12-1.03 7.297-4.807 7.297-9.272zm-18.887.086c0 2.404.944 4.722 2.747 6.525s4.207 2.747 6.525 2.747l-9.272-9.272z"/><path fill="#639" d="M12.019 0C5.409 0 0 5.408 0 12.019c0 6.61 5.408 12.019 12.019 12.019 6.61 0 12.019-5.409 12.019-12.02C24.038 5.409 18.629 0 12.018 0zM5.323 18.715c-1.803-1.803-2.748-4.207-2.748-6.524l9.358 9.271c-2.404-.086-4.808-.944-6.61-2.747zm8.756 2.49L2.833 9.958c.944-4.206 4.722-7.383 9.186-7.383 3.176 0 5.923 1.546 7.64 3.864l-1.287 1.116c-1.46-1.975-3.778-3.263-6.353-3.263-3.348 0-6.181 2.147-7.297 5.151l9.872 9.873c2.49-.858 4.379-3.005 4.98-5.58h-4.121v-1.717h6.01c0 4.464-3.177 8.241-7.384 9.186z"/></g></svg>