<svg xmlns="http://www.w3.org/2000/svg" viewBox="0 0 430 397"><path d="m429.05 226.61-24-74L357.36 6a8.19 8.19 0 0 0-15.58 0l-47.66 146.62H135.88L88.22 6a8.19 8.19 0 0 0-15.58 0L25 152.62l-24 74a16.38 16.38 0 0 0 6 18.31l208 151.16 208.1-151.17a16.38 16.38 0 0 0 6-18.31"/><path d="m215 396.09 79.12-243.47H135.88z"/><path fill-opacity=".5" d="m215 396.09-79.12-243.47H25z"/><path d="m25 152.62-24 74a16.37 16.37 0 0 0 6 18.31l208 151.16L25 152.62zm0 0h110.88L88.22 6a8.19 8.19 0 0 0-15.58 0L25 152.62z"/><path fill-opacity=".5" d="m215 396.09 79.12-243.47H405z"/><path d="m405 152.62 24 74a16.37 16.37 0 0 1-6 18.31L215 396.09l190-243.47z"/><path d="M405 152.62H294.12L341.78 6a8.19 8.19 0 0 1 15.58 0L405 152.62z"/></svg>