<svg width="240" height="240" xmlns="http://www.w3.org/2000/svg" xmlns:xlink="http://www.w3.org/1999/xlink" viewBox="0 0 240 240"><defs><path id="id-10a" d="M0 .168h184.527v212.084H0z"/><path id="id-12c" d="M.47.315h84.678V79.94H.47z"/></defs><g fill="none" fill-rule="evenodd"><path d="M0 0h240v240H0z"/><path d="M192.444 228.417c-23.516-7.422-39.505-29.236-39.505-53.9 0-24.676 16.008-46.499 39.505-53.9V92.41c-9.212 33.747-36.245 56.88-66.958 56.88-10.67 0-20.918-2.796-30.134-7.877a133.405 133.405 0 0016.3 61.505c22.42 17.106 50.421 27.268 80.792 27.28v-1.78" fill="#FFF"/><path d="M95.352 141.412c9.216 5.081 19.464 7.878 30.134 7.878 30.713 0 57.746-23.134 66.958-56.881V51.774c7.684-3.58 12.937-12.003 12.937-21.632l-.009-.855s-27.924-.283-47.205 15.35h-3.83c-5.2 2.426-14.473 6.667-20.306 13.441a26.652 26.652 0 00-2.107 2.796 22.68 22.68 0 01-3.887 4.514c-2.89 2.608-6.45 4.62-10.31 6.06-8.595 4.801-17.535 4.755-24.127 1.71-8.67-2.102-14.557-7.513-12.122-16.017.709-2.483 2.128-5.232 4.398-8.238 1.508-2.003 2.618-3.351 3.44-4.266h-.575c-21.422-15.633-52.458-15.35-52.458-15.35l-.019.855c0 11.658 8.564 21.548 20.103 23.215a100.737 100.737 0 018.604 4.229 133.5 133.5 0 00-5.865 36.866c6.304 21.106 19.585 37.77 36.246 46.96" fill="#FFF"/><path d="M108.518 202.917a133.397 133.397 0 01-16.3-61.505c-16.661-9.19-29.943-25.854-36.247-46.96a149.23 149.23 0 00-.018 2.323c0 43.29 20.616 81.765 52.565 106.142" fill="#2CC28C"/><path d="M85.606 45.261h69.426" stroke="#147853" stroke-linecap="round" stroke-linejoin="round"/><g transform="translate(27.6 23.478)"><mask id="id-11b" fill="#fff"><use xlink:href="#id-10a"/></mask><path d="M48.863 51.091a17.878 17.878 0 00-6.696 5.489 17.939 17.939 0 00-3.53 10.714c0 4.953 2.01 9.438 5.251 12.68a17.88 17.88 0 0012.677 5.25 17.95 17.95 0 008.95-2.363 17.86 17.86 0 004.992-4.263A96.87 96.87 0 0048.863 51.09zm-12.081-4.959a29.12 29.12 0 012.774-2.292c-.643-.438-1.288-.87-1.94-1.294a127.71 127.71 0 00-.834 3.586zm119.399 154.94V95.263c-4.574 7.27-10.075 13.645-16.275 18.928-12.768 10.877-28.47 17.15-45.155 17.15-8.364 0-16.494-1.584-24.143-4.537a128.657 128.657 0 003.783 21.492 127.793 127.793 0 0010.777 27.424c19.958 14.95 44.434 24.203 71.013 25.35zm2.87-177.625a5.83 5.83 0 01.665-.31c2.094-1.045 3.947-2.596 5.439-4.508 1.54-1.978 2.696-4.348 3.351-6.96-8.768.828-25.202 3.718-37.597 13.765a5.513 5.513 0 01-7.752-.8 5.512 5.512 0 01.8-7.75C144.812-.027 174.552.278 174.637.278a5.53 5.53 0 015.53 5.53l-.013.363.022.492c0 7.075-2.373 13.654-6.338 18.748a27.314 27.314 0 01-6.599 6.097v36.415c.073.51.075 1.038 0 1.567v131.593a126.986 126.986 0 0011.065-.947 5.513 5.513 0 016.176 4.753 5.512 5.512 0 01-4.752 6.174c-3.06.399-6.062.7-8.977.885-3.089.2-6.085.304-8.972.304-38.368 0-73.11-15.555-98.255-40.7-25.147-25.147-40.7-59.888-40.7-98.256 0-6.9.52-13.805 1.545-20.645l.031-.182a137.414 137.414 0 013.289-15.572 94.104 94.104 0 00-3.568-1.672 28.913 28.913 0 01-17.037-9.604C2.652 20.503 0 13.845 0 6.664c0-.179.013-.355.028-.53l-.01-.326c0-.32.026-.633.082-.937l.006-.04.017-.098.008-.038A5.513 5.513 0 016.724.291c6.04.129 34.13 1.54 54.52 16.42a5.505 5.505 0 011.211 7.685 5.505 5.505 0 01-7.687 1.21c-14.275-10.419-33.343-13.231-43.02-13.99a17.89 17.89 0 0014.662 12.8c.648.09 1.256.294 1.805.586a108.137 108.137 0 018.442 4.15c.159.079.316.163.467.257l.025.016a107.667 107.667 0 0145.057 47.89c6.78-13.864 15.848-25.544 26.434-34.39 13.858-11.582 30.347-18.331 47.76-18.833.25-.006.499.004.743.028a13.944 13.944 0 001.909-.673zm-30.007 19.015c8.166-4.254 16.945-6.775 26.008-7.282a5.64 5.64 0 001.129.197v32.836c-4.373 15.475-12.721 28.462-23.448 37.602-10.77 9.175-23.983 14.467-37.982 14.467-13.203 0-25.754-4.718-36.208-13.012-4.615-3.66-8.828-8.012-12.52-12.965a28.923 28.923 0 0010.542 1.978c5.122 0 10.09-1.382 14.435-3.88a28.938 28.938 0 004.354-3.066 94.362 94.362 0 011.48 4.185l.018.046.028.088.016.038c.107.298.235.583.389.85l.066.11.003.008.066.104.006.012.288.411.01.012.015.02.004.006.15.181.016.022.072.079.018.022.072.075.02.022.071.075.022.02.075.074.02.02.078.071.018.02.082.07.019.017.085.072.019.012.084.073.019.012c.273.22.573.405.893.567l.013.01a5.529 5.529 0 007.705-3.069 111.766 111.766 0 013.648-8.99 29.041 29.041 0 008.737 7.72c4.344 2.499 9.312 3.881 14.434 3.881 8 0 15.25-3.248 20.495-8.492 5.244-5.244 8.491-12.494 8.491-20.497a28.944 28.944 0 00-5.736-17.278 29.123 29.123 0 00-8.319-7.554zM96.437 74.234a5.488 5.488 0 012.176 2.1 17.93 17.93 0 006.552 6.527 17.946 17.946 0 008.948 2.363c4.95 0 9.436-2.01 12.677-5.25a17.883 17.883 0 005.25-12.68c0-3.975-1.294-7.708-3.529-10.714a17.922 17.922 0 00-9.222-6.46 5.483 5.483 0 01-1.282-.568c-.771.596-1.53 1.21-2.282 1.837-7.342 6.134-13.874 13.84-19.288 22.845zm-30.81 83.398a141.224 141.224 0 01-1.906-6.527 138.8 138.8 0 01-4.52-29.938 74.663 74.663 0 01-7.523-5.258c-5.536-4.392-10.57-9.638-14.94-15.613 4.655 21.657 14.795 41.28 28.889 57.336z" fill="#147853" mask="url(#id-11b)"/></g><path d="M127.43 34.644c-.21 2.738-.276 5.353-.354 7.649l1.229-.049c13.677-.65 22.567-6.188 25.667-8.458 1.285 5.413.693 8.298 1.186 9.085.181.291-.549.814-1.874 1.59-4.315 2.516-14.947 7.66-21.048 15.904-42.871 3.793-48.7-5.619-48.7-5.619 1.408-2.178 3.203-4.51 5.439-6.996 0 0-.035-3.788.816-8.826 0 0 7.163 1.394 16.553 2.404a69.53 69.53 0 00-.32 2.932c.091-1.008.205-1.982.335-2.93.398-2.913.96-5.557 1.65-7.955l-.06-.009a162.905 162.905 0 01-15.902-3.186c1.256-3.443 3.022-6.85 5.51-9.642.076-.085.155-.17.233-.254 1.266.343 8.063 1.237 15.185 2.156 7.808-11.564 19.398-12.329 21.778-12.23l.109.006.3.063c1.154.254 2.27.577 3.337.974a18.925 18.925 0 00-4.996 4.376c-2.108 2.623-3.493 5.711-4.417 8.95l2.356-.076c7.144-.355 12.45-2.877 16.22-5.649 1.552 2.67 2.764 5.098 3.715 7.292-2.573 2.36-9.935 7.834-23.423 8.476l-.524.022zM79.752 63.287c-4.024 19.357 32.27 20.253 47.044 4.807-34.014 2.913-44.327-2.58-47.044-4.807z" fill="#FFF"/><g transform="translate(75.809 5.4)"><mask id="id-13d" fill="#fff"><use xlink:href="#id-12c"/></mask><path d="M59.053 4.816C46.063 2.11 28.41 8.002 21.981 14.884c2.395.647 24.557 3.273 31.296 4.296a72.44 72.44 0 002.356-.077c7.145-.355 12.451-2.877 16.22-5.649a35.336 35.336 0 00-.268-.457c-2.033-3.449-5.16-5.752-8.894-7.144a18.925 18.925 0 00-4.997 4.376c1.445-4.644-.125-5.503 1.359-5.413zM3.943 57.887c2.717 2.228 13.03 7.72 47.044 4.807 1.388-1.452 2.588-3.048 3.544-4.787a25.922 25.922 0 011.896-2.942c-42.871 3.793-48.699-5.619-48.699-5.619-2.043 3.166-3.257 6.011-3.785 8.541zM16.238 24.78c-1.097 3.013-1.802 6.056-2.256 8.744 0 0 7.164 1.394 16.554 2.404 6.4.691 13.833 1.2 20.731.965.413-.012.822-.03 1.229-.049 13.678-.65 22.567-6.188 25.668-8.458-.508-2.141-1.314-4.678-2.596-7.64-2.573 2.36-9.935 7.834-23.423 8.476-.175.009-.347.016-.524.022-6.528.262-13.434-.382-19.48-1.278a162.905 162.905 0 01-15.903-3.186z" fill="#2CC28C" mask="url(#id-13d)"/><path d="M48.833 53.13c-13.673-.094-27.415-3.035-33.624-4.555-3.706 5.069-4.37 9.535-3.054 12.9.934 2.387 2.897 4.356 5.455 5.654 2.833 1.435 6.379 2.069 10.165 1.633 7.162-.825 15.081-5.477 21.058-15.633zm16.003-38.49c-3.188 2.855-4.787 6.494-5.395 10.215-.871 5.344.082 10.827 1.36 14.836 3.65-1.648 7.126-3.018 9.966-4.134l3.11-1.235c.112-2.408-.315-6.997-5.64-16.034l.01-.007-.01-.015c-.765-1.3-1.783-2.407-2.978-3.317l-.423-.31zM29.104 40.195c1.787-14.288 7.677-22.77 14.147-27.782-3.548.84-6.89 2.14-9.652 3.767-2.062 1.214-3.748 2.593-4.855 4.047-4.837 6.348-7.539 13.504-8.909 18.112a165.56 165.56 0 009.269 1.856zm19.98-28.716c-7.576 4.056-15.547 12.34-17.623 29.105 5.7.883 12.235 1.567 18.617 1.514-1.57-5.377-2.617-12.3-1.52-19.012.668-4.081 2.075-8.106 4.539-11.73a34.658 34.658 0 00-2.787.038l-1.226.085zM8.064 39.807c1-4.364 4.254-16.222 11.915-26.274 1.978-2.596 4.761-4.922 8.047-6.856C34.032 3.138 41.975.784 49.746.38 55.46.078 61.178.822 66.15 2.88c.306.103.604.232.893.39a25.252 25.252 0 014.912 2.914 22.499 22.499 0 015.777 6.492l.01-.006c7.757 13.162 7.372 20.108 7.058 23.422.975 2.651-.125 4.862-3.018 6.67a4.959 4.959 0 01-.508.279c-1.486.825-3.702 1.702-6.489 2.796-3.633 1.427-8.35 3.285-12.723 5.433-7.952 18.782-21.115 27.092-33.033 28.462-5.978.69-11.693-.376-16.385-2.756-4.962-2.513-8.82-6.503-10.77-11.485C-.977 58.22.24 49.098 8.063 39.807z" fill="#147853" mask="url(#id-13d)"/></g><path d="M117.797 52.732s12.704 1.317 35.487-8.272" stroke="#147853" stroke-linecap="round" stroke-linejoin="round"/><path d="M125.021 66.757c17.203-6.64 36.534 1.922 43.175 19.125 6.641 17.203-1.922 36.535-19.125 43.175-17.203 6.641-36.534-1.922-43.175-19.125-6.641-17.203 1.922-36.534 19.125-43.175" fill="#FFF"/><path fill="#2CC28C" d="M138.894 128.9l3.918 10.145 14.16-5.466 2.636-1.017-3.917-10.146-16.797 6.483"/><path d="M146.65 76.23a23.651 23.651 0 00-18.133-.447l-.01.002A23.634 23.634 0 00115.373 88.3a23.682 23.682 0 00-.53 17.943c.063.131.117.266.157.407a23.643 23.643 0 0012.438 12.93 23.667 23.667 0 0017.943.528c.129-.06.26-.114.398-.154a23.63 23.63 0 0012.943-12.442 23.68 23.68 0 00.47-18.077l-.028-.075a23.631 23.631 0 00-12.513-13.128zm-20.058-5.613a29.145 29.145 0 0122.284.56c6.834 3.029 12.523 8.668 15.43 16.195l.005.015a29.143 29.143 0 01-.535 22.35 29.268 29.268 0 01-7.324 10.034c.8.228 1.486.818 1.809 1.652l3.887 10.075.029.072a2.76 2.76 0 01-1.577 3.564l-16.724 6.454-.072.028a2.76 2.76 0 01-3.564-1.576l-3.887-10.075-.028-.073a2.752 2.752 0 01.452-2.755 29.188 29.188 0 01-11.564-2.504c-6.837-3.029-12.526-8.67-15.432-16.197l-.031-.085a29.153 29.153 0 01.57-22.277c3.029-6.837 8.67-12.524 16.2-15.429l.072-.028zm17.798 64.865l11.652-4.498-1.931-5.003-11.651 4.498 1.93 5.003z" fill="#147853"/><path d="M135.279 85.547c6.592.311 11.682 5.905 11.37 12.497-.31 6.593-5.904 11.682-12.497 11.37-6.592-.31-11.681-5.904-11.37-12.496.31-6.592 5.904-11.682 12.497-11.371" fill="#2CC28C"/><path d="M134.994 91.584a5.902 5.902 0 015.618 6.175 5.902 5.902 0 01-6.175 5.618 5.902 5.902 0 01-5.618-6.174 5.902 5.902 0 016.175-5.619" fill="#147853"/><path d="M138.08 91.73a2.812 2.812 0 11-.265 5.62 2.812 2.812 0 01-2.677-2.942 2.812 2.812 0 012.942-2.678m7.365 46.299l16.437 42.579 11.528-4.45-16.437-42.58-11.528 4.45" fill="#FFF"/><path d="M154.606 138.924l-3.815 1.473 13.458 34.866 3.818-1.47-13.46-34.869zm-10.648-4.75l11.526-4.451a4.136 4.136 0 015.345 2.367l16.438 42.58a4.135 4.135 0 01-2.367 5.346l-11.529 4.447a4.135 4.135 0 01-5.345-2.366l-16.435-42.578a4.134 4.134 0 012.367-5.344z" fill="#147853"/><path d="M120.244 105.094l.081.207-.08-.207zm10.864-23.986l-.215.08h.01l.205-.08zm13.483-.223a18.61 18.61 0 00-14.178-.376l-.172.066a18.556 18.556 0 00-10.216 9.787 18.599 18.599 0 00-.38 14.174l.066.173a18.557 18.557 0 009.79 10.218 18.572 18.572 0 0014.25.349 18.573 18.573 0 0010.316-9.827 18.599 18.599 0 00.351-14.247 18.57 18.57 0 00-9.827-10.317zm-15.043-2.592a20.981 20.981 0 0116.003.411 20.94 20.94 0 0111.086 11.638 20.96 20.96 0 01-.388 16.066 20.947 20.947 0 01-11.64 11.087 20.946 20.946 0 01-16.067-.385 20.928 20.928 0 01-11.088-11.64l-.024-.068a20.97 20.97 0 01.413-16c2.176-4.912 6.232-9 11.636-11.084l.069-.025z" fill="#CCC"/><path d="M149.804 174.517c0 24.664 10.46 42.607 33.977 50.032V122.683c-23.498 7.398-33.977 27.158-33.977 51.834" fill="#2CC28C"/><path d="M190.971 223.149a5.526 5.526 0 01-3.323 10.538c-12.892-4.068-23.738-12.1-31.358-22.494-7.62-10.398-12.016-23.156-12.016-36.676 0-13.525 4.401-26.287 12.028-36.69a61.999 61.999 0 0131.406-22.492 5.52 5.52 0 013.285 10.538 50.954 50.954 0 00-35.66 48.644 50.933 50.933 0 0035.638 48.631M78.732 96.474a2.756 2.756 0 01-3.83.703 2.756 2.756 0 01-.702-3.83c.943-1.368 2.128-2.459 3.448-3.212l-.003-.002a9.023 9.023 0 014.488-1.216c1.63 0 3.21.457 4.63 1.297l.182.119c1.276.797 2.42 1.922 3.316 3.308a2.756 2.756 0 01-4.62 3.003c-.445-.687-.987-1.238-1.57-1.615l-.116-.063a3.582 3.582 0 00-1.822-.52c-.608 0-1.21.17-1.748.476l-.004-.002-.007.002c-.608.345-1.175.875-1.642 1.552" fill="#147853"/></g></svg>