<svg xmlns="http://www.w3.org/2000/svg" viewBox="0 0 240 240"><g fill="none" fill-rule="evenodd"><path d="M0 0h240v240H0z"/><path fill="#FFF" d="M192.444 228.417c-23.516-7.423-39.505-29.236-39.505-53.9 0-24.676 16.008-46.5 39.505-53.9V92.408c-9.212 33.748-36.245 56.881-66.958 56.881-10.67 0-20.918-2.796-30.134-7.877a133.405 133.405 0 0 0 16.3 61.505c22.42 17.106 50.421 27.268 80.792 27.28v-1.78"/><path fill="#FFF" d="M95.352 141.412c9.216 5.081 19.464 7.877 30.134 7.877 30.713 0 57.746-23.133 66.958-56.88V51.773c7.684-3.58 12.937-12.003 12.937-21.632l-.009-.856s-27.924-.282-47.205 15.35h-3.83c-5.2 2.427-14.473 6.668-20.306 13.442a26.652 26.652 0 0 0-2.107 2.796 22.68 22.68 0 0 1-3.887 4.514c-2.89 2.608-6.45 4.62-10.31 6.059-8.595 4.802-17.535 4.755-24.127 1.711-8.67-2.103-14.557-7.513-12.122-16.018.709-2.482 2.128-5.23 4.398-8.237 1.508-2.004 2.618-3.351 3.44-4.267h-.575c-21.422-15.632-52.458-15.35-52.458-15.35l-.019.856c0 11.658 8.564 21.547 20.103 23.215a100.737 100.737 0 0 1 8.604 4.229 133.5 133.5 0 0 0-5.865 36.866c6.304 21.106 19.585 37.77 36.246 46.96"/><path fill="#2CC28C" d="M108.518 202.917a133.397 133.397 0 0 1-16.3-61.505c-16.661-9.19-29.943-25.854-36.247-46.96a149.23 149.23 0 0 0-.018 2.323c0 43.29 20.616 81.764 52.565 106.142"/><path stroke="#147853" stroke-linecap="round" stroke-linejoin="round" d="M85.606 45.261h69.426"/><path fill="#147853" d="M76.463 74.568a17.878 17.878 0 0 0-6.696 5.489 17.939 17.939 0 0 0-3.53 10.714c0 4.953 2.01 9.438 5.251 12.68a17.88 17.88 0 0 0 12.677 5.25 17.95 17.95 0 0 0 8.95-2.363 17.86 17.86 0 0 0 4.992-4.263 96.87 96.87 0 0 0-21.644-27.507zM64.382 69.61a28.82 28.82 0 0 1 2.774-2.292c-.643-.439-1.288-.871-1.94-1.295a127.71 127.71 0 0 0-.834 3.587zM183.78 224.548V118.742c-4.574 7.269-10.075 13.645-16.275 18.927-12.768 10.877-28.47 17.15-45.155 17.15-8.364 0-16.494-1.583-24.143-4.537a128.657 128.657 0 0 0 3.783 21.492 127.793 127.793 0 0 0 10.777 27.425c19.958 14.948 44.434 24.202 71.013 25.35zm2.87-177.624c.214-.116.436-.22.665-.31 2.094-1.044 3.947-2.596 5.439-4.508 1.54-1.978 2.696-4.348 3.351-6.959-8.768.828-25.202 3.718-37.597 13.764a5.513 5.513 0 0 1-7.752-.799 5.512 5.512 0 0 1 .8-7.752c20.855-16.908 50.595-16.604 50.68-16.604a5.53 5.53 0 0 1 5.53 5.53l-.013.363.022.492c0 7.075-2.373 13.654-6.338 18.748a27.314 27.314 0 0 1-6.599 6.097v36.415a5.565 5.565 0 0 1 0 1.568V224.56a126.986 126.986 0 0 0 11.065-.947 5.513 5.513 0 0 1 6.176 4.753 5.512 5.512 0 0 1-4.752 6.175c-3.06.398-6.062.699-8.977.884-3.089.2-6.085.304-8.972.304-38.368 0-73.11-15.555-98.255-40.7-25.147-25.146-40.7-59.888-40.7-98.256 0-6.9.52-13.805 1.545-20.645l.031-.182a137.414 137.414 0 0 1 3.289-15.572 94.104 94.104 0 0 0-3.568-1.671A28.913 28.913 0 0 1 34.684 49.1C30.252 43.98 27.6 37.323 27.6 30.14c0-.177.013-.353.028-.529l-.01-.325c0-.32.026-.634.082-.938l.006-.04.017-.098.008-.038a5.515 5.515 0 0 1 6.593-4.403c6.04.128 34.13 1.539 54.52 16.419a5.505 5.505 0 0 1 1.211 7.686 5.505 5.505 0 0 1-7.687 1.21c-14.275-10.42-33.343-13.232-43.02-13.99A17.89 17.89 0 0 0 54.01 47.893c.648.09 1.256.295 1.805.586a108.137 108.137 0 0 1 8.442 4.15c.159.079.316.163.467.257l.025.016a107.667 107.667 0 0 1 45.057 47.89c6.78-13.864 15.848-25.543 26.434-34.39C150.098 54.82 166.587 48.072 184 47.57c.25-.006.499.003.743.028a13.944 13.944 0 0 0 1.909-.674zM156.645 65.94c8.166-4.254 16.945-6.775 26.008-7.282a5.5 5.5 0 0 0 1.129.197V91.69c-4.373 15.476-12.721 28.462-23.448 37.603-10.77 9.175-23.983 14.466-37.982 14.466-13.203 0-25.754-4.717-36.208-13.011-4.615-3.661-8.828-8.012-12.52-12.966a28.923 28.923 0 0 0 10.542 1.979c5.122 0 10.09-1.383 14.435-3.881a28.938 28.938 0 0 0 4.354-3.066 94.362 94.362 0 0 1 1.48 4.185l.018.047.028.087.016.038c.107.299.235.583.389.85l.066.11.003.009.066.104.006.012.288.41.01.013.015.02.004.005.15.182.016.022.072.078.018.022.072.075.02.022.071.075.022.02.075.075.02.018.078.073.018.018.082.072.019.016.085.073.019.012.084.072.019.013c.273.219.573.404.893.567l.013.01a5.529 5.529 0 0 0 7.705-3.069 111.766 111.766 0 0 1 3.648-8.99 29.041 29.041 0 0 0 8.737 7.72c4.344 2.498 9.312 3.88 14.434 3.88 8 0 15.25-3.247 20.495-8.491 5.244-5.244 8.491-12.495 8.491-20.498a28.944 28.944 0 0 0-5.736-17.278 29.123 29.123 0 0 0-8.319-7.554zm-32.607 31.772a5.488 5.488 0 0 1 2.176 2.1 17.93 17.93 0 0 0 6.552 6.527 17.946 17.946 0 0 0 8.948 2.364c4.95 0 9.436-2.01 12.677-5.251a17.883 17.883 0 0 0 5.25-12.68c0-3.974-1.294-7.708-3.529-10.714a17.922 17.922 0 0 0-9.222-6.46 5.483 5.483 0 0 1-1.282-.568c-.771.596-1.53 1.21-2.282 1.837-7.342 6.134-13.874 13.84-19.288 22.845zm-30.81 83.398a141.224 141.224 0 0 1-1.906-6.527 138.8 138.8 0 0 1-4.52-29.938 74.663 74.663 0 0 1-7.523-5.258c-5.536-4.391-10.57-9.638-14.94-15.613 4.655 21.657 14.795 41.28 28.889 57.336z"/><path fill="#FFF" d="M127.43 34.644c-.21 2.738-.276 5.353-.354 7.649l1.229-.05c13.677-.65 22.567-6.187 25.667-8.458 1.285 5.414.693 8.299 1.186 9.086.181.29-.549.814-1.874 1.59-4.315 2.515-14.947 7.66-21.048 15.903-42.871 3.794-48.7-5.618-48.7-5.618 1.408-2.179 3.203-4.51 5.439-6.996 0 0-.035-3.789.816-8.826 0 0 7.163 1.394 16.553 2.404a69.53 69.53 0 0 0-.32 2.931c.091-1.007.205-1.982.335-2.928.398-2.914.96-5.558 1.65-7.956l-.06-.009a162.905 162.905 0 0 1-15.902-3.186c1.256-3.443 3.022-6.85 5.51-9.643.076-.084.155-.168.233-.253 1.266.343 8.063 1.237 15.185 2.156 7.808-11.565 19.398-12.33 21.778-12.23.039.003.075.004.109.005.1.02.2.044.3.064 1.154.254 2.27.577 3.337.973a18.925 18.925 0 0 0-4.996 4.377c-2.108 2.623-3.493 5.711-4.417 8.95l2.356-.076c7.144-.355 12.45-2.877 16.22-5.649 1.552 2.67 2.764 5.097 3.715 7.292-2.573 2.36-9.935 7.834-23.423 8.476l-.524.022zM79.752 63.287c-4.024 19.357 32.27 20.252 47.044 4.807-34.014 2.912-44.327-2.58-47.044-4.807z"/><path fill="#2CC28C" d="M134.862 10.215c-12.99-2.704-30.643 3.187-37.071 10.07 2.395.646 24.557 3.272 31.296 4.294a72.44 72.44 0 0 0 2.355-.076c7.145-.355 12.452-2.877 16.22-5.649a30.174 30.174 0 0 0-.267-.457c-2.033-3.45-5.161-5.753-8.895-7.145a18.925 18.925 0 0 0-4.996 4.377c1.445-4.644-.125-5.503 1.358-5.414zm-55.11 53.072c2.718 2.228 13.03 7.72 47.045 4.807 1.387-1.452 2.588-3.048 3.544-4.787a25.922 25.922 0 0 1 1.895-2.943c-42.87 3.794-48.698-5.618-48.698-5.618-2.044 3.166-3.258 6.01-3.785 8.541zM92.049 30.18c-1.098 3.013-1.803 6.056-2.257 8.744 0 0 7.164 1.394 16.554 2.404 6.4.69 13.833 1.2 20.732.965a69.56 69.56 0 0 0 1.228-.05c13.678-.65 22.567-6.187 25.668-8.458-.508-2.14-1.313-4.677-2.595-7.639-2.573 2.36-9.935 7.834-23.423 8.476-.176.008-.348.016-.524.022-6.529.261-13.434-.383-19.481-1.278a162.905 162.905 0 0 1-15.902-3.186z"/><path fill="#147853" d="M124.643 58.53c-13.673-.095-27.415-3.035-33.625-4.555-3.705 5.068-4.37 9.535-3.053 12.899.934 2.388 2.896 4.357 5.454 5.654 2.834 1.436 6.379 2.07 10.165 1.633 7.163-.824 15.082-5.476 21.059-15.632zm16.003-38.49c-3.189 2.855-4.787 6.494-5.395 10.215-.872 5.344.082 10.827 1.36 14.836 3.649-1.649 7.125-3.018 9.966-4.135l3.109-1.234c.112-2.408-.314-6.997-5.64-16.034l.01-.007-.01-.015c-.764-1.3-1.783-2.408-2.977-3.317l-.423-.31zm-35.732 25.556c1.787-14.288 7.677-22.77 14.146-27.783-3.548.84-6.89 2.141-9.652 3.768-2.062 1.213-3.748 2.593-4.855 4.047-4.837 6.347-7.538 13.504-8.908 18.112a165.56 165.56 0 0 0 9.269 1.856zm19.98-28.717c-7.577 4.057-15.548 12.341-17.624 29.106 5.7.883 12.235 1.567 18.618 1.514-1.571-5.377-2.618-12.3-1.52-19.012.667-4.082 2.074-8.106 4.538-11.73a34.785 34.785 0 0 0-2.787.037l-1.225.085zm-41.02 28.328c1-4.364 4.254-16.222 11.915-26.275 1.978-2.595 4.761-4.921 8.047-6.855 6.006-3.539 13.949-5.893 21.72-6.298 5.714-.3 11.431.442 16.403 2.502.307.103.605.232.893.389a25.252 25.252 0 0 1 4.912 2.915 22.499 22.499 0 0 1 5.777 6.492l.01-.006c7.758 13.162 7.372 20.108 7.059 23.422.975 2.651-.125 4.861-3.018 6.67a4.959 4.959 0 0 1-.509.278c-1.485.825-3.702 1.703-6.488 2.797-3.633 1.426-8.351 3.285-12.723 5.432-7.953 18.783-21.116 27.093-33.033 28.463-5.978.69-11.693-.376-16.385-2.756-4.963-2.514-8.821-6.504-10.771-11.485-2.849-7.272-1.633-16.394 6.191-25.685z"/><path fill="#FFF" d="M125.021 66.757c17.203-6.641 36.534 1.922 43.175 19.125 6.641 17.203-1.922 36.534-19.125 43.175-17.203 6.64-36.534-1.922-43.175-19.125-6.641-17.203 1.922-36.535 19.125-43.175"/><path fill="#2CC28C" d="m138.894 128.899 3.918 10.146 14.161-5.466 2.635-1.017-3.917-10.146-16.797 6.483"/><path fill="#147853" d="M146.65 76.23a23.651 23.651 0 0 0-18.133-.448l-.01.003A23.634 23.634 0 0 0 115.373 88.3a23.682 23.682 0 0 0-.53 17.943 2.5 2.5 0 0 1 .157.407 23.643 23.643 0 0 0 12.438 12.93 23.667 23.667 0 0 0 17.943.527 2.9 2.9 0 0 1 .398-.154 23.63 23.63 0 0 0 12.943-12.44 23.68 23.68 0 0 0 .47-18.078l-.028-.075a23.631 23.631 0 0 0-12.513-13.129zm-20.058-5.613a29.145 29.145 0 0 1 22.284.56c6.834 3.029 12.523 8.668 15.43 16.194l.005.016a29.143 29.143 0 0 1-.535 22.35 29.268 29.268 0 0 1-7.324 10.034c.8.228 1.486.818 1.809 1.652l3.887 10.075.029.071a2.76 2.76 0 0 1-1.577 3.564l-16.724 6.455-.072.028a2.76 2.76 0 0 1-3.564-1.577l-3.887-10.075-.028-.072a2.752 2.752 0 0 1 .452-2.755 29.188 29.188 0 0 1-11.564-2.504c-6.837-3.029-12.526-8.67-15.432-16.197l-.031-.085a29.153 29.153 0 0 1 .57-22.277c3.029-6.837 8.67-12.524 16.2-15.43l.072-.027zm17.798 64.865 11.652-4.499-1.931-5.003-11.651 4.499 1.93 5.003z"/><path fill="#2CC28C" d="M135.279 85.547c6.592.311 11.682 5.905 11.37 12.497-.31 6.593-5.904 11.682-12.497 11.37-6.592-.31-11.681-5.904-11.37-12.497.31-6.592 5.904-11.681 12.497-11.37"/><path fill="#147853" d="M134.994 91.584a5.902 5.902 0 0 1 5.618 6.175 5.902 5.902 0 0 1-6.175 5.618 5.902 5.902 0 0 1-5.618-6.175 5.902 5.902 0 0 1 6.175-5.618"/><path fill="#FFF" d="M138.08 91.73a2.812 2.812 0 1 1-.265 5.62 2.812 2.812 0 0 1-2.677-2.942 2.812 2.812 0 0 1 2.942-2.678m7.365 46.299 16.437 42.579 11.528-4.45-16.437-42.579-11.528 4.45"/><path fill="#147853" d="m154.606 138.924-3.815 1.473 13.458 34.866 3.818-1.47-13.46-34.87zm-10.648-4.75 11.526-4.451a4.136 4.136 0 0 1 5.345 2.367l16.438 42.58a4.135 4.135 0 0 1-2.367 5.346l-11.529 4.447a4.135 4.135 0 0 1-5.345-2.366l-16.435-42.579a4.134 4.134 0 0 1 2.367-5.343z"/><path fill="#CCC" d="m120.244 105.094.081.207-.08-.207zm10.864-23.986-.215.08h.01l.205-.08zm13.483-.223a18.61 18.61 0 0 0-14.178-.376l-.172.066a18.556 18.556 0 0 0-10.216 9.787 18.599 18.599 0 0 0-.38 14.174l.066.173a18.557 18.557 0 0 0 9.79 10.218 18.572 18.572 0 0 0 14.25.348 18.573 18.573 0 0 0 10.316-9.826 18.599 18.599 0 0 0 .351-14.247 18.57 18.57 0 0 0-9.827-10.317zm-15.043-2.592a20.981 20.981 0 0 1 16.003.41 20.94 20.94 0 0 1 11.086 11.64 20.96 20.96 0 0 1-.388 16.065 20.947 20.947 0 0 1-11.64 11.087 20.946 20.946 0 0 1-16.067-.386 20.928 20.928 0 0 1-11.088-11.639l-.024-.069a20.97 20.97 0 0 1 .413-15.999c2.176-4.912 6.232-9 11.636-11.084l.069-.025z"/><path fill="#2CC28C" d="M149.804 174.517c0 24.664 10.46 42.607 33.977 50.032V122.683c-23.498 7.398-33.977 27.158-33.977 51.834"/><path fill="#147853" d="M190.971 223.148a5.526 5.526 0 0 1-3.323 10.539 61.982 61.982 0 0 1-31.358-22.494c-7.62-10.398-12.016-23.156-12.016-36.676 0-13.526 4.401-26.287 12.028-36.69a61.999 61.999 0 0 1 31.406-22.492 5.52 5.52 0 0 1 3.285 10.538 50.954 50.954 0 0 0-35.66 48.644 50.933 50.933 0 0 0 35.638 48.631M78.732 96.474a2.756 2.756 0 0 1-3.83.702 2.756 2.756 0 0 1-.702-3.83c.943-1.367 2.128-2.458 3.448-3.21l-.003-.003a9.023 9.023 0 0 1 4.488-1.216c1.63 0 3.21.457 4.63 1.297l.182.119c1.276.797 2.42 1.921 3.316 3.307a2.756 2.756 0 0 1-4.62 3.003c-.445-.687-.987-1.238-1.57-1.614l-.116-.063a3.582 3.582 0 0 0-1.822-.52c-.608 0-1.21.17-1.748.476l-.004-.003-.007.003c-.608.345-1.175.874-1.642 1.552"/></g></svg>