<svg xmlns="http://www.w3.org/2000/svg" width="2600" height="2600" viewBox="0 0 2600 2600"><defs><linearGradient id="id-14a" x1="67.673%" x2="40.808%" y1="40.311%" y2="81.641%"><stop offset="18%" stop-color="#0052CC"/><stop offset="100%" stop-color="#2684FF"/></linearGradient><linearGradient id="id-15b" x1="32.633%" x2="59.341%" y1="-23.325%" y2="17.855%"><stop offset="18%" stop-color="#0052CC"/><stop offset="100%" stop-color="#2684FF"/></linearGradient></defs><g fill="none" fill-rule="evenodd"><path fill="#FFF" fill-opacity="0" d="M0 0h2600v2600H0z"/><g fill-rule="nonzero"><path fill="#2684FF" d="M2465.658 1230.993L1402.668 168.002 1299.664 65 499.472 865.193l-365.91 365.8c-38.049 38.245-38.049 100.045 0 138.291l731.048 731.047 435.055 434.946 800.083-800.194 12.462-12.351 353.448-352.897a97.819 97.819 0 000-138.842zm-1165.993 434.393l-365.248-365.248 365.248-365.248 365.138 365.248-365.138 365.248z"/><path fill="url(#id-14a)" d="M1194.665 869.89C955.536 630.816 954.354 243.508 1192.02 2.978l-799.2 798.87 434.944 434.944 366.902-366.902z" transform="translate(105 65)"/><path fill="url(#id-15b)" d="M1560.796 1234.146l-366.13 366.24c240.106 240.172 240.106 629.498 0 869.67l801.406-800.965-435.276-434.945z" transform="translate(105 65)"/></g></g></svg>