<svg xmlns="http://www.w3.org/2000/svg" viewBox="0 0 2500 2500"><g fill="none" fill-rule="evenodd"><path stroke="#FFF" stroke-width="59.893" d="M2470.053 29.947v2440.106H29.947V29.947h2440.106z"/><text fill="#39393A" font-size="800"><tspan x="821" y="1132">💅</tspan></text><path fill="#FFF" fill-rule="nonzero" d="M348.145 1803.585c-34.812 0-57.736 18.68-57.736 43.585 0 22.075 13.585 36.792 44.434 45.283 28.019 7.924 33.962 11.887 33.962 24.34 0 11.32-10.472 18.113-26.604 18.113-15.283 0-29.15-5.944-40.754-14.717l-18.114 20.377c13.868 12.453 33.963 21.226 59.717 21.226 34.246 0 63.114-16.415 63.114-47.547 0-26.603-17.265-39.056-47.83-47.264-25.472-7.075-31.416-11.604-31.416-21.51 0-9.056 8.208-15 22.642-15 13.302 0 25.188 4.246 37.641 12.17l14.151-21.226c-14.15-11.038-31.698-17.83-53.207-17.83zm160.471 123.68 12.736 23.207c-10.755 7.641-24.34 11.32-37.641 11.32-29.434-.283-45-16.98-45-48.962v-78.962h-23.49v-26.038h23.49v-33.113l36.226-4.245v37.358h34.811l-3.679 26.038h-31.132v78.113c0 14.717 4.811 20.66 15.85 20.66 5.66 0 11.32-1.698 17.83-5.377zm154.246-119.435-48.68 150.283c-11.32 35.095-33.396 57.736-77.83 61.132l-3.679-26.32c29.717-4.529 39.34-14.151 47.83-35.378H568.05l-47.547-149.717h38.49l32.548 125.66 33.962-125.66h37.359zm57.452 153.962a59.351 59.351 0 0 0 24.057-5.094l-7.641-25.472c-2.548.85-5.095 1.416-8.491 1.416-5.943 0-8.49-3.397-8.49-10.472v-178.302l-36.227 3.962v175.472c0 24.623 13.868 38.49 36.792 38.49zm170.944-82.641c0 4.811-.566 10.755-.85 14.717h-93.961c2.547 30.566 16.98 40.472 36.792 40.472 13.302 0 24.34-4.246 37.358-13.302l15 20.66c-14.716 11.887-32.83 20.094-55.471 20.094-46.415 0-71.321-30.849-71.321-78.113 0-45.566 24.057-80.094 66.51-80.094 41.886 0 65.943 28.302 65.943 75.566zm-35.944-8.774v-1.698c0-24.622-8.773-39.34-29.15-39.34-16.982 0-27.736 11.321-29.717 41.038h58.867zm158.208-126.51 36.226 3.963v209.717h-31.98l-2.548-18.962c-9.056 13.585-23.49 23.207-42.736 23.207-37.358 0-56.887-31.415-56.887-78.962 0-46.132 23.208-79.245 60.284-79.245 15.849 0 28.301 6.792 37.641 16.132v-75.85zm-30.849 190.473c13.302 0 22.358-6.51 30.849-19.246v-68.49c-7.925-9.623-16.415-15.85-28.585-15.85-18.68 0-31.132 15.85-31.132 51.793 0 38.49 11.038 51.793 28.868 51.793zm-633.302 152.264c-43.019 0-69.906 32.547-69.906 80.377s26.887 77.83 70.19 77.83c19.244 0 34.81-6.226 48.395-17.264l-16.132-22.924c-11.037 7.075-18.962 10.754-30.283 10.754-20.377 0-33.679-12.735-33.679-48.962 0-35.943 12.736-51.226 33.68-51.226 11.32 0 20.377 3.396 30.282 10.754l16.132-21.792c-14.15-12.17-29.15-17.547-48.679-17.547zm136.132 0c44.151 0 70.189 30 70.189 78.962 0 47.264-26.32 79.245-70.472 79.245-44.15 0-70.472-30-70.472-79.245 0-46.981 26.321-78.962 70.755-78.962zm0 27.453c-21.226 0-32.547 16.132-32.547 51.509 0 35.943 11.038 51.792 32.264 51.792 21.227 0 32.264-16.132 32.264-51.792s-11.037-51.51-31.98-51.51zm262.925-27.453c-19.812 0-33.68 9.622-45 25.188-5.66-15.849-18.68-25.188-36.227-25.188-18.962 0-32.547 8.773-43.302 23.773l-2.83-19.528h-31.415v149.717h36.227v-104.15c8.207-13.869 15.849-22.642 28.584-22.642 8.774 0 16.416 5.377 16.416 24.056v102.736h36.226v-104.15c8.207-13.869 15.849-22.642 28.302-22.642 9.056 0 16.415 5.377 16.415 24.056v102.736h36.226V2132.17c0-28.302-15.849-45.566-39.622-45.566zm159.34 0c39.056 0 55.471 30.849 55.471 78.679 0 45.85-21.226 79.528-59.151 79.528-15.283 0-28.302-5.377-37.641-16.415v69.906l-36.227 3.962V2090.85h31.698l1.981 18.396c11.887-15.566 27.736-22.641 43.868-22.641zm-13.869 130.471c19.812 0 31.415-15.283 31.415-51.509 0-37.924-10.188-51.792-28.301-51.792-12.736 0-23.491 8.773-30.566 20.377v67.358c7.075 10.472 16.132 15.566 27.452 15.566zm166.132-130.471c44.151 0 70.19 30 70.19 78.962 0 47.264-26.322 79.245-70.473 79.245-44.15 0-70.471-30-70.471-79.245 0-46.981 26.32-78.962 70.754-78.962zm0 27.453c-21.226 0-32.547 16.132-32.547 51.509 0 35.943 11.038 51.792 32.264 51.792 21.227 0 32.265-16.132 32.265-51.792s-11.038-51.51-31.982-51.51zm183.963-27.453c-18.963 0-33.963 8.773-45.566 23.773l-2.83-19.528h-31.416v149.717h36.227v-104.15c8.773-13.869 18.396-22.642 31.415-22.642 11.32 0 18.396 5.377 18.396 24.056v102.736h36.227V2132.17c0-28.585-15.566-45.566-42.453-45.566zm207.453 75.566c0 4.811-.566 10.755-.85 14.717h-93.962c2.547 30.566 16.981 40.471 36.793 40.471 13.302 0 24.34-4.245 37.358-13.301l15 20.66c-14.717 11.887-32.83 20.094-55.472 20.094-46.415 0-71.32-30.849-71.32-78.113 0-45.566 24.056-80.094 66.51-80.094 41.886 0 65.943 28.302 65.943 75.566zm-35.944-8.774v-1.698c0-24.623-8.773-39.34-29.15-39.34-16.982 0-27.737 11.321-29.718 41.038h58.868zm148.302-66.792c-18.962 0-33.962 8.773-45.566 23.773l-2.83-19.528h-31.415v149.717h36.226v-104.15c8.774-13.869 18.396-22.642 31.415-22.642 11.321 0 18.396 5.377 18.396 24.056v102.736h36.227V2132.17c0-28.585-15.566-45.566-42.453-45.566zm157.642 123.679c-6.51 3.68-12.17 5.377-17.83 5.377-11.038 0-15.85-5.943-15.85-20.66v-78.113h31.132l3.68-26.038h-34.812v-37.358l-36.226 4.245v33.113h-23.49v26.038h23.49v78.962c0 31.981 15.566 48.68 45 48.962 13.302 0 26.887-3.679 37.641-11.32l-12.735-23.208zm80.377-123.68c-34.811 0-57.736 18.68-57.736 43.586 0 22.075 13.585 36.792 44.434 45.283 28.019 7.924 33.962 11.886 33.962 24.34 0 11.32-10.471 18.113-26.603 18.113-15.284 0-29.151-5.944-40.755-14.717l-18.113 20.377c13.868 12.453 33.962 21.226 59.717 21.226 34.245 0 63.113-16.415 63.113-47.547 0-26.604-17.264-39.056-47.83-47.264-25.472-7.075-31.416-11.604-31.416-21.51 0-9.056 8.208-15 22.642-15 13.302 0 25.189 4.246 37.641 12.17l14.151-21.226c-14.15-11.038-31.698-17.83-53.207-17.83zM627.358 685.536 342.768 862.42l284.59 180.032-29.088 36.163-296.383-185.534v-62.107L601.415 645.44M2089.623 823.9v61.32l-296.384 185.535-29.088-38.522 283.805-177.673-283.805-178.46 25.157-38.521"/></g></svg>