<svg xmlns="http://www.w3.org/2000/svg" xmlns:xlink="http://www.w3.org/1999/xlink" viewBox="0 0 800 800"><defs><filter id="svgo-viewbox-id-17d" width="103.6%" height="103.6%" x="-1.8%" y="-1.5%" filterUnits="objectBoundingBox"><feMorphology in="SourceAlpha" operator="dilate" radius="4" result="shadowSpreadOuter1"/><feOffset dy="2" in="shadowSpreadOuter1" result="shadowOffsetOuter1"/><feMorphology in="SourceAlpha" radius="4" result="shadowInner"/><feOffset dy="2" in="shadowInner" result="shadowInner"/><feComposite in="shadowOffsetOuter1" in2="shadowInner" operator="out" result="shadowOffsetOuter1"/><feGaussianBlur in="shadowOffsetOuter1" result="shadowBlurOuter1" stdDeviation="2"/><feColorMatrix in="shadowBlurOuter1" values="0 0 0 0 0 0 0 0 0 0 0 0 0 0 0 0 0 0 0.5 0"/></filter><filter id="svgo-viewbox-id-19f" width="102.8%" height="104.3%" x="-1.4%" y="-1.1%" filterUnits="objectBoundingBox"><feOffset dy="4" in="SourceAlpha" result="shadowOffsetOuter1"/><feGaussianBlur in="shadowOffsetOuter1" result="shadowBlurOuter1" stdDeviation="2"/><feColorMatrix in="shadowBlurOuter1" values="0 0 0 0 0 0 0 0 0 0 0 0 0 0 0 0 0 0 0.5 0"/></filter><circle id="svgo-viewbox-id-14a" cx="400" cy="400" r="400"/><circle id="svgo-viewbox-id-16c" cx="358.5" cy="358.5" r="358.5"/><path id="svgo-viewbox-id-18e" d="m120.034 503 93.741-238.2 56.833 160.535L300.882 503H363L249.766 212h-60.54L76 503m423.996 4.48c-35-35.093-52.505-84.785-52.505-149.079 0-64.16 17.504-113.792 52.509-148.886V172c-32.636 18.07-58.464 43.867-77.476 77.388C403.508 282.912 394 319.249 394 358.4c0 39.153 9.674 75.75 29.018 109.799C442.36 502.243 468.023 527.843 500 545l-.004-37.52zM535 545c31.977-17.157 57.639-42.757 76.982-76.8C631.326 434.152 641 397.554 641 358.4c0-39.152-9.508-75.489-28.524-109.013C593.459 215.867 567.636 190.07 535 172v37.515c35.005 35.094 52.505 84.721 52.505 148.886 0 64.294-17.505 113.986-52.505 149.08V545z"/></defs><g fill="none" fill-rule="evenodd"><mask id="svgo-viewbox-id-15b" fill="#fff"><use xlink:href="#svgo-viewbox-id-14a"/></mask><use xlink:href="#svgo-viewbox-id-14a" fill="#EF4C23"/><g fill-rule="nonzero" mask="url(#svgo-viewbox-id-15b)"><path fill="#005BBB" d="M-199 0h1200v800H-199z"/><path fill="#FFD500" d="M-199 400h1200v400H-199z"/></g><g transform="translate(42 42)"><use xlink:href="#svgo-viewbox-id-16c" fill="#000" filter="url(#svgo-viewbox-id-17d)"/><use xlink:href="#svgo-viewbox-id-16c" stroke="#FFF" stroke-width="4"/><use xlink:href="#svgo-viewbox-id-18e" fill="#000" filter="url(#svgo-viewbox-id-19f)"/><use xlink:href="#svgo-viewbox-id-18e" fill="#FFF"/></g></g></svg>