<svg xmlns="http://www.w3.org/2000/svg" width="430" height="397" viewBox="0 0 430 397"><g fill="none"><path fill="#f9f9f9" d="M429.05 226.61l-24-74L357.36 6a8.19 8.19 0 0 0-15.58 0l-47.66 146.62H135.88L88.22 6a8.19 8.19 0 0 0-15.58 0L25 152.62l-24 74a16.38 16.38 0 0 0 6 18.31l208 151.16 208.1-151.17a16.38 16.38 0 0 0 6-18.31"/><path fill="#3dd2cc" d="M215 396.09l79.12-243.47H135.88z"/><path fill="#3dd2cc" fill-opacity="0.5" d="M215 396.09l-79.12-243.47H25z"/><path fill="#f9f9f9" d="M25 152.62l-24 74a16.37 16.37 0 0 0 6 18.31l208 151.16L25 152.62z"/><path fill="#3dd2cc" d="M25 152.62h110.88L88.22 6a8.19 8.19 0 0 0-15.58 0L25 152.62z"/><path fill="#3dd2cc" fill-opacity="0.5" d="M215 396.09l79.12-243.47H405z"/><path fill="#f9f9f9" d="M405 152.62l24 74a16.37 16.37 0 0 1-6 18.31L215 396.09l190-243.47z"/><path fill="#3dd2cc" d="M405 152.62H294.12L341.78 6a8.19 8.19 0 0 1 15.58 0L405 152.62z"/></g></svg>
