<svg xmlns="http://www.w3.org/2000/svg" xmlns:xlink="http://www.w3.org/1999/xlink" style="display:none"><symbol  viewBox='0 0 15 17' id='svg-email'>
    <path fill-rule="evenodd" d="M10.38 14.774v1.556c-.984.246-1.881.37-2.69.37-2.32 0-4.182-.736-5.585-2.207C.702 13.023 0 11.074 0 8.648 0 6.2.759 4.146 2.276 2.488 3.794.828 5.675 0 7.92 0c1.969 0 3.554.672 4.755 2.017 1.201 1.345 1.802 3.119 1.802 5.322 0 1.629-.302 2.91-.906 3.845-.603.935-1.432 1.402-2.487 1.402-.557 0-.996-.132-1.318-.396-.323-.263-.604-.726-.844-1.388-.914 1.19-1.849 1.784-2.804 1.784-.85 0-1.517-.3-2.004-.9-.486-.602-.73-1.43-.73-2.484 0-1.57.42-2.845 1.258-3.823C5.479 4.4 6.568 3.91 7.91 3.91c.433 0 1.274.053 2.522.158v4.527l.017.817c0 1.137.322 1.705.967 1.705 1.008 0 1.512-1.198 1.512-3.595 0-1.775-.463-3.215-1.389-4.32-.926-1.104-2.136-1.656-3.63-1.656-1.752 0-3.25.685-4.495 2.057-1.246 1.37-1.868 3.02-1.868 4.948 0 1.957.577 3.548 1.731 4.772 1.155 1.225 2.652 1.837 4.492 1.837.767 0 1.637-.129 2.61-.387zm-1.9-9.237a2.195 2.195 0 0 0-.808-.167c-1.524 0-2.285 1.18-2.285 3.542 0 1.383.413 2.074 1.239 2.074.557 0 1.175-.56 1.854-1.678v-3.77z"></path>
  </symbol><symbol  viewBox='0 0 137 131' id='svg-github'>
    <path fill-rule="evenodd" d="M9.164 33.44c6.11-10.288 14.399-18.432 24.868-24.435C44.5 3 55.933 0 68.33 0c12.397 0 23.83 3.001 34.298 9.005 10.47 6.003 18.759 14.147 24.868 24.434 6.11 10.287 9.164 21.52 9.164 33.701 0 14.63-4.345 27.786-13.034 39.472-8.69 11.685-19.915 19.772-33.676 24.26-1.601.29-2.773.087-3.514-.613-.742-.699-1.496-1.874-1.496-2.923v-18.322c0-5.653-1.159-9.615-4.243-12.237 3.381-.35 6.42-.875 9.12-1.574 2.698-.7 5.486-1.836 8.363-3.41 2.877-1.573 5.279-3.51 7.207-5.813 1.927-2.302 3.5-5.362 4.715-9.18 1.216-3.817 1.824-8.202 1.824-13.156 0-7.053-2.343-13.056-7.029-18.01 2.195-5.303 1.958-11.248-.712-17.834-1.66-.524-4.063-.204-7.206.962-3.144 1.166-5.872 2.448-8.186 3.847l-3.38 2.098c-5.517-1.516-11.21-2.273-17.083-2.273-5.872 0-11.566.757-17.082 2.273-.95-.641-2.21-1.428-3.782-2.36-1.572-.933-4.048-2.055-7.429-3.366-3.38-1.312-5.931-1.705-7.651-1.18-2.61 6.585-2.818 12.53-.623 17.834-4.686 4.953-7.029 10.956-7.029 18.009 0 4.954.608 9.325 1.824 13.113 1.216 3.788 2.773 6.848 4.671 9.18 1.898 2.33 4.285 4.283 7.162 5.857 2.877 1.573 5.665 2.71 8.363 3.41 2.7.698 5.74 1.223 9.12 1.573-2.373 2.098-3.826 5.1-4.36 9.004a17.862 17.862 0 0 1-4.003 1.312c-1.424.29-3.114.437-5.072.437-1.957 0-3.9-.627-5.827-1.88-1.928-1.253-3.574-3.074-4.938-5.464-1.127-1.865-2.566-3.38-4.315-4.546-1.75-1.165-3.218-1.865-4.404-2.098l-1.78-.262c-1.245 0-2.105.13-2.58.393-.474.262-.623.598-.445 1.006.178.408.445.815.8 1.223.357.408.742.758 1.158 1.05l.622.437c1.305.582 2.595 1.69 3.87 3.322 1.276 1.632 2.21 3.118 2.803 4.458l.89 2.01c.771 2.216 2.076 4.008 3.915 5.377 1.838 1.37 3.825 2.244 5.96 2.623 2.136.379 4.197.583 6.184.612 1.987.03 3.633-.073 4.938-.306l2.77-.975c0 2.215-.03 5.273 0 8.245.03 2.973 0 4.406 0 4.58 0 1.05-1.02 2.225-1.791 2.924-.771.7-1.958.904-3.559.612-13.761-4.487-24.986-12.574-33.676-24.26C4.344 94.927 0 81.77 0 67.142 0 54.96 3.055 43.725 9.164 33.438z"></path>
  </symbol><symbol  viewBox='0 0 430 397' id='svg-gitlab'>
    <g fill="none"><path fill="#A1A1A1" d="M429.05 226.61l-24-74L357.36 6a8.19 8.19 0 0 0-15.58 0l-47.66 146.62H135.88L88.22 6a8.19 8.19 0 0 0-15.58 0L25 152.62l-24 74a16.38 16.38 0 0 0 6 18.31l208 151.16 208.1-151.17a16.38 16.38 0 0 0 6-18.31"></path><path fill="#5C5C5C" d="M215 396.09l79.12-243.47H135.88z"></path><path fill="#787878" d="M215 396.09l-79.12-243.47H25z"></path><path fill="#A1A1A1" d="M25 152.62l-24 74a16.37 16.37 0 0 0 6 18.31l208 151.16L25 152.62z"></path><path fill="#5C5C5C" d="M25 152.62h110.88L88.22 6a8.19 8.19 0 0 0-15.58 0L25 152.62z"></path><path fill="#787878" d="M215 396.09l79.12-243.47H405z"></path><path fill="#A1A1A1" d="M405 152.62l24 74a16.37 16.37 0 0 1-6 18.31L215 396.09l190-243.47z"></path><path fill="#5C5C5C" d="M405 152.62H294.12L341.78 6a8.19 8.19 0 0 1 15.58 0L405 152.62z"></path></g>
  </symbol><symbol  viewBox='0 0 125 118' id='svg-linkedin'>
    <path fill-rule="evenodd" d="M0 13.745C0 9.78 1.397 6.498 4.191 3.9 6.985 1.299 10.634 0 15.137 0s8.11 1.3 10.823 3.899c2.713 2.599 4.096 5.88 4.15 9.846.055 3.912-1.315 7.181-4.109 9.807-2.794 2.626-6.47 3.938-11.027 3.938h-.163c-4.449 0-8.03-1.312-10.742-3.938C1.356 20.926 0 17.657 0 13.745zM1.546 118V38.342h26.856V118H1.546zm41.667 0c.108-21.382.163-38.717.163-52.007s-.027-21.22-.082-23.793l-.081-3.858h26.774v11.575h-.163c1.085-1.715 2.197-3.215 3.337-4.501 1.14-1.287 2.672-2.68 4.598-4.18 1.926-1.5 4.286-2.666 7.08-3.497 2.794-.83 5.9-1.246 9.318-1.246 9.277 0 16.737 3.041 22.38 9.123C122.178 51.7 125 60.608 125 72.343V118H98.226V75.398c0-5.627-1.099-10.034-3.296-13.223-2.197-3.188-5.629-4.783-10.295-4.783-3.418 0-6.28.925-8.585 2.774a17.113 17.113 0 0 0-5.168 6.872c-.597 1.608-.895 3.778-.895 6.511V118H43.213z"></path>
  </symbol><symbol  viewBox='0 0 206 206' id='svg-logo'>
    <g fill="none" fill-rule="evenodd" transform="translate(3 3)"><circle cx="100" cy="100" r="100" stroke="#FFF" stroke-width="5"></circle><text fill="#FFF" font-family="QuattrocentoSans, Quattrocento Sans" font-size="120"><tspan x="24" y="138">A()</tspan></text></g>
  </symbol><symbol  id='svg-npm'>
    <path d="M0 0h500v168H250v27H139v-27H0zm28.304 139.493h55.232V55.56h27.768v83.934h27.518v-111H28.304zM166.334 28l.333 140h55v-27.933h55.679V28zM221 55h29v57h-29zm84.333-27v111h55.332V55.666h27.666v83.335h27.637V56h27.697v83h27.674V28zm0 0" fill-rule="evenodd"></path>
  </symbol><symbol  viewBox='0 0 134 106' id='svg-twitter'>
    <path fill-rule="evenodd" d="M0 93.992c1.973.221 4.172.331 6.596.331 12.686 0 23.99-3.809 33.912-11.428-5.92-.11-11.22-1.89-15.899-5.341-4.68-3.45-7.893-7.853-9.64-13.209 1.86.276 3.58.414 5.158.414 2.424 0 4.82-.303 7.188-.91-6.314-1.27-11.543-4.348-15.687-9.234S5.412 44.056 5.412 37.597v-.331c3.834 2.098 7.95 3.23 12.347 3.395-3.72-2.43-6.68-5.604-8.88-9.523-2.198-3.92-3.298-8.171-3.298-12.754 0-4.858 1.24-9.357 3.721-13.498 6.822 8.226 15.124 14.81 24.906 19.75 9.781 4.942 20.254 7.688 31.417 8.24a29.12 29.12 0 0 1-.677-6.128c0-7.398 2.664-13.705 7.992-18.922C78.268 2.609 84.709 0 92.264 0c7.893 0 14.545 2.816 19.958 8.447a54.256 54.256 0 0 0 17.336-6.46c-2.086 6.35-6.089 11.263-12.009 14.741 5.244-.552 10.487-1.932 15.73-4.14a56.606 56.606 0 0 1-13.7 13.83c.056.772.085 1.931.085 3.477 0 7.177-1.072 14.34-3.214 21.49-2.142 7.15-5.398 14.01-9.768 20.58a81.441 81.441 0 0 1-15.602 17.43c-6.033 5.052-13.306 9.082-21.819 12.09-8.513 3.01-17.618 4.514-27.315 4.514-15.279 0-29.26-4.003-41.946-12.008z"></path>
  </symbol></svg>