<svg xmlns="http://www.w3.org/2000/svg" fill="none" viewBox="0 0 154 32"><path fill="#06DBA2" fill-rule="evenodd" d="M16 0C2.824 0 0 2.824 0 16s2.824 16 16 16 16-2.824 16-16S29.176 0 16 0Zm0 6.076a.857.857 0 0 0 0 1.714A8.21 8.21 0 1 1 7.79 16a.857.857 0 1 0-1.713 0c0 5.48 4.443 9.923 9.924 9.923 5.48 0 9.923-4.443 9.923-9.923 0-5.481-4.443-9.924-9.923-9.924ZM15.144 10c0-.473.384-.856.857-.856A6.857 6.857 0 1 1 9.143 16a.857.857 0 0 1 1.714 0A5.143 5.143 0 1 0 16 10.857a.857.857 0 0 1-.857-.857Zm31.892 13.654a.458.458 0 0 1-.338-.135.604.604 0 0 1-.112-.36c0-.105.03-.203.09-.293l3.468-4.818a5.24 5.24 0 0 1-1.261.135c-1.081-.015-2.027-.263-2.838-.743-.81-.496-1.433-1.134-1.869-1.914a5.368 5.368 0 0 1-.63-2.545c0-.9.21-1.756.63-2.567.436-.81 1.074-1.47 1.914-1.981.856-.51 1.884-.766 3.085-.766s2.23.248 3.085.743c.856.496 1.501 1.149 1.937 1.96.435.795.653 1.65.653 2.566 0 .826-.15 1.554-.45 2.184a11.84 11.84 0 0 1-1.15 1.96l-4.367 6.124c-.106.135-.21.248-.316.338-.09.075-.225.112-.405.112h-1.126Zm2.14-7.25c.645 0 1.238-.143 1.778-.428.54-.285.968-.683 1.284-1.193.315-.526.472-1.126.472-1.802 0-.69-.157-1.298-.472-1.823a3.227 3.227 0 0 0-1.284-1.216 3.752 3.752 0 0 0-1.779-.428c-.63 0-1.216.142-1.756.428-.526.285-.946.69-1.261 1.216-.315.525-.473 1.133-.473 1.823 0 .676.158 1.276.473 1.802.315.51.736.908 1.26 1.193a3.62 3.62 0 0 0 1.757.428Zm11.727 7.476c-.736 0-1.419-.15-2.05-.45a3.963 3.963 0 0 1-1.486-1.217 3 3 0 0 1-.54-1.733c0-.991.405-1.802 1.216-2.432.81-.63 1.914-1.051 3.31-1.261l3.378-.473v-.653c0-1.546-.894-2.32-2.68-2.32-.69 0-1.246.143-1.666.429-.42.27-.728.592-.923.968a.762.762 0 0 1-.203.315.448.448 0 0 1-.27.067h-.879a.538.538 0 0 1-.36-.135.538.538 0 0 1-.135-.36c0-.345.158-.743.473-1.193.33-.466.833-.863 1.509-1.194.675-.345 1.5-.518 2.477-.518 1.68 0 2.882.39 3.602 1.171.736.78 1.104 1.757 1.104 2.928v7.318a.52.52 0 0 1-.158.382.487.487 0 0 1-.36.136h-.991a.487.487 0 0 1-.36-.136.568.568 0 0 1-.135-.382v-.991c-.33.495-.811.908-1.442 1.238-.63.33-1.44.496-2.431.496Zm.45-1.644c.99 0 1.801-.323 2.432-.968.63-.646.946-1.584.946-2.815v-.63l-2.635.382c-1.08.15-1.899.406-2.454.766-.556.36-.834.81-.834 1.351 0 .616.248 1.088.744 1.419.51.33 1.11.495 1.801.495Zm8.822 1.283a.57.57 0 0 0 .383.136h.99a.488.488 0 0 0 .361-.136.521.521 0 0 0 .158-.382v-6.328c0-1.17.255-2.019.765-2.544.526-.526 1.149-.788 1.87-.788.765 0 1.403.262 1.913.788.526.525.788 1.38.788 2.567v6.305c0 .15.045.277.135.382a.57.57 0 0 0 .383.136h.991c.15 0 .27-.046.36-.136a.52.52 0 0 0 .158-.382v-6.305c0-1.171.255-2.02.766-2.545.525-.54 1.148-.81 1.868-.81.811 0 1.464.262 1.96.788.495.51.743 1.366.743 2.567v6.305c0 .15.044.277.135.382.105.09.232.136.382.136h.969c.15 0 .27-.046.36-.136a.52.52 0 0 0 .157-.382v-6.508c0-1.591-.39-2.807-1.17-3.648-.781-.84-1.787-1.26-3.018-1.26-.825 0-1.576.187-2.251.562a4.017 4.017 0 0 0-1.532 1.509c-.69-1.381-1.861-2.072-3.512-2.072-1.381 0-2.477.503-3.288 1.51v-.767c0-.15-.045-.27-.135-.36a.45.45 0 0 0-.36-.157h-.946a.521.521 0 0 0-.383.157.487.487 0 0 0-.135.36v10.674c0 .15.045.277.135.382Zm20.214.136a.568.568 0 0 1-.383-.136.568.568 0 0 1-.135-.382v-1.554c0-.15.045-.278.135-.383a.521.521 0 0 1 .383-.157h1.554c.15 0 .27.052.36.157a.52.52 0 0 1 .157.383v1.554a.52.52 0 0 1-.157.382.487.487 0 0 1-.36.136h-1.554Zm7.002-.136c.105.09.263.136.473.136h.81c.39 0 .646-.188.766-.563l2.634-8.152 2.635 8.152c.12.375.375.563.766.563h.81c.21 0 .368-.046.473-.136.105-.09.188-.232.248-.427l3.197-10.448.045-.226a.458.458 0 0 0-.473-.472h-.923a.569.569 0 0 0-.383.135c-.09.075-.142.15-.157.225l-2.545 8.601-2.702-8.489a.604.604 0 0 0-.202-.315.58.58 0 0 0-.428-.157h-.721a.579.579 0 0 0-.428.157.604.604 0 0 0-.202.315l-2.702 8.49-2.545-8.602c-.015-.075-.075-.15-.18-.225a.487.487 0 0 0-.36-.135h-.923a.458.458 0 0 0-.473.472l.045.226 3.197 10.448c.06.195.143.337.248.427Zm19.818.36c-1.651 0-2.927-.465-3.828-1.395-.886-.931-1.358-2.17-1.418-3.716l-.023-.968.023-.968c.06-1.546.54-2.785 1.441-3.716.915-.93 2.184-1.396 3.805-1.396s2.882.466 3.783 1.396c.916.931 1.403 2.17 1.464 3.716a10.704 10.704 0 0 1 0 1.936c-.061 1.546-.541 2.785-1.442 3.716-.885.93-2.154 1.396-3.805 1.396Zm0-1.688c.961 0 1.719-.3 2.274-.9.571-.616.878-1.494.923-2.635.015-.15.023-.436.023-.856s-.008-.706-.023-.856c-.045-1.14-.352-2.011-.923-2.612-.555-.615-1.313-.923-2.274-.923-.961 0-1.726.308-2.297.923-.555.6-.855 1.471-.9 2.612l-.023.856.023.856c.045 1.14.345 2.019.9 2.634.571.6 1.336.9 2.297.9Zm8.27 1.328c.105.09.232.136.383.136h1.013a.57.57 0 0 0 .383-.136.52.52 0 0 0 .157-.382v-6.643c0-.826.233-1.479.698-1.959.481-.48 1.134-.72 1.959-.72h1.284c.165 0 .293-.045.383-.136a.569.569 0 0 0 .135-.382v-.834c0-.165-.045-.292-.135-.382-.09-.09-.218-.135-.383-.135h-.878c-1.471 0-2.515.51-3.13 1.53v-.99a.477.477 0 0 0-.158-.383.477.477 0 0 0-.383-.157h-.945a.52.52 0 0 0-.383.157.569.569 0 0 0-.135.383v10.65c0 .15.045.278.135.383Zm8.871.136a.569.569 0 0 1-.383-.136.568.568 0 0 1-.135-.382V8.185c0-.165.045-.293.135-.383a.569.569 0 0 1 .383-.135h.968c.15 0 .271.053.361.158a.45.45 0 0 1 .157.36v7.859l4.504-3.716a4.08 4.08 0 0 1 .472-.315c.091-.045.233-.067.428-.067h1.126c.135 0 .24.045.315.135.091.075.136.187.136.337 0 .136-.083.278-.248.428L137.3 17.17l5.832 5.584c.165.165.247.308.247.428a.458.458 0 0 1-.135.337.387.387 0 0 1-.315.136h-1.103c-.225 0-.391-.023-.496-.068-.09-.045-.225-.15-.405-.315l-5.089-4.819v4.684a.52.52 0 0 1-.157.382.489.489 0 0 1-.361.136h-.968Zm12.158-.27c.72.33 1.598.495 2.634.495 1.006 0 1.869-.15 2.59-.45.735-.3 1.283-.714 1.644-1.24.375-.524.562-1.11.562-1.755 0-.871-.3-1.584-.9-2.14-.586-.555-1.591-.983-3.018-1.283-.915-.195-1.606-.383-2.071-.563-.465-.195-.781-.398-.946-.608a1.334 1.334 0 0 1-.248-.81c0-.51.196-.916.586-1.216.39-.316.953-.473 1.689-.473.495 0 .908.06 1.238.18.33.105.578.24.743.405.18.15.398.368.653.653.09.165.24.248.451.248h.855a.459.459 0 0 0 .338-.135.427.427 0 0 0 .158-.338c0-.285-.173-.638-.518-1.058-.331-.42-.833-.789-1.509-1.104-.66-.315-1.464-.473-2.409-.473-.901 0-1.682.165-2.342.496-.646.315-1.133.735-1.464 1.26-.33.511-.495 1.044-.495 1.6 0 .855.27 1.553.811 2.094.54.54 1.463.953 2.769 1.238.961.21 1.681.405 2.162.585.495.18.848.383 1.058.608.21.226.315.526.315.901 0 .57-.247 1.006-.743 1.306-.48.3-1.126.45-1.936.45-.721 0-1.299-.12-1.734-.36-.42-.24-.803-.57-1.148-.99a.837.837 0 0 0-.226-.203.366.366 0 0 0-.202-.045h-.946a.511.511 0 0 0-.338.135c-.105.075-.157.188-.157.338 0 .285.172.645.518 1.08.345.436.87.826 1.576 1.171Z" clip-rule="evenodd"/></svg>