<svg xmlns="http://www.w3.org/2000/svg" viewBox="0 0 121 32"><path d="M60.303 23.464v-.432h.013c1.832 0 2.337-.516 2.337-2.412v-6.504c0-2.604-.812-3.768-2.62-3.768-1.144 0-2.374.624-3.641 1.86l-.05.048v8.352c0 1.8.566 2.376 2.387 2.412v.432h-7.921v-.432c1.845-.036 2.386-.588 2.386-2.412V12.76c0-1.788-.37-2.448-1.378-2.448-.332 0-.849.12-1.267.264v-.456l4.6-1.368c.185-.048.345-.072.492-.072.456 0 .69.276.69.816v1.788l.282-.324c1.685-1.944 3.1-2.712 5.043-2.712 2.768 0 4.12 1.728 4.12 5.268v7.116c0 1.824.591 2.412 2.424 2.412v.432h-7.897v-.012Zm14.379.468c-1.98 0-3.53-.66-4.723-2.04-1.181-1.344-1.784-3.12-1.784-5.256 0-2.316.701-4.236 2.14-5.892 1.44-1.692 3.235-2.508 5.51-2.508 1.44 0 2.56.396 3.31 1.164l.282.288v-4.2c0-2.292-.38-3.024-1.586-3.024-.296 0-.812.108-1.181.228l.012-.468 5.105-1.56A.972.972 0 0 1 81.95.64c.332 0 .603.264.603.588v17.868c0 2.352.394 3.516 1.291 3.756.21.06.726.108 1.415.12v.444l-4.97-.048h-.873v-1.524l-.27.228c-1.464 1.26-2.928 1.86-4.465 1.86ZM75.85 9.148c-2.46 0-4.12 2.544-4.12 6.324 0 3.996 1.919 6.792 4.65 6.792.971 0 1.98-.468 3-1.392l.05-.048v-6.948c.012-3-1.292-4.728-3.58-4.728Zm16.138 14.784c-2.042 0-3.702-.696-5.092-2.136-1.316-1.44-1.993-3.276-1.993-5.448 0-2.376.664-4.332 1.956-5.832 1.316-1.512 3.075-2.268 5.227-2.268 3.727 0 6.15 2.292 6.224 5.856H87.4v.156c0 4.212 2.153 6.828 5.621 6.828 2.202 0 3.838-1.044 4.871-3.12l.369.264c-.332 1.608-1.058 2.964-2.152 4.032-1.157 1.128-2.497 1.668-4.121 1.668Zm-.713-14.724c-2.042 0-3.69 1.668-3.838 3.888l-.012.168h7.367l-.012-.168c-.135-2.472-1.414-3.888-3.505-3.888Zm9.175 14.256V5.62c0-2.184-.406-2.916-1.586-2.916-.332 0-.861.084-1.23.204V2.5L102.64.664a.584.584 0 0 1 .209-.036h.135c.332 0 .603.264.603.588v19.416c0 1.728.627 2.376 2.386 2.412v.432h-5.523v-.012Zm16.532.468c-1.255 0-1.87-.708-1.907-2.172l-.012-.336-.259.216c-1.783 1.512-3.357 2.292-4.674 2.292-2.386 0-3.874-1.392-3.874-3.612 0-1.2.627-2.268 1.894-3.252 1.304-.996 3.592-2.04 6.802-3.108l.111-.036v-.108c0-2.964-.455-4.668-2.805-4.668-1.992 0-2.41 1.056-2.41 1.944 0 1.596-.517 2.376-1.587 2.376-.861 0-1.439-.588-1.439-1.464 0-1.008.516-1.86 1.574-2.604 1.095-.768 2.559-1.152 4.367-1.152 3.653 0 5.436 1.464 5.436 4.464v6.768c0 1.92.295 2.376.812 2.532a.633.633 0 0 0 .16.024c.295 0 .652-.228 1.07-.66l.344.408c-1.143 1.428-2.361 2.148-3.603 2.148Zm-2.128-9.12c-4.145 1.644-5.412 2.772-5.412 4.8 0 1.356 1.008 2.376 2.337 2.376.885 0 1.943-.444 3.235-1.344l.061-.048v-5.868l-.221.084Zm-68.007 9.12c-1.255 0-1.87-.708-1.906-2.172l-.013-.336-.258.216c-1.784 1.512-3.358 2.292-4.674 2.292-2.386 0-3.875-1.392-3.875-3.612 0-1.2.628-2.268 1.895-3.252 1.303-.996 3.591-2.04 6.802-3.108l.11-.036v-.108c0-2.964-.455-4.668-2.804-4.668-1.993 0-2.41 1.056-2.41 1.944 0 1.596-.517 2.376-1.588 2.376-.86 0-1.439-.588-1.439-1.464 0-1.008.517-1.86 1.575-2.604 1.082-.768 2.558-1.152 4.366-1.152 3.666 0 5.437 1.464 5.437 4.464v6.768c0 1.92.295 2.376.812 2.532a.633.633 0 0 0 .16.024c.295 0 .651-.216 1.07-.66l.344.408c-1.144 1.428-2.35 2.148-3.604 2.148Zm-2.128-9.12c-4.145 1.644-5.412 2.76-5.412 4.8 0 1.356 1.009 2.376 2.337 2.376.886 0 1.944-.444 3.235-1.344l.062-.048v-5.868l-.222.084ZM25.85 7.192l-.011-.012-.16-.096-.037-.024-8.635-4.86-.147-.084a5.134 5.134 0 0 0-2.497-.636c-.91 0-1.76.228-2.485.636l-.123.072-.037.024-8.684 4.884-.172.096H2.85c-1.464.876-2.448 2.46-2.448 4.26v9.96c0 1.812.984 3.384 2.46 4.26l.11.06 8.845 4.98c.75.42 1.61.66 2.546.66a5.21 5.21 0 0 0 2.546-.66l8.831-4.98.025-.012c1.525-.864 2.558-2.472 2.558-4.32v-9.96a4.964 4.964 0 0 0-2.472-4.248Zm.382 9.384h-.049c-6.433.024-11.673 5.16-11.673 11.436a.148.148 0 0 1-.295 0v-.048c-.024-6.276-5.289-11.388-11.722-11.388a.148.148 0 0 1-.147-.144c0-.084.073-.144.147-.144h.05c6.432-.024 11.672-5.16 11.672-11.436a.148.148 0 0 1 .295 0c0 6.3 5.252 11.436 11.722 11.436.086 0 .148.072.148.144.012.084-.062.144-.148.144Z" fill="#fff"/></svg>