<svg xmlns="http://www.w3.org/2000/svg" fill="none" viewBox="0 0 246 213"><path fill="#FEFDBF" d="M235 112.614C235.002 95.8988 231.263 79.3947 224.056 64.3125C216.849 49.2303 206.358 35.9525 193.352 25.4528C180.345 14.9531 165.154 7.49782 148.891 3.63373C132.628 -0.230361 115.706 -0.405273 99.3673 3.12182C83.0281 6.64891 67.6856 13.7886 54.4649 24.0171C41.2443 34.2457 30.4808 47.3039 22.9638 62.2339C15.4468 77.1639 11.367 93.5871 11.0236 110.299C10.6802 127.011 14.0819 143.588 20.9792 158.814H225.021C231.609 144.304 235.011 128.55 235 112.614Z"/><path stroke="#141417" stroke-linecap="round" stroke-linejoin="round" stroke-width="2.4" d="M13.8003 158.814H232.2"/><path stroke="#141417" stroke-linecap="round" stroke-linejoin="round" stroke-width="2.4" d="M1.2002 158.814H8.2002"/><path stroke="#141417" stroke-linecap="round" stroke-linejoin="round" stroke-width="2.4" d="M237.8 158.814H244.8"/><path fill="#141417" d="M194.039 198.239C195.876 197.421 196.881 196.559 196.881 195.668C196.881 190.553 164.541 186.406 124.641 186.406C84.7409 186.406 52.4009 190.553 52.4009 195.668C52.4009 196.752 53.8709 197.793 56.5477 198.748C45.2945 200.003 37.6001 202.475 37.6001 205.323C37.6001 209.413 53.3557 212.731 72.7905 212.731C92.2253 212.731 107.975 209.425 107.975 205.323C107.967 205.094 107.913 204.869 107.816 204.662C113.22 204.827 118.848 204.917 124.644 204.917C133.209 204.917 141.418 204.723 149.043 204.373C148.851 204.654 148.74 204.983 148.724 205.323C148.724 209.413 164.479 212.731 183.914 212.731C203.349 212.731 219.107 209.425 219.107 205.323C219.107 201.979 208.537 199.163 194.039 198.239Z"/><path fill="#FAF9F8" stroke="#141417" stroke-linecap="round" stroke-linejoin="round" stroke-width="2.4" d="M193.176 137.943H59.8174V194.402C59.8174 195.145 60.1124 195.857 60.6375 196.382C61.1626 196.907 61.8748 197.202 62.6174 197.202H190.376C191.118 197.202 191.831 196.907 192.356 196.382C192.881 195.857 193.176 195.145 193.176 194.402V137.943Z"/><path fill="#FAF9F8" d="M117.235 137.943V154.612C117.277 157.04 118.271 159.354 120.004 161.057C121.736 162.759 124.067 163.713 126.496 163.713C128.924 163.713 131.256 162.759 132.988 161.057C134.72 159.354 135.715 157.04 135.757 154.612V137.943H117.235Z"/><path stroke="#141417" stroke-linecap="round" stroke-linejoin="round" stroke-width="2.4" d="M117.235 137.943V154.612C117.277 157.04 118.271 159.354 120.004 161.057C121.736 162.759 124.067 163.713 126.496 163.713C128.924 163.713 131.256 162.759 132.988 161.057C134.72 159.354 135.715 157.04 135.757 154.612V137.943H117.235Z"/><path fill="#FAF9F8" d="M187.576 82.3772H65.4174C63.9322 82.3772 62.5078 82.9672 61.4576 84.0174C60.4074 85.0676 59.8174 86.492 59.8174 87.9772V137.943H193.176V87.9772C193.176 86.492 192.586 85.0676 191.536 84.0174C190.485 82.9672 189.061 82.3772 187.576 82.3772Z"/><path stroke="#141417" stroke-linecap="round" stroke-linejoin="round" stroke-width="2.4" d="M187.576 82.3772H65.4174C63.9322 82.3772 62.5078 82.9672 61.4576 84.0174C60.4074 85.0676 59.8174 86.492 59.8174 87.9772V137.943H193.176V87.9772C193.176 86.492 192.586 85.0676 191.536 84.0174C190.485 82.9672 189.061 82.3772 187.576 82.3772V82.3772Z"/><path fill="#FAF9F8" d="M109.84 154.612C109.812 156.819 110.222 159.01 111.046 161.057C111.871 163.105 113.095 164.968 114.645 166.539C116.196 168.11 118.044 169.358 120.08 170.209C122.117 171.06 124.302 171.499 126.51 171.499C128.717 171.499 130.903 171.06 132.94 170.209C134.976 169.358 136.824 168.11 138.374 166.539C139.925 164.968 141.149 163.105 141.973 161.057C142.798 159.01 143.208 156.819 143.18 154.612V145.349H182.679C183.496 145.349 184.28 145.674 184.857 146.251C185.435 146.829 185.759 147.612 185.759 148.429V186.716C185.759 187.533 185.435 188.317 184.857 188.894C184.28 189.472 183.496 189.796 182.679 189.796H70.3154C69.4985 189.796 68.7151 189.472 68.1375 188.894C67.5598 188.317 67.2354 187.533 67.2354 186.716V148.438C67.2354 148.033 67.315 147.633 67.4698 147.259C67.6246 146.885 67.8515 146.546 68.1375 146.26C68.4235 145.974 68.763 145.747 69.1367 145.592C69.5104 145.437 69.9109 145.358 70.3154 145.358H109.84V154.612Z"/><path stroke="#141417" stroke-linecap="round" stroke-linejoin="round" stroke-width="2.4" d="M109.84 154.612C109.812 156.819 110.222 159.01 111.046 161.057C111.871 163.105 113.095 164.968 114.645 166.539C116.196 168.11 118.044 169.358 120.08 170.209C122.117 171.06 124.302 171.499 126.51 171.499C128.717 171.499 130.903 171.06 132.94 170.209C134.976 169.358 136.824 168.11 138.374 166.539C139.925 164.968 141.149 163.105 141.973 161.057C142.798 159.01 143.208 156.819 143.18 154.612V145.349H182.679C183.496 145.349 184.28 145.674 184.857 146.251C185.435 146.829 185.759 147.612 185.759 148.429V186.716C185.759 187.533 185.435 188.317 184.857 188.894C184.28 189.472 183.496 189.796 182.679 189.796H70.3154C69.4985 189.796 68.7151 189.472 68.1375 188.894C67.5598 188.317 67.2354 187.533 67.2354 186.716V148.438C67.2354 148.033 67.315 147.633 67.4698 147.259C67.6246 146.885 67.8515 146.546 68.1375 146.26C68.4235 145.974 68.763 145.747 69.1367 145.592C69.5104 145.437 69.9109 145.358 70.3154 145.358H109.84V154.612Z"/><path stroke="#141417" stroke-linecap="round" stroke-linejoin="round" stroke-width="2.4" d="M82.0439 189.805V145.349"/><path stroke="#141417" stroke-linecap="round" stroke-linejoin="round" stroke-width="2.4" d="M96.8613 189.805V145.349"/><path stroke="#141417" stroke-linecap="round" stroke-linejoin="round" stroke-width="2.4" d="M111.679 189.805V162.256"/><path stroke="#141417" stroke-linecap="round" stroke-linejoin="round" stroke-width="2.4" d="M126.498 189.805V171.283"/><path stroke="#141417" stroke-linecap="round" stroke-linejoin="round" stroke-width="2.4" d="M141.315 189.805V162.256"/><path stroke="#141417" stroke-linecap="round" stroke-linejoin="round" stroke-width="2.4" d="M156.132 189.805V145.349"/><path stroke="#141417" stroke-linecap="round" stroke-linejoin="round" stroke-width="2.4" d="M170.95 189.805V145.349"/><path stroke="#141417" stroke-linecap="round" stroke-linejoin="round" stroke-width="2.4" d="M124.955 154.612C124.955 155.021 125.117 155.413 125.406 155.703C125.696 155.992 126.088 156.154 126.497 156.154C126.907 156.154 127.299 155.992 127.588 155.703C127.878 155.413 128.04 155.021 128.04 154.612C128.04 154.202 127.878 153.81 127.588 153.521C127.299 153.231 126.907 153.069 126.497 153.069C126.088 153.069 125.696 153.231 125.406 153.521C125.117 153.81 124.955 154.202 124.955 154.612V154.612Z"/><path fill="#FAF9F8" d="M47.932 205.322C46.7037 205.322 45.5257 204.835 44.6572 203.966C43.7887 203.097 43.3008 201.92 43.3008 200.691C43.3008 199.463 43.7887 198.285 44.6572 197.416C45.5257 196.548 46.7037 196.06 47.932 196.06H67.9996C69.2279 196.06 70.4058 196.548 71.2743 197.416C72.1429 198.285 72.6308 199.463 72.6308 200.691C72.6308 201.92 72.1429 203.097 71.2743 203.966C70.4058 204.835 69.2279 205.322 67.9996 205.322H47.932Z"/><path stroke="#141417" stroke-miterlimit="10" stroke-width="2.4" d="M47.932 205.322C46.7037 205.322 45.5257 204.835 44.6572 203.966C43.7887 203.097 43.3008 201.92 43.3008 200.691C43.3008 199.463 43.7887 198.285 44.6572 197.416C45.5257 196.548 46.7037 196.06 47.932 196.06H67.9996C69.2279 196.06 70.4058 196.548 71.2743 197.416C72.1429 198.285 72.6308 199.463 72.6308 200.691C72.6308 201.92 72.1429 203.097 71.2743 203.966C70.4058 204.835 69.2279 205.322 67.9996 205.322H47.932Z"/><path fill="#FAF9F8" d="M44.8491 196.082C44.2315 196.097 43.6171 195.989 43.0421 195.763C42.4671 195.537 41.9431 195.199 41.501 194.767C41.0588 194.336 40.7074 193.82 40.4675 193.251C40.2276 192.682 40.104 192.07 40.104 191.452C40.104 190.835 40.2276 190.223 40.4675 189.654C40.7074 189.085 41.0588 188.569 41.501 188.138C41.9431 187.706 42.4671 187.368 43.0421 187.142C43.6171 186.916 44.2315 186.808 44.8491 186.823H64.9139C65.5315 186.808 66.1458 186.916 66.7208 187.142C67.2958 187.368 67.8198 187.706 68.262 188.138C68.7042 188.569 69.0555 189.085 69.2954 189.654C69.5354 190.223 69.6589 190.835 69.6589 191.452C69.6589 192.07 69.5354 192.682 69.2954 193.251C69.0555 193.82 68.7042 194.336 68.262 194.767C67.8198 195.199 67.2958 195.537 66.7208 195.763C66.1458 195.989 65.5315 196.097 64.9139 196.082H44.8491Z"/><path stroke="#141417" stroke-miterlimit="10" stroke-width="2.4" d="M44.8491 196.082C44.2315 196.097 43.6171 195.989 43.0421 195.763C42.4671 195.537 41.9431 195.199 41.501 194.767C41.0588 194.336 40.7074 193.82 40.4675 193.251C40.2276 192.682 40.104 192.07 40.104 191.452C40.104 190.835 40.2276 190.223 40.4675 189.654C40.7074 189.085 41.0588 188.569 41.501 188.138C41.9431 187.706 42.4671 187.368 43.0421 187.142C43.6171 186.916 44.2315 186.808 44.8491 186.823H64.9139C65.5315 186.808 66.1458 186.916 66.7208 187.142C67.2958 187.368 67.8198 187.706 68.262 188.138C68.7042 188.569 69.0555 189.085 69.2954 189.654C69.5354 190.223 69.6589 190.835 69.6589 191.452C69.6589 192.07 69.5354 192.682 69.2954 193.251C69.0555 193.82 68.7042 194.336 68.262 194.767C67.8198 195.199 67.2958 195.537 66.7208 195.763C66.1458 195.989 65.5315 196.097 64.9139 196.082H44.8491Z"/><path fill="#FAF9F8" d="M49.7855 186.812C48.5572 186.812 47.3793 186.324 46.5107 185.455C45.6422 184.587 45.1543 183.409 45.1543 182.18C45.1543 180.952 45.6422 179.774 46.5107 178.906C47.3793 178.037 48.5572 177.549 49.7855 177.549H69.8503C71.0786 177.549 72.2565 178.037 73.1251 178.906C73.9936 179.774 74.4815 180.952 74.4815 182.18C74.4815 183.409 73.9936 184.587 73.1251 185.455C72.2565 186.324 71.0786 186.812 69.8503 186.812H49.7855Z"/><path stroke="#141417" stroke-miterlimit="10" stroke-width="2.4" d="M49.7855 186.812C48.5572 186.812 47.3793 186.324 46.5107 185.455C45.6422 184.587 45.1543 183.409 45.1543 182.18C45.1543 180.952 45.6422 179.774 46.5107 178.906C47.3793 178.037 48.5572 177.549 49.7855 177.549H69.8503C71.0786 177.549 72.2565 178.037 73.1251 178.906C73.9936 179.774 74.4815 180.952 74.4815 182.18C74.4815 183.409 73.9936 184.587 73.1251 185.455C72.2565 186.324 71.0786 186.812 69.8503 186.812H49.7855Z"/><path fill="#FAF9F8" d="M46.2797 177.55C45.6622 177.565 45.0478 177.456 44.4728 177.23C43.8978 177.005 43.3738 176.666 42.9316 176.234C42.4895 175.803 42.1381 175.288 41.8982 174.718C41.6583 174.149 41.5347 173.538 41.5347 172.92C41.5347 172.302 41.6583 171.69 41.8982 171.121C42.1381 170.552 42.4895 170.036 42.9316 169.605C43.3738 169.174 43.8978 168.835 44.4728 168.609C45.0478 168.383 45.6622 168.275 46.2797 168.29H66.3445C66.9621 168.275 67.5765 168.383 68.1515 168.609C68.7265 168.835 69.2505 169.174 69.6926 169.605C70.1348 170.036 70.4862 170.552 70.7261 171.121C70.966 171.69 71.0896 172.302 71.0896 172.92C71.0896 173.538 70.966 174.149 70.7261 174.718C70.4862 175.288 70.1348 175.803 69.6926 176.234C69.2505 176.666 68.7265 177.005 68.1515 177.23C67.5765 177.456 66.9621 177.565 66.3445 177.55H46.2797Z"/><path stroke="#141417" stroke-miterlimit="10" stroke-width="2.4" d="M46.2797 177.55C45.6622 177.565 45.0478 177.456 44.4728 177.23C43.8978 177.005 43.3738 176.666 42.9316 176.234C42.4895 175.803 42.1381 175.288 41.8982 174.718C41.6583 174.149 41.5347 173.538 41.5347 172.92C41.5347 172.302 41.6583 171.69 41.8982 171.121C42.1381 170.552 42.4895 170.036 42.9316 169.605C43.3738 169.174 43.8978 168.835 44.4728 168.609C45.0478 168.383 45.6622 168.275 46.2797 168.29H66.3445C66.9621 168.275 67.5765 168.383 68.1515 168.609C68.7265 168.835 69.2505 169.174 69.6926 169.605C70.1348 170.036 70.4862 170.552 70.7261 171.121C70.966 171.69 71.0896 172.302 71.0896 172.92C71.0896 173.538 70.966 174.149 70.7261 174.718C70.4862 175.288 70.1348 175.803 69.6926 176.234C69.2505 176.666 68.7265 177.005 68.1515 177.23C67.5765 177.456 66.9621 177.565 66.3445 177.55H46.2797Z"/><path fill="#FAF9F8" d="M50.1439 168.29C48.9156 168.29 47.7377 167.802 46.8691 166.933C46.0006 166.065 45.5127 164.887 45.5127 163.659C45.5127 162.43 46.0006 161.252 46.8691 160.384C47.7377 159.515 48.9156 159.027 50.1439 159.027H70.2087C71.437 159.027 72.6149 159.515 73.4834 160.384C74.352 161.252 74.8399 162.43 74.8399 163.659C74.8399 164.887 74.352 166.065 73.4834 166.933C72.6149 167.802 71.437 168.29 70.2087 168.29H50.1439Z"/><path fill="#FAF9F8" stroke="#141417" stroke-miterlimit="10" stroke-width="2.4" d="M50.1439 168.29C48.9156 168.29 47.7377 167.802 46.8691 166.933C46.0006 166.065 45.5127 164.887 45.5127 163.659C45.5127 162.43 46.0006 161.252 46.8691 160.384C47.7377 159.515 48.9156 159.027 50.1439 159.027H70.2087C71.437 159.027 72.6149 159.515 73.4834 160.384C74.352 161.252 74.8399 162.43 74.8399 163.659C74.8399 164.887 74.352 166.065 73.4834 166.933C72.6149 167.802 71.437 168.29 70.2087 168.29H50.1439Z"/><path fill="#FAF9F8" d="M77.2591 205.322C76.0309 205.322 74.8529 204.835 73.9844 203.966C73.1159 203.097 72.6279 201.92 72.6279 200.691C72.6279 199.463 73.1159 198.285 73.9844 197.416C74.8529 196.548 76.0309 196.06 77.2591 196.06H97.3239C98.5522 196.06 99.7302 196.548 100.599 197.416C101.467 198.285 101.955 199.463 101.955 200.691C101.955 201.92 101.467 203.097 100.599 203.966C99.7302 204.835 98.5522 205.322 97.3239 205.322H77.2591Z"/><path stroke="#141417" stroke-miterlimit="10" stroke-width="2.4" d="M77.2591 205.322C76.0309 205.322 74.8529 204.835 73.9844 203.966C73.1159 203.097 72.6279 201.92 72.6279 200.691C72.6279 199.463 73.1159 198.285 73.9844 197.416C74.8529 196.548 76.0309 196.06 77.2591 196.06H97.3239C98.5522 196.06 99.7302 196.548 100.599 197.416C101.467 198.285 101.955 199.463 101.955 200.691C101.955 201.92 101.467 203.097 100.599 203.966C99.7302 204.835 98.5522 205.322 97.3239 205.322H77.2591Z"/><path fill="#FAF9F8" d="M159.064 205.322C157.836 205.322 156.658 204.835 155.789 203.966C154.921 203.097 154.433 201.92 154.433 200.691C154.433 199.463 154.921 198.285 155.789 197.416C156.658 196.548 157.836 196.06 159.064 196.06H179.131C180.36 196.06 181.538 196.548 182.406 197.416C183.275 198.285 183.763 199.463 183.763 200.691C183.763 201.92 183.275 203.097 182.406 203.966C181.538 204.835 180.36 205.322 179.131 205.322H159.064Z"/><path stroke="#141417" stroke-miterlimit="10" stroke-width="2.4" d="M159.064 205.322C157.836 205.322 156.658 204.835 155.789 203.966C154.921 203.097 154.433 201.92 154.433 200.691C154.433 199.463 154.921 198.285 155.789 197.416C156.658 196.548 157.836 196.06 159.064 196.06H179.131C180.36 196.06 181.538 196.548 182.406 197.416C183.275 198.285 183.763 199.463 183.763 200.691C183.763 201.92 183.275 203.097 182.406 203.966C181.538 204.835 180.36 205.322 179.131 205.322H159.064Z"/><path fill="#FAF9F8" d="M156.39 196.082C155.772 196.097 155.158 195.989 154.583 195.763C154.008 195.537 153.484 195.199 153.041 194.767C152.599 194.336 152.248 193.82 152.008 193.251C151.768 192.682 151.645 192.07 151.645 191.452C151.645 190.835 151.768 190.223 152.008 189.654C152.248 189.085 152.599 188.569 153.041 188.138C153.484 187.706 154.008 187.368 154.583 187.142C155.158 186.916 155.772 186.808 156.39 186.823H176.454C177.072 186.808 177.686 186.916 178.261 187.142C178.836 187.368 179.36 187.706 179.802 188.138C180.245 188.569 180.596 189.085 180.836 189.654C181.076 190.223 181.199 190.835 181.199 191.452C181.199 192.07 181.076 192.682 180.836 193.251C180.596 193.82 180.245 194.336 179.802 194.767C179.36 195.199 178.836 195.537 178.261 195.763C177.686 195.989 177.072 196.097 176.454 196.082H156.39Z"/><path stroke="#141417" stroke-miterlimit="10" stroke-width="2.4" d="M156.39 196.082C155.772 196.097 155.158 195.989 154.583 195.763C154.008 195.537 153.484 195.199 153.041 194.767C152.599 194.336 152.248 193.82 152.008 193.251C151.768 192.682 151.645 192.07 151.645 191.452C151.645 190.835 151.768 190.223 152.008 189.654C152.248 189.085 152.599 188.569 153.041 188.138C153.484 187.706 154.008 187.368 154.583 187.142C155.158 186.916 155.772 186.808 156.39 186.823H176.454C177.072 186.808 177.686 186.916 178.261 187.142C178.836 187.368 179.36 187.706 179.802 188.138C180.245 188.569 180.596 189.085 180.836 189.654C181.076 190.223 181.199 190.835 181.199 191.452C181.199 192.07 181.076 192.682 180.836 193.251C180.596 193.82 180.245 194.336 179.802 194.767C179.36 195.199 178.836 195.537 178.261 195.763C177.686 195.989 177.072 196.097 176.454 196.082H156.39Z"/><path fill="#FAF9F8" d="M188.391 205.322C187.163 205.322 185.985 204.835 185.116 203.966C184.248 203.097 183.76 201.92 183.76 200.691C183.76 199.463 184.248 198.285 185.116 197.416C185.985 196.548 187.163 196.06 188.391 196.06H208.456C209.684 196.06 210.862 196.548 211.73 197.416C212.599 198.285 213.087 199.463 213.087 200.691C213.087 201.92 212.599 203.097 211.73 203.966C210.862 204.835 209.684 205.322 208.456 205.322H188.391Z"/><path stroke="#141417" stroke-miterlimit="10" stroke-width="2.4" d="M188.391 205.322C187.163 205.322 185.985 204.835 185.116 203.966C184.248 203.097 183.76 201.92 183.76 200.691C183.76 199.463 184.248 198.285 185.116 197.416C185.985 196.548 187.163 196.06 188.391 196.06H208.456C209.684 196.06 210.862 196.548 211.73 197.416C212.599 198.285 213.087 199.463 213.087 200.691C213.087 201.92 212.599 203.097 211.73 203.966C210.862 204.835 209.684 205.322 208.456 205.322H188.391Z"/><path fill="#FAF9F8" d="M72.4769 137.944C71.2486 137.944 70.0707 137.456 69.2022 136.587C68.3336 135.719 67.8457 134.541 67.8457 133.312C67.8457 132.084 68.3336 130.906 69.2022 130.038C70.0707 129.169 71.2486 128.681 72.4769 128.681H92.5417C93.77 128.681 94.948 129.169 95.8165 130.038C96.685 130.906 97.1729 132.084 97.1729 133.312C97.1729 134.541 96.685 135.719 95.8165 136.587C94.948 137.456 93.77 137.944 92.5417 137.944H72.4769Z"/><path stroke="#141417" stroke-miterlimit="10" stroke-width="2.4" d="M72.4769 137.944C71.2486 137.944 70.0707 137.456 69.2022 136.587C68.3336 135.719 67.8457 134.541 67.8457 133.312C67.8457 132.084 68.3336 130.906 69.2022 130.038C70.0707 129.169 71.2486 128.681 72.4769 128.681H92.5417C93.77 128.681 94.948 129.169 95.8165 130.038C96.685 130.906 97.1729 132.084 97.1729 133.312C97.1729 134.541 96.685 135.719 95.8165 136.587C94.948 137.456 93.77 137.944 92.5417 137.944H72.4769Z"/><path fill="#FAF9F8" d="M101.801 137.944C100.573 137.944 99.3949 137.456 98.5264 136.587C97.6578 135.719 97.1699 134.541 97.1699 133.312C97.1699 132.084 97.6578 130.906 98.5264 130.038C99.3949 129.169 100.573 128.681 101.801 128.681H121.88C123.108 128.681 124.286 129.169 125.155 130.038C126.023 130.906 126.511 132.084 126.511 133.312C126.511 134.541 126.023 135.719 125.155 136.587C124.286 137.456 123.108 137.944 121.88 137.944H101.801Z"/><path stroke="#141417" stroke-miterlimit="10" stroke-width="2.4" d="M101.801 137.944C100.573 137.944 99.3949 137.456 98.5264 136.587C97.6578 135.719 97.1699 134.541 97.1699 133.312C97.1699 132.084 97.6578 130.906 98.5264 130.038C99.3949 129.169 100.573 128.681 101.801 128.681H121.88C123.108 128.681 124.286 129.169 125.155 130.038C126.023 130.906 126.511 132.084 126.511 133.312C126.511 134.541 126.023 135.719 125.155 136.587C124.286 137.456 123.108 137.944 121.88 137.944H101.801Z"/><path fill="#FAF9F8" d="M131.119 137.944C129.891 137.944 128.713 137.456 127.845 136.587C126.976 135.719 126.488 134.541 126.488 133.312C126.488 132.084 126.976 130.906 127.845 130.038C128.713 129.169 129.891 128.681 131.119 128.681H151.184C152.413 128.681 153.59 129.169 154.459 130.038C155.328 130.906 155.815 132.084 155.815 133.312C155.815 134.541 155.328 135.719 154.459 136.587C153.59 137.456 152.413 137.944 151.184 137.944H131.119Z"/><path stroke="#141417" stroke-miterlimit="10" stroke-width="2.4" d="M131.119 137.944C129.891 137.944 128.713 137.456 127.845 136.587C126.976 135.719 126.488 134.541 126.488 133.312C126.488 132.084 126.976 130.906 127.845 130.038C128.713 129.169 129.891 128.681 131.119 128.681H151.184C152.413 128.681 153.59 129.169 154.459 130.038C155.328 130.906 155.815 132.084 155.815 133.312C155.815 134.541 155.328 135.719 154.459 136.587C153.59 137.456 152.413 137.944 151.184 137.944H131.119Z"/><path fill="#FAF9F8" d="M160.455 137.944C159.227 137.944 158.049 137.456 157.181 136.587C156.312 135.719 155.824 134.541 155.824 133.312C155.824 132.084 156.312 130.906 157.181 130.038C158.049 129.169 159.227 128.681 160.455 128.681H180.52C181.748 128.681 182.926 129.169 183.795 130.038C184.663 130.906 185.151 132.084 185.151 133.312C185.151 134.541 184.663 135.719 183.795 136.587C182.926 137.456 181.748 137.944 180.52 137.944H160.455Z"/><path stroke="#141417" stroke-miterlimit="10" stroke-width="2.4" d="M160.455 137.944C159.227 137.944 158.049 137.456 157.181 136.587C156.312 135.719 155.824 134.541 155.824 133.312C155.824 132.084 156.312 130.906 157.181 130.038C158.049 129.169 159.227 128.681 160.455 128.681H180.52C181.748 128.681 182.926 129.169 183.795 130.038C184.663 130.906 185.151 132.084 185.151 133.312C185.151 134.541 184.663 135.719 183.795 136.587C182.926 137.456 181.748 137.944 180.52 137.944H160.455Z"/><path fill="#FAF9F8" d="M128.003 128.681C127.386 128.696 126.771 128.588 126.196 128.362C125.621 128.136 125.097 127.797 124.655 127.366C124.213 126.934 123.862 126.419 123.622 125.85C123.382 125.28 123.258 124.669 123.258 124.051C123.258 123.433 123.382 122.822 123.622 122.253C123.862 121.683 124.213 121.168 124.655 120.736C125.097 120.305 125.621 119.966 126.196 119.74C126.771 119.515 127.386 119.406 128.003 119.421H148.068C148.686 119.406 149.3 119.515 149.875 119.74C150.45 119.966 150.974 120.305 151.416 120.736C151.858 121.168 152.21 121.683 152.45 122.253C152.69 122.822 152.813 123.433 152.813 124.051C152.813 124.669 152.69 125.28 152.45 125.85C152.21 126.419 151.858 126.934 151.416 127.366C150.974 127.797 150.45 128.136 149.875 128.362C149.3 128.588 148.686 128.696 148.068 128.681H128.003Z"/><path stroke="#141417" stroke-miterlimit="10" stroke-width="2.4" d="M128.003 128.681C127.386 128.696 126.771 128.588 126.196 128.362C125.621 128.136 125.097 127.797 124.655 127.366C124.213 126.934 123.862 126.419 123.622 125.85C123.382 125.28 123.258 124.669 123.258 124.051C123.258 123.433 123.382 122.822 123.622 122.253C123.862 121.683 124.213 121.168 124.655 120.736C125.097 120.305 125.621 119.966 126.196 119.74C126.771 119.515 127.386 119.406 128.003 119.421H148.068C148.686 119.406 149.3 119.515 149.875 119.74C150.45 119.966 150.974 120.305 151.416 120.736C151.858 121.168 152.21 121.683 152.45 122.253C152.69 122.822 152.813 123.433 152.813 124.051C152.813 124.669 152.69 125.28 152.45 125.85C152.21 126.419 151.858 126.934 151.416 127.366C150.974 127.797 150.45 128.136 149.875 128.362C149.3 128.588 148.686 128.696 148.068 128.681H128.003Z"/><path fill="#FAF9F8" d="M143.832 119.422C142.604 119.422 141.426 118.934 140.557 118.065C139.689 117.197 139.201 116.019 139.201 114.79C139.201 113.562 139.689 112.384 140.557 111.516C141.426 110.647 142.604 110.159 143.832 110.159H163.897C165.125 110.159 166.303 110.647 167.171 111.516C168.04 112.384 168.528 113.562 168.528 114.79C168.528 116.019 168.04 117.197 167.171 118.065C166.303 118.934 165.125 119.422 163.897 119.422H143.832Z"/><path stroke="#141417" stroke-miterlimit="10" stroke-width="2.4" d="M143.832 119.422C142.604 119.422 141.426 118.934 140.557 118.065C139.689 117.197 139.201 116.019 139.201 114.79C139.201 113.562 139.689 112.384 140.557 111.516C141.426 110.647 142.604 110.159 143.832 110.159H163.897C165.125 110.159 166.303 110.647 167.171 111.516C168.04 112.384 168.528 113.562 168.528 114.79C168.528 116.019 168.04 117.197 167.171 118.065C166.303 118.934 165.125 119.422 163.897 119.422H143.832Z"/><path fill="#FAF9F8" d="M75.3552 128.681C74.147 128.651 72.9983 128.15 72.1543 127.285C71.3103 126.42 70.8379 125.26 70.8379 124.051C70.8379 122.842 71.3103 121.682 72.1543 120.817C72.9983 119.952 74.147 119.451 75.3552 119.421H95.4228C96.631 119.451 97.7797 119.952 98.6237 120.817C99.4678 121.682 99.9402 122.842 99.9402 124.051C99.9402 125.26 99.4678 126.42 98.6237 127.285C97.7797 128.15 96.631 128.651 95.4228 128.681H75.3552Z"/><path stroke="#141417" stroke-miterlimit="10" stroke-width="2.4" d="M75.3552 128.681C74.147 128.651 72.9983 128.15 72.1543 127.285C71.3103 126.42 70.8379 125.26 70.8379 124.051C70.8379 122.842 71.3103 121.682 72.1543 120.817C72.9983 119.952 74.147 119.451 75.3552 119.421H95.4228C96.631 119.451 97.7797 119.952 98.6237 120.817C99.4678 121.682 99.9402 122.842 99.9402 124.051C99.9402 125.26 99.4678 126.42 98.6237 127.285C97.7797 128.15 96.631 128.651 95.4228 128.681H75.3552Z"/><path fill="#FAF9F8" d="M114.625 127.838C113.62 128.499 112.396 128.742 111.214 128.516C110.032 128.291 108.984 127.614 108.292 126.629C107.601 125.644 107.32 124.428 107.509 123.24C107.698 122.051 108.342 120.983 109.305 120.261L125.713 108.722C126.208 108.334 126.775 108.051 127.383 107.89C127.99 107.729 128.623 107.693 129.245 107.784C129.866 107.876 130.462 108.093 130.997 108.422C131.532 108.752 131.994 109.186 132.356 109.7C132.717 110.214 132.97 110.795 133.1 111.41C133.229 112.025 133.232 112.659 133.108 113.275C132.985 113.891 132.737 114.475 132.38 114.992C132.023 115.509 131.565 115.948 131.033 116.282L114.625 127.838Z"/><path stroke="#141417" stroke-miterlimit="10" stroke-width="2.4" d="M114.625 127.838C113.62 128.499 112.396 128.742 111.214 128.516C110.032 128.291 108.984 127.614 108.292 126.629C107.601 125.644 107.32 124.428 107.509 123.24C107.698 122.051 108.342 120.983 109.305 120.261L125.713 108.722C126.208 108.334 126.775 108.051 127.383 107.89C127.99 107.729 128.623 107.693 129.245 107.784C129.866 107.876 130.462 108.093 130.997 108.422C131.532 108.752 131.994 109.186 132.356 109.7C132.717 110.214 132.97 110.795 133.1 111.41C133.229 112.025 133.232 112.659 133.108 113.275C132.985 113.891 132.737 114.475 132.38 114.992C132.023 115.509 131.565 115.948 131.033 116.282L114.625 127.838Z"/><path fill="#FAF9F8" d="M157.327 128.681C156.119 128.651 154.97 128.15 154.126 127.285C153.282 126.42 152.81 125.26 152.81 124.051C152.81 122.842 153.282 121.682 154.126 120.817C154.97 119.952 156.119 119.451 157.327 119.421H177.395C178.603 119.451 179.752 119.952 180.596 120.817C181.44 121.682 181.912 122.842 181.912 124.051C181.912 125.26 181.44 126.42 180.596 127.285C179.752 128.15 178.603 128.651 177.395 128.681H157.327Z"/><path stroke="#141417" stroke-miterlimit="10" stroke-width="2.4" d="M157.327 128.681C156.119 128.651 154.97 128.15 154.126 127.285C153.282 126.42 152.81 125.26 152.81 124.051C152.81 122.842 153.282 121.682 154.126 120.817C154.97 119.952 156.119 119.451 157.327 119.421H177.395C178.603 119.451 179.752 119.952 180.596 120.817C181.44 121.682 181.912 122.842 181.912 124.051C181.912 125.26 181.44 126.42 180.596 127.285C179.752 128.15 178.603 128.651 177.395 128.681H157.327Z"/><path fill="#FAF9F8" stroke="#141417" stroke-linecap="round" stroke-linejoin="round" stroke-width="2.4" d="M50.6143 56.8045C50.926 55.4514 51.6119 54.2133 52.5937 53.2315C53.5755 52.2497 54.8136 51.5638 56.1667 51.2521L67.3107 48.6789C67.5148 48.6317 67.697 48.5167 67.8274 48.3527C67.9578 48.1887 68.0288 47.9854 68.0288 47.7759C68.0288 47.5663 67.9578 47.363 67.8274 47.199C67.697 47.035 67.5148 46.9201 67.3107 46.8729L56.1667 44.3025C54.8134 43.9906 53.575 43.3047 52.5928 42.323C51.6105 41.3412 50.924 40.1032 50.6115 38.7501L48.0411 27.6117C47.9939 27.4075 47.8789 27.2254 47.7149 27.095C47.5509 26.9646 47.3476 26.8936 47.1381 26.8936C46.9285 26.8936 46.7252 26.9646 46.5612 27.095C46.3972 27.2254 46.2822 27.4075 46.2351 27.6117L43.6647 38.7501C43.353 40.1031 42.6671 41.3413 41.6853 42.3231C40.7034 43.3049 39.4653 43.9908 38.1123 44.3025L26.9739 46.8757C26.7711 46.924 26.5905 47.0392 26.4612 47.2028C26.332 47.3664 26.2617 47.5688 26.2617 47.7773C26.2617 47.9858 26.332 48.1881 26.4612 48.3517C26.5905 48.5153 26.7711 48.6306 26.9739 48.6789L38.1123 51.2493C39.4654 51.5618 40.7034 52.2483 41.6852 53.2306C42.6669 54.2128 43.3528 55.4512 43.6647 56.8045L46.2351 67.9485C46.2822 68.1526 46.3972 68.3348 46.5612 68.4652C46.7252 68.5956 46.9285 68.6666 47.1381 68.6666C47.3476 68.6666 47.5509 68.5956 47.7149 68.4652C47.8789 68.3348 47.9939 68.1526 48.0411 67.9485L50.6143 56.8045Z"/><path fill="#FAF9F8" stroke="#141417" stroke-linecap="round" stroke-linejoin="round" stroke-width="2.4" d="M28.2902 111.771L37.0094 108.862C37.1721 108.808 37.3137 108.704 37.414 108.565C37.5143 108.425 37.5683 108.258 37.5683 108.087C37.5683 107.915 37.5143 107.748 37.414 107.609C37.3137 107.469 37.1721 107.365 37.0094 107.311L29.8414 104.923C29.3594 104.761 28.9215 104.49 28.5624 104.131C28.2032 103.771 27.9327 103.333 27.7722 102.851L25.381 95.6854C25.3267 95.5226 25.2226 95.3811 25.0834 95.2808C24.9442 95.1804 24.7769 95.1265 24.6054 95.1265C24.4338 95.1265 24.2666 95.1804 24.1274 95.2808C23.9882 95.3811 23.8841 95.5226 23.8298 95.6854L21.4414 102.842C21.2802 103.324 21.009 103.762 20.6494 104.121C20.2898 104.48 19.8516 104.751 19.3694 104.911L12.1986 107.303C12.0358 107.357 11.8942 107.461 11.7939 107.6C11.6936 107.739 11.6396 107.907 11.6396 108.078C11.6396 108.25 11.6936 108.417 11.7939 108.556C11.8942 108.695 12.0358 108.799 12.1986 108.854L19.3694 111.245C19.8518 111.405 20.2901 111.676 20.6493 112.036C21.0085 112.396 21.2788 112.834 21.4386 113.317L23.8298 120.488C23.8841 120.651 23.9882 120.792 24.1274 120.892C24.2666 120.993 24.4338 121.047 24.6054 121.047C24.7769 121.047 24.9442 120.993 25.0834 120.892C25.2226 120.792 25.3267 120.651 25.381 120.488L28.2902 111.771Z"/><path fill="#FAF9F8" stroke="#141417" stroke-linecap="round" stroke-linejoin="round" stroke-width="2.4" d="M226.477 130.596L235.197 127.687C235.359 127.632 235.5 127.527 235.6 127.388C235.7 127.249 235.754 127.081 235.754 126.91C235.754 126.738 235.7 126.571 235.6 126.432C235.5 126.292 235.359 126.188 235.197 126.133L228.029 123.744C227.547 123.584 227.109 123.314 226.749 122.954C226.39 122.595 226.12 122.157 225.959 121.675L223.568 114.507C223.513 114.345 223.409 114.204 223.269 114.104C223.13 114.004 222.963 113.95 222.791 113.95C222.62 113.95 222.452 114.004 222.313 114.104C222.174 114.204 222.069 114.345 222.014 114.507L219.626 121.672C219.466 122.155 219.196 122.594 218.836 122.953C218.477 123.313 218.039 123.584 217.557 123.744L210.386 126.133C210.223 126.188 210.082 126.292 209.982 126.432C209.882 126.571 209.829 126.738 209.829 126.91C209.829 127.081 209.882 127.249 209.982 127.388C210.082 127.527 210.223 127.632 210.386 127.687L217.554 130.078C218.036 130.238 218.475 130.508 218.835 130.867C219.194 131.227 219.465 131.665 219.626 132.147L222.014 139.321C222.069 139.483 222.174 139.624 222.313 139.724C222.452 139.824 222.62 139.878 222.791 139.878C222.963 139.878 223.13 139.824 223.269 139.724C223.409 139.624 223.513 139.483 223.568 139.321L226.477 130.596Z"/></svg>