<svg xmlns="http://www.w3.org/2000/svg" fill="none" viewBox="0 0 246 213"><path fill="#FEFDBF" d="M235 112.614A111.998 111.998 0 0 0 99.367 3.122 112.002 112.002 0 0 0 20.98 158.814h204.042a111.566 111.566 0 0 0 9.979-46.2Z"/><path stroke="#141417" stroke-linecap="round" stroke-linejoin="round" stroke-width="2.4" d="M13.8 158.814h218.4m-231 0h7m229.6 0h7"/><path fill="#141417" d="M194.039 198.239c1.837-.818 2.842-1.68 2.842-2.571 0-5.115-32.34-9.262-72.24-9.262-39.9 0-72.24 4.147-72.24 9.262 0 1.084 1.47 2.125 4.147 3.08-11.254 1.255-18.948 3.727-18.948 6.575 0 4.09 15.756 7.408 35.19 7.408 19.435 0 35.185-3.306 35.185-7.408a1.698 1.698 0 0 0-.159-.661 552.26 552.26 0 0 0 16.828.255c8.565 0 16.774-.194 24.399-.544-.192.281-.303.61-.319.95 0 4.09 15.755 7.408 35.19 7.408 19.435 0 35.193-3.306 35.193-7.408 0-3.344-10.57-6.16-25.068-7.084Z"/><path fill="#FAF9F8" stroke="#141417" stroke-linecap="round" stroke-linejoin="round" stroke-width="2.4" d="M193.176 137.943H59.817v56.459a2.8 2.8 0 0 0 2.8 2.8h127.759a2.801 2.801 0 0 0 2.8-2.8v-56.459Z"/><path fill="#FAF9F8" d="M117.235 137.943v16.669a9.26 9.26 0 0 0 9.261 9.101 9.264 9.264 0 0 0 9.261-9.101v-16.669h-18.522Z"/><path stroke="#141417" stroke-linecap="round" stroke-linejoin="round" stroke-width="2.4" d="M117.235 137.943v16.669a9.26 9.26 0 0 0 9.261 9.101 9.264 9.264 0 0 0 9.261-9.101v-16.669h-18.522Z"/><path fill="#FAF9F8" d="M187.576 82.377H65.417a5.6 5.6 0 0 0-5.6 5.6v49.966h133.359V87.977a5.6 5.6 0 0 0-5.6-5.6Z"/><path stroke="#141417" stroke-linecap="round" stroke-linejoin="round" stroke-width="2.4" d="M187.576 82.377H65.417a5.6 5.6 0 0 0-5.6 5.6v49.966h133.359V87.977a5.6 5.6 0 0 0-5.6-5.6v0Z"/><path fill="#FAF9F8" d="M109.84 154.612a16.68 16.68 0 0 0 10.24 15.597 16.68 16.68 0 0 0 12.86 0 16.662 16.662 0 0 0 9.033-9.152 16.676 16.676 0 0 0 1.207-6.445v-9.263h39.499a3.081 3.081 0 0 1 3.08 3.08v38.287a3.077 3.077 0 0 1-3.08 3.08H70.315a3.078 3.078 0 0 1-3.08-3.08v-38.278a3.08 3.08 0 0 1 3.08-3.08h39.525v9.254Z"/><path stroke="#141417" stroke-linecap="round" stroke-linejoin="round" stroke-width="2.4" d="M109.84 154.612a16.68 16.68 0 0 0 10.24 15.597 16.68 16.68 0 0 0 12.86 0 16.662 16.662 0 0 0 9.033-9.152 16.676 16.676 0 0 0 1.207-6.445v-9.263h39.499a3.081 3.081 0 0 1 3.08 3.08v38.287a3.077 3.077 0 0 1-3.08 3.08H70.315a3.078 3.078 0 0 1-3.08-3.08v-38.278a3.08 3.08 0 0 1 3.08-3.08h39.525v9.254Zm-27.796 35.193v-44.456m14.817 44.456v-44.456m14.818 44.456v-27.549m14.819 27.549v-18.522m14.817 18.522v-27.549m14.817 27.549v-44.456m14.818 44.456v-44.456"/><path stroke="#141417" stroke-linecap="round" stroke-linejoin="round" stroke-width="2.4" d="M124.955 154.612c0 .409.162.801.451 1.091a1.545 1.545 0 0 0 2.634-1.091c0-.41-.162-.802-.452-1.091a1.542 1.542 0 0 0-2.633 1.091v0Z"/><path fill="#FAF9F8" d="M47.932 205.322a4.629 4.629 0 0 1-4.631-4.631 4.633 4.633 0 0 1 4.631-4.631H68a4.633 4.633 0 0 1 3.274 7.906A4.629 4.629 0 0 1 68 205.322H47.932Z"/><path stroke="#141417" stroke-miterlimit="10" stroke-width="2.4" d="M47.932 205.322a4.629 4.629 0 0 1-4.631-4.631 4.633 4.633 0 0 1 4.631-4.631H68a4.633 4.633 0 0 1 3.274 7.906A4.629 4.629 0 0 1 68 205.322H47.932Z"/><path fill="#FAF9F8" d="M44.85 196.082a4.632 4.632 0 1 1 0-9.259h20.064a4.631 4.631 0 1 1 0 9.259H44.849Z"/><path stroke="#141417" stroke-miterlimit="10" stroke-width="2.4" d="M44.85 196.082a4.632 4.632 0 1 1 0-9.259h20.064a4.631 4.631 0 1 1 0 9.259H44.849Z"/><path fill="#FAF9F8" d="M49.785 186.812a4.63 4.63 0 0 1-3.274-7.906 4.63 4.63 0 0 1 3.274-1.357H69.85a4.63 4.63 0 0 1 3.275 7.906 4.63 4.63 0 0 1-3.275 1.357H49.786Z"/><path stroke="#141417" stroke-miterlimit="10" stroke-width="2.4" d="M49.785 186.812a4.63 4.63 0 0 1-3.274-7.906 4.63 4.63 0 0 1 3.274-1.357H69.85a4.63 4.63 0 0 1 3.275 7.906 4.63 4.63 0 0 1-3.275 1.357H49.786Z"/><path fill="#FAF9F8" d="M46.28 177.55a4.632 4.632 0 1 1 0-9.26h20.064a4.632 4.632 0 1 1 0 9.26H46.28Z"/><path stroke="#141417" stroke-miterlimit="10" stroke-width="2.4" d="M46.28 177.55a4.632 4.632 0 1 1 0-9.26h20.064a4.632 4.632 0 1 1 0 9.26H46.28Z"/><path fill="#FAF9F8" d="M50.144 168.29a4.63 4.63 0 0 1-3.275-7.906 4.63 4.63 0 0 1 3.275-1.357h20.065a4.63 4.63 0 0 1 4.63 4.632 4.629 4.629 0 0 1-4.63 4.631H50.144Z"/><path fill="#FAF9F8" stroke="#141417" stroke-miterlimit="10" stroke-width="2.4" d="M50.144 168.29a4.63 4.63 0 0 1-3.275-7.906 4.63 4.63 0 0 1 3.275-1.357h20.065a4.63 4.63 0 0 1 4.63 4.632 4.629 4.629 0 0 1-4.63 4.631H50.144Z"/><path fill="#FAF9F8" d="M77.26 205.322a4.629 4.629 0 0 1-4.632-4.631 4.633 4.633 0 0 1 4.631-4.631h20.065c1.228 0 2.406.488 3.275 1.356a4.635 4.635 0 0 1 0 6.55 4.63 4.63 0 0 1-3.275 1.356H77.259Z"/><path stroke="#141417" stroke-miterlimit="10" stroke-width="2.4" d="M77.26 205.322a4.629 4.629 0 0 1-4.632-4.631 4.633 4.633 0 0 1 4.631-4.631h20.065c1.228 0 2.406.488 3.275 1.356a4.635 4.635 0 0 1 0 6.55 4.63 4.63 0 0 1-3.275 1.356H77.259Z"/><path fill="#FAF9F8" d="M159.064 205.322a4.63 4.63 0 1 1 0-9.262h20.067a4.631 4.631 0 1 1 0 9.262h-20.067Z"/><path stroke="#141417" stroke-miterlimit="10" stroke-width="2.4" d="M159.064 205.322a4.63 4.63 0 1 1 0-9.262h20.067a4.631 4.631 0 1 1 0 9.262h-20.067Z"/><path fill="#FAF9F8" d="M156.39 196.082a4.63 4.63 0 1 1 0-9.259h20.064a4.63 4.63 0 1 1 0 9.259H156.39Z"/><path stroke="#141417" stroke-miterlimit="10" stroke-width="2.4" d="M156.39 196.082a4.63 4.63 0 1 1 0-9.259h20.064a4.63 4.63 0 1 1 0 9.259H156.39Z"/><path fill="#FAF9F8" d="M188.391 205.322a4.63 4.63 0 1 1 0-9.262h20.065a4.63 4.63 0 0 1 0 9.262h-20.065Z"/><path stroke="#141417" stroke-miterlimit="10" stroke-width="2.4" d="M188.391 205.322a4.63 4.63 0 1 1 0-9.262h20.065a4.63 4.63 0 0 1 0 9.262h-20.065Z"/><path fill="#FAF9F8" d="M72.477 137.944a4.63 4.63 0 0 1-4.631-4.632 4.629 4.629 0 0 1 4.63-4.631h20.066a4.63 4.63 0 0 1 3.275 7.906 4.63 4.63 0 0 1-3.275 1.357H72.477Z"/><path stroke="#141417" stroke-miterlimit="10" stroke-width="2.4" d="M72.477 137.944a4.63 4.63 0 0 1-4.631-4.632 4.629 4.629 0 0 1 4.63-4.631h20.066a4.63 4.63 0 0 1 3.275 7.906 4.63 4.63 0 0 1-3.275 1.357H72.477Z"/><path fill="#FAF9F8" d="M101.801 137.944a4.63 4.63 0 0 1-3.275-7.906 4.63 4.63 0 0 1 3.275-1.357h20.079a4.632 4.632 0 0 1 0 9.263h-20.079Z"/><path stroke="#141417" stroke-miterlimit="10" stroke-width="2.4" d="M101.801 137.944a4.63 4.63 0 0 1-3.275-7.906 4.63 4.63 0 0 1 3.275-1.357h20.079a4.632 4.632 0 0 1 0 9.263h-20.079Z"/><path fill="#FAF9F8" d="M131.119 137.944a4.628 4.628 0 0 1-3.274-1.357 4.628 4.628 0 0 1 0-6.549 4.628 4.628 0 0 1 3.274-1.357h20.065a4.63 4.63 0 0 1 3.275 7.906 4.63 4.63 0 0 1-3.275 1.357h-20.065Z"/><path stroke="#141417" stroke-miterlimit="10" stroke-width="2.4" d="M131.119 137.944a4.628 4.628 0 0 1-3.274-1.357 4.628 4.628 0 0 1 0-6.549 4.628 4.628 0 0 1 3.274-1.357h20.065a4.63 4.63 0 0 1 3.275 7.906 4.63 4.63 0 0 1-3.275 1.357h-20.065Z"/><path fill="#FAF9F8" d="M160.455 137.944a4.628 4.628 0 0 1-3.274-1.357 4.628 4.628 0 0 1 0-6.549 4.628 4.628 0 0 1 3.274-1.357h20.065a4.632 4.632 0 0 1 0 9.263h-20.065Z"/><path stroke="#141417" stroke-miterlimit="10" stroke-width="2.4" d="M160.455 137.944a4.628 4.628 0 0 1-3.274-1.357 4.628 4.628 0 0 1 0-6.549 4.628 4.628 0 0 1 3.274-1.357h20.065a4.632 4.632 0 0 1 0 9.263h-20.065Z"/><path fill="#FAF9F8" d="M128.003 128.681a4.634 4.634 0 0 1-4.381-2.831 4.634 4.634 0 0 1 1.033-5.114 4.638 4.638 0 0 1 3.348-1.315h20.065a4.638 4.638 0 0 1 4.382 2.832 4.625 4.625 0 0 1 0 3.597 4.645 4.645 0 0 1-2.575 2.512 4.63 4.63 0 0 1-1.807.319h-20.065Z"/><path stroke="#141417" stroke-miterlimit="10" stroke-width="2.4" d="M128.003 128.681a4.634 4.634 0 0 1-4.381-2.831 4.634 4.634 0 0 1 1.033-5.114 4.638 4.638 0 0 1 3.348-1.315h20.065a4.638 4.638 0 0 1 4.382 2.832 4.625 4.625 0 0 1 0 3.597 4.645 4.645 0 0 1-2.575 2.512 4.63 4.63 0 0 1-1.807.319h-20.065Z"/><path fill="#FAF9F8" d="M143.832 119.422a4.632 4.632 0 0 1 0-9.263h20.065c1.228 0 2.406.488 3.274 1.357a4.628 4.628 0 0 1 0 6.549 4.628 4.628 0 0 1-3.274 1.357h-20.065Z"/><path stroke="#141417" stroke-miterlimit="10" stroke-width="2.4" d="M143.832 119.422a4.632 4.632 0 0 1 0-9.263h20.065c1.228 0 2.406.488 3.274 1.357a4.628 4.628 0 0 1 0 6.549 4.628 4.628 0 0 1-3.274 1.357h-20.065Z"/><path fill="#FAF9F8" d="M75.355 128.681a4.633 4.633 0 0 1-3.2-7.864 4.633 4.633 0 0 1 3.2-1.396h20.068a4.633 4.633 0 0 1 3.2 7.864 4.633 4.633 0 0 1-3.2 1.396H75.355Z"/><path stroke="#141417" stroke-miterlimit="10" stroke-width="2.4" d="M75.355 128.681a4.633 4.633 0 0 1-3.2-7.864 4.633 4.633 0 0 1 3.2-1.396h20.068a4.633 4.633 0 0 1 3.2 7.864 4.633 4.633 0 0 1-3.2 1.396H75.355Z"/><path fill="#FAF9F8" d="M114.625 127.838a4.63 4.63 0 0 1-5.32-7.577l16.408-11.539a4.624 4.624 0 0 1 3.532-.938 4.644 4.644 0 0 1 3.111 1.916 4.63 4.63 0 0 1-1.323 6.582l-16.408 11.556Z"/><path stroke="#141417" stroke-miterlimit="10" stroke-width="2.4" d="M114.625 127.838a4.63 4.63 0 0 1-5.32-7.577l16.408-11.539a4.624 4.624 0 0 1 3.532-.938 4.644 4.644 0 0 1 3.111 1.916 4.63 4.63 0 0 1-1.323 6.582l-16.408 11.556Z"/><path fill="#FAF9F8" d="M157.327 128.681a4.634 4.634 0 0 1-4.517-4.63 4.63 4.63 0 0 1 4.517-4.63h20.068a4.634 4.634 0 0 1 4.517 4.63 4.63 4.63 0 0 1-4.517 4.63h-20.068Z"/><path stroke="#141417" stroke-miterlimit="10" stroke-width="2.4" d="M157.327 128.681a4.634 4.634 0 0 1-4.517-4.63 4.63 4.63 0 0 1 4.517-4.63h20.068a4.634 4.634 0 0 1 4.517 4.63 4.63 4.63 0 0 1-4.517 4.63h-20.068Z"/><path fill="#FAF9F8" stroke="#141417" stroke-linecap="round" stroke-linejoin="round" stroke-width="2.4" d="M50.614 56.804a7.403 7.403 0 0 1 5.553-5.552L67.31 48.68a.927.927 0 0 0 0-1.806l-11.144-2.57a7.41 7.41 0 0 1-5.556-5.553l-2.57-11.138a.927.927 0 0 0-1.806 0l-2.57 11.138a7.404 7.404 0 0 1-5.553 5.553l-11.138 2.573a.927.927 0 0 0 0 1.803l11.138 2.57a7.409 7.409 0 0 1 5.553 5.555l2.57 11.144a.926.926 0 0 0 1.806 0l2.573-11.143ZM28.29 111.771l8.72-2.909a.816.816 0 0 0 0-1.551l-7.169-2.388a3.279 3.279 0 0 1-2.07-2.072l-2.39-7.166a.817.817 0 0 0-1.551 0l-2.389 7.157a3.275 3.275 0 0 1-2.072 2.069l-7.17 2.392a.816.816 0 0 0 0 1.551l7.17 2.391a3.257 3.257 0 0 1 2.07 2.072l2.39 7.171a.814.814 0 0 0 .776.559.814.814 0 0 0 .776-.559l2.91-8.717Zm198.187 18.825 8.72-2.909a.824.824 0 0 0 .557-.777.818.818 0 0 0-.557-.777l-7.168-2.389a3.263 3.263 0 0 1-2.07-2.069l-2.391-7.168a.818.818 0 0 0-.777-.557.82.82 0 0 0-.777.557l-2.388 7.165c-.16.483-.43.922-.79 1.281-.359.36-.797.631-1.279.791l-7.171 2.389a.816.816 0 0 0-.557.777.82.82 0 0 0 .557.777l7.168 2.391c.482.16.921.43 1.281.789.359.36.63.798.791 1.28l2.388 7.174a.824.824 0 0 0 .777.557.818.818 0 0 0 .777-.557l2.909-8.725Z"/></svg>