<svg xmlns="http://www.w3.org/2000/svg" viewBox="0 0 140.7 30.8"><path fill="#1a1a1d" d="M33.8 6.6h5.4c3.4 0 5.8 1.1 5.8 4.7v.1c0 1.6-.7 3.1-2.7 3.8 2.6.6 3.6 2 3.6 4.3v.1c0 3.4-2.3 5.1-5.9 5.1h-6.2V6.6zm5.5 7.9c2.7 0 3.7-1 3.7-3.2v-.1c0-2.1-1.2-2.9-3.7-2.9H36v6.2h3.3zM40 23c2.6 0 3.8-1.2 3.8-3.4v-.1c0-2.2-1.2-3.3-4.2-3.3H36V23h4zm8.5-11.6h2.1v2.4c.8-1.5 2-2.5 4.4-2.6v2c-2.7.1-4.4 1-4.4 4.2v7.3h-2.1V11.4zM56 21c0-3.1 3.2-4.1 6.6-4.1h1.9v-1c0-2.1-.8-3-2.8-3-1.8 0-2.8.8-3 2.4h-2.1c.3-3 2.7-4.1 5.2-4.1s4.8 1 4.8 4.7v8.7h-2.1V23c-1 1.2-2.2 1.9-4.1 1.9-2.5 0-4.4-1.2-4.4-3.9zm8.5-1v-1.6h-1.8c-2.7 0-4.6.7-4.6 2.6 0 1.4.7 2.2 2.5 2.2 2.2 0 3.9-1.1 3.9-3.2zm5-12.7c0-.8.6-1.4 1.4-1.4.8 0 1.4.6 1.4 1.4 0 .8-.6 1.4-1.4 1.4-.8 0-1.4-.7-1.4-1.4zm.4 4.1H72v13.2h-2.1V11.4zm5.5 0h2.1v2.1c.6-1.2 2.1-2.3 4.3-2.3 2.7 0 4.7 1.5 4.7 5.3v8.1h-2.1v-8.3c0-2.3-1-3.4-3.1-3.4-1.9 0-3.7 1.2-3.7 3.6v8h-2.1V11.4zm14.7 10v-8.1h-1.9v-1.8h1.9v-3h2.1v3h3.1v1.8h-3.1v7.9c0 1.3.6 1.9 1.6 1.9.7 0 1.2-.1 1.6-.3v1.8c-.4.2-.9.3-1.8.3-2.3 0-3.5-1.5-3.5-3.5zm7.6-10h2.1v2.4c.8-1.5 2-2.5 4.4-2.6v2c-2.7.1-4.4 1-4.4 4.2v7.3h-2.1V11.4zm8.5 8.4v-8.4h2.1v8.3c0 2.3 1 3.4 3.1 3.4 1.9 0 3.6-1.2 3.6-3.6v-8h2.1v13.2H115v-2.1c-.6 1.2-2.1 2.3-4.2 2.3-2.6 0-4.6-1.4-4.6-5.1zm13.2.8h2c.2 1.6 1 2.6 3.1 2.6 2 0 2.9-.7 2.9-2.1 0-1.4-1-1.8-3.1-2.2-3.4-.6-4.6-1.6-4.6-3.9 0-2.5 2.4-3.7 4.5-3.7 2.4 0 4.4 1 4.8 3.8h-2c-.3-1.4-1.1-2.1-2.8-2.1-1.5 0-2.5.8-2.5 1.9 0 1.2.7 1.7 3.1 2.1 2.7.5 4.7 1.1 4.7 3.9 0 2.4-1.6 4-4.9 4-3.1 0-5-1.6-5.2-4.3zm12.8.8v-8.1h-1.9v-1.8h1.9v-3h2.1v3h3.1v1.8h-3.1v7.9c0 1.3.6 1.9 1.6 1.9.7 0 1.2-.1 1.6-.3v1.8c-.4.2-.9.3-1.8.3-2.3 0-3.5-1.5-3.5-3.5zm-116.6-.1c1 0 2-.3 3-.8 2.8-1.6 3.8-5.3 2.2-8.1-1.6-2.8-5.3-3.8-8.1-2.2-1.4.8-2.3 2.1-2.8 3.6-.4 1.5-.2 3.1.6 4.5 1 2 3 3 5.1 3zm-3.9-6.9c.3-1 .9-1.9 1.9-2.4.6-.4 1.3-.5 2-.5 1.4 0 2.7.7 3.5 2 1.1 1.9.4 4.4-1.5 5.5-1.9 1.1-4.4.4-5.5-1.5-.5-1-.7-2.1-.4-3.1zm10.5-2.9c.8 1.3 2 2.3 3.5 2.7.5.1 1 .2 1.5.2.3 0 .5 0 .8-.1-.1-.6-.2-1.2-.3-1.9-.5.1-1 0-1.5-.1-1-.3-1.8-.9-2.4-1.8-.5-.9-.7-1.9-.4-2.9.1-.5.4-.9.7-1.3-.5-.4-.9-.8-1.5-1.2-.5.6-.8 1.3-1 2-.4 1.6-.2 3.1.6 4.4zm3.5 5.1c-1.5.4-2.7 1.3-3.5 2.7-.8 1.3-1 2.9-.6 4.4.2.8.6 1.4 1 2l1.5-1.2c-.3-.4-.5-.8-.7-1.3-.3-1-.1-2 .4-2.9.5-.9 1.4-1.5 2.4-1.8.5-.1 1-.2 1.5-.1.1-.6.2-1.2.3-1.9-.8-.2-1.5-.1-2.3.1zM15.5 25c1.6 0 3 1 3.6 2.4.6-.2 1.2-.4 1.8-.7-.9-2.1-2.9-3.6-5.3-3.6s-4.5 1.5-5.3 3.6c.6.3 1.2.5 1.8.7.5-1.4 1.8-2.4 3.4-2.4zm0-17.3c2.4 0 4.5-1.5 5.3-3.6-.6-.3-1.1-.5-1.8-.7-.6 1.4-2 2.4-3.6 2.4s-3-1-3.6-2.4c-.6.2-1.2.4-1.8.7 1.1 2.1 3.1 3.6 5.5 3.6zM8.9 19.3c-.8-1.3-2-2.3-3.5-2.7-.8-.2-1.5-.2-2.3-.1.1.6.2 1.2.3 1.9h.5c.3 0 .7 0 1 .1 1 .3 1.8.9 2.4 1.8.8 1.4.6 3.1-.3 4.3.5.4.9.8 1.5 1.2 1.3-1.9 1.6-4.5.4-6.5zm-3.5-5.1c1.5-.4 2.7-1.3 3.5-2.7.8-1.3 1-2.9.6-4.4-.2-.8-.6-1.4-1-2-.6.4-1.1.8-1.5 1.2.3.4.5.8.7 1.3.3 1 .1 2-.4 2.9-.5.9-1.4 1.5-2.4 1.8-.5.1-1 .2-1.5.1-.1.6-.2 1.2-.3 1.9.3 0 .5.1.8.1.5 0 1 0 1.5-.2z"/></svg>