<svg xmlns="http://www.w3.org/2000/svg" viewBox="0 0 100 100"><g fill-rule="evenodd"><rect width="100" height="100" fill="var(--color-secondary)" stroke="var(--color-primary)" stroke-width="1"/><text fill="var(--color-primary)" font-size="10"><tspan x="25.51" y="78.19">No internet </tspan> <tspan x="26.13" y="88.19">connection</tspan></text><g fill-rule="nonzero" transform="translate(16 11)"><path fill="var(--color-primary)" d="M34.5,0 C21.8212243,0 10.0398039,3.60716984 0,9.76497396 L2.7789277,13.2413738 C12.0444662,7.67133395 22.8668111,4.41666667 34.5,4.41666667 C46.1332116,4.41666667 56.9555481,7.67132998 66.2210739,13.2413738 L69,9.76497396 C58.9601963,3.60718618 47.1788015,0 34.5,0 Z M34.5000006,13.25 C25.0010813,13.25 16.1865646,16.004156 8.72394029,20.703125 L11.5028681,24.1708982 C18.194624,20.0682102 26.0503212,17.6666667 34.5000006,17.6666667 C42.9497024,17.6666667 50.8053793,20.0682433 57.4971325,24.1708982 L60.2760586,20.703125 C52.8134502,16.0042289 43.9989466,13.25 34.5000006,13.25 Z M34.5000006,26.5 C28.1840425,26.5 22.3276388,28.3919631 17.4478804,31.6326499 L20.2268082,35.1090497 C24.3405486,32.4634509 29.2293686,30.9166667 34.5000006,30.9166667 C37.1738655,30.9166667 39.7483274,31.3176426 42.1743149,32.0553385 L45.5812975,28.6393229 C42.1355109,27.3085234 38.4247978,26.5 34.5000006,26.5 Z M34.5000006,39.75 C30.8507893,39.75 27.8925191,42.7161135 27.8925191,46.375 C27.8925191,50.0338865 30.8507893,53 34.5000006,53 C38.1492118,53 41.107482,50.0338865 41.107482,46.375 C41.107482,42.7161135 38.1492118,39.75 34.5000006,39.75 L34.5000006,39.75 Z"/><polygon fill="var(--color-action)" points="47.111 31 44 34.111 51.889 42 44 49.889 47.111 53 55 45.111 62.889 53 66 49.889 58.111 42 66 34.111 62.889 31 55 38.889"/></g></g></svg>