<svg xmlns="http://www.w3.org/2000/svg" viewBox="0 0 100 100"><g fill-rule="evenodd"><path fill="var(--color-secondary)" stroke="var(--color-primary)" d="M0 0h100v100H0z"/><text fill="var(--color-primary)" font-size="10"><tspan x="25.51" y="78.19">No internet </tspan> <tspan x="26.13" y="88.19">connection</tspan></text><g fill-rule="nonzero"><path fill="var(--color-primary)" d="M50.5 11c-12.679 0-24.46 3.607-34.5 9.765l2.779 3.476c9.265-5.57 20.088-8.824 31.721-8.824s22.456 3.254 31.721 8.824L85 20.765C74.96 14.607 63.179 11 50.5 11Zm0 13.25c-9.499 0-18.313 2.754-25.776 7.453l2.779 3.468c6.692-4.103 14.547-6.504 22.997-6.504s16.305 2.401 22.997 6.504l2.78-3.468C68.812 27.004 59.998 24.25 50.5 24.25Zm0 13.25a30.704 30.704 0 0 0-17.052 5.133l2.779 3.476A26.282 26.282 0 0 1 50.5 41.917c2.674 0 5.248.4 7.674 1.138l3.407-3.416C58.136 38.31 54.425 37.5 50.5 37.5Zm0 13.25c-3.65 0-6.607 2.966-6.607 6.625S46.85 64 50.5 64c3.65 0 6.607-2.966 6.607-6.625S54.15 50.75 50.5 50.75Z"/><path fill="var(--color-action)" d="M63.111 42 60 45.111 67.889 53 60 60.889 63.111 64 71 56.111 78.889 64 82 60.889 74.111 53 82 45.111 78.889 42 71 49.889z"/></g></g></svg>