<svg xmlns="http://www.w3.org/2000/svg" xmlns:xlink="http://www.w3.org/1999/xlink" viewBox="0 0 67.985 31.633"><defs><polygon id="atanas-info-svg__eon-home-icon-a" points="0 0 21.49 0 21.49 19.819 0 19.819"/><polygon id="atanas-info-svg__eon-home-icon-c" points="0 0 22.124 0 22.124 15.162 0 15.162"/></defs><g fill="none" fill-rule="evenodd"><path fill="#EA1C0A" d="M37.702,15.41 C37.309,15.817 36.614,15.806 36.182,15.806 C35.442,15.806 34.888,15.856 34.888,15.063 C34.888,13.901 35.692,9.723 36.905,8.053 C37.229,7.606 37.944,7.532 38.425,7.532 C39.641,7.532 39.687,7.755 39.687,8.397 C39.687,9.301 38.767,14.306 37.702,15.41 M40.042,3.766 C33.117,3.766 31.082,7.642 30.605,8.796 C29.482,11.508 28.115,14.369 28.115,15.93 C28.115,19.42 32.292,19.3990059 34.165,19.3990059 C38.001,19.3990059 41.398,19.432 43.941,14.568 C44.55,13.404 46.443,9.217 46.443,7.309 C46.443,4.212 42.9,3.766 40.043,3.766"/><mask id="atanas-info-svg__eon-home-icon-b" fill="#fff"><use href="#atanas-info-svg__eon-home-icon-a"/></mask><path fill="#EA1C0A" d="M8.517,8.919 C8.92,8.517 12.947,5.029 15.24,5.029 C15.945,5.029 15.987,6.313 15.987,7.209 C15.987,8.885 15.822,9.191 13.995,9.191 L8.84,9.191 C8.441,9.191 8.218,9.216 8.517,8.919 M7.27,12.858 C7.27,12.858 11.53,12.982 13.645,12.982 L15.762,12.982 C18.775,12.982 21.489,12.072 21.489,7.68 C21.489,5.625 21.006,1.77635684e-15 17.456,1.77635684e-15 C13.515,1.77635684e-15 0,5.247 0,12.214 C0,16.371 5.747,19.819 12.127,19.819 C16.365,19.819 21.416,17.377 21.416,15.831 C21.416,15.038 19.354,14.815 17.954,14.815 C16.514,14.815 14.269,15.072 14.269,15.072 C13.995,15.36 12.736,16.574 10.783,16.574 C8.303,16.574 6.673,14.414 6.673,12.982 C6.673,12.783 6.929,12.851 7.271,12.858" mask="url(#atanas-info-svg__eon-home-icon-b)"/><path fill="#EA1C0A" d="M25.923,8.944 C24.833,8.944 23.727,9.097 23.109,10.505 C23.043,10.657 22.536,11.69 22.536,12.289 C22.536,13.062 23.008,13.552 24.379,13.552 C25.294,13.552 26.592,13.355 27.087,12.14 C27.166,11.949 27.717,10.653 27.717,10.183 C27.717,9.327 26.848,8.944 25.923,8.944"/><g transform="translate(45.861 4.237)"><mask id="atanas-info-svg__eon-home-icon-d" fill="#fff"><use href="#atanas-info-svg__eon-home-icon-c"/></mask><path fill="#EA1C0A" d="M14.465,13.968 C14.381,14.218 14.505,14.387 14.605,14.466 C15.088,14.85 16.078,15.162 17.391,15.162 C18.117,15.162 18.677,15.053 18.969,14.288 C19.414,13.124 22.124,5.364 22.124,3.098 C22.124,1.747 21.482,-8.8817842e-16 18.636,-8.8817842e-16 C15.399,-8.8817842e-16 11.738,3.443 9.722,3.443 C8.526,3.443 8.485,2.18 8.485,1.809 C8.485,0.949 8.481,0.956 8.481,0.956 C7.966,0.681 6.939,0.644 6.41,0.644 C5.688,0.644 5.17,0.764 5.013,0.788 C4.673,0.841 4.608,0.965 4.541,1.115 C2.977,4.649 0.719,11.169 0.283,12.932 L0.045,13.895 C-0.039,14.235 -0.025,14.396 0.258,14.542 C0.349,14.589 1.304,15.062 2.201,15.062 C2.925,15.062 3.546,14.963 3.969,14.492 C5.263,13.054 12.229,5.004 16.022,5.004 C16.647,5.004 16.832,5.473 16.832,6.096 C16.832,7.235 14.959,12.505 14.465,13.968 L14.465,13.968 Z" mask="url(#atanas-info-svg__eon-home-icon-d)"/></g><path fill="#EA1C0A" d="M49.433,25.057 L50.915,25.057 L50.915,31.528 L49.433,31.528 L49.433,28.8 L46.96,28.8 L46.96,31.528 L45.468,31.528 L45.468,25.057 L46.96,25.057 L46.96,27.603 L49.433,27.603 L49.433,25.057 Z M54.426,29.365 C54.426,28.608 54.176,28.283 53.676,28.283 C53.204,28.283 52.963,28.608 52.963,29.336 C52.963,30.102 53.213,30.417 53.695,30.417 C54.175,30.417 54.426,30.073 54.426,29.365 M55.812,29.335 C55.812,30.676 55.128,31.633 53.666,31.633 C52.28,31.633 51.578,30.657 51.578,29.365 C51.578,28.015 52.242,27.067 53.714,27.067 C55.109,27.067 55.812,28.015 55.812,29.336 M56.446,27.163 L57.764,27.163 L57.764,27.651 C57.976,27.383 58.322,27.067 58.957,27.067 C59.66,27.067 60.007,27.344 60.266,27.699 C60.478,27.421 60.969,27.067 61.796,27.067 C62.903,27.067 63.365,27.641 63.365,28.704 L63.365,31.528 L61.989,31.528 L61.989,28.828 C61.989,28.513 61.825,28.311 61.363,28.311 C61.036,28.311 60.757,28.426 60.603,28.541 L60.603,31.528 L59.237,31.528 L59.237,28.656 C59.121,28.474 58.9,28.311 58.544,28.311 C58.236,28.311 58.014,28.417 57.812,28.541 L57.812,31.528 L56.446,31.528 L56.446,27.163 L56.446,27.163 Z M66.693,28.838 C66.703,28.78 66.703,28.742 66.703,28.723 C66.703,28.283 66.356,28.139 66.049,28.139 C65.587,28.139 65.365,28.455 65.336,28.838 L66.693,28.838 L66.693,28.838 Z M67.223,30.12 L67.848,30.992 C67.4013531,31.407434 66.8129715,31.6367061 66.203,31.6330442 C64.643,31.6330442 63.96,30.676 63.96,29.345 C63.96,28.13 64.682,27.067 66.049,27.067 C67.453,27.067 67.954,28.043 67.954,28.991 C67.954,29.25 67.925,29.604 67.877,29.786 L65.337,29.786 C65.365,30.236 65.673,30.494 66.203,30.494 C66.549,30.494 66.895,30.36 67.223,30.12 Z"/></g></svg>