<svg xmlns="http://www.w3.org/2000/svg" viewBox="0 0 367.183 71.383"><g fill="none"><polygon fill="#474747" points="33.619 28.25 44.446 28.25 44.446 40.816 14.82 40.816 14.82 69.571 0 69.571 0 .495 49.049 .495 49.049 12.889 14.969 12.889 14.969 28.25"/><path fill="#4A4A4A" d="M178.94,48.6714229 C174.758,32.3964229 170.703,16.5114229 166.645,0.616422891 C171.437,-0.745577109 174.078,-0.136577109 175.312,5.37242289 C179.192,22.6964229 183.725,39.8744229 188.218,57.9644229 C188.896,56.4144229 189.415,55.5434229 189.67,54.6004229 C194.007147,38.5810207 198.319819,22.555002 202.608,6.52242289 C204.488,-0.508577109 204.451,-0.517577109 212.329,0.566422891 L227.205,56.9364229 L228.254,56.9424229 C231.364,44.7114229 234.479,32.4824229 237.581,20.2484229 C238.804,15.4224229 240.401,10.6444229 241.094,5.74142289 C241.835,0.497422891 244.34,-0.968577109 249.78,0.622422891 C249.229,3.03342289 248.726,5.52642289 248.087,7.98442289 C243.279,26.4544229 238.441,44.9164229 233.62,63.3824229 C231.819,70.2844229 231.829,70.2874229 223.907,69.6684229 L208.177,10.0034229 L192.413,69.8004229 L184.52,69.8004229 C182.688,62.8334229 180.878,55.9474229 178.94,48.6704229 L178.94,48.6714229 Z"/><path fill="#474747" d="M102.279,70.9104229 C98.077,71.0474229 94.214,71.6044229 90.499,71.0904229 C79.986,69.6364229 73.286,63.5074229 71.217,53.0804229 C69.654,45.2004229 69.714,37.2164229 73.281,29.6804229 C77.563,20.6324229 86.187,16.1734229 97.651,17.0304229 C107.455,17.7634229 115.129,23.6164229 117.669,32.9604229 C118.915,37.5464229 119.235,42.3834229 120.076,47.7584229 L84.971,47.7584229 C84.484,52.6184229 86.041,56.0634229 89.615,58.3384229 C93.227,60.6374229 97.914,61.4984229 100.694,58.2694229 C104.924,53.3574229 109.958,54.2814229 115.088,54.2234229 C116.073,54.2134229 117.06,54.3234229 118.034,54.3774229 C118.239,61.4674229 112.536,67.5284229 102.28,70.9104229 M85.545,36.2194229 C86.079,37.0764229 86.59,38.6614229 87.151,38.6794229 C92.871,38.8624229 98.598,38.7914229 104.581,38.7914229 C103.966,33.4914229 101.8,30.0544229 96.976,29.0014229 C91.675,27.8444229 88.84,29.5984229 85.545,36.2194229 L85.545,36.2194229 Z"/><path fill="#484848" d="M131.185,49.4504229 C135.249,45.4204229 134.344,42.0404229 131.337,38.0364229 C126.787,31.9764229 122.854,25.4524229 118.061,18.2234229 C123.933,18.2234229 128.846,18.0674229 133.735,18.3414229 C134.853,18.4044229 136.192,19.7534229 136.905,20.8514229 C139.216,24.4124229 141.285,28.1314229 143.787,32.3684229 C146.129,28.2454229 147.805,24.6304229 150.125,21.4904229 C151.268,19.9444229 153.516,18.5884229 155.412,18.3564229 C159.324,17.8784229 163.336,18.2124229 168.674,18.2124229 L151.834,43.5964229 L169.365,69.9414229 C163.348,69.9414229 158.158,70.1024229 152.995,69.8094229 C151.93,69.7494229 150.718,68.1444229 149.996,66.9874229 C147.722,63.3404229 145.648,59.5684229 143.213,55.3524229 C141.02,59.0944229 138.807,62.2174229 137.284,65.6464229 C135.669,69.2844229 133.272,70.3754229 129.478,70.0284229 C125.852,69.6964229 122.171,69.9564229 117.446,69.9564229 C122.221,62.8164229 126.594,56.2784229 131.186,49.4504229 L131.185,49.4504229 Z"/><path fill="#454545" d="M52.639,65.7974229 L52.639,0.377422891 L66.254,0.377422891 L66.254,69.9444229 C62.58,69.9444229 58.79,70.1824229 55.069,69.7774229 C54.143,69.6774229 53.443,67.5024229 52.639,65.7974229 L52.639,65.7974229 Z"/><path fill="#4A4A4A" d="M254.251,64.3254229 C246.041,53.3864229 245.754,41.8104229 250.931,30.1484229 C254.783,21.4744229 262.574,18.0324229 271.698,18.2644229 C281.026,18.5014229 288.349,22.4814229 292.021,31.6094229 C295.044,39.1224229 295.337,46.8324229 293.115,54.5734229 C288.145,71.8954229 268.305,77.0114229 254.251,64.3254229 M268.747,24.3474229 C259.766,25.9404229 256.004,32.3414229 254.947,40.4264229 C253.84,48.9034229 254.783,57.1724229 262.456,62.7784229 C264.224,64.0704229 266.682,64.7954229 268.902,65.0304229 C279.032,66.1054229 285.136,60.7424229 287.285,49.2094229 C289.995,34.6624229 282.541,24.1614229 268.747,24.3474229 Z"/><path fill="#484848" d="M356.859,28.1604229 C353.489,31.6244229 350.372,34.8424229 346.975,38.3504229 L367.183,69.3464229 C362.372,70.8764229 359.607,69.7364229 357.201,65.7964229 C352.458,58.0284229 347.125,50.6194229 342.233,43.3544229 C329.207,48.6064229 333.355,59.9974229 332.593,69.7264229 L326.735,69.7264229 L326.735,0.476422891 L332.425,0.476422891 L332.425,42.8174229 C339.47,36.0314229 345.506,30.2364229 351.52,24.4184229 C356.766,19.3444229 356.755,19.3334229 365.71,20.0884229 C362.755781,22.7748259 359.805445,25.4654954 356.859,28.1604229 L356.859,28.1604229 Z"/><path fill="#4E4E4E" d="M322.446,24.4494229 C310.328,27.2144229 307.139,30.6174229 306.633,42.8414229 C306.27,51.6294229 306.563,60.4444229 306.563,69.6074229 L299.971,69.6074229 L299.971,20.0474229 L306.063,20.0474229 L306.614,26.4094229 C310.499,20.0994229 315.789,18.2314229 322.617,18.4874229 C322.617,20.5034229 322.617,22.2834229 322.446,24.4494229 Z"/></g></svg>