<svg xmlns="http://www.w3.org/2000/svg" viewBox="0 0 137 131"><path fill-rule="evenodd" d="M9.164 33.44c6.11-10.288 14.399-18.432 24.868-24.435C44.5 3 55.933 0 68.33 0c12.397 0 23.83 3.001 34.298 9.005 10.47 6.003 18.759 14.147 24.868 24.434 6.11 10.287 9.164 21.52 9.164 33.701 0 14.63-4.345 27.786-13.034 39.472-8.69 11.685-19.915 19.772-33.676 24.26-1.601.29-2.773.087-3.514-.613-.742-.699-1.496-1.874-1.496-2.923v-18.322c0-5.653-1.159-9.615-4.243-12.237 3.381-.35 6.42-.875 9.12-1.574 2.698-.7 5.486-1.836 8.363-3.41 2.877-1.573 5.279-3.51 7.207-5.813 1.927-2.302 3.5-5.362 4.715-9.18 1.216-3.817 1.824-8.202 1.824-13.156 0-7.053-2.343-13.056-7.029-18.01 2.195-5.303 1.958-11.248-.712-17.834-1.66-.524-4.063-.204-7.206.962-3.144 1.166-5.872 2.448-8.186 3.847l-3.38 2.098c-5.517-1.516-11.21-2.273-17.083-2.273-5.872 0-11.566.757-17.082 2.273-.95-.641-2.21-1.428-3.782-2.36-1.572-.933-4.048-2.055-7.429-3.366-3.38-1.312-5.931-1.705-7.651-1.18-2.61 6.585-2.818 12.53-.623 17.834-4.686 4.953-7.029 10.956-7.029 18.009 0 4.954.608 9.325 1.824 13.113 1.216 3.788 2.773 6.848 4.671 9.18 1.898 2.33 4.285 4.283 7.162 5.857 2.877 1.573 5.665 2.71 8.363 3.41 2.7.698 5.74 1.223 9.12 1.573-2.373 2.098-3.826 5.1-4.36 9.004a17.862 17.862 0 0 1-4.003 1.312c-1.424.29-3.114.437-5.072.437-1.957 0-3.9-.627-5.827-1.88-1.928-1.253-3.574-3.074-4.938-5.464-1.127-1.865-2.566-3.38-4.315-4.546-1.75-1.165-3.218-1.865-4.404-2.098l-1.78-.262c-1.245 0-2.105.13-2.58.393-.474.262-.623.598-.445 1.006.178.408.445.815.8 1.223.357.408.742.758 1.158 1.05l.622.437c1.305.582 2.595 1.69 3.87 3.322 1.276 1.632 2.21 3.118 2.803 4.458l.89 2.01c.771 2.216 2.076 4.008 3.915 5.377 1.838 1.37 3.825 2.244 5.96 2.623 2.136.379 4.197.583 6.184.612 1.987.03 3.633-.073 4.938-.306l2.77-.975c0 2.215-.03 5.273 0 8.245.03 2.973 0 4.406 0 4.58 0 1.05-1.02 2.225-1.791 2.924-.771.7-1.958.904-3.559.612-13.761-4.487-24.986-12.574-33.676-24.26C4.344 94.927 0 81.77 0 67.142 0 54.96 3.055 43.725 9.164 33.438z"/></svg>