<svg xmlns="http://www.w3.org/2000/svg" viewBox="0 0 64 64"><g fill="none" transform="scale(1.9656)"><circle cx="16.28" cy="16.28" r="16.28" fill="#29abe0"/><path fill="#fff" d="M22.258 8.8h1.608c3.1 0 5.614 2.514 5.614 5.614v.33a5.615 5.615 0 0 1-5.614 5.615h-1.608v1.69a2.591 2.591 0 0 1-2.591 2.591H7.43a2.591 2.591 0 0 1-2.591-2.591V10.096c0-.716.58-1.296 1.296-1.296zm0 2.997v5.565h1.466a2.783 2.783 0 1 0 0-5.565z"/></g><path fill="#ff5e5b" d="M25.946 27.67c.787-2.303 2.651-3.454 5.594-3.454 4.414 0 6.05 5.491 3.736 9.081-1.542 2.394-4.652 5.42-9.33 9.081-4.678-3.66-7.788-6.687-9.33-9.08-2.314-3.59-.678-9.082 3.736-9.082 2.942 0 4.807 1.151 5.594 3.453z"/></svg>