<svg xmlns="http://www.w3.org/2000/svg" viewBox="0 0 60 60"><rect width="100%" height="100%" fill="#f6c915"/><path fill="#1a171b" d="M20.532 45.49c-2.401 0-4.285-.311-5.654-.938-1.37-.625-2.35-1.478-2.941-2.56-.59-1.081-.878-2.324-.862-3.727.016-1.403.21-2.898.583-4.487l6.44-26.925 7.859-1.218-7.05 29.208a9.179 9.179 0 0 0-.225 1.673c-.019.507.075.955.278 1.344.202.39.548.702 1.038.938.49.238 1.176.39 2.055.456zm28.394-16.783c0 2.468-.405 4.724-1.217 6.77s-1.934 3.811-3.371 5.298c-1.437 1.489-3.16 2.645-5.173 3.473-2.01.828-4.2 1.243-6.566 1.243a19.7 19.7 0 0 1-3.448-.304l-2.281 9.178h-7.504l8.416-35.09c1.352-.405 2.898-.768 4.64-1.09 1.74-.32 3.625-.482 5.653-.482 1.894 0 3.526.288 4.894.862 1.369.576 2.493 1.361 3.372 2.359.877.996 1.528 2.163 1.951 3.498.424 1.336.634 2.764.634 4.285zM30.52 39.101c.574.136 1.283.203 2.13.203 1.317 0 2.516-.245 3.6-.735a7.915 7.915 0 0 0 2.762-2.054c.762-.879 1.353-1.935 1.776-3.169.421-1.233.633-2.593.633-4.081 0-1.453-.321-2.688-.962-3.702-.644-1.014-1.76-1.521-3.348-1.521-1.082 0-2.096.1-3.043.304z"/></svg>