<svg xmlns="http://www.w3.org/2000/svg" viewBox="0 0 125 118"><path fill-rule="evenodd" d="M0 13.745C0 9.78 1.397 6.498 4.191 3.9 6.985 1.299 10.634 0 15.137 0s8.11 1.3 10.823 3.899c2.713 2.599 4.096 5.88 4.15 9.846.055 3.912-1.315 7.181-4.109 9.807-2.794 2.626-6.47 3.938-11.027 3.938h-.163c-4.449 0-8.03-1.312-10.742-3.938C1.356 20.926 0 17.657 0 13.745zM1.546 118V38.342h26.856V118H1.546zm41.667 0c.108-21.382.163-38.717.163-52.007s-.027-21.22-.082-23.793l-.081-3.858h26.774v11.575h-.163c1.085-1.715 2.197-3.215 3.337-4.501 1.14-1.287 2.672-2.68 4.598-4.18 1.926-1.5 4.286-2.666 7.08-3.497 2.794-.83 5.9-1.246 9.318-1.246 9.277 0 16.737 3.041 22.38 9.123C122.178 51.7 125 60.608 125 72.343V118H98.226V75.398c0-5.627-1.099-10.034-3.296-13.223-2.197-3.188-5.629-4.783-10.295-4.783-3.418 0-6.28.925-8.585 2.774a17.113 17.113 0 0 0-5.168 6.872c-.597 1.608-.895 3.778-.895 6.511V118H43.213z"/></svg>