<svg xmlns="http://www.w3.org/2000/svg" viewBox="0 0 558 486"><circle cx="499.3" cy="59.1" r="58.2"/><path d="M58 1.3h268.6c32 0 58 25.9 58 57.9v.1c0 32-25.9 58-57.9 58H58c-32.1 0-58-26-58-58s26-58 58-58z"/><circle cx="58.2" cy="243.4" r="58.2"/><g transform="translate(0 185)"><path d="M230.7.5h268.7c32 0 58 26 58 58v.1c0 32-26 58-58 58H230.7c-32 0-58-26-58-58v-.1c0-32 26-58 58-58z"/><circle cx="499.3" cy="242.1" r="58.2"/><path d="M58 183.9h268.7c32 0 58 26 58 58v.1c0 32-26 58-58 58H58c-32 0-58-26-58-58v-.1c0-32 26-58 58-58z"/></g></svg>