<svg xmlns="http://www.w3.org/2000/svg" viewBox="0 0 450.945 433.571"><path fill="#3DA638" stroke="#1C511C" stroke-width="15.37" d="M224.672,7.685 C285.040044,7.685 339.69469,31.9776286 379.255951,71.2603712 C418.798164,110.524201 443.26,164.765278 443.26,224.68 C443.26,273.474283 427.452274,317.374606 403.228428,351.958271 C378.186699,387.709603 344.149611,413.566205 309.2661,424.294462 L262.340526,303.677645 C276.894025,297.08605 288.08515,287.995541 295.92413,276.059849 C304.609184,262.835917 309.228,245.991913 309.228,224.681 C309.228,202.549728 299.845481,181.722127 284.560463,166.539456 C269.619262,151.6983 249.07159,142.26816 226.285193,142.23001 C202.422907,142.192151 181.462687,151.51338 166.386267,166.176954 C150.724862,181.409494 141.419613,202.413027 141.717682,224.783388 C142.0015,246.084147 147.270895,263.820482 156.347857,277.620073 C164.460934,289.954281 175.62715,299.223721 189.25723,305.073394 L140.953647,423.907363 C106.698492,413.081868 72.8025085,386.853504 47.7614389,350.959559 C23.6068389,316.336284 7.685,272.645513 7.685,224.68 C7.685,164.65175 31.8382939,110.311781 71.1239446,71.0247318 C110.268724,31.8785587 164.433438,7.685 224.672,7.685 Z"/></svg>