<svg xmlns="http://www.w3.org/2000/svg" viewBox="0 0 32 32" fill="none"><path d="m17.566 27.916 8.783-5.554a.069.069 0 1 1 .073.117L17.61 28.05a.068.068 0 0 1-.037.011l-.007-.145z" fill="url(#svgo-viewbox-id-0a)"/><path d="M17.573 28.061a.071.071 0 0 1-.024-.004L5.576 23.595a.069.069 0 1 1 .048-.13l11.942 4.45.008.146z" fill="url(#svgo-viewbox-id-1b)"/><path d="m30.14 6.724-1.384 2.289-5.553 2.36-.309.132-4.991 4.668a.648.648 0 0 0-.173.309c-.006.026-.027.015-.05.014-.022-.001-.054.008-.055-.02-.002-.1-.015-.21-.176-.312l-2.5-1.62h-.001l-1.822-1.181-5.138-1.318-4.3-1.103L.965 6.71l.041-.048.003-.003 10.225-2.658c.014-.005.017-.001.023.007l3.487 5.223.069.103c.075.11.083.177.082.227h.064v-.028l.002-.012.002-.015.003-.016a.701.701 0 0 1 .014-.058l.005-.018.02-.061.01-.024a.781.781 0 0 1 .06-.118L18.22 4.64c.008-.011.012-.016.027-.014L30.12 6.668l.02.056z" fill="#E8B57E"/><path d="m14.948 14.544-1.822-1.181-5.138-1.318 6.907-2.483.018-.037v.037l.035 4.982z" fill="url(#svgo-viewbox-id-2c)"/><path d="m14.895 9.562-6.907 2.483-.623-.16-3.677-.943L.965 6.71l.044-.051 10.225-2.658c.014-.005.017-.001.023.007l3.487 5.223.069.103c.075.11.083.177.082.227z" fill="url(#svgo-viewbox-id-3d)"/><path d="m14.915 9.799-6.53 2.348-1.02-.262 7.38-2.653.068.103c.075.11.083.177.082.227h.019l.001.237z" fill="url(#svgo-viewbox-id-4e)"/><path d="m3.782 10.966-.094-.024L.965 6.71l.041-.048 2.776 4.303z" fill="#D1A578"/><path d="m23.203 11.374-.309.13-4.992 4.669a.647.647 0 0 0-.172.309c-.006.026-.028.015-.05.014-.022-.001-.054.008-.055-.02a.327.327 0 0 0-.176-.312l-2.501-1.62-.034-4.982v-.037l.045.037 8.244 1.812z" fill="url(#svgo-viewbox-id-5f)"/><path d="m30.139 6.724-1.383 2.289-5.055 2.149-.498.212-8.244-1.812a.757.757 0 0 1 .117-.35l3.144-4.573c.008-.011.012-.016.027-.014L30.12 6.668l.02.056z" fill="url(#svgo-viewbox-id-6g)"/><path d="m23.7 11.162-.806.343-.103.1-7.877-1.74.036-.303h.01a.757.757 0 0 1 .085-.3l8.656 1.9z" fill="url(#svgo-viewbox-id-7h)"/><path opacity=".75" d="M15.132 9.6v5.063l-.184-.119-.242-.157V9.63l.19-.068h.063l.173.038z" fill="url(#svgo-viewbox-id-8i)"/><path d="M17.524 27.98 5.541 23.508c-.068-.03-.078-.093-.082-.172l-.516-10.214c0-.026.032-.042.029-.058a.691.691 0 0 0-.106-.2L0 10.099l.041-.093 13.085 3.357 4.323 2.802c.161.1.174.211.175.311.002.028.034.019.056.02.023.001.044.012.05-.014a.65.65 0 0 1 .173-.31l4.991-4.667 9.051-3.848.055.076-4.886 4.294c-.095.095-.139.212-.12.259l-.5 10.01c-.007.063-.037.082-.101.125l-8.76 5.546c-.037.023-.074.028-.109.012z" fill="#BF9064"/><path d="m17.68 16.496-.086 11.488a.099.099 0 0 1-.07-.005L5.541 23.51c-.068-.029-.078-.093-.082-.172l-.516-10.214v-.002c0-.003 0-.005.002-.008 0-.002 0-.004.002-.005 0-.003.002-.005.003-.007a.047.047 0 0 1 .004-.006c.006-.008.013-.014.016-.02a.007.007 0 0 0 .001-.005l12.654 3.41c.005.023.035.015.055.016z" fill="#BE8F63"/><path opacity=".54" d="M17.595 27.951v.033a.099.099 0 0 1-.07-.005L5.54 23.51c-.048-.02-.067-.058-.075-.107l12.129 4.549z" fill="url(#svgo-viewbox-id-9j)"/><path d="m12.177 20.982.075 4.37 4.554 1.673.011-4.524-4.64-1.519zm.048.08 2.193.72.019 2.135-2.174-.747-.038-2.108zm.076 4.247-.034-2.064 2.17.757.012 2.09-2.148-.783zm4.46 1.636-2.248-.826-.011-2.096 2.26.785v2.137zm0-2.214-2.26-.787-.004-2.137 2.264.74v2.184z" fill="#322212"/><path d="m16.268 24.383-1.349-.466v-.264l1.35.462v.268zm-1.166-.716.224.078v-.937l.224.076-.327-.646-.342.428.223.072-.002.929zm.738.246.224.078v-.937l.224.076-.327-.646-.341.428.223.072-.002.929zm-.674.787-.067.042.978 1.555.066-.041-.977-1.556z" fill="#322212"/><path d="m16.065 25.033-.962.843.078.089.962-.843-.078-.089zm-1.008-.153v.82l.09.032v-.823l-.09-.03zm1.046.381v.821l.09.032v-.824l-.09-.029zm-.719-.305.237.382.238-.21-.475-.172zm.603.402v.537l-.243-.343.243-.194zm-.127.726-.469-.17.235-.209.234.379zm-.6-.446V25.1l.233.359-.233.179zm-.636-.612.116.043v-.198l.253.399-.25.21.004-.197-.123-.029v-.228zm1.996.964v-.232l-.117-.038v-.207l-.26.222.26.395v-.187l.118.047zm-3.303-1.885.014 1.298c0 .06-.03.082-.093.068-.075-.017-.083-.074-.082-.173l-.063-.01c-.013.148.034.235.146.261.124.025.174-.04.174-.113l-.008-1.304-.088-.027z" fill="#322212"/><path d="M12.679 24.479c.2-.606 1.106-.402 1.378.49-.083-.14-.155-.164-.284-.122-.048-.099-.187-.15-.272-.098-.062-.119-.204-.156-.271-.097-.029-.072-.165-.17-.268-.098-.07-.115-.207-.158-.283-.075zm1.077-.316c-.01-.008-.085.024-.093.054-.008.03.002.05.02.063a.052.052 0 0 0 .051.006c.031-.02.031-.114.022-.123zm.126-.214c-.01-.008-.086.024-.093.054-.008.03.002.05.02.063a.052.052 0 0 0 .051.006c.031-.02.031-.115.022-.123zm-.351-.009c-.01-.008-.085.024-.093.054-.008.03.002.05.02.063a.052.052 0 0 0 .052.007c.031-.02.031-.115.021-.123zm-.353-.05c-.01-.009-.085.023-.093.053-.008.03.002.05.02.063a.052.052 0 0 0 .052.006c.031-.02.031-.114.021-.123zm-.352-.766 1.016.353-.42-.27-.002-.506c.292.12.5-.12.5-.313v-.503l-.916-.303.079.366-.078.002.136.525-.263-.637.092.005-.083-.298-.178-.059.017.51c0 .213.21.561.5.648l.007.501-.407-.02z" fill="#322212"/><path d="M17.68 16.496c-.05.001-.087.067-.088.127l-.012.005-12.637-3.505c0-.024.026-.04.029-.054v-.004a.702.702 0 0 0-.106-.2L0 10.099l.041-.093 13.083 3.357h.002l4.323 2.801a.327.327 0 0 1 .176.317c.005.021.035.014.055.015z" fill="url(#svgo-viewbox-id-10k)"/><path d="M12 17.641c.013.004.018.006.018-.007l-.048-2.543c-.003-.087-.025-.256-.129-.324l-4.609-2.8-2.16-.558 4.684 2.798c.118.077.128.223.133.33l.067 2.473c0 .013.002.015.012.019l2.031.612z" fill="url(#svgo-viewbox-id-11l)"/><path d="M17.68 16.496c-.05.001-.089.071-.088.133 0 .004-.01.003-.012 0-.01-.137-.066-.289-.14-.343l-4.359-2.81.043-.114h.002l4.323 2.802a.327.327 0 0 1 .176.317c.005.021.035.014.055.015z" fill="#D4A271"/><path d="m13.124 13.363-.043.113L0 10.099l.041-.093 13.083 3.357z" fill="#DEB37E"/><path d="m26.994 12.286-.5 10.009c-.007.064-.037.083-.101.126l-8.76 5.546a.13.13 0 0 1-.039.017l.086-11.488c.022.001.044.012.05-.014l.001-.01 9.261-4.196.002.01z" fill="#DBAC76"/><path opacity=".54" d="M26.495 22.29v.005c-.008.064-.038.083-.102.126l-8.76 5.546a.134.134 0 0 1-.039.017v-.033l8.9-5.66z" fill="url(#svgo-viewbox-id-12m)"/><path d="m23.368 19.582-.15 4.242 2.914-1.814.2-4.076-2.964 1.648zm.035.045 1.462-.82-.088 2.012-1.45.855.076-2.047zm-.145 4.116.068-2.006 1.448-.851-.075 1.961-1.44.896zm2.846-1.774-1.365.859.076-1.966 1.38-.817-.091 1.924zm.097-1.996-1.388.83.087-2.01 1.4-.784-.1 1.964z" fill="#322212"/><path d="m25.919 19.982-.82.485.01-.241.827-.483-.017.239zm-.689.122.13-.075.04-.858.138-.077-.182-.382-.232.611.13-.077-.024.858zm.443-.257.14-.078.03-.852.145-.082-.177-.376-.23.607.136-.078-.044.86zm.043 2.009-.54-.739.045-.085.535.738-.04.086z" fill="#322212"/><path d="m25.172 22.192-.043-.038.64-1.447.04.038-.637 1.447zm-.03-.908-.032.751.056-.037.032-.754-.056.04zm.636-.39-.034.752.05-.033.036-.752-.052.033zm-.437.223.134.181.155-.355-.288.174zm.36-.038-.02.48-.13-.155.15-.325zm-.104.736-.289.175.155-.352.134.177zm-.358.002.022-.47.133.164-.155.306zm-.387-.097.07-.041.006-.187.156.19-.165.357v-.157l-.07.042.003-.204zm1.216-.52.008-.204-.073.04.008-.186-.167.38.151.18.003-.169.07-.04zm-2.041.586-.045 1.22c-.002.055.01.112-.051.148-.05.03-.075.002-.07-.089l-.049.038c-.014.144.089.13.128.112.083-.05.087-.122.09-.189l.052-1.28-.055.04z" fill="#322212"/><path d="M23.56 22.634c.157-.718.773-1.193.925-.56-.048-.066-.134-.04-.192.095-.027-.056-.16-.01-.18.107-.035-.063-.162.005-.18.108-.015-.045-.16-.017-.177.112-.04-.054-.153-.001-.196.138zm.75-1.097a.377.377 0 0 0-.06.117c-.007.033-.002.045.01.044.01 0 .024-.017.032-.033.021-.041.025-.128.019-.128zm.097-.304a.376.376 0 0 0-.061.117c-.006.033 0 .045.01.044.01-.001.024-.017.033-.033.02-.041.024-.128.018-.128zm-.233.247a.376.376 0 0 0-.062.118c-.006.033 0 .044.01.043.01 0 .024-.017.033-.032.02-.042.025-.128.019-.129zm-.243.212a.376.376 0 0 0-.061.118c-.007.033-.001.044.01.043.01 0 .024-.017.033-.032.02-.042.024-.128.018-.129zm-.203-.492.679-.392-.278.06.022-.487c.21-.133.349-.45.356-.625l.019-.515-.604.347.04.304-.05.057.056.387-.147-.425.066-.053-.04-.228-.123.066-.016.473c-.008.195.136.388.317.284l-.015.477-.282.27z" fill="#322212"/><path d="M27.114 12.027c-.094.095-.139.212-.12.259L17.79 16.64l-.02-.015c0-.072-.047-.12-.082-.128.02.002.037.008.042-.015a.497.497 0 0 1 .034-.104.715.715 0 0 1 .138-.205l4.992-4.668 9.051-3.848.055.076-4.886 4.294z" fill="#CE9C6B"/><path d="m22.968 11.603-4.95 4.6c-.14.134-.232.334-.228.437-.002.005-.014.008-.02 0 .007-.08-.044-.135-.082-.143.02.002.037.008.042-.015a.497.497 0 0 1 .034-.104.698.698 0 0 1 .138-.205l4.992-4.668.074.098z" fill="#D7A977"/><path d="M21.876 17.183c0 .015.006.02.016.016l1.486-.762c.003-.002.004-.004.005-.009l.082-2.436a.512.512 0 0 1 .18-.358l4.935-4.436-1.502.644-4.96 4.494a.564.564 0 0 0-.174.397l-.068 2.45z" fill="url(#svgo-viewbox-id-13n)"/><path d="M22.968 11.603 32 7.733l-.055-.076-9.05 3.848.073.098z" fill="#F8CE92"/><defs><linearGradient id="svgo-viewbox-id-0a" x1="21.954" y1="25.137" x2="22.035" y2="25.263" gradientUnits="userSpaceOnUse"><stop/><stop offset="1"/></linearGradient><linearGradient id="svgo-viewbox-id-1b" x1="11.57" y1="25.74" x2="11.546" y2="25.805" gradientUnits="userSpaceOnUse"><stop/><stop offset="1"/></linearGradient><linearGradient id="svgo-viewbox-id-2c" x1="12.736" y1="11.318" x2="15.091" y2="12.294" gradientUnits="userSpaceOnUse"><stop offset=".393"/><stop offset=".432"/><stop offset=".636"/><stop offset=".754"/></linearGradient><linearGradient id="svgo-viewbox-id-3d" x1="9.807" y1="10.751" x2="6.73" y2="6.432" gradientUnits="userSpaceOnUse"><stop/><stop offset="1"/></linearGradient><linearGradient id="svgo-viewbox-id-4e" x1="11.224" y1="10.954" x2="11.077" y2="10.548" gradientUnits="userSpaceOnUse"><stop offset=".113"/><stop offset=".133"/><stop offset=".253"/><stop offset=".475"/><stop offset=".684"/><stop offset=".863"/><stop offset="1"/></linearGradient><linearGradient id="svgo-viewbox-id-5f" x1="18.845" y1="10.939" x2="16.764" y2="15.721" gradientUnits="userSpaceOnUse"><stop offset=".088"/><stop offset=".447"/><stop offset=".779"/></linearGradient><linearGradient id="svgo-viewbox-id-6g" x1="21.205" y1="10.486" x2="23.548" y2="6.274" gradientUnits="userSpaceOnUse"><stop offset=".033"/><stop offset="1"/></linearGradient><linearGradient id="svgo-viewbox-id-7h" x1="19.274" y1="10.586" x2="19.367" y2="10.176" gradientUnits="userSpaceOnUse"><stop/><stop offset=".086"/><stop offset=".143"/><stop offset=".565"/><stop offset=".777"/><stop offset=".924"/></linearGradient><linearGradient id="svgo-viewbox-id-8i" x1="14.741" y1="12.113" x2="15.104" y2="12.113" gradientUnits="userSpaceOnUse"><stop/><stop offset=".493"/><stop offset=".5"/><stop offset=".53"/><stop offset="1"/></linearGradient><linearGradient id="svgo-viewbox-id-9j" x1="11.519" y1="25.724" x2="11.53" y2="25.692" gradientUnits="userSpaceOnUse"><stop/><stop offset=".24"/><stop offset="1"/></linearGradient><linearGradient id="svgo-viewbox-id-10k" x1="9.084" y1="12.484" x2="8.613" y2="14.057" gradientUnits="userSpaceOnUse"><stop offset=".048"/><stop offset=".431"/><stop offset=".814"/></linearGradient><linearGradient id="svgo-viewbox-id-11l" x1="11.775" y1="16.862" x2="6.246" y2="10.722" gradientUnits="userSpaceOnUse"><stop offset=".42"/><stop offset=".431"/><stop offset=".441"/><stop offset=".874"/><stop offset=".898"/></linearGradient><linearGradient id="svgo-viewbox-id-12m" x1="22.045" y1="25.138" x2="22.055" y2="25.153" gradientUnits="userSpaceOnUse"><stop/><stop offset="1"/></linearGradient><linearGradient id="svgo-viewbox-id-13n" x1="24.199" y1="17.32" x2="25.872" y2="8.857" gradientUnits="userSpaceOnUse"><stop offset=".368"/><stop offset=".386"/><stop offset=".417"/><stop offset=".624"/><stop offset=".643"/></linearGradient></defs></svg>