<svg xmlns="http://www.w3.org/2000/svg" viewBox="0 0 32 24.062"><defs><linearGradient id="atanas-info-svg__parcel-icon-a" x1="49.355%" x2="50.266%" y1="49.505%" y2="50.415%"><stop offset="0%"/><stop offset="100%"/></linearGradient><linearGradient id="atanas-info-svg__parcel-icon-b" x1="50.147%" x2="49.947%" y1="49.934%" y2="50.14%"><stop offset="0%"/><stop offset="100%"/></linearGradient><linearGradient id="atanas-info-svg__parcel-icon-c" x1="68.218%" x2="102.055%" y1="42.576%" y2="52.689%"><stop offset="39.3%"/><stop offset="43.2%"/><stop offset="63.6%"/><stop offset="75.4%"/></linearGradient><linearGradient id="atanas-info-svg__parcel-icon-d" x1="63.474%" x2="41.385%" y1="61.316%" y2="43.407%"><stop offset="0%"/><stop offset="100%"/></linearGradient><linearGradient id="atanas-info-svg__parcel-icon-e" x1="51.113%" x2="49.166%" y1="51.353%" y2="49.276%"><stop offset="11.3%"/><stop offset="13.3%"/><stop offset="25.3%"/><stop offset="47.5%"/><stop offset="68.4%"/><stop offset="86.3%"/><stop offset="100%"/></linearGradient><linearGradient id="atanas-info-svg__parcel-icon-f" x1="47.424%" x2="22.319%" y1="28.957%" y2="77.497%"><stop offset="8.8%"/><stop offset="44.7%"/><stop offset="77.9%"/></linearGradient><linearGradient id="atanas-info-svg__parcel-icon-g" x1="41.144%" x2="56.577%" y1="57.283%" y2="44.947%"><stop offset="3.3%"/><stop offset="100%"/></linearGradient><linearGradient id="atanas-info-svg__parcel-icon-h" x1="49.619%" x2="50.677%" y1="50.463%" y2="49.219%"><stop offset="0%"/><stop offset="8.6%"/><stop offset="14.3%"/><stop offset="56.5%"/><stop offset="77.7%"/><stop offset="92.4%"/></linearGradient><linearGradient id="atanas-info-svg__parcel-icon-i" x1="32.2%" x2="68.5%" y1="50.01%" y2="50.01%"><stop offset="0%"/><stop offset="49.3%"/><stop offset="50%"/><stop offset="53%"/><stop offset="100%"/></linearGradient><linearGradient id="atanas-info-svg__parcel-icon-j" x1="49.909%" x2="50%" y1="50.089%" y2="49.989%"><stop offset="0%"/><stop offset="24%"/><stop offset="100%"/></linearGradient><linearGradient id="atanas-info-svg__parcel-icon-k" x1="51.38%" x2="48.716%" y1="48.235%" y2="51.568%"><stop offset="4.8%"/><stop offset="43.1%"/><stop offset="81.4%"/></linearGradient><linearGradient id="atanas-info-svg__parcel-icon-l" x1="96.502%" x2="16.902%" y1="80.182%" y2=".834%"><stop offset="42%"/><stop offset="43.1%"/><stop offset="44.1%"/><stop offset="87.4%"/><stop offset="89.8%"/></linearGradient><linearGradient id="atanas-info-svg__parcel-icon-m" x1="50.006%" x2="50.118%" y1="50.007%" y2="50.115%"><stop offset="0%"/><stop offset="100%"/></linearGradient><linearGradient id="atanas-info-svg__parcel-icon-n" x1="39.227%" x2="56.742%" y1="101.496%" y2="-4.261%"><stop offset="36.8%"/><stop offset="38.6%"/><stop offset="41.7%"/><stop offset="62.4%"/><stop offset="64.3%"/></linearGradient></defs><g fill="none"><path fill="url(#atanas-info-svg__parcel-icon-a)" d="M17.566,23.9172053 L26.349,18.3632053 C26.3699218,18.3490514 26.3969054,18.347461 26.4193449,18.3590592 C26.4417845,18.3706574 26.456093,18.3935902 26.4566631,18.4188438 C26.4571999,18.4440975 26.4439099,18.4676351 26.422,18.4802053 L17.61,24.0512053 C17.5989881,24.058369 17.586137,24.0622053 17.573,24.0622053 L17.566,23.9172053 Z"/><path fill="url(#atanas-info-svg__parcel-icon-b)" d="M17.573,24.062207 C17.5648294,24.0622628 17.5567102,24.0609096 17.549,24.0582053 L5.576,19.5962053 C5.55277773,19.5876309 5.53589385,19.5673189 5.53170834,19.5429206 C5.52752283,19.5185224 5.53667158,19.4937445 5.55570834,19.4779206 C5.5747451,19.4620968 5.60077774,19.4576309 5.624,19.4662053 L17.566,23.9162053 L17.574,24.062207 L17.573,24.062207 Z"/><path fill="#E8B57E" d="M30.14,2.72520525 L28.756,5.01420525 L23.203,7.37420525 L22.894,7.50620525 L17.903,12.1742053 C17.8177612,12.2591442 17.7578573,12.3661401 17.73,12.4832053 C17.724,12.5092053 17.703,12.4982053 17.68,12.4972053 C17.658,12.4962053 17.626,12.5052053 17.625,12.4772053 C17.623,12.3772053 17.61,12.2672053 17.449,12.1652053 L14.949,10.5452053 L14.948,10.5452053 L13.126,9.36420525 L7.988,8.04620525 L3.688,6.94320525 L0.965,2.71120525 L1.006,2.66320525 L1.009,2.66020525 L11.234,0.00220525019 C11.248,-0.00279474981 11.251,0.00120525019 11.257,0.00920525019 L14.744,5.23220525 L14.813,5.33520525 C14.888,5.44520525 14.896,5.51220525 14.895,5.56220525 L14.959,5.56220525 L14.959,5.53420525 L14.961,5.52220525 L14.963,5.50720525 L14.966,5.49120525 C14.9698414,5.47168199 14.9745123,5.45233113 14.98,5.43320525 L14.985,5.41520525 L15.005,5.35420525 L15.015,5.33020525 C15.0316245,5.28924476 15.0516966,5.24976966 15.075,5.21220525 L18.22,0.64120525 C18.228,0.63020525 18.232,0.62520525 18.247,0.62720525 L30.12,2.66920525 L30.14,2.72520525 Z"/><polygon fill="url(#atanas-info-svg__parcel-icon-c)" points="14.948 10.545 13.126 9.364 7.988 8.046 14.895 5.563 14.913 5.526 14.913 5.563 14.948 10.545"/><path fill="url(#atanas-info-svg__parcel-icon-d)" d="M14.8950754,5.56320525 L7.988,8.04620525 L7.365,7.88620525 L3.688,6.94320525 L0.965,2.71120525 L1.009,2.66020525 L11.234,0.00220525019 C11.248,-0.00279474981 11.251,0.00120525019 11.257,0.00920525019 L14.744,5.23220525 L14.813,5.33520525 C14.888,5.44520525 14.896,5.51220525 14.8950754,5.56220525 L14.8950754,5.56320525 Z"/><path fill="url(#atanas-info-svg__parcel-icon-e)" d="M14.915,5.80020525 L8.385,8.14820525 L7.365,7.88620525 L14.745,5.23320525 L14.813,5.33620525 C14.888,5.44620525 14.896,5.51320525 14.895,5.56320525 L14.914,5.56320525 L14.915,5.80020525 L14.915,5.80020525 Z"/><polygon fill="#D1A578" points="3.782 6.967 3.688 6.943 .965 2.711 1.006 2.663 3.782 6.966"/><path fill="url(#atanas-info-svg__parcel-icon-f)" d="M23.203,7.37520525 L22.894,7.50520525 L17.902,12.1742053 C17.8170835,12.2592336 17.7575251,12.3662309 17.73,12.4832053 C17.724,12.5092053 17.702,12.4982053 17.68,12.4972053 C17.658,12.4962053 17.626,12.5052053 17.625,12.4772053 C17.6335816,12.3474631 17.5644796,12.2249642 17.449,12.1652053 L14.948,10.5452053 L14.914,5.56320525 L14.914,5.52620525 L14.959,5.56320525 L23.203,7.37520525 L23.203,7.37520525 Z"/><path fill="url(#atanas-info-svg__parcel-icon-g)" d="M30.139,2.72520525 L28.756,5.01420525 L23.701,7.16320525 L23.203,7.37520525 L14.959,5.56320525 C14.9685299,5.43867315 15.0087242,5.31843371 15.076,5.21320525 L18.22,0.64020525 C18.228,0.62920525 18.232,0.62420525 18.247,0.62620525 L30.12,2.66920525 L30.14,2.72520525 L30.139,2.72520525 Z"/><path fill="url(#atanas-info-svg__parcel-icon-h)" d="M23.7,7.16320525 L22.894,7.50620525 L22.791,7.60620525 L14.914,5.86620525 L14.95,5.56320525 L14.96,5.56320525 C14.9672081,5.45839025 14.9961554,5.35622326 15.045,5.26320525 L23.701,7.16320525 L23.7,7.16320525 Z"/><polygon fill="url(#atanas-info-svg__parcel-icon-i)" points="15.132 5.601 15.132 10.664 14.948 10.545 14.706 10.388 14.706 5.631 14.896 5.563 14.959 5.563 15.132 5.601" opacity=".75"/><path fill="#BF9064" d="M17.524,23.9812053 L5.541,19.5092053 C5.473,19.4792053 5.463,19.4162053 5.459,19.3372053 L4.943,9.12320525 C4.943,9.09720525 4.975,9.08120525 4.972,9.06520525 C4.94790023,8.9931653 4.9120865,8.92559223 4.866,8.86520525 L0,6.10020525 L0.041,6.00720525 L13.126,9.36420525 L17.449,12.1662053 C17.61,12.2662053 17.623,12.3772053 17.624,12.4772053 C17.626,12.5052053 17.658,12.4962053 17.68,12.4972053 C17.703,12.4982053 17.724,12.5092053 17.73,12.4832053 C17.7577844,12.365821 17.8176854,12.258484 17.903,12.1732053 L22.894,7.50620525 L31.945,3.65820525 L32,3.73420525 L27.114,8.02820525 C27.019,8.12320525 26.975,8.24020525 26.994,8.28720525 L26.494,18.2972053 C26.487,18.3602053 26.457,18.3792053 26.393,18.4222053 L17.633,23.9682053 C17.596,23.9912053 17.559,23.9962053 17.524,23.9802053 L17.524,23.9812053 Z"/><path fill="#BE8F63" d="M17.68,12.4972053 L17.594,23.9852053 C17.5708389,23.9921421 17.54594,23.9903636 17.524,23.9802053 L5.541,19.5112053 C5.473,19.4822053 5.463,19.4182053 5.459,19.3392053 L4.943,9.12520525 L4.943,9.12320525 C4.943,9.12020525 4.943,9.11820525 4.945,9.11520525 C4.945,9.11320525 4.945,9.11120525 4.947,9.11020525 C4.947,9.10720525 4.949,9.10520525 4.95,9.10320525 C4.95117771,9.10110577 4.95251498,9.09909986 4.954,9.09720525 C4.96,9.08920525 4.967,9.08320525 4.97,9.07720525 C4.97095009,9.07572358 4.97130714,9.07393837 4.971,9.07220525 L17.625,12.4822053 C17.63,12.5052053 17.66,12.4972053 17.68,12.4982053 L17.68,12.4972053 Z"/><path fill="url(#atanas-info-svg__parcel-icon-j)" d="M17.595,23.9522053 L17.595,23.9852053 C17.5718389,23.9921421 17.54694,23.9903636 17.525,23.9802053 L5.54,19.5112053 C5.492,19.4912053 5.473,19.4532053 5.465,19.4042053 L17.594,23.9532053 L17.595,23.9522053 Z" opacity=".54"/><path fill="#322212" d="M12.177,16.9832053 L12.252,21.3532053 L16.806,23.0262053 L16.817,18.5022053 L12.177,16.9832053 L12.177,16.9832053 Z M12.225,17.0632053 L14.418,17.7832053 L14.437,19.9182053 L12.263,19.1712053 L12.225,17.0632053 L12.225,17.0632053 Z M12.301,21.3102053 L12.267,19.2462053 L14.437,20.0032053 L14.449,22.0932053 L12.301,21.3102053 Z M16.761,22.9462053 L14.513,22.1202053 L14.502,20.0242053 L16.762,20.8092053 L16.762,22.9462053 L16.761,22.9462053 Z M16.761,20.7322053 L14.501,19.9452053 L14.497,17.8082053 L16.761,18.5482053 L16.761,20.7322053 Z"/><path fill="#322212" d="M16.268,20.3842053 L14.919,19.9182053 L14.919,19.6542053 L16.269,20.1162053 L16.269,20.3842053 L16.268,20.3842053 Z M15.102,19.6682053 L15.326,19.7462053 L15.326,18.8092053 L15.55,18.8852053 L15.223,18.2392053 L14.881,18.6672053 L15.104,18.7392053 L15.102,19.6682053 L15.102,19.6682053 Z M15.84,19.9142053 L16.064,19.9922053 L16.064,19.0552053 L16.288,19.1312053 L15.961,18.4852053 L15.62,18.9132053 L15.843,18.9852053 L15.841,19.9142053 L15.84,19.9142053 Z M15.166,20.7012053 L15.099,20.7432053 L16.077,22.2982053 L16.143,22.2572053 L15.166,20.7012053 Z"/><path fill="#322212" d="M16.065,21.0342053 L15.103,21.8772053 L15.181,21.9662053 L16.143,21.1232053 L16.065,21.0342053 Z M15.057,20.8812053 L15.057,21.7012053 L15.147,21.7332053 L15.147,20.9102053 L15.057,20.8802053 L15.057,20.8812053 Z M16.103,21.2622053 L16.103,22.0832053 L16.193,22.1152053 L16.193,21.2912053 L16.103,21.2622053 Z M15.384,20.9572053 L15.621,21.3392053 L15.859,21.1292053 L15.384,20.9572053 Z M15.987,21.3592053 L15.987,21.8962053 L15.744,21.5532053 L15.987,21.3592053 Z M15.86,22.0852053 L15.391,21.9152053 L15.626,21.7062053 L15.86,22.0852053 Z M15.26,21.6392053 L15.26,21.1012053 L15.493,21.4602053 L15.26,21.6392053 Z M14.624,21.0272053 L14.74,21.0702053 L14.74,20.8722053 L14.993,21.2712053 L14.743,21.4812053 L14.747,21.2842053 L14.624,21.2552053 L14.624,21.0272053 Z M16.62,21.9912053 L16.62,21.7592053 L16.503,21.7212053 L16.503,21.5142053 L16.243,21.7362053 L16.503,22.1312053 L16.503,21.9442053 L16.621,21.9912053 L16.62,21.9912053 Z M13.317,20.1062053 L13.331,21.4042053 C13.331,21.4642053 13.301,21.4862053 13.238,21.4722053 C13.163,21.4552053 13.155,21.3982053 13.156,21.2992053 L13.093,21.2892053 C13.08,21.4372053 13.127,21.5242053 13.239,21.5502053 C13.363,21.5752053 13.413,21.5102053 13.413,21.4372053 L13.405,20.1332053 L13.317,20.1062053 Z"/><path fill="#322212" d="M12.679,20.4802053 C12.879,19.8742053 13.785,20.0782053 14.057,20.9702053 C13.974,20.8302053 13.902,20.8062053 13.773,20.8482053 C13.725,20.7492053 13.586,20.6982053 13.501,20.7502053 C13.439,20.6312053 13.297,20.5942053 13.23,20.6532053 C13.201,20.5812053 13.065,20.4832053 12.962,20.5552053 C12.892,20.4402053 12.755,20.3972053 12.679,20.4802053 L12.679,20.4802053 Z M13.756,20.1642053 C13.746,20.1562053 13.671,20.1882053 13.663,20.2182053 C13.655,20.2482053 13.665,20.2682053 13.683,20.2812053 C13.6977578,20.2920453 13.7171293,20.2943243 13.734,20.2872053 C13.765,20.2672053 13.765,20.1732053 13.756,20.1642053 L13.756,20.1642053 Z M13.882,19.9502053 C13.872,19.9422053 13.796,19.9742053 13.789,20.0042053 C13.781,20.0342053 13.791,20.0542053 13.809,20.0672053 C13.8237578,20.0780453 13.8431293,20.0803243 13.86,20.0732053 C13.891,20.0532053 13.891,19.9582053 13.882,19.9502053 L13.882,19.9502053 Z M13.531,19.9412053 C13.521,19.9332053 13.446,19.9652053 13.438,19.9952053 C13.43,20.0252053 13.44,20.0452053 13.458,20.0582053 C13.4727993,20.0697534 13.4926738,20.0724288 13.51,20.0652053 C13.541,20.0452053 13.541,19.9502053 13.531,19.9422053 L13.531,19.9412053 Z M13.178,19.8912053 C13.168,19.8822053 13.093,19.9142053 13.085,19.9442053 C13.077,19.9742053 13.087,19.9942053 13.105,20.0072053 C13.1199897,20.0184196 13.1398503,20.0207112 13.157,20.0132053 C13.188,19.9932053 13.188,19.8992053 13.178,19.8902053 L13.178,19.8912053 Z M12.826,19.1252053 L13.842,19.4782053 L13.422,19.2082053 L13.42,18.7022053 C13.712,18.8222053 13.92,18.5822053 13.92,18.3892053 L13.92,17.8862053 L13.004,17.5832053 L13.083,17.9492053 L13.005,17.9512053 L13.141,18.4762053 L12.878,17.8392053 L12.97,17.8442053 L12.887,17.5462053 L12.709,17.4872053 L12.726,17.9972053 C12.726,18.2102053 12.936,18.5582053 13.226,18.6452053 L13.233,19.1462053 L12.826,19.1262053 L12.826,19.1252053 Z"/><path fill="url(#atanas-info-svg__parcel-icon-k)" d="M17.68,12.4972053 C17.63,12.4982053 17.593,12.5642053 17.592,12.6242053 L17.58,12.6292053 L4.943,9.12420525 C4.943,9.10020525 4.969,9.08420525 4.972,9.07020525 L4.972,9.06620525 C4.9477181,8.99424354 4.91191951,8.92669903 4.866,8.86620525 L0,6.10020525 L0.041,6.00720525 L13.124,9.36420525 L13.126,9.36420525 L17.449,12.1652053 C17.5662411,12.2256945 17.6356503,12.35071 17.625,12.4822053 C17.63,12.5032053 17.66,12.4962053 17.68,12.4972053 L17.68,12.4972053 Z"/><path fill="url(#atanas-info-svg__parcel-icon-l)" d="M12,13.6422053 C12.013,13.6462053 12.018,13.6482053 12.018,13.6352053 L11.97,11.0922053 C11.967,11.0052053 11.945,10.8362053 11.841,10.7682053 L7.232,7.96820525 L5.072,7.41020525 L9.756,10.2082053 C9.874,10.2852053 9.884,10.4312053 9.889,10.5382053 L9.956,13.0112053 C9.956,13.0242053 9.958,13.0262053 9.968,13.0302053 L11.999,13.6422053 L12,13.6422053 Z"/><path fill="#D4A271" d="M17.68,12.4972053 C17.63,12.4982053 17.591,12.5682053 17.592,12.6302053 C17.592,12.6342053 17.582,12.6332053 17.58,12.6302053 C17.57,12.4932053 17.514,12.3412053 17.44,12.2872053 L13.081,9.47720525 L13.124,9.36320525 L13.126,9.36320525 L17.449,12.1652053 C17.5662411,12.2256945 17.6356503,12.35071 17.625,12.4822053 C17.63,12.5032053 17.66,12.4962053 17.68,12.4972053 L17.68,12.4972053 Z"/><polygon fill="#DEB37E" points="13.124 9.364 13.081 9.477 0 6.1 .041 6.007"/><path fill="#DBAC76" d="M26.994,8.28720525 L26.494,18.2962053 C26.487,18.3602053 26.457,18.3792053 26.393,18.4222053 L17.633,23.9682053 C17.6210217,23.9759751 17.6078453,23.9817187 17.594,23.9852053 L17.68,12.4972053 C17.702,12.4982053 17.724,12.5092053 17.73,12.4832053 L17.731,12.4732053 L26.992,8.27720525 L26.994,8.28720525 Z"/><path fill="url(#atanas-info-svg__parcel-icon-m)" d="M26.495,18.2912053 L26.495,18.2962053 C26.487,18.3602053 26.457,18.3792053 26.393,18.4222053 L17.633,23.9682053 C17.6209883,23.9759126 17.6078224,23.9816516 17.594,23.9852053 L17.594,23.9522053 L26.494,18.2922053 L26.495,18.2912053 Z" opacity=".54"/><path fill="#322212" d="M23.368,15.5832053 L23.218,19.8252053 L26.132,18.0112053 L26.332,13.9352053 L23.368,15.5832053 L23.368,15.5832053 Z M23.403,15.6282053 L24.865,14.8082053 L24.777,16.8202053 L23.327,17.6752053 L23.403,15.6282053 Z M23.258,19.7442053 L23.326,17.7382053 L24.774,16.8872053 L24.699,18.8482053 L23.259,19.7442053 L23.258,19.7442053 Z M26.104,17.9702053 L24.739,18.8292053 L24.815,16.8632053 L26.195,16.0462053 L26.104,17.9702053 Z M26.201,15.9742053 L24.813,16.8042053 L24.9,14.7942053 L26.3,14.0102053 L26.2,15.9742053 L26.201,15.9742053 Z"/><path fill="#322212" d="M25.919,15.9832053 L25.099,16.4682053 L25.109,16.2272053 L25.936,15.7442053 L25.919,15.9832053 Z M25.23,16.1052053 L25.36,16.0302053 L25.4,15.1722053 L25.538,15.0952053 L25.356,14.7132053 L25.124,15.3242053 L25.254,15.2472053 L25.23,16.1052053 L25.23,16.1052053 Z M25.673,15.8482053 L25.813,15.7702053 L25.843,14.9182053 L25.988,14.8362053 L25.811,14.4602053 L25.581,15.0672053 L25.717,14.9892053 L25.673,15.8492053 L25.673,15.8482053 Z M25.716,17.8572053 L25.176,17.1182053 L25.221,17.0332053 L25.756,17.7712053 L25.716,17.8572053 L25.716,17.8572053 Z"/><path fill="#322212" d="M25.172,18.1932053 L25.129,18.1552053 L25.769,16.7082053 L25.809,16.7462053 L25.172,18.1932053 Z M25.142,17.2852053 L25.11,18.0362053 L25.166,17.9992053 L25.198,17.2452053 L25.142,17.2852053 Z M25.778,16.8952053 L25.744,17.6472053 L25.794,17.6142053 L25.83,16.8622053 L25.778,16.8952053 L25.778,16.8952053 Z M25.341,17.1182053 L25.475,17.2992053 L25.63,16.9442053 L25.342,17.1182053 L25.341,17.1182053 Z M25.701,17.0802053 L25.681,17.5602053 L25.551,17.4052053 L25.701,17.0802053 Z M25.597,17.8162053 L25.308,17.9912053 L25.463,17.6392053 L25.597,17.8162053 Z M25.239,17.8182053 L25.261,17.3482053 L25.394,17.5122053 L25.239,17.8182053 L25.239,17.8182053 Z M24.852,17.7212053 L24.922,17.6802053 L24.928,17.4932053 L25.084,17.6832053 L24.919,18.0402053 L24.919,17.8832053 L24.849,17.9252053 L24.852,17.7212053 Z M26.068,17.2012053 L26.076,16.9972053 L26.003,17.0372053 L26.011,16.8512053 L25.844,17.2312053 L25.995,17.4112053 L25.998,17.2422053 L26.068,17.2022053 L26.068,17.2012053 Z M24.027,17.7872053 L23.982,19.0072053 C23.98,19.0622053 23.992,19.1192053 23.931,19.1552053 C23.881,19.1852053 23.856,19.1572053 23.861,19.0662053 L23.812,19.1042053 C23.798,19.2482053 23.901,19.2342053 23.94,19.2162053 C24.023,19.1662053 24.027,19.0942053 24.03,19.0272053 L24.082,17.7472053 L24.027,17.7872053 L24.027,17.7872053 Z"/><path fill="#322212" d="M23.56,18.6352053 C23.717,17.9172053 24.333,17.4422053 24.485,18.0752053 C24.437,18.0092053 24.351,18.0352053 24.293,18.1702053 C24.266,18.1142053 24.133,18.1602053 24.113,18.2772053 C24.078,18.2142053 23.951,18.2822053 23.933,18.3852053 C23.918,18.3402053 23.773,18.3682053 23.756,18.4972053 C23.716,18.4432053 23.603,18.4962053 23.56,18.6352053 Z M24.31,17.5382053 C24.2833008,17.5733895 24.262992,17.6129917 24.25,17.6552053 C24.243,17.6882053 24.248,17.7002053 24.26,17.6992053 C24.27,17.6992053 24.284,17.6822053 24.292,17.6662053 C24.313,17.6252053 24.317,17.5382053 24.311,17.5382053 L24.31,17.5382053 Z M24.407,17.2342053 C24.3799291,17.2693048 24.3592779,17.3089145 24.346,17.3512053 C24.34,17.3842053 24.346,17.3962053 24.356,17.3952053 C24.366,17.3942053 24.38,17.3782053 24.389,17.3622053 C24.409,17.3212053 24.413,17.2342053 24.407,17.2342053 L24.407,17.2342053 Z M24.174,17.4812053 C24.1464706,17.5165321 24.125474,17.5564933 24.112,17.5992053 C24.106,17.6322053 24.112,17.6432053 24.122,17.6422053 C24.132,17.6422053 24.146,17.6252053 24.155,17.6102053 C24.175,17.5682053 24.18,17.4822053 24.174,17.4812053 L24.174,17.4812053 Z M23.931,17.6932053 C23.9038248,17.7286067 23.8831692,17.7685634 23.87,17.8112053 C23.863,17.8442053 23.869,17.8552053 23.88,17.8542053 C23.89,17.8542053 23.904,17.8372053 23.913,17.8222053 C23.933,17.7802053 23.937,17.6942053 23.931,17.6932053 L23.931,17.6932053 Z M23.728,17.2012053 L24.407,16.8092053 L24.129,16.8692053 L24.151,16.3822053 C24.361,16.2492053 24.5,15.9322053 24.507,15.7572053 L24.526,15.2422053 L23.922,15.5892053 L23.962,15.8932053 L23.912,15.9502053 L23.968,16.3372053 L23.821,15.9122053 L23.887,15.8592053 L23.847,15.6312053 L23.724,15.6972053 L23.708,16.1702053 C23.7,16.3652053 23.844,16.5582053 24.025,16.4542053 L24.01,16.9312053 L23.728,17.2012053 L23.728,17.2012053 Z"/><path fill="#CE9C6B" d="M27.114,8.02820525 C27.02,8.12320525 26.975,8.24020525 26.994,8.28720525 L17.79,12.6412053 L17.77,12.6262053 C17.77,12.5542053 17.723,12.5062053 17.688,12.4982053 C17.708,12.5002053 17.725,12.5062053 17.73,12.4832053 C17.7374712,12.4473929 17.7488736,12.4125149 17.764,12.3792053 C17.797753,12.3033802 17.8444503,12.234011 17.902,12.1742053 L22.894,7.50620525 L31.945,3.65820525 L32,3.73420525 L27.114,8.02820525 L27.114,8.02820525 Z"/><path fill="#D7A977" d="M22.968,7.60420525 L18.018,12.2042053 C17.878,12.3382053 17.786,12.5382053 17.79,12.6412053 C17.788,12.6462053 17.776,12.6492053 17.77,12.6412053 C17.777,12.5612053 17.726,12.5062053 17.688,12.4982053 C17.708,12.5002053 17.725,12.5062053 17.73,12.4832053 C17.7374712,12.4473929 17.7488736,12.4125149 17.764,12.3792053 C17.7974412,12.303208 17.8441734,12.2337869 17.902,12.1742053 L22.894,7.50620525 L22.968,7.60420525 L22.968,7.60420525 Z"/><path fill="url(#atanas-info-svg__parcel-icon-n)" d="M21.876,13.1842053 C21.876,13.1992053 21.882,13.2042053 21.892,13.2002053 L23.378,12.4382053 C23.381,12.4362053 23.382,12.4342053 23.383,12.4292053 L23.465,9.99320525 C23.4738726,9.85437368 23.5388558,9.72512927 23.645,9.63520525 L28.58,5.19920525 L27.078,5.84320525 L22.118,10.3372053 C22.0094336,10.4410781 21.9468026,10.5839775 21.944,10.7342053 L21.876,13.1842053 L21.876,13.1842053 Z"/><polygon fill="#F8CE92" points="22.968 7.604 32 3.734 31.945 3.658 22.895 7.506"/></g></svg>