<svg xmlns="http://www.w3.org/2000/svg" viewBox="0 0 585.781 585.781"><path d="M293.812 25.877c-1.372-.952-3.591-1.042-4.958-.086L221.372 73.36c-1.367.961-2.094.335-2.094-1.334V39.079c0-1.669-2.118-2.553-3.792-2.553h-43.839c-1.668 0-2.347.884-2.347 2.553v67.951c0 1.668-1.449 3.801-2.816 4.757L.956 228.206c-1.367.961-1.291 2.128.378 2.128h73.569c1.669 0 2.983.569 2.983 2.237v325.014c0 1.669 1.396 3.079 3.065 3.079h420.253c1.669 0 3.309-1.405 3.309-3.079V232.571c0-1.668 1.066-2.237 2.739-2.237h77.098c1.674 0 1.913-1.167.541-2.118L293.812 25.877zm109.936 189.515c12.612 0 22.835 10.227 22.835 22.835 0 12.613-10.223 22.835-22.835 22.835-12.613 0-22.836-10.227-22.836-22.835s10.223-22.835 22.836-22.835zM292.895 349.945c9.151 0 16.571 7.421 16.571 16.572 0 9.15-7.42 16.571-16.571 16.571s-16.572-7.421-16.572-16.571c0-9.156 7.42-16.572 16.572-16.572zM182.041 215.392c12.613 0 22.835 10.227 22.835 22.835 0 12.613-10.227 22.835-22.835 22.835-12.613 0-22.835-10.227-22.835-22.835s10.222-22.835 22.835-22.835zm284.743 156.609c-6.283 1.927-12.934-1.602-14.865-7.879-.005 0-17.786-57.978-17.786-57.978-.105-.244-.636-1.263-1.879-1.263h-2.511c-.707-.01-1.118.593-.932 1.271l35.601 116.505c.191.68 0 1.865-1.238 1.865h-24.982c-.707 0-1.224.573-1.224 1.281l.005 84.905c0 8.478-6.871 15.348-15.348 15.348-8.478 0-15.348-6.87-15.348-15.348l-.005-84.905a1.28 1.28 0 0 0-1.276-1.281h-2.492c-.708 0-1.277.573-1.277 1.281l-.004 84.905c0 8.478-6.871 15.348-15.349 15.348-8.477 0-15.348-6.87-15.348-15.348l.005-84.905c0-.708-.517-1.281-1.224-1.281h-24.973c-1.238 0-1.43-1.186-1.238-1.865l35.602-116.504c.187-.68-.226-1.282-.933-1.272h-2.511c-1.243 0-1.773 1.019-1.879 1.263 0 0-19.526 63.949-19.531 63.949a11.98 11.98 0 0 1-1.578 3.261l-26.822 48.013c-.33.598-.603 2.319-.603 2.319s-.048 88.271-.119 88.95c-.779 6.972-7.091 13.416-14.779 13.416-8.138 0-14.052-6.784-14.167-14.205l-.014-37.618c0-.685-.555-1.238-1.239-1.238h-1.874c-.684 0-1.238.554-1.238 1.238l-.005 37.423c-.119 7.425-7.454 14.4-15.591 14.4s-14.602-7.019-14.722-14.443v-89.376c0-.685-.277-1.717-.622-2.31l-26.828-46.426a11.92 11.92 0 0 1-1.692-3.414c-.005 0-19.531-63.949-19.531-63.949-.105-.244-.636-1.263-1.879-1.263h-2.509c-.708-.009-1.119.593-.933 1.272L242.7 422.648c.191.679 0 1.864-1.238 1.864H216.49c-.708 0-1.224.574-1.224 1.281l.005 84.905c0 8.478-6.871 15.349-15.348 15.349s-15.348-6.871-15.348-15.349l-.005-84.905c0-.707-.574-1.276-1.281-1.276h-2.492c-.708 0-1.276.573-1.276 1.276l-.005 84.905c0 8.478-6.871 15.349-15.348 15.349s-15.348-6.871-15.348-15.349l.004-84.905c0-.707-.516-1.281-1.224-1.281h-24.973c-1.238 0-1.43-1.186-1.238-1.864l35.601-116.505c.187-.679-.225-1.281-.932-1.272h-2.51c-1.243 0-1.774 1.019-1.879 1.263 0 0-17.782 57.978-17.787 57.978-1.932 6.277-8.582 9.807-14.865 7.88-6.283-1.928-9.816-8.583-7.889-14.87.005-.024 17.772-58.03 17.83-58.23 2.72-9.448 9.342-30.968 28.042-30.968h50.165c20.072 0 25.264 21.516 27.98 30.968 0 0 16.185 53.086 19.12 62.706 2.295 4.025 15.754 27.606 15.754 27.606.339.593 1.171 1.071 1.85 1.071h41.692c1.464 0 2.243-.469 2.936-1.664l14.985-27.01c.043-.086.091-.172.134-.258l19.043-62.452c2.721-9.448 7.908-30.968 27.98-30.968h50.165c18.699 0 25.321 21.516 28.042 30.968.057.2 17.824 58.206 17.829 58.23 1.925 6.298-1.609 12.953-7.891 14.88z"/></svg>