<svg xmlns="http://www.w3.org/2000/svg" viewBox="0 0 979 617.41"><defs><linearGradient id="atanas-info-svg__posthtml-icon-a" x1="4.869%" x2="100%" y1="0%" y2="0%"><stop offset="0%" stop-color="#FDBF40"/><stop offset="100%" stop-color="#FB6758"/></linearGradient><linearGradient id="atanas-info-svg__posthtml-icon-b" x1="0%" x2="100%" y1="0%" y2="0%"><stop offset="0%" stop-color="#FB6B57"/><stop offset="53.603%" stop-color="#FDBF44"/><stop offset="100%" stop-color="#FFDF9D"/></linearGradient></defs><g fill="none"><path fill="#FDC73E" d="M56.35,617.24 L87.39,617.24 L87.39,585.24 L102.75,585.24 C130.59,585.24 150.91,571.32 150.91,544.92 C150.91,519.8 132.67,505.24 104.35,505.24 L56.35,505.24 L56.35,617.24 M87.39,560.92 L87.39,531.32 L101.95,531.32 C113.15,531.32 119.87,536.44 119.87,546.04 C119.87,555.16 113.15,560.92 102.11,560.92 L87.39,560.92 M218.03,617.41 C252.59,617.41 278.51,591.33 278.51,559.17 C278.51,526.69 252.91,500.93 218.35,500.93 C183.79,500.93 157.87,527.01 157.87,559.17 C157.87,591.65 183.47,617.41 218.03,617.41 M218.35,589.41 C201.39,589.41 189.71,575.33 189.71,559.17 C189.71,542.69 201.07,528.93 218.03,528.93 C235.15,528.93 246.83,543.01 246.83,559.17 C246.83,575.65 235.47,589.41 218.35,589.41 M339.03,617.009 C366.23,617.009 384.31,603.409 384.31,580.529 C384.31,559.249 368.31,550.929 342.55,545.329 C327.03,541.809 323.19,539.569 323.19,534.449 C323.19,530.129 326.87,526.929 334.39,526.929 C344.31,526.929 355.51,530.769 365.75,537.969 L381.27,516.049 C369.11,506.289 354.23,501.169 335.19,501.169 C308.31,501.169 291.83,516.209 291.83,537.009 C291.83,560.369 310.23,567.089 334.07,572.529 C349.27,576.049 352.95,578.609 352.95,583.249 C352.95,588.369 348.47,591.249 340.15,591.249 C327.19,591.249 314.87,586.609 303.83,577.809 L286.55,598.449 C300.31,610.769 319.19,617.009 339.03,617.009 M425.75,615.064 L456.79,615.064 L456.79,530.264 L490.39,530.264 L490.39,503.064 L392.15,503.064 L392.15,530.264 L425.75,530.264 L425.75,615.064"/><path fill="#FA5E5A" d="M504.31,615.07 L535.35,615.07 L535.35,572.51 L575.19,572.51 L575.19,615.07 L606.23,615.07 L606.23,503.07 L575.19,503.07 L575.19,544.99 L535.35,544.99 L535.35,503.07 L504.31,503.07 L504.31,615.07 M653.75,615.07 L684.79,615.07 L684.79,530.27 L718.39,530.27 L718.39,503.07 L620.15,503.07 L620.15,530.27 L653.75,530.27 L653.75,615.07 M731.75,615.07 L762.15,615.07 L762.15,551.07 L790.63,594.59 L791.27,594.59 L819.91,550.75 L819.91,615.07 L850.79,615.07 L850.79,503.07 L817.99,503.07 L791.27,546.43 L764.55,503.07 L731.75,503.07 L731.75,615.07 M867.21,615.049 L952.49,615.049 L952.49,587.849 L898.25,587.849 L898.25,503.049 L867.21,503.049 L867.21,615.049"/><path fill="url(#atanas-info-svg__posthtml-icon-a)" d="M488.98,63.005 C421.84,63.005 368.14,48.806 310.97,23.362 C279.92,9.542 240.25,0.212 206,0.212 C92.23,0.212 0,92.442 0,206.212 C0,319.982 92.23,412.214 206,412.214 C240.19,412.214 282.44,403.881 310.82,389.142 C363.27,361.902 421.78,349.432 488.98,349.432 C556.24,349.432 606.03,363.679 663.28,389.204 C694.161,402.974 737.84,412.214 771.98,412.214 C885.75,412.214 977.98,319.984 977.98,206.214 C977.98,92.444 885.75,0.212 771.98,0.212 C737.77,0.212 691.51,8.551 663.12,23.304 C610.69,50.554 556.17,63.009 488.97,63.009 L488.98,63.005 Z"/><path fill="url(#atanas-info-svg__posthtml-icon-b)" d="M979,206.21 C979,92.32 886.67,0 772.79,0 C738.55,0 713.003,0 663.82,23.11 C614.64,46.22 323.1,267.84 232.66,298.98 C142.22,330.12 46.8,291.163 19.54,211.97 C6.758,174.85 11.22,135.47 28.881,100.91 C10.54,131.732 0.005,167.742 0.005,206.21 C0.005,320.1 92.335,412.42 206.215,412.42 C240.445,412.42 272.505,412.42 311.145,389.32 C349.792,366.22 654.015,144.5 744.455,113.36 C834.895,82.22 930.315,121.176 957.575,200.37 C973.976,248.003 961.988,299.34 930.151,339.47 C960.621,303.527 979,257.01 979,206.2"/></g></svg>