<svg xmlns="http://www.w3.org/2000/svg" viewBox="0 0 181.973 30"><defs><linearGradient id="atanas-info-svg__pph-icon-a" x1="38.001%" x2="85.099%" y1="62.053%" y2="17.713%"><stop offset="0%" stop-color="#FE5000"/><stop offset="100%" stop-color="#E40038"/></linearGradient></defs><g fill="none"><path fill="#28334A" d="M175.006,10.216 C175.006,9.595 175.33,9.27 175.924,9.27 L176.815,9.27 C177.436,9.27 177.761,9.622 177.761,10.216 L177.761,11.297 C177.761,11.73 177.707,12.081 177.707,12.081 L177.761,12.081 C178.22,10.703 179.461,9.162 181.109,9.162 C181.73,9.162 181.973,9.486 181.973,10.108 L181.973,11 C181.973,11.622 181.622,11.946 181.001,11.946 C178.895,11.946 177.896,14.027 177.896,16.136 L177.896,19.838 C177.896,20.459 177.572,20.784 176.977,20.784 L175.978,20.784 C175.358,20.784 175.06,20.459 175.06,19.838 L175.06,10.216 L175.006,10.216 Z M162.288,10.216 C162.288,9.595 162.638,9.27 163.233,9.27 L164.205,9.27 C164.826,9.27 165.15,9.622 165.15,10.216 L165.15,16.081 C165.15,17.486 165.501,18.432 166.932,18.432 C169.012,18.432 170.146,16.595 170.146,14.541 L170.146,10.216 C170.146,9.595 170.47,9.27 171.091,9.27 L172.063,9.27 C172.684,9.27 173.008,9.622 173.008,10.216 L173.008,19.838 C173.008,20.459 172.657,20.784 172.063,20.784 L171.199,20.784 C170.578,20.784 170.281,20.459 170.281,19.838 L170.281,19.162 C170.281,18.892 170.335,18.649 170.335,18.649 L170.281,18.649 C169.741,19.811 168.255,21.054 166.284,21.054 C163.827,21.054 162.288,19.811 162.288,16.676 L162.288,10.216 L162.288,10.216 Z M154.349,9 C157.832,9 160.695,11.514 160.695,15.027 C160.695,18.567 157.859,21.054 154.349,21.054 C150.866,21.054 148.03,18.568 148.03,15.027 C148.03,11.514 150.866,9 154.349,9 Z M154.349,18.622 C156.212,18.622 157.779,17.189 157.779,15.027 C157.779,12.892 156.212,11.432 154.349,11.432 C152.486,11.432 150.947,12.892 150.947,15.027 C150.947,17.189 152.486,18.622 154.349,18.622 Z M135.555,5.702 C135.555,5.082 135.905,4.757 136.5,4.757 L137.472,4.757 C138.093,4.757 138.417,5.108 138.417,5.703 L138.417,10.351 C138.417,10.919 138.337,11.324 138.337,11.324 L138.39,11.324 C138.957,10.216 140.388,9 142.387,9 C144.925,9 146.41,10.324 146.41,13.378 L146.41,19.838 C146.41,20.459 146.06,20.784 145.465,20.784 L144.493,20.784 C143.872,20.784 143.548,20.459 143.548,19.838 L143.548,13.973 C143.548,12.568 143.197,11.622 141.738,11.622 C139.74,11.622 138.418,13.243 138.418,15.432 L138.418,19.838 C138.418,20.459 138.093,20.784 137.472,20.784 L136.5,20.784 C135.879,20.784 135.555,20.459 135.555,19.838 L135.555,5.703 L135.555,5.702 Z M128.939,9.892 C128.939,9.649 129.074,9.514 129.317,9.514 L129.507,9.514 C129.749,9.514 129.884,9.649 129.884,9.892 L129.884,11.649 C129.884,12.162 129.804,12.568 129.804,12.568 L129.857,12.568 C130.424,10.838 131.747,9.432 133.637,9.432 C133.962,9.432 134.124,9.568 134.124,9.811 L134.124,10.027 C134.124,10.27 133.908,10.405 133.638,10.405 C131.099,10.405 129.911,13.405 129.911,15.919 L129.911,20.405 C129.911,20.649 129.776,20.784 129.533,20.784 L129.344,20.784 C129.101,20.784 128.966,20.649 128.966,20.405 L128.966,9.892 L128.939,9.892 L128.939,9.892 Z M121.919,9.243 C124.862,9.243 126.509,11.378 126.509,14.622 C126.509,14.865 126.319,15 126.104,15 L117.409,15 C117.409,18.27 119.623,20.135 122.242,20.135 C123.407583,20.1325661 124.535387,19.721362 125.429,18.973 C125.645,18.811 125.807,18.838 125.942,19.027 L126.077,19.217 C126.185,19.378 126.157,19.567 125.996,19.703 C125.456,20.163 124.106,21.027 122.242,21.027 C119.056,21.027 116.437,18.73 116.437,15.135 C116.437,11.351 119.029,9.243 121.918,9.243 L121.919,9.243 Z M125.537,14.108 C125.429,11.351 123.782,10.108 121.918,10.108 C119.839,10.108 117.922,11.459 117.517,14.108 L125.537,14.108 Z M104.664,9.892 C104.664,9.649 104.799,9.514 105.042,9.514 L105.231,9.514 C105.474,9.514 105.609,9.649 105.609,9.892 L105.609,10.865 C105.609,11.378 105.528,11.757 105.528,11.757 L105.582,11.757 C105.582,11.757 106.5,9.217 109.632,9.217 C112.656,9.217 114.492,11.622 114.492,15.135 C114.492,18.73 112.386,21.055 109.497,21.055 C106.554,21.055 105.555,18.514 105.555,18.514 L105.501,18.514 C105.501,18.514 105.581,18.919 105.581,19.514 L105.581,24.919 C105.581,25.162 105.447,25.297 105.204,25.297 L105.042,25.297 C104.799,25.297 104.664,25.162 104.664,24.919 L104.664,9.892 Z M109.524,20.135 C111.738,20.135 113.547,18.297 113.547,15.135 C113.547,12.081 111.927,10.135 109.632,10.135 C107.552,10.135 105.609,11.595 105.609,15.135 C105.582,17.675 106.986,20.135 109.524,20.135 Z M97.697,9 C100.964,9 102.8,11.324 102.8,14.486 C102.8,14.973 102.368,15.459 101.801,15.459 L94.781,15.459 C94.969,17.541 96.481,18.622 98.237,18.622 C99.29,18.622 100.181,18.216 100.721,17.865 C101.288,17.595 101.693,17.649 101.991,18.189 L102.261,18.649 C102.531,19.162 102.449,19.622 101.936,19.919 C100.769922,20.6748143 99.4105988,21.0782712 98.021,21.081 C94.213,21.081 91.837,18.324 91.837,15.054 C91.864,11.486 94.24,9 97.697,9 Z M99.965,13.73 C99.911,12.135 98.939,11.19 97.643,11.19 C96.185,11.19 95.131,12.216 94.861,13.73 L99.965,13.73 Z M86.869,5.703 C86.869,5.081 87.193,4.757 87.787,4.757 L88.786,4.757 C89.406,4.757 89.704,5.108 89.704,5.703 L89.704,16.973 C89.704,18.108 90.19,18.297 90.595,18.351 C91,18.405 91.297,18.649 91.297,19.162 L91.297,19.919 C91.297,20.514 91.027,20.892 90.352,20.892 C88.812,20.892 86.869,20.486 86.869,17.189 L86.869,5.703 L86.869,5.703 Z M73.637,10.216 C73.637,9.595 73.988,9.27 74.582,9.27 L75.312,9.27 C75.932,9.27 76.229,9.622 76.229,10.054 L76.229,10.568 C76.229,10.811 76.202,11.027 76.202,11.027 L76.256,11.027 C76.256,11.027 77.282,9 79.956,9 C83.061,9 85.086,11.46 85.086,15.027 C85.086,18.676 82.818,21.054 79.821,21.054 C77.418,21.054 76.499,19.297 76.499,19.297 L76.445,19.297 C76.445,19.297 76.526,19.703 76.526,20.297 L76.526,24.351 C76.526,24.973 76.202,25.297 75.581,25.297 L74.609,25.297 C73.989,25.297 73.664,24.973 73.664,24.351 L73.664,10.216 L73.637,10.216 L73.637,10.216 Z M79.281,18.649 C80.847,18.649 82.17,17.351 82.17,15.081 C82.17,12.891 81.009,11.459 79.335,11.459 C77.85,11.459 76.418,12.541 76.418,15.081 C76.418,16.891 77.418,18.649 79.281,18.649 Z M65.833,9 C69.317,9 72.179,11.514 72.179,15.027 C72.179,18.567 69.344,21.054 65.833,21.054 C62.35,21.054 59.515,18.568 59.515,15.027 C59.515,11.514 62.323,9 65.833,9 Z M65.833,18.622 C67.696,18.622 69.263,17.189 69.263,15.027 C69.263,12.892 67.696,11.432 65.833,11.432 C63.97,11.432 62.431,12.892 62.431,15.027 C62.404,17.189 63.943,18.622 65.833,18.622 Z M53.412,9 C56.679,9 58.515,11.324 58.515,14.486 C58.515,14.973 58.083,15.459 57.516,15.459 L50.496,15.459 C50.685,17.541 52.196,18.622 53.952,18.622 C55.005,18.622 55.896,18.216 56.436,17.865 C57.003,17.595 57.408,17.649 57.706,18.189 L57.976,18.649 C58.246,19.162 58.164,19.622 57.651,19.919 C56.4849224,20.6748143 55.1255988,21.0782712 53.736,21.081 C49.928,21.081 47.552,18.324 47.552,15.054 C47.58,11.486 49.955,9 53.412,9 Z M55.68,13.73 C55.626,12.135 54.654,11.19 53.358,11.19 C51.9,11.19 50.847,12.216 50.577,13.73 L55.68,13.73 Z M34.942,10.216 C34.942,9.595 35.292,9.27 35.887,9.27 L36.616,9.27 C37.237,9.27 37.534,9.622 37.534,10.054 L37.534,10.568 C37.534,10.811 37.507,11.027 37.507,11.027 L37.561,11.027 C37.561,11.027 38.587,9 41.261,9 C44.366,9 46.391,11.46 46.391,15.027 C46.391,18.676 44.123,21.054 41.126,21.054 C38.722,21.054 37.804,19.297 37.804,19.297 L37.75,19.297 C37.75,19.297 37.831,19.703 37.831,20.297 L37.831,24.351 C37.831,24.973 37.507,25.297 36.886,25.297 L35.914,25.297 C35.293,25.297 34.969,24.973 34.969,24.351 L34.969,10.216 L34.942,10.216 Z M40.585,18.649 C42.152,18.649 43.475,17.351 43.475,15.081 C43.475,12.891 42.314,11.459 40.639,11.459 C39.154,11.459 37.723,12.541 37.723,15.081 C37.723,16.891 38.723,18.649 40.585,18.649 L40.585,18.649 Z"/><path fill="url(#atanas-info-svg__pph-icon-a)" d="M15,2.66 C8.2,2.66 2.66,8.172 2.66,15 C2.66,21.828 8.172,27.34 15,27.34 C21.828,27.34 27.34,21.828 27.34,15 C27.34,8.2 21.828,2.66 15,2.66 Z M30,15 C30,23.282 23.282,30 15,30 C6.718,30 0,23.282 0,15 C0,6.718 6.718,0 15,0 C23.282,0 30,6.718 30,15 Z M8.583,8.47299555 C9.33264362,8.47166966 10.0519666,8.76887551 10.5820456,9.29895444 C11.1121245,9.82903336 11.4093303,10.5483564 11.4080044,11.298 C11.4090643,12.0474705 11.1117409,12.7665361 10.5816909,13.2963985 C10.0516409,13.8262609 9.33247006,14.1233296 8.583,14.1220044 C6.993,14.095 5.75899556,12.834 5.75899556,11.298 C5.75767039,10.5485299 6.05473911,9.82935905 6.58460148,9.29930906 C7.11446385,8.76925906 7.83352952,8.47193574 8.583,8.47299555 L8.583,8.47299555 Z M21.253,8.47299715 C22.0024705,8.47193574 22.7215361,8.76925906 23.2513985,9.29930906 C23.7812609,9.82935905 24.0783296,10.5485299 24.0770044,11.298 C24.0780643,12.0474705 23.7807409,12.7665361 23.2506909,13.2963985 C22.7206409,13.8262609 22.0014701,14.1233296 21.252,14.1220044 C19.6955315,14.1143406 18.4356594,12.8544685 18.4279956,11.298 C18.4266704,10.5485299 18.7237391,9.82935905 19.2536015,9.29930906 C19.7834639,8.76925906 20.5025295,8.47193574 21.252,8.47299715 L21.253,8.47299715 Z"/></g></svg>