<svg xmlns="http://www.w3.org/2000/svg" viewBox="0 0 896 195"><g fill="none"><g transform="translate(268 38)"><path fill="#0A0B09" d="M58.5435488,2.44118762 L76.0386514,2.63330377 C97.8587516,2.82541992 121.020251,14.7474451 120.817009,37.4604452 C120.765521,44.6796833 114.814585,46.0732019 112.706284,46.0407316 L103.419463,45.9568499 C98.9318713,45.9054385 95.2626691,43.8111018 92.2628119,37.2385646 C88.7860125,29.6296825 82.7646187,24.8159552 73.1336406,24.72125 L59.1830847,24.604898 C36.0703632,24.4127818 29.7427509,32.8658926 29.5178293,58.9422785 C29.2793583,85.0646641 35.4606361,93.5800098 58.565228,93.8018904 L74.1173336,93.9344776 C83.7483118,94.0129476 89.8699718,89.2668668 93.4687165,81.787866 C96.5932292,75.2153288 100.29495,73.1642858 104.806931,73.2102855 L114.107301,73.2806379 C116.147854,73.3076965 122.106921,74.8175671 122.046026,82.0151583 C121.84948,104.752511 98.4657688,116.263246 76.6483785,116.071129 L57.5761151,115.914189 C19.2120867,115.58678 -0.334408918,97.5900963 0.00432835402,58.6825159 C0.318676544,19.7505827 20.2011995,2.13001356 58.5435488,2.44118762 M163.468096,58.6933393 C163.251305,82.9513864 172.70072,96.4292818 196.957018,96.6511624 C221.240416,96.8676313 230.925592,83.5493817 231.136964,59.2534526 C231.348336,35.0603462 221.92331,21.5310395 197.623653,21.287512 C173.389034,21.1143368 163.695728,34.4758801 163.468096,58.6933393 Z M197.818766,0.00591239277 C238.272126,0.31708645 261.273742,17.5101295 260.918745,59.5456856 C260.533939,101.548771 237.234235,118.333229 196.775455,117.994997 C156.308545,117.629706 133.31235,100.471839 133.697155,58.425459 C134.057572,16.4196674 157.346436,-0.362084751 197.818766,0.00591239277 L197.818766,0.00591239277 Z M303.442467,91.8293175 L357.91955,92.3001374 L358.529277,25.6493605 L335.500562,25.4707736 C325.739509,25.365245 319.0569,31.1260238 316.815814,40.4071282 L303.442467,91.8293175 Z M288.659972,33.5261228 C294.884608,9.03266588 316.520435,3.57223766 338.833737,3.78600071 L380.403575,4.11611579 C384.335637,4.14858613 387.606484,7.31985564 387.587762,11.2650015 L386.766416,107.176963 C386.695959,111.119403 383.395303,114.228438 379.446981,114.217699 L267.663682,113.232681 C263.72078,113.192093 260.439093,109.842237 260.457819,105.929561 L260.533939,98.5425595 C260.555619,94.5947078 263.915892,91.4964965 267.853374,91.4964965 L273.80702,91.5397903 L288.659972,33.5261228 L288.659972,33.5261228 Z"/><path fill="#A01D26" d="M436.682741,67.1924498 L436.606863,76.5466125 C436.482208,89.672746 442.579479,92.5003711 454.581618,92.6113114 L465.97132,92.7276635 C477.997848,92.8331921 484.07886,90.0813311 484.173706,80.2401133 C484.244164,70.409719 478.230899,67.5577411 466.198952,67.4603301 L436.682741,67.1924498 Z M469.025375,45.9568499 C496.679886,46.2057891 513.161487,55.1107789 512.914886,80.499876 C512.700804,105.929561 496.072869,114.485495 468.418358,114.258202 L451.698286,114.090439 C424.079004,113.87397 407.591984,105.009568 407.846714,76.2922616 L408.158352,42.6502873 C408.429342,12.3960515 425.065407,3.53164974 452.40286,3.73458934 L471.746113,3.91858791 C494.547196,4.10529235 511.782149,15.6620262 511.638524,30.7417915 C511.589746,37.795972 505.768885,39.1489027 503.747301,39.1299617 L494.71792,39.0541976 C490.349564,39.0054921 487.52314,36.9625667 484.450116,31.7673129 C482.119603,27.8492257 476.721486,25.4707736 468.879041,25.3841861 L454.836348,25.267834 C443.145848,25.1731289 437.021478,28.3741628 436.894113,42.9181676 L436.850754,45.6673227 L469.025375,45.9568499 L469.025375,45.9568499 Z M585.298977,32.3842493 L547.222197,74.8175671 L584.93314,75.1503881 L585.298977,32.3842493 Z M517.546102,79.7395289 C517.586751,74.722862 519.264178,71.4027701 522.182738,68.2531475 L571.535404,13.2294568 C574.443125,10.0473639 578.109617,8.76207974 583.106669,8.78041567 L606.268169,8.98396037 C610.189391,9.03266588 613.338293,12.0767599 613.297645,15.9921413 L612.793604,75.404739 L620.934138,75.483209 C624.914978,75.5048559 628.0693,78.5651851 627.998842,82.5130368 L627.969033,89.4508654 C627.925675,93.2417771 624.738835,96.3968115 620.785093,96.3535177 L612.603911,96.2912829 L612.481965,107.923781 C612.465706,111.701163 609.268026,114.845374 605.308865,114.813641 L591.537162,114.696552 C587.781243,114.677611 584.635052,111.595635 584.645891,107.831782 L584.751577,96.0531671 L524.510541,95.52823 C520.573059,95.4930538 517.429577,92.2784905 517.458766,88.501108 L517.546102,79.7395289 L517.546102,79.7395289 Z"/></g><path fill="#0A0B09" d="M158.706629,134.556206 C157.351539,135.669965 139.591155,148.983588 130.927287,155.113328 L124.587208,159.560236 C117.471625,164.530149 111.727459,168.45676 107.006413,171.559569 C95.2051587,179.334204 92.3507626,180.407315 91.0337676,180.407315 C89.7902413,180.401896 87.5099897,179.667519 75.2570385,171.437624 C75.063843,171.299421 74.8407157,171.150377 74.639357,171.012174 L165.043987,111.083256 C166.418125,118.44599 167.392266,123.838644 167.457571,124.862978 C167.457571,126.150169 167.457571,127.480718 158.706629,134.556206 Z M46.1824697,151.1271 L158.42636,76.4618741 L158.469897,76.6759544 C159.555601,82.2799789 160.741985,88.4341083 161.882111,94.4256452 L60.6911829,161.397532 C59.844932,160.78781 59.0231707,160.221446 58.1197774,159.587334 L51.981057,155.267791 C49.9429801,153.823427 48.02463,152.44681 46.1824697,151.1271 Z M29.8234329,139.230743 C27.6520238,137.610236 25.8017004,136.21465 24.2452518,135.000625 C22.68064,133.661946 21.0888175,132.195903 19.665701,130.830125 L155.327068,40.2579247 C155.234552,41.742937 155.142035,43.2062702 155.041356,44.615406 L154.322995,55.2950291 L155.207341,59.8936895 L33.1921101,141.729249 C32.3513013,141.103267 31.5240979,140.501675 30.7431525,139.924471 L29.8234329,139.230743 Z M134.549023,16.3595242 C145.629196,14.9043205 149.735281,14.587265 151.21554,14.587265 C153.343412,14.587265 154.274016,15.2240859 154.848161,15.7741909 C155.446795,16.3595242 155.582848,16.5356661 155.620943,16.5844439 C155.933865,17.1426785 156.07536,18.733376 156.116176,20.969024 L17.5976924,113.310774 C18.6208125,107.546867 19.9867866,100.094707 21.6330303,91.138565 L134.549023,16.3595242 Z M173.762276,74.0717631 L169.958229,54.441418 L170.562305,45.5177949 C172.499703,15.9015551 172.499703,11.8719688 165.980033,5.59047513 C162.162381,1.93756167 157.068549,0 151.21554,0 C148.061827,0 141.863243,0.655790103 130.510964,2.17061104 L128.65792,2.42262955 L7.41819197,82.7054295 L6.86037385,85.6673244 C-0.622552159,126.147459 -0.598062583,126.226045 0.577437065,130.561848 C0.93389645,131.83549 2.01143779,135.737712 13.9024875,145.888909 L14.1691518,146.111119 C15.8181165,147.40102 17.7990511,148.894162 20.1364451,150.652872 L21.0806543,151.335761 C26.5826457,155.424964 33.6193172,160.505983 42.626039,166.912131 L48.79197,171.245223 C55.8504101,176.215136 61.5374338,180.152587 66.1958954,183.293334 C80.4760393,192.878167 84.8787208,194.962062 91.009278,195 L91.0337676,195 C97.0609243,195 101.724828,192.845648 115.94783,183.504704 C120.774997,180.31247 126.63889,176.318112 133.893247,171.245223 L140.265979,166.768507 C148.614203,160.866396 166.850774,147.260106 168.924225,145.555594 C178.660192,137.675273 182.997568,132.813755 182.997568,124.914465 C183.022057,122.987743 183.035663,121.911922 173.762276,74.0717631 L173.762276,74.0717631 Z"/><path fill="#A01D26" d="M49.5393142,3.97713317 C28.2920737,0.456924205 23.2428246,0 21.2258179,0 C18.013149,0 15.242121,0.9598112 12.9450493,2.84698928 C7.80962625,7.07015856 7.17678702,9.8468518 8.77638915,42.8995051 L9.36075559,54.0495372 L8.50440293,59 L19.9601394,50.8699936 L55.1917803,25.9040876 L55.3829786,25.7634956 L71.0073752,14.6891669 L79,9.01681789 C71.4678667,7.68930437 60.181785,5.73183026 49.5393142,3.97713317"/></g></svg>