<svg xmlns="http://www.w3.org/2000/svg" viewBox="0 0 2644.231 2660.464"><g fill="#481E00"><polygon points="684.741 627.871 1043.906 127.703 1743.609 627.871 1900.577 627.871 1022.624 0 573.004 627.871"/><path d="M993.358846,627.872 L1421.69085,146.324 L1961.76485,627.872 L2041.58085,627.872 L1416.37085,71.832 L921.526846,627.872 L993.358846,627.872 Z M1983.05085,2032.594 L1623.88585,2532.762 L921.525846,2032.594 L767.217846,2032.594 L1642.51085,2660.464 L2094.78785,2032.594 L1983.05085,2032.594 Z"/><polygon points="2094.788 2261.395 1858.008 2527.441 1301.972 2032.594 1222.156 2032.594 1863.331 2601.934 2094.788 2341.211"/><g transform="translate(0 1000.124)"><path d="M133.030846,593.104847 C105.788846,593.104847 82.944846,589.416847 64.499846,582.041847 C46.049846,574.658847 32.284846,563.443847 23.202846,548.401847 C14.128846,533.361847 7.60084596,517.041847 3.62484596,499.447847 C-0.345154036,481.853847 -1.05515404,460.006847 1.49984596,433.900847 C4.04984596,407.799847 7.73784596,383.111847 12.561846,359.838847 C17.393846,336.568847 23.780846,308.756847 31.717846,276.400847 L10.438846,276.400847 C1.92584596,271.861847 -0.343154036,258.666847 3.62584596,236.822847 C7.60184596,214.971847 14.129846,203.189847 23.203846,201.478847 L52.156846,201.478847 C87.343846,89.6898467 107.488846,26.4128467 112.593846,11.6508467 C118.269846,4.83884669 131.609846,1.01084669 152.609846,0.166846687 C173.609846,-0.685153313 194.039846,1.72584669 213.906846,7.40084669 C233.769846,13.0688467 244.836846,21.0108467 247.109846,31.2288467 C231.222846,81.1668467 214.195846,137.916847 196.031846,201.478847 L248.812846,201.478847 C258.468846,210.564847 261.734846,224.330847 258.609846,242.775847 C255.484846,261.225847 249.664846,272.432847 241.156846,276.400847 L175.593846,276.400847 C156.300846,342.807847 145.238846,381.690847 142.406846,393.041847 C132.750846,428.229847 128.488846,457.459847 129.625846,480.729847 C130.757846,504.002847 139.555846,516.205847 156.015846,517.338847 C209.367846,520.174847 254.207846,485.268847 290.531846,412.619847 C293.363846,409.213847 297.757846,408.506847 303.718846,410.494847 C309.688846,412.474847 315.363846,416.021847 320.750846,421.134847 C326.144846,426.240847 328.273846,430.213847 327.140846,433.057847 C301.597846,485.837847 273.359846,525.709847 242.421846,552.666847 C211.491846,579.626847 175.031846,593.104847 133.031846,593.104847 L133.030846,593.104847 Z"/><path d="M160.727817,9.80119683 C173.215817,3.56319683 189.532817,0.301196826 209.680817,0.0201968259 C229.825817,-0.269803174 249.403817,2.56319683 268.414817,8.52019683 C287.434817,14.4801968 296.657817,21.7201968 296.086817,30.2391968 C269.406817,109.688197 245.000817,192.262197 222.867817,277.957197 C272.250817,240.500197 315.953817,221.770197 353.977817,221.770197 C389.735817,221.770197 413.434817,232.270197 425.071817,253.270197 C436.703817,274.270197 436.563817,301.516197 424.649817,335.004197 C422.938817,341.247197 419.953817,350.324197 415.696817,362.239197 C411.747408,373.315678 407.773398,384.383372 403.774817,395.442197 C400.086817,405.661197 396.258817,417.016197 392.289817,429.504197 C388.321817,441.984197 385.340817,453.051197 383.352817,462.707197 C381.360817,472.356197 380.227817,481.434197 379.946817,489.942197 C379.664817,498.454197 380.938817,504.840197 383.774817,509.098197 C386.618817,513.360197 391.438817,515.204197 398.243817,514.629197 C411.868817,514.067197 428.325817,503.426197 447.618817,482.708197 C466.918817,461.988197 482.528817,438.578197 494.446817,412.473197 C497.289817,409.067197 501.688817,408.360197 507.649817,410.348197 C513.606817,412.328197 519.422817,415.875197 525.102817,420.988197 C530.778817,426.094197 532.762817,430.067197 531.055817,432.911197 C476.575817,534.504197 411.871817,587.852197 336.945817,592.958197 C297.215817,595.790197 270.684817,588.129197 257.352817,569.973197 C244.016817,551.809197 239.336817,527.684197 243.305817,497.598197 C247.845817,464.684197 260.899817,415.875197 282.461817,351.176197 C291.543817,324.500197 285.586817,312.297197 264.586817,314.566197 C246.430817,316.266197 225.430817,328.184197 201.586817,350.316197 C173.211817,457.029197 153.344817,533.365197 141.992817,579.334197 C140.294817,587.839197 120.715817,593.230197 83.2588174,595.503197 C36.7158174,598.911197 9.47381743,593.805197 1.52481743,580.192197 C-0.171182574,577.348197 -0.452182574,574.223197 0.680817426,570.817197 C48.3448174,390.340197 101.696817,203.332197 160.727817,9.80119683 Z" transform="translate(242.461 .147)"/><path d="M38.0722013,323.238799 C34.0912013,330.050799 26.0022013,330.339799 13.8062013,324.098799 C1.60620134,317.847799 -2.50779866,311.031799 1.46220134,303.643799 C37.7822013,237.251799 63.3252013,178.511799 78.0872013,127.425799 C53.1072013,88.2617992 52.2512013,54.7777992 75.5242013,26.9727992 C90.8442013,7.67279919 109.716201,-1.26920081 132.134201,0.14479919 C154.560201,1.56279919 167.478201,13.9067992 170.884201,37.1757992 C172.579201,48.5317992 171.446201,61.5897992 167.478201,76.3477992 C174.853201,83.1607992 187.048201,93.0937992 204.071201,106.144799 C221.103201,119.199799 234.157201,129.984799 243.243201,138.504799 C252.325201,147.015799 261.403201,157.371799 270.478201,169.566799 C279.560201,181.766799 283.673201,194.109799 282.821201,206.597799 C281.978201,219.089799 276.446201,232.140799 266.228201,245.753799 C234.446201,287.753799 215.435201,321.527799 209.196201,347.066799 C206.353201,358.421799 207.056201,367.504799 211.306201,374.316799 C215.564201,381.129799 223.939201,384.250799 236.431201,383.676799 C257.431201,383.113799 280.556201,374.886799 305.806201,358.988799 C331.064201,343.093799 353.626201,316.984799 373.493201,280.660799 C376.337201,275.558799 383.575201,276.699799 395.212201,284.082799 C406.845201,291.457799 411.528201,297.129799 409.259201,301.097799 C357.040201,406.097799 282.119201,459.731799 184.492201,462.003799 C146.469201,462.566799 117.668201,454.906799 98.0862013,439.019799 C78.5002013,423.125799 68.9962013,400.703799 69.5702013,371.753799 C69.5702013,355.871799 73.9652013,337.144799 82.7582013,315.582799 C91.5582013,294.012799 99.0782013,277.832799 105.320201,267.050799 C111.570201,256.261799 122.356201,238.378799 137.680201,213.410799 C139.375201,210.578799 140.652201,207.746799 141.508201,204.910799 C142.359201,202.066799 142.930201,199.511799 143.211201,197.238799 C143.492201,194.968799 143.344201,192.558799 142.773201,190.003799 C142.211201,187.441799 141.641201,185.313799 141.070201,183.613799 C140.508201,181.918799 139.371201,179.652799 137.664201,176.816799 C135.964201,173.972799 134.688201,171.984799 133.836201,170.847799 C132.992201,169.714799 131.289201,167.730799 128.726201,164.894799 C126.172201,162.050799 124.609201,160.347799 124.039201,159.784799 C123.477201,159.214799 121.777201,157.504799 118.945201,154.660799 L113.836201,150.410799 C98.5132013,204.901799 73.2592013,262.511799 38.0712013,323.238799 L38.0722013,323.238799 Z" transform="translate(734.327 131.1)"/><path d="M230.727906,0.0519308397 C257.391906,0.62593084 280.516906,5.59493084 300.102906,14.9579308 C319.684906,24.3249308 333.449906,36.2479308 341.398906,50.7239308 C349.344906,65.1929308 354.028906,81.2239308 355.445906,98.8179308 C356.859906,116.410931 352.461906,133.719931 342.242906,150.738931 C327.492906,180.824931 301.809906,202.816931 265.195906,216.723931 C228.590906,230.629931 186.449906,233.895931 138.773906,226.520931 C142.743906,269.082931 176.226906,290.934931 239.226906,292.067931 C257.953906,292.641931 276.543906,290.231931 294.992906,284.832931 C313.437906,279.438931 333.445906,268.512931 355.008906,252.051931 C376.578906,235.594931 394.180906,214.313931 407.805906,188.207931 C410.637906,184.801931 415.031906,184.094931 420.992906,186.082931 C426.949906,188.062931 432.766906,191.609931 438.445906,196.722931 C444.121906,201.828931 446.391906,205.516931 445.258906,207.785931 C412.902906,266.246931 376.293906,308.105931 335.430906,333.363931 C294.562906,358.613931 247.172906,370.957931 193.258906,370.395931 C124.016906,369.819931 73.4999063,353.078931 41.7119063,320.159931 C9.92990634,287.246931 -3.69009366,246.099931 0.851906343,196.723931 C6.52790634,137.692931 30.7939063,89.8759308 73.6489063,53.2709308 C116.500906,16.6569308 168.859906,-1.08106916 230.727906,0.0509308397 L230.727906,0.0519308397 Z M218.805906,80.9419308 C203.480906,78.6729308 188.578906,86.3329308 174.102906,103.926931 C159.632906,121.520931 149.273906,144.223931 143.023906,172.036931 C165.730906,172.598931 184.746906,166.922931 200.070906,155.004931 C215.390906,143.090931 225.324906,129.184931 229.867906,113.285931 C235.543906,93.4229308 231.855906,82.6419308 218.805906,80.9419308 L218.805906,80.9419308 Z" transform="translate(1100.728 224.412)"/><path d="M230.727906,0.0519308397 C257.391906,0.62593084 280.516906,5.59493084 300.102906,14.9579308 C319.684906,24.3249308 333.449906,36.2479308 341.398906,50.7239308 C349.344906,65.1929308 354.028906,81.2239308 355.445906,98.8179308 C356.859906,116.410931 352.461906,133.719931 342.242906,150.738931 C327.492906,180.824931 301.809906,202.816931 265.195906,216.723931 C228.590906,230.629931 186.449906,233.895931 138.773906,226.520931 C142.743906,269.082931 176.226906,290.934931 239.226906,292.067931 C257.953906,292.641931 276.543906,290.231931 294.992906,284.832931 C313.437906,279.438931 333.445906,268.512931 355.008906,252.051931 C376.578906,235.594931 394.180906,214.313931 407.805906,188.207931 C410.637906,184.801931 415.031906,184.094931 420.992906,186.082931 C426.949906,188.062931 432.766906,191.609931 438.445906,196.722931 C444.121906,201.828931 446.391906,205.516931 445.258906,207.785931 C412.902906,266.246931 376.293906,308.105931 335.430906,333.363931 C294.562906,358.613931 247.172906,370.957931 193.258906,370.395931 C124.016906,369.819931 73.4999063,353.078931 41.7119063,320.159931 C9.92990634,287.246931 -3.69009366,246.099931 0.851906343,196.723931 C6.52790634,137.692931 30.7939063,89.8759308 73.6489063,53.2709308 C116.500906,16.6569308 168.859906,-1.08106916 230.727906,0.0509308397 L230.727906,0.0519308397 Z M218.805906,80.9419308 C203.480906,78.6729308 188.578906,86.3329308 174.102906,103.926931 C159.632906,121.520931 149.273906,144.223931 143.023906,172.036931 C165.730906,172.598931 184.746906,166.922931 200.070906,155.004931 C215.390906,143.090931 225.324906,129.184931 229.867906,113.285931 C235.543906,93.4229308 231.855906,82.6419308 218.805906,80.9419308 L218.805906,80.9419308 Z" transform="translate(1490.929 224.412)"/><path d="M213.1902,16.9082932 C222.8342,3.28329321 246.1042,-2.10670679 283.0022,0.73629321 C314.2092,3.01029321 331.2372,9.25229321 334.0802,19.4712932 L334.0802,24.5812932 C312.5062,91.5412932 286.2522,182.061293 255.3152,296.143293 C224.3852,410.217293 202.3972,497.338293 189.3462,557.503293 C184.8032,572.253293 165.2252,581.330293 130.6122,584.736293 C95.9872003,588.713293 73.5652003,584.459293 63.3462003,571.971293 C59.9402003,568.002293 58.8032003,563.181293 59.9402003,557.502293 C75.2602003,494.502293 86.6122003,447.963293 93.9872003,417.877293 C101.3692,387.795293 113.1512,346.791293 129.3302,294.861293 C145.5062,242.924293 160.9712,201.066293 175.7212,169.284293 C167.2092,185.745293 151.4592,205.042293 128.4712,227.175293 C105.4912,249.312293 85.7712003,263.218293 69.3152003,268.894293 C52.8462003,275.136293 37.7992003,272.863293 24.1752003,262.081293 C10.5572003,251.300293 2.75620032,239.386293 0.768200318,226.331293 C-1.21179968,213.281293 0.635200318,203.628293 6.31520032,197.378293 C101.0962,139.495293 170.0532,79.3392932 213.1902,16.9092932 L213.1902,16.9082932 Z" transform="translate(1919.95 12.618)"/><path d="M213.1902,16.9082932 C222.8342,3.28329321 246.1042,-2.10670679 283.0022,0.73629321 C314.2092,3.01029321 331.2372,9.25229321 334.0802,19.4712932 L334.0802,24.5812932 C312.5062,91.5412932 286.2522,182.061293 255.3152,296.143293 C224.3852,410.217293 202.3972,497.338293 189.3462,557.503293 C184.8032,572.253293 165.2252,581.330293 130.6122,584.736293 C95.9872003,588.713293 73.5652003,584.459293 63.3462003,571.971293 C59.9402003,568.002293 58.8032003,563.181293 59.9402003,557.502293 C75.2602003,494.502293 86.6122003,447.963293 93.9872003,417.877293 C101.3692,387.795293 113.1512,346.791293 129.3302,294.861293 C145.5062,242.924293 160.9712,201.066293 175.7212,169.284293 C167.2092,185.745293 151.4592,205.042293 128.4712,227.175293 C105.4912,249.312293 85.7712003,263.218293 69.3152003,268.894293 C52.8462003,275.136293 37.7992003,272.863293 24.1752003,262.081293 C10.5572003,251.300293 2.75620032,239.386293 0.768200318,226.331293 C-1.21179968,213.281293 0.635200318,203.628293 6.31520032,197.378293 C101.0962,139.495293 170.0532,79.3392932 213.1902,16.9092932 L213.1902,16.9082932 Z" transform="translate(2310.15 12.618)"/></g></g></svg>