<svg xmlns="http://www.w3.org/2000/svg" viewBox="0 0 23 32"><path fill="#204ecf" fill-rule="evenodd" d="m8.825 0 7.293 7.293c.053.047.106.1.165.159l6.361 6.363-10.346 10.292 4.74 4.74L13.866 32 6.62 24.754a9.905 9.905 0 0 1-.259-.253L0 18.144 10.31 7.893l-4.698-4.7zm4.616 11.427a.465.465 0 0 0-.283 0c-.094.024-.176.07-.342.236l-5.889 5.863c-.17.17-.212.247-.242.341a.462.462 0 0 0 0 .283c.03.094.077.176.242.34l1.869 1.871c.17.17.247.212.342.241.094.03.188.03.283 0 .094-.03.177-.07.336-.235l5.89-5.864c.17-.17.211-.247.24-.34a.462.462 0 0 0 0-.283c-.023-.094-.07-.177-.235-.341l-1.869-1.87c-.17-.171-.247-.212-.342-.242z"/></svg>