<svg xmlns="http://www.w3.org/2000/svg" viewBox="0 0 28.871 32"><defs><linearGradient id="atanas-info-svg__vuepress-icon-a" x1="49.998%" x2="49.998%" y1="100.001%" y2="0%"><stop offset="0%" stop-color="#1D2130"/><stop offset="100%" stop-color="#3E445A"/></linearGradient><linearGradient id="atanas-info-svg__vuepress-icon-b" x1="50.001%" x2="50.001%" y1="100%" y2="0%"><stop offset="0%" stop-color="#262B3F"/><stop offset="100%" stop-color="#656E91"/></linearGradient><linearGradient id="atanas-info-svg__vuepress-icon-c" x1="50%" x2="50%" y1="100.004%" y2="-.002%"><stop offset="0%" stop-color="#267550"/><stop offset="100%" stop-color="#79B881"/></linearGradient><linearGradient id="atanas-info-svg__vuepress-icon-d" x1="49.999%" x2="49.999%" y1="100.001%" y2="-.001%"><stop offset="0%" stop-color="#279264"/><stop offset="100%" stop-color="#A4F3AA"/></linearGradient><linearGradient id="atanas-info-svg__vuepress-icon-e" x1="49.998%" x2="49.998%" y1="100.006%" y2="0%"><stop offset="59%" stop-color="#CECFD0"/><stop offset="100%" stop-color="#DFDFDF"/></linearGradient><linearGradient id="atanas-info-svg__vuepress-icon-f" x1="50%" x2="50%" y1="100.009%" y2="0%"><stop offset="0%" stop-color="#EAEEF0"/><stop offset="41%" stop-color="#FFF"/></linearGradient><linearGradient id="atanas-info-svg__vuepress-icon-g" x1="24.315%" x2="128.28%" y1="-49.172%" y2="236.118%"><stop offset="22%" stop-color="#73CB8D"/><stop offset="40%" stop-color="#2F9869"/></linearGradient><linearGradient id="atanas-info-svg__vuepress-icon-h" x1="-16.179%" x2="256.146%" y1="-136.749%" y2="517.199%"><stop offset="25%" stop-color="#586080"/><stop offset="35%" stop-color="#2C3247"/></linearGradient></defs><g fill="none" fill-rule="evenodd"><path fill="url(#atanas-info-svg__vuepress-icon-a)" d="M0.735959626,7.90912262 L17.3979596,5.43512262 C17.8439596,5.36912262 18.3109596,5.63912262 18.4439596,6.03912262 L25.3379596,26.8121226 C25.5069596,27.3221226 25.2439596,27.8241226 24.7479596,27.9321226 L6.08795963,31.9771226 C5.53446611,32.0952022 4.98976124,31.743246 4.86995963,31.1901226 L0.0159596256,8.81512262 C-0.0770403744,8.38612262 0.245959626,7.98212262 0.735959626,7.90912262 Z"/><path fill="url(#atanas-info-svg__vuepress-icon-b)" d="M0.839959626,7.68512262 L17.5029596,5.21212262 C17.9479596,5.14612262 18.4159596,5.41512262 18.5489596,5.81612262 L25.4419596,26.5881226 C25.6119596,27.0981226 25.3479596,27.6001226 24.8519596,27.7081226 L6.19395963,31.7531226 C5.6404427,31.8718776 5.09521007,31.5203166 4.97495963,30.9671226 L0.119959626,8.59112262 C0.0269596256,8.16312262 0.349959626,7.75812262 0.839959626,7.68512262 Z"/><path fill="url(#atanas-info-svg__vuepress-icon-c)" d="M2.41995963,5.20012262 L18.9609596,2.77412262 C19.4049596,2.70912262 19.8749596,2.98112262 20.0119596,3.38212262 L27.0029596,23.7901226 C27.1709596,24.2801226 26.9169596,24.7621226 26.4339596,24.8641226 L8.32295963,28.6681226 C7.78542242,28.7775145 7.25646568,28.4464219 7.11995963,27.9151226 L1.73195963,6.10012262 C1.62595963,5.67312262 1.93495963,5.27012262 2.41995963,5.20012262 Z"/><path fill="url(#atanas-info-svg__vuepress-icon-d)" d="M2.52395963,4.97612262 L19.0649596,2.55112262 C19.5089596,2.48612262 19.9789596,2.75712262 20.1159596,3.15912262 L27.1069596,23.5671226 C27.2749596,24.0571226 27.0209596,24.5391226 26.5379596,24.6401226 L8.42695963,28.4451226 C7.88942242,28.5545145 7.36046568,28.2234219 7.22395963,27.6921226 L1.83595963,5.87712262 C1.73095963,5.45012262 2.03895963,5.04712262 2.52395963,4.97712262 L2.52395963,4.97612262 Z"/><path fill="url(#atanas-info-svg__vuepress-icon-e)" d="M4.19695963,2.58012262 L20.5969596,0.232122619 C21.0369596,0.169122619 21.5069596,0.439122619 21.6469596,0.836122619 L28.7139596,20.8671226 C28.8819596,21.3461226 28.6339596,21.8141226 28.1579596,21.9111226 L10.3289596,25.5541226 C9.80016724,25.6580855 9.28030311,25.3380686 9.13495963,24.8191226 L3.52695963,3.46512262 C3.41695963,3.04512262 3.71695963,2.64912262 4.19695963,2.58012262 Z"/><path fill="url(#atanas-info-svg__vuepress-icon-f)" d="M4.30095963,2.35712262 L20.7009596,0.00912261872 C21.1409596,-0.0538773813 21.6109596,0.216122619 21.7509596,0.612122619 L28.8179596,20.6441226 C28.9859596,21.1231226 28.7379596,21.5911226 28.2619596,21.6881226 L10.4339596,25.3301226 C9.90482727,25.4346663 9.38432583,25.1145253 9.23895963,24.5951226 L3.62995963,3.24312262 C3.51995963,2.82212262 3.81995963,2.42612262 4.29995963,2.35712262 L4.30095963,2.35712262 Z"/><path fill="#BCC0CF" d="M13.1569596,15.5461226 L20.3809596,14.2061226 C20.483931,14.1872187 20.5848061,14.248173 20.6159596,14.3481226 L21.8289596,18.2021226 C21.8465457,18.2583268 21.8393598,18.319361 21.809201,18.3699439 C21.7790421,18.4205267 21.7287657,18.4558693 21.6709596,18.4671226 L14.3429596,19.8941226 C14.2371699,19.9148278 14.1331979,19.8508786 14.1039596,19.7471226 L12.9949596,15.8041226 C12.9797296,15.748277 12.9885786,15.6886057 13.0193601,15.6395834 C13.0501415,15.5905611 13.100043,15.5566668 13.1569596,15.5461226 L13.1569596,15.5461226 Z M12.5329596,15.8881226 L13.6239596,19.8631226 C13.7089626,20.1709677 14.0163914,20.3616955 14.3299596,20.3011226 L21.7469596,18.8591226 C21.918421,18.825977 22.0675045,18.7210469 22.1565656,18.570828 C22.2456268,18.420609 22.2661524,18.2394601 22.2129596,18.0731226 L20.9879596,14.2451226 C20.8945214,13.9533715 20.5994741,13.7759155 20.2979596,13.8301226 L13.0149596,15.1251226 C12.8460761,15.1555527 12.6977268,15.2554892 12.6060777,15.4005687 C12.5144285,15.5456483 12.4879,15.722541 12.5329596,15.8881226 L12.5329596,15.8881226 Z M13.9729596,16.2121226 L14.7369596,18.8921226 L15.5569596,18.7061226 L15.1189596,17.1631226 L16.2389596,18.0401226 L16.7839596,16.8051226 L17.2309596,18.3731226 L18.0269596,18.2031226 L17.2559596,15.6111226 L16.4109596,15.7571226 L15.8989596,16.8941226 L14.7939596,16.0581226 L13.9739596,16.2121226 L13.9729596,16.2121226 Z M19.9189596,16.5721226 L19.5089596,15.1981226 L18.6589596,15.3431226 L19.0909596,16.7301226 L18.3269596,16.8781226 L19.8969596,17.9251226 L20.6919596,16.4221226 L19.9189596,16.5721226 L19.9189596,16.5721226 Z"/><path fill="#A2A6B3" fill-rule="nonzero" d="M21.8099596,18.3661226 L21.7249596,18.5461226 L21.6969596,18.6031226 C21.66704,18.6481906 21.6201402,18.6792166 21.5669596,18.6891226 L14.2389596,20.1191226 C14.1327648,20.1386496 14.0291769,20.0740696 13.9999596,19.9701226 L12.8919596,16.0281226 C12.87903,15.9823709 12.882569,15.9335323 12.9019596,15.8901226 L12.9089596,15.8751226 L12.9159596,15.8611226 L12.9999596,15.6811226 C12.9846891,15.7204316 12.98293,15.7637039 12.9949596,15.8041226 L13.0249596,15.9101226 L14.1039596,19.7461226 C14.1339596,19.8501226 14.2369596,19.9141226 14.3429596,19.8941226 L21.6679596,18.4671226 L21.6699596,18.4671226 C21.7291427,18.4561906 21.780424,18.4195611 21.8099596,18.3671226 L21.8099596,18.3661226 Z M22.1189596,18.6231226 C22.1464378,18.5150134 22.1429727,18.4013571 22.1089596,18.2951226 L20.8839596,14.4681226 C20.789819,14.1768397 20.4955027,13.9993968 20.1939596,14.0521226 L12.9109596,15.3481226 C12.7565788,15.3736184 12.6189266,15.4601014 12.5289596,15.5881226 C12.5810425,15.3487426 12.7734253,15.1650685 13.0149596,15.1241226 L20.2999596,13.8301226 C20.6006772,13.7759883 20.8949567,13.9530693 20.9879596,14.2441226 L22.2119596,18.0741226 C22.2739649,18.2612183 22.239125,18.4668864 22.1189596,18.6231226 L22.1189596,18.6231226 Z M20.6919596,16.4231226 L20.5719596,16.6491226 L19.8149596,16.7971226 L19.4059596,15.4221226 L18.7209596,15.5401226 L18.6589596,15.3431226 L19.5089596,15.1981226 L19.9189596,16.5731226 L20.6919596,16.4231226 Z M18.9279596,16.7631226 L19.0909596,16.7301226 L18.9869596,16.9551226 L18.5629596,17.0351226 L18.3269596,16.8781226 L18.9279596,16.7621226 L18.9279596,16.7631226 Z M15.8949596,16.8931226 L15.7939596,17.1171226 L14.6899596,16.2821226 L14.0269596,16.4051226 L13.9729596,16.2131226 L14.7929596,16.0581226 L15.8949596,16.8931226 Z M18.0259596,18.2011226 L17.8659596,18.2361226 L17.1509596,15.8341226 L16.3089596,15.9811226 L16.4089596,15.7571226 L17.2549596,15.6121226 L18.0259596,18.2021226 L18.0259596,18.2011226 Z M15.2299596,17.5531226 L15.1189596,17.1611226 L15.0149596,17.3861226 L15.4019596,18.7411226 L15.5569596,18.7061226 L15.2299596,17.5531226 L15.2299596,17.5531226 Z"/><polygon fill="url(#atanas-info-svg__vuepress-icon-g)" fill-rule="nonzero" points="10.893 5.377 8.764 5.672 16.334 12.709 19.054 4.076 17.044 4.431 15.446 9.516 10.893 5.376"/><polygon fill="url(#atanas-info-svg__vuepress-icon-h)" fill-rule="nonzero" points="10.893 5.377 12.845 5.081 14.559 6.619 15.21 4.726 17.043 4.431 15.447 9.516 10.893 5.376"/></g></svg>