<svg xmlns="http://www.w3.org/2000/svg" viewBox="0 0 64 52.134"><defs><linearGradient id="atanas-info-svg__webcomponents-icon-a" x1="0%" x2="100%" y1="50%" y2="50%"><stop offset="0%" stop-color="#2A3B8F"/><stop offset="100%" stop-color="#29ABE2"/></linearGradient><linearGradient id="atanas-info-svg__webcomponents-icon-b" x1="100%" x2="0%" y1="50%" y2="50%"><stop offset="0%" stop-color="#B4D44E"/><stop offset="100%" stop-color="#E7F716"/></linearGradient></defs><g fill="none"><polygon fill="#166DA5" points="64 26.047 57.05 37.752 47.3 25.887 57.048 14.342"/><polygon fill="#8FDB69" points="56.29 39.75 45.703 27.086 39.35 37.712 49.218 52.134"/><polygon fill="#166DA5" points="56.17 12.264 45.703 24.968 39.35 14.342 49.218 .079"/><path fill="url(#atanas-info-svg__webcomponents-icon-a)" d="M24.24945,12.26465 L56.1695,12.26465 L49.1383,1.77635684e-15 L31.28065,1.77635684e-15 L24.24945,12.26465 Z M45.7026,25.0087 L63.3605,25.0087 L57.00845,14.3021 L39.3106,14.3021" opacity=".95"/><path fill="url(#atanas-info-svg__webcomponents-icon-b)" d="M56.28935,39.7902 L24.2095,39.7902 L31.2407,51.97495 L49.2182,51.97495 L56.28935,39.7902 Z M45.7026,27.04615 L63.3605,27.04615 L57.00845,37.75275 L39.3106,37.75275" opacity=".95"/><polygon fill="#010101" points="31.241 51.975 16.22 26.007 31.44 .04 14.982 .04 0 26.007 14.981 51.975"/></g></svg>