<svg width="200" height="200" viewBox="0 0 200 200" fill="none" xmlns="http://www.w3.org/2000/svg">
<rect width="200" height="200" fill="white"/>
<g clip-path="url(#clip0_2_120)">
<path d="M115.303 140.235C107.877 142.596 101.614 143.525 93.3251 143.525H92.5414H92.5278L92.5278 143.525C89.1135 143.494 78.8338 143.034 69.2163 138.777C59.5189 134.484 50.3784 126.252 49.7969 110.79C49.4649 101.963 52.2762 94.4965 58.2018 88.7323L58.2021 88.7319C67.1909 79.9938 83.0636 75.6042 100.545 76.6572H100.858C108.903 76.6572 117.946 78.087 125.917 80.8916C133.85 83.6822 140.938 87.9116 144.802 93.6665C152.473 105.092 151.722 118.914 142.277 126.29L141.417 125.189L142.277 126.29C141.544 126.863 140.573 127.018 139.725 127.018C138.522 127.018 137.292 126.706 136.349 126.376C135.867 126.208 135.431 126.025 135.075 125.855C134.756 125.701 134.4 125.51 134.147 125.306L134.138 125.298L134.129 125.291C133.736 124.962 132.953 124.496 131.645 124.496C130.28 124.496 128.519 125.039 126.435 126.012C124.382 126.97 122.179 128.267 119.961 129.618L119.95 129.625L119.619 129.822C119.618 129.823 119.617 129.823 119.616 129.824C119.544 129.867 119.471 129.912 119.397 129.957C119.149 130.108 118.901 130.259 118.689 130.379C117.136 131.28 116.649 132.636 117.064 133.958C117.488 135.287 118.867 136.669 121.314 137.739C123.718 138.792 126.927 139.436 130.544 139.436C134.369 139.436 138.324 138.718 142.295 137.279C144.795 136.372 147.937 134.27 150.979 131.176C154.005 128.098 156.855 124.114 158.818 119.539C161.509 113.256 163.517 103.61 157.947 92.9293C149.009 75.8102 129.917 66.8566 100.459 66.8432L115.303 140.235ZM115.303 140.235L117.482 147.724L115.375 148.368H115.33L115.103 148.444C112.155 149.225 102.147 151.658 93.2102 151.658H92.3184C75.2736 151.517 60.9359 146.63 51.8142 138.092L51.8131 138.091C44.5674 131.322 39.3638 119.135 39.4999 109.268C39.6676 97.2158 46.0228 86.2822 57.6181 78.4943C68.7532 71.0182 83.9577 66.8433 100.459 66.8432L115.303 140.235Z" fill="#808080" stroke="white" stroke-width="3"/>
<path d="M124.304 48.5H138.138V114.595C138.138 120.245 136.111 125.11 132.068 129.135C128.033 133.12 123.143 135.124 117.464 135.124H80.7386C75.9515 135.124 71.8404 133.43 68.4683 130.066L68.4624 130.061C65.0802 126.724 63.3826 122.663 63.3826 117.897V102.373C63.3826 97.6433 65.0786 93.5784 68.4673 90.2045C71.8542 86.8325 75.9594 85.1393 80.7454 85.1393H112.296C116.073 85.1393 119.559 86.0858 122.722 87.9514L125.032 89.3138L124.984 86.6327L124.304 48.5ZM121.32 97.7714L121.313 97.765C118.792 95.2855 115.815 94.0586 112.303 94.0586H85.934C83.3418 94.0586 81.1378 94.9575 79.3008 96.7838C77.4347 98.6047 76.5092 100.806 76.5092 103.395V116.855C76.5092 119.45 77.4345 121.642 79.3076 123.473C81.1291 125.328 83.3294 126.245 85.9272 126.245H112.296C115.808 126.245 118.787 125 121.306 122.492C123.796 120.013 125.031 117.055 125.031 113.559V107.321L125.038 107.314V106.691C125.038 103.202 123.803 100.244 121.32 97.7714Z" fill="#44D658" stroke="white" stroke-width="3"/>
</g>
<defs>
<clipPath id="clip0_2_120">
<rect width="125" height="106.164" fill="white" transform="translate(38 47)"/>
</clipPath>
</defs>
</svg>
