<svg width="200" height="200" viewBox="0 0 200 200" fill="none" xmlns="http://www.w3.org/2000/svg">
<g clip-path="url(#clip0_2_81)">
<path d="M200 0H0V200H200V0Z" fill="white"/>
<path d="M119.832 73.0863C119.663 73.0863 119.495 73.1284 119.326 73.2094L115.03 74.8445C114.569 75.0136 114.233 75.149 114.023 75.2536C113.814 75.359 113.71 75.5162 113.71 75.7253C113.71 76.0194 113.866 76.2096 114.181 76.2929C114.494 76.3762 114.853 76.4911 115.25 76.6381C115.649 76.7851 116.006 77.0374 116.32 77.3936C116.635 77.7505 116.792 78.3482 116.792 79.1871V110.777C116.792 111.448 116.718 111.951 116.571 112.287C116.425 112.622 116.204 112.876 115.911 113.044C115.617 113.211 115.281 113.336 114.904 113.42C114.527 113.503 114.129 113.608 113.71 113.736C113.375 113.818 113.103 113.913 112.892 114.017C112.682 114.122 112.578 114.322 112.578 114.616C112.578 114.909 112.777 115.087 113.174 115.15C113.573 115.211 113.877 115.244 114.087 115.244C114.633 115.244 115.337 115.204 116.196 115.124C117.058 115.044 117.869 115.002 118.629 115.002C119.346 115.002 120.041 115.044 120.714 115.124C121.389 115.204 122.103 115.244 122.859 115.244C123.194 115.244 123.519 115.201 123.834 115.119C124.148 115.035 124.306 114.868 124.306 114.618C124.306 114.324 124.127 114.147 123.771 114.084C123.415 114.022 122.984 113.906 122.482 113.737C122.187 113.655 121.883 113.477 121.568 113.206C121.254 112.933 121.098 112.442 121.098 111.731V102.82C121.098 102.612 121.245 102.506 121.538 102.506C121.664 102.506 121.853 102.632 122.106 102.883L131.602 111.855C132.063 112.316 132.293 112.652 132.293 112.859C132.293 113.069 132.178 113.258 131.947 113.424C131.715 113.592 131.435 113.696 131.097 113.736C130.553 113.821 130.113 113.916 129.777 114.02C129.442 114.125 129.276 114.323 129.276 114.617C129.276 114.91 129.421 115.086 129.716 115.149C130.009 115.21 130.491 115.244 131.161 115.244C131.915 115.244 132.67 115.203 133.425 115.123C134.179 115.043 134.977 115.002 135.815 115.002C136.78 115.002 137.66 115.043 138.458 115.123C139.254 115.203 139.988 115.244 140.659 115.244C141.749 115.244 142.294 115.035 142.294 114.616C142.294 114.407 142.159 114.238 141.886 114.112C141.612 113.987 141.246 113.831 140.785 113.642C140.324 113.453 139.788 113.211 139.18 112.918C138.571 112.623 137.954 112.185 137.325 111.599L126.444 101.727C126.359 101.644 126.254 101.529 126.13 101.382C126.003 101.235 125.941 101.057 125.941 100.847C125.941 100.68 126.486 100.23 127.575 99.496C128.665 98.7625 129.913 97.9775 131.318 97.1386C132.723 96.3005 134.085 95.5148 135.406 94.7812C136.727 94.0477 137.618 93.5767 138.08 93.366C138.289 93.2827 138.571 93.188 138.929 93.0835C139.285 92.9797 139.631 92.8641 139.968 92.7383C140.302 92.6133 140.584 92.4762 140.816 92.3292C141.046 92.1822 141.161 92.0249 141.161 91.8575C141.161 91.5225 141.037 91.3118 140.785 91.2285C140.533 91.1452 140.261 91.102 139.968 91.102C139.338 91.102 138.593 91.1233 137.734 91.1634C136.874 91.2035 136.044 91.2248 135.249 91.2248C134.409 91.2248 133.56 91.2035 132.701 91.1634C131.842 91.1233 131.077 91.102 130.406 91.102C130.196 91.102 129.997 91.1661 129.809 91.2911C129.62 91.4177 129.526 91.5639 129.526 91.7322C129.526 91.9845 129.65 92.1838 129.903 92.3317C130.154 92.4779 130.427 92.624 130.721 92.7702C131.015 92.9172 131.286 93.1066 131.539 93.3378C131.789 93.5689 131.915 93.8949 131.915 94.3132C131.915 94.5239 131.674 94.8273 131.192 95.2259C130.71 95.6237 130.113 96.076 129.4 96.5784C128.688 97.0832 127.901 97.6069 127.041 98.1533C126.181 98.6989 125.375 99.1912 124.62 99.6323C123.865 100.073 123.205 100.429 122.639 100.702C122.073 100.975 121.748 101.111 121.663 101.111C121.287 101.111 121.098 100.775 121.098 100.104V74.2202C121.098 73.7586 121.025 73.4549 120.876 73.3086C120.73 73.1608 120.571 73.0863 120.402 73.0863H119.832ZM56.2556 76.1209C54.2392 76.1209 52.4444 76.1804 50.8706 76.3015C49.2952 76.4234 47.7317 76.4845 46.1783 76.4845H40.453C40.2423 76.4845 40.0019 76.4941 39.7283 76.5153C39.4555 76.5357 39.1949 76.5789 38.9434 76.6418C38.6918 76.7055 38.4716 76.8113 38.2837 76.9575C38.0935 77.1046 38 77.303 38 77.5546C38 77.8903 38.135 78.0912 38.4078 78.1541C38.6806 78.2162 39.1737 78.2894 39.8867 78.3727C40.3049 78.4152 40.7552 78.4473 41.2379 78.4685C41.7206 78.489 42.182 78.5318 42.6222 78.5939C43.0617 78.6568 43.4283 78.7618 43.7215 78.9096C44.0156 79.0558 44.1625 79.2752 44.1625 79.5693V109.162C44.1625 110.085 44.0789 110.797 43.9107 111.301C43.7433 111.805 43.5239 112.191 43.2511 112.465C42.9783 112.738 42.6746 112.928 42.3397 113.033C42.004 113.138 41.6681 113.212 41.3325 113.254C40.3679 113.421 39.7397 113.631 39.4457 113.883C39.1517 114.134 39.006 114.387 39.006 114.638C39.006 114.962 39.1517 115.144 39.4457 115.184C39.7397 115.224 39.969 115.244 40.1373 115.244C40.892 115.244 41.793 115.204 42.8409 115.123C43.8896 115.043 44.8763 115.002 45.8 115.002H60.6643C63.3513 115.002 65.8808 114.55 68.2542 113.649C70.6275 112.748 72.6952 111.522 74.4585 109.969C76.2211 108.417 77.6169 106.592 78.646 104.495C79.675 102.399 80.19 100.175 80.19 97.8268C80.19 94.0513 79.5602 90.7899 78.3009 88.0423C77.0407 85.296 75.3291 83.0414 73.1664 81.2795C71.0038 79.5184 68.4739 78.2181 65.5778 77.3792C62.6793 76.5403 59.5734 76.1209 56.2558 76.1209H56.2556ZM54.8627 78.0005C56.1669 78.0005 57.556 78.1577 59.0292 78.4722C60.5016 78.7867 61.9541 79.2806 63.3849 79.9512C64.8156 80.6227 66.194 81.4608 67.5195 82.4671C68.8441 83.4735 70.0137 84.6705 71.0239 86.0542C72.0349 87.4388 72.8328 89.0117 73.4216 90.7728C74.0112 92.534 74.306 94.485 74.306 96.6228C74.306 98.7629 74.0112 100.661 73.4216 102.318C72.8328 103.974 72.0555 105.422 71.0877 106.659C70.1192 107.897 69.0252 108.955 67.8044 109.836C66.5835 110.718 65.3636 111.42 64.1427 111.944C62.9226 112.469 61.7435 112.856 60.6075 113.108C59.4708 113.361 58.4823 113.486 57.6411 113.486C56.6301 113.486 55.6424 113.361 54.6747 113.108C53.7054 112.856 52.8432 112.469 52.0854 111.944C51.3276 111.42 50.7174 110.76 50.2552 109.963C49.7929 109.166 49.5612 108.221 49.5612 107.13V80.014C49.5612 79.8048 49.5921 79.5739 49.6558 79.3223C49.7186 79.0715 49.9179 78.8509 50.2552 78.6614C50.5916 78.4727 51.1182 78.315 51.8336 78.1885C52.5482 78.0634 53.5577 78.0005 54.8627 78.0005ZM153.326 90.0713C151.358 90.0713 149.66 90.492 148.237 91.3317C146.814 92.1713 145.63 93.2319 144.687 94.5134C143.745 95.795 143.045 97.2227 142.585 98.7983C142.124 100.373 141.893 101.894 141.893 103.365C141.893 107.314 142.84 110.431 144.735 112.721C146.63 115.009 149.318 116.154 152.8 116.154C154.435 116.154 155.829 115.912 156.982 115.428C158.135 114.945 159.087 114.396 159.843 113.786C160.598 113.175 161.143 112.607 161.478 112.083C161.815 111.559 161.983 111.234 161.983 111.108C161.983 110.773 161.792 110.605 161.415 110.605C161.164 110.605 160.932 110.742 160.724 111.015C160.513 111.287 160.219 111.58 159.843 111.895C159.466 112.21 158.942 112.492 158.271 112.744C157.598 112.996 156.657 113.121 155.441 113.121C153.511 113.121 151.948 112.818 150.753 112.207C149.558 111.598 148.637 110.808 147.987 109.841C147.337 108.876 146.897 107.762 146.666 106.5C146.435 105.239 146.321 103.937 146.321 102.591V101.266C146.321 100.889 146.361 100.594 146.442 100.383H161.745C162.289 100.383 162.634 100.289 162.78 100.101C162.926 99.9118 163 99.5245 163 98.9372C163 98.2673 162.832 97.4281 162.496 96.4225C162.161 95.4162 161.618 94.4414 160.864 93.4987C160.11 92.5553 159.115 91.7481 157.879 91.0774C156.643 90.406 155.127 90.0713 153.327 90.0713H153.326ZM83.4207 91.1019C82.9592 91.1019 82.5826 91.1241 82.2893 91.1659C81.9953 91.2083 81.8484 91.3747 81.8484 91.6695C81.8484 91.8795 81.9731 92.0375 82.2255 92.1413C82.477 92.2466 82.9812 92.4031 83.7351 92.613C84.1124 92.6971 84.512 92.8025 84.9302 92.9275C85.3493 93.0533 85.5592 93.348 85.5592 93.8095C85.5592 94.7333 85.5489 95.7715 85.5284 96.9249C85.508 98.0783 85.4989 99.2642 85.4989 100.481C85.4989 101.657 85.4879 102.831 85.4682 104.006C85.4478 105.182 85.4387 106.251 85.4387 107.216C85.4387 108.559 85.5528 109.777 85.7839 110.868C86.015 111.958 86.4122 112.902 86.979 113.701C87.5458 114.498 88.3217 115.104 89.3067 115.524C90.2925 115.943 91.5203 116.154 92.988 116.154C94.2474 116.154 95.3691 115.957 96.3549 115.566C97.3407 115.174 98.2001 114.738 98.9344 114.256C99.6679 113.774 100.266 113.344 100.728 112.966C101.189 112.59 101.545 112.4 101.798 112.4C102.092 112.4 102.237 112.652 102.237 113.154V114.601C102.237 114.895 102.257 115.135 102.299 115.325C102.339 115.514 102.481 115.607 102.725 115.607C103.021 115.607 103.804 115.484 105.075 115.236C106.345 114.988 108.091 114.698 110.314 114.367C110.774 114.283 111.1 114.201 111.289 114.117C111.476 114.036 111.573 113.87 111.573 113.621C111.573 113.29 111.33 113.104 110.848 113.063C110.365 113.021 109.517 112.999 108.301 112.999C108.007 112.999 107.66 112.918 107.263 112.749C106.863 112.581 106.666 112.162 106.666 111.49C106.666 108.302 106.705 105.125 106.787 101.958C106.867 98.7907 106.909 95.6123 106.909 92.4239C106.909 91.8373 106.74 91.471 106.401 91.3232C106.066 91.1761 105.792 91.1019 105.582 91.1019C104.949 91.1019 104.329 91.1233 103.718 91.1634C103.108 91.2035 102.486 91.2237 101.857 91.2237C101.311 91.2237 100.776 91.2035 100.252 91.1634C99.7273 91.1233 99.1934 91.1019 98.6494 91.1019C98.3137 91.1019 97.9988 91.135 97.7048 91.1979C97.4115 91.2608 97.265 91.3958 97.265 91.6057C97.265 91.8573 97.5058 92.0664 97.9885 92.2347C98.4704 92.4021 98.8376 92.5289 99.0891 92.613C99.8438 92.823 100.431 92.9802 100.849 93.0848C101.268 93.1901 101.594 93.284 101.825 93.3673C102.055 93.4507 102.203 93.5557 102.266 93.683C102.328 93.808 102.36 93.9554 102.36 94.1228C102.36 96.3871 102.339 98.6305 102.299 100.852C102.257 103.076 102.237 105.319 102.237 107.586C102.237 108.214 102.164 108.866 102.018 109.536C101.872 110.208 101.547 110.804 101.045 111.329C100.543 111.852 99.7988 112.282 98.8153 112.617C97.8318 112.954 96.461 113.122 94.704 113.122C93.1553 113.122 91.9409 112.775 91.062 112.083C90.1823 111.391 89.744 110.396 89.744 109.095C89.744 106.285 89.7637 103.486 89.8054 100.698C89.8447 97.9083 89.8643 95.1091 89.8643 92.2978C89.8643 91.8379 89.8124 91.5239 89.7071 91.3556C89.601 91.1874 89.337 91.1026 88.9148 91.1026C88.451 91.1026 87.9865 91.1239 87.5219 91.164C87.0581 91.2041 86.5935 91.2242 86.1289 91.2242C85.6651 91.2242 85.2123 91.2041 84.7728 91.164C84.3334 91.1239 83.8811 91.1026 83.4204 91.1026L83.4207 91.1019ZM154.221 91.5871C155.563 91.5871 156.673 91.9543 157.555 92.6879C158.434 93.4214 158.875 94.332 158.875 95.4224C158.875 96.0097 158.803 96.491 158.654 96.8684C158.508 97.2458 158.205 97.559 157.744 97.8106C157.282 98.0622 156.631 98.2416 155.793 98.3462C154.954 98.4515 153.843 98.5034 152.46 98.5034C151.118 98.5034 150.079 98.492 149.346 98.4715C148.612 98.4511 148.067 98.4194 147.711 98.3769C147.355 98.336 147.144 98.2826 147.081 98.2197C147.019 98.1576 146.987 98.0629 146.987 97.9371C146.987 97.4347 147.155 96.8271 147.491 96.114C147.826 95.4017 148.297 94.7098 148.906 94.0391C149.514 93.3693 150.269 92.7934 151.171 92.3107C152.072 91.8295 153.089 91.5871 154.221 91.5871ZM121.983 119.937C120.722 119.937 119.725 120.661 119.725 121.845C119.725 123.069 120.418 123.43 121.866 123.86C123.01 124.203 123.412 124.467 123.412 124.995C123.412 125.661 122.952 125.993 121.994 125.993C121.349 125.993 120.673 125.68 120.213 125.181L119.481 125.894C120.056 126.57 120.918 127 121.915 127C123.666 127 124.447 126.158 124.447 124.926C124.447 123.704 123.607 123.273 122.256 122.863C121.073 122.511 120.761 122.276 120.761 121.796C120.761 121.337 121.103 120.945 121.906 120.945C122.58 120.945 123.069 121.161 123.499 121.601L124.223 120.866C123.617 120.28 122.911 119.938 121.983 119.938L121.983 119.937ZM42.426 120.044V124.017C42.426 125.904 43.3064 127 44.9981 127C46.7001 127 47.6292 125.954 47.6292 124.037V120.044H46.6011V124.056C46.6011 125.308 46.0932 125.972 45.0178 125.972C43.9903 125.972 43.4529 125.278 43.4529 123.986V120.044L42.426 120.044ZM70.0846 120.044V126.892H71.1115V120.044H70.0846ZM132.876 120.044V126.892H133.903V120.044H132.876ZM154.87 120.044L157.326 124.183V126.892H158.354V124.183L160.807 120.044H159.624L158.548 121.942C158.304 122.383 157.961 123.039 157.844 123.292C157.726 123.039 157.375 122.354 157.14 121.934L156.074 120.044L154.87 120.044ZM56.2101 120.046V126.892H57.2063V123.342C57.2063 122.961 57.1977 122.011 57.1977 121.757C57.3046 121.933 57.5404 122.345 57.7063 122.599L60.4344 126.892H61.4134V120.046H60.4147V123.577C60.4147 123.959 60.4258 124.936 60.4258 125.191C60.3276 125.015 60.0344 124.506 59.8583 124.223L57.2567 120.046H56.2101ZM79.3603 120.046L81.7359 126.892H82.8217L85.169 120.046H84.0746L82.6657 124.398C82.5383 124.799 82.3418 125.415 82.2836 125.661C82.2247 125.415 82.0294 124.809 81.9029 124.408L80.4743 120.046L79.3603 120.046ZM93.3645 120.046V126.892H97.9229V125.895H94.3926V123.734H96.358V122.736H94.3926V121.043H97.7755V120.046L93.3645 120.046ZM106.227 120.046V126.892H107.234V124.183H108.779L110.138 126.892H111.323L109.924 124.095C110.853 123.86 111.43 123.185 111.43 122.09C111.43 120.68 110.423 120.046 109.23 120.046H106.227ZM142.151 120.046V121.053H144.145V126.892H145.172V121.053H147.167V120.046H142.151ZM107.234 121.014H109.23C109.924 121.014 110.393 121.406 110.393 122.119C110.393 122.863 109.914 123.215 109.23 123.215H107.234V121.014Z" fill="#012169"/>
</g>
<defs>
<clipPath id="clip0_2_81">
<rect width="200" height="200" fill="white"/>
</clipPath>
</defs>
</svg>
