<svg xmlns="http://www.w3.org/2000/svg" width="1000" height="1000" viewBox="0 0 1000 1000"><g fill="none"><rect width="1000" height="1000" fill="#FFF"/><path fill="#012169" d="M645.722828,702 C644.453153,702 643.19086,701.683316 641.921185,701.074695 L609.65314,688.791825 C606.186633,687.522019 603.663819,686.504342 602.08706,685.718834 C600.516206,684.92742 599.734087,683.746204 599.734087,682.175187 C599.734087,679.966314 600.905967,678.537811 603.268152,677.911767 C605.624433,677.285723 608.316911,676.423022 611.304898,675.318586 C614.298968,674.214149 616.979695,672.318712 619.341644,669.643258 C621.709735,666.961899 622.884922,662.472099 622.884922,656.170314 L622.884922,418.864116 C622.884922,413.826231 622.328628,410.04457 621.224011,407.522675 C620.125594,405.006686 618.47171,403.101976 616.268972,401.838075 C614.060329,400.585987 611.531314,399.640246 608.702892,399.014202 C605.868269,398.388158 602.881581,397.599342 599.733673,396.642558 C597.217946,396.022419 595.170935,395.308906 593.588448,394.529304 C592.011689,393.73789 591.226262,392.240699 591.226262,390.02592 C591.226262,387.828859 592.722588,386.493318 595.710753,386.020831 C598.704823,385.560157 600.989824,385.310271 602.566406,385.310271 C606.664798,385.310271 611.954913,385.612072 618.409585,386.21461 C624.881973,386.81703 630.972278,387.128221 636.688767,387.128221 C642.07455,387.128221 647.292618,386.816971 652.347695,386.21461 C657.414583,385.61219 662.78324,385.310271 668.458391,385.310271 C670.980024,385.310271 673.416737,385.631562 675.78471,386.251523 C678.14099,386.883473 679.327988,388.132609 679.327988,390.016647 C679.327988,392.22552 677.983432,393.555155 675.314162,394.021736 C672.638987,394.494222 669.39925,395.363538 665.625658,396.633344 C663.411109,397.247576 661.128648,398.58235 658.760557,400.619947 C656.404276,402.669355 655.235762,406.358055 655.235762,411.703292 L655.235762,478.636869 C655.235762,480.20198 656.336364,480.9993 658.539102,480.9993 C659.483976,480.9993 660.906425,480.050253 662.802079,478.166214 L734.140083,410.766056 C737.600685,407.305095 739.325848,404.785562 739.325848,403.226358 C739.325848,401.649435 738.463296,400.233453 736.732995,398.981364 C734.990883,397.72337 732.881156,396.938629 730.348007,396.637419 C726.255521,395.999563 722.950233,395.285282 720.4286,394.50568 C717.912872,393.714265 716.663866,392.229595 716.663866,390.020722 C716.663866,387.817755 717.752657,386.497393 719.967206,386.024907 C722.169944,385.564233 725.790406,385.314346 730.827944,385.314346 C736.491284,385.314346 742.158758,385.616147 747.833909,386.218685 C753.497249,386.821105 759.488932,387.132296 765.790062,387.132296 C773.036066,387.132296 779.649595,386.821046 785.637736,386.218685 C791.619971,385.616265 797.135674,385.314346 802.173035,385.314346 C810.363913,385.314346 814.454628,386.882056 814.454628,390.029995 C814.454628,391.601012 813.440365,392.868574 811.391169,393.813546 C809.336067,394.752613 806.584121,395.924615 803.123519,397.34798 C799.657012,398.765438 795.63421,400.580435 791.063381,402.783402 C786.492552,404.998181 781.8544,408.288634 777.130029,412.694391 L695.392503,486.851101 C694.754713,487.471239 693.963381,488.339787 693.030318,489.444224 C692.079538,490.54866 691.609286,491.881603 691.609286,493.458526 C691.609286,494.71652 695.705847,498.099226 703.890879,503.609892 C712.075852,509.120262 721.453139,515.01689 732.006202,521.318675 C742.559266,527.614554 752.78753,533.517088 762.714615,539.027458 C772.635794,544.537828 779.330228,548.075569 782.802641,549.658398 C784.367589,550.284442 786.491666,550.995416 789.17877,551.780924 C791.853945,552.560526 794.451641,553.429074 796.985203,554.374046 C799.495025,555.313113 801.60989,556.342601 803.351884,557.447038 C805.082184,558.551474 805.944796,559.73269 805.944796,560.990684 C805.944796,563.506673 805.010965,565.089502 803.121216,565.715546 C801.225562,566.34159 799.181917,566.66607 796.984849,566.66607 C792.248667,566.66607 786.655011,566.506016 780.200339,566.204806 C773.739762,565.903596 767.504182,565.743541 761.533758,565.743541 C755.220817,565.743541 748.845278,565.903596 742.396512,566.204806 C735.94184,566.506016 730.194052,566.66607 725.150786,566.66607 C723.574027,566.66607 722.083606,566.184134 720.666294,565.244891 C719.248983,564.294012 718.544048,563.195895 718.544048,561.931995 C718.544048,560.036144 719.475281,558.538953 721.37684,557.428611 C723.260683,556.33008 725.31354,555.232613 727.522066,554.134082 C729.730709,553.029646 731.76585,551.607049 733.667291,549.870662 C735.545229,548.134275 736.490871,545.685438 736.490871,542.543582 C736.490871,540.960753 734.676063,538.681421 731.056013,535.687217 C727.435964,532.698741 722.955489,529.300975 717.593327,525.526991 C712.248882,521.73529 706.337513,517.801251 699.876936,513.696527 C693.416358,509.597709 687.359124,505.899324 681.689878,502.586014 C676.020633,499.272705 671.058272,496.597842 666.806338,494.548433 C662.554404,492.499024 660.111904,491.475442 659.480019,491.475442 C656.651302,491.475442 655.235467,493.998814 655.235467,499.042309 L655.235467,693.482196 C655.235467,696.949063 654.68744,699.231054 653.565284,700.329702 C652.466867,701.440045 651.273255,702 650.00358,702 L645.722119,702 L645.722828,702 Z M168.136151,679.203603 C152.988636,679.203603 139.506462,678.756513 127.683723,677.847037 C115.849174,676.931594 104.104387,676.472043 92.4351906,676.472043 L49.4268781,676.472043 C47.8442137,676.472043 46.0379095,676.400579 43.982749,676.241115 C41.933553,676.087557 39.9763051,675.763313 38.0865567,675.29065 C36.1968082,674.812258 34.542865,674.017477 33.1314591,672.918946 C31.7023959,671.81451 31,670.323993 31,668.434048 C31,665.912153 32.0142634,664.40315 34.0634594,663.930664 C36.1126554,663.464084 39.8168576,662.914051 45.1728181,662.288007 C48.3145249,661.969078 51.6971746,661.72752 55.3231294,661.568233 C58.9490843,661.414675 62.415001,661.093384 65.7220608,660.626922 C69.0232151,660.154436 71.7775235,659.36562 73.9802615,658.255278 C76.188905,657.156747 77.2928725,655.508597 77.2928725,653.299724 L77.2928725,431.000869 C77.2928725,424.067134 76.6650626,418.714456 75.4012933,414.934566 C74.1434295,411.142864 72.4953917,408.241799 70.4462548,406.186484 C68.3970588,404.137075 66.1153057,402.708572 63.5994599,401.923063 C61.0778268,401.131649 58.5547174,400.575001 56.0333796,400.261979 C48.7873754,399.003985 44.0689097,397.427062 41.8602662,395.537117 C39.6516227,393.653078 38.5569269,391.751676 38.5569269,389.861731 C38.5569269,387.428427 39.6516227,386.0656 41.8602662,385.764389 C44.0689097,385.46318 45.7914745,385.311984 47.0552438,385.311984 C52.7244891,385.311984 59.4927413,385.613785 67.3647247,386.216323 C75.2426135,386.824649 82.6545612,387.129934 89.5934813,387.129934 L201.253993,387.129934 C221.438868,387.129934 240.44088,390.521853 258.269475,397.290159 C276.098071,404.06443 291.630622,413.273186 304.876577,424.93769 C318.116627,436.596287 328.602369,450.30134 336.332621,466.058755 C344.062874,481.804358 347.931543,498.507927 347.931543,516.14938 C347.931543,544.510365 343.200499,569.010547 333.740123,589.650516 C324.273664,610.280446 311.416288,627.216714 295.170357,640.452234 C278.924426,653.681847 259.920052,663.449909 238.164323,669.751694 C216.390878,676.053479 193.059571,679.203603 168.137332,679.203603 L168.136151,679.203603 Z M157.67226,665.084534 C167.469424,665.084534 177.904379,663.903319 188.971218,661.540888 C200.032152,659.178457 210.943087,655.468259 221.691032,650.430375 C232.438976,645.386584 242.793616,639.090706 252.750228,631.530926 C262.700935,623.971147 271.487084,614.979144 279.075605,604.584447 C286.670032,594.183844 292.664078,582.368146 297.08727,569.138532 C301.516368,555.908918 303.730917,541.252396 303.730917,525.193771 C303.730917,509.117427 301.516368,494.855431 297.08727,482.411325 C292.664078,469.973126 286.824755,459.094722 279.555129,449.798556 C272.279598,440.502389 264.061554,432.555171 254.890369,425.934458 C245.719183,419.313745 236.555084,414.038437 227.383899,410.099083 C218.218619,406.159729 209.361014,403.249805 200.827618,401.35986 C192.288317,399.458103 184.862787,398.51756 178.543941,398.51756 C170.949514,398.51756 163.529889,399.458103 156.260263,401.35986 C148.978826,403.249805 142.502304,406.159611 136.809437,410.099083 C131.11657,414.038437 126.533339,418.995408 123.060926,424.98417 C119.588514,430.967027 117.847524,438.066723 117.847524,446.264359 L117.847524,649.95907 C117.847524,651.530086 118.079609,653.264642 118.55801,655.154587 C119.030447,657.038626 120.527482,658.696048 123.060926,660.119413 C125.588465,661.536872 129.543945,662.721395 134.917917,663.672273 C140.285983,664.611339 147.86919,665.084534 157.67226,665.084534 L157.67226,665.084534 Z M897.331613,574.408525 C882.544332,574.408525 869.792073,571.248005 859.103183,564.940492 C848.408388,558.632801 839.517122,550.666093 832.43647,541.039186 C825.355819,531.41228 820.099956,520.686843 816.639354,508.851063 C813.178753,497.02119 811.444436,485.594111 811.444436,474.549746 C811.444436,444.883518 818.558158,421.46592 832.796231,404.267422 C847.028399,387.07483 867.223905,378.4744 893.37448,378.4744 C905.657845,378.4744 916.130004,380.296011 924.79332,383.928249 C933.45073,387.560487 940.608742,391.683519 946.283893,396.266636 C951.953139,400.849752 956.049759,405.12339 958.565486,409.056837 C961.09893,412.996191 962.357857,415.433039 962.357857,416.383917 C962.357857,418.899906 960.923597,420.158255 958.09488,420.158255 C956.205132,420.158255 954.46485,419.131307 952.899903,417.075992 C951.317238,415.032489 949.112669,412.836904 946.284011,410.468272 C943.449389,408.099935 939.51635,405.987449 934.473084,404.09148 C929.423912,402.195629 922.349166,401.258394 913.213413,401.258394 C898.721405,401.258394 886.97839,403.535186 878.002085,408.124209 C869.02578,412.701419 862.105757,418.633483 857.221939,425.897959 C852.33812,433.150622 849.032832,441.519534 847.302531,450.998789 C845.566324,460.466231 844.709619,470.246105 844.709619,480.363216 L844.709619,490.311413 C844.709619,493.14633 845.005483,495.363708 845.613863,496.946301 L960.569624,496.946301 C964.66211,496.946301 967.249885,497.651368 968.348301,499.068827 C969.440812,500.486285 970,503.396092 970,507.80805 C970,512.840028 968.738416,519.144175 966.216783,526.698049 C963.701055,534.257828 959.616836,541.580183 953.953496,548.66157 C948.290156,555.748863 940.81443,561.812633 931.53104,566.850517 C922.247651,571.894307 910.858374,574.408525 897.334861,574.408525 L897.331613,574.408525 Z M372.200047,566.666248 C368.733539,566.666248 365.904232,566.499696 363.701494,566.186083 C361.49285,565.867155 360.388883,564.617252 360.388883,562.402473 C360.388883,560.82555 361.326021,559.638429 363.221675,558.858826 C365.111423,558.067412 368.898656,556.892103 374.561937,555.31518 C377.39656,554.683229 380.398366,553.891815 383.540014,552.952749 C386.687626,552.007776 388.264385,549.793765 388.264385,546.32672 C388.264385,539.387079 388.187023,531.588104 388.033481,522.923888 C387.879939,514.259672 387.812026,505.350944 387.812026,496.208336 C387.812026,487.372844 387.728759,478.556251 387.581123,469.732571 C387.427581,460.897079 387.359668,452.865995 387.359668,445.619238 C387.359668,435.525751 388.216315,426.375465 389.952521,418.183735 C391.688727,409.992006 394.672817,402.904122 398.930598,396.903547 C403.188437,390.914784 409.016539,386.36238 416.416086,383.208534 C423.821537,380.060595 433.044691,378.474459 444.070192,378.474459 C453.530745,378.474459 461.956661,379.953518 469.362113,382.894745 C476.767565,385.835971 483.223418,389.111482 488.739121,392.731907 C494.248919,396.352333 498.744748,399.586501 502.210665,402.421418 C505.677173,405.25043 508.352348,406.675684 510.248002,406.675684 C512.456645,406.675684 513.551282,404.783495 513.551282,401.009511 L513.551282,390.138785 C513.551282,387.929912 513.699509,386.126668 514.012499,384.703304 C514.313677,383.279939 515.383688,382.580837 517.214382,382.580837 C519.440742,382.580837 525.323175,383.507323 534.866404,385.367737 C544.409634,387.234058 557.520354,389.414877 574.221006,391.90104 C577.681608,392.532991 580.130013,393.142439 581.547325,393.774389 C582.952825,394.388621 583.678784,395.63628 583.678784,397.502601 C583.678784,399.989059 581.854763,401.385138 578.234714,401.692254 C574.608759,402.011182 568.23322,402.171827 559.097468,402.171827 C556.894729,402.171827 554.288589,402.784583 551.300484,404.05439 C548.300508,405.312384 546.815992,408.463631 546.815992,413.513564 C546.815992,437.462708 547.115399,461.325624 547.729509,485.112943 C548.331866,508.908529 548.643025,532.784439 548.643025,556.735946 C548.643025,561.14188 547.377366,563.894112 544.832111,565.004454 C542.310478,566.108891 540.254254,566.666248 538.677436,566.666248 C533.923538,566.666248 529.264717,566.505484 524.670267,566.204274 C520.087627,565.903064 515.421129,565.751869 510.690852,565.751869 C506.59246,565.751869 502.573202,565.903064 498.640163,566.204274 C494.695313,566.505484 490.684912,566.666248 486.598331,566.666248 C484.076698,566.666248 481.711206,566.418074 479.502326,565.945706 C477.299588,565.47322 476.198987,564.458851 476.198987,562.881928 C476.198987,560.991983 478.007889,559.420967 481.633844,558.157066 C485.253893,556.899072 488.011745,555.946717 489.901493,555.314766 C495.570739,553.737844 499.982711,552.556628 503.124418,551.77112 C506.27203,550.979705 508.714648,550.274697 510.450736,549.648653 C512.181037,549.022608 513.290969,548.233793 513.763406,547.277008 C514.229938,546.337942 514.473893,545.231261 514.473893,543.973266 C514.473893,526.963763 514.313854,510.111361 514.012676,493.420786 C513.699686,476.718398 513.551459,459.867768 513.551459,442.840546 C513.551459,438.12159 512.998117,433.224271 511.899819,428.186387 C510.807308,423.142596 508.365399,418.661655 504.591807,414.722301 C500.824121,410.788854 495.232238,407.563545 487.844502,405.04165 C480.456767,402.513848 470.15941,401.248885 456.960698,401.248885 C445.326934,401.248885 436.204173,403.858603 429.601865,409.056129 C422.99365,414.253477 419.700764,421.730571 419.700764,431.499224 C419.700764,452.607545 419.848991,473.634363 420.161981,494.582039 C420.457254,515.536802 420.60489,536.564801 420.60489,557.682572 C420.60489,561.137627 420.21513,563.496692 419.423798,564.760415 C418.62656,566.024316 416.643446,566.661464 413.472271,566.661464 C409.988047,566.661464 406.498509,566.501409 403.00838,566.200199 C399.524156,565.898989 396.034617,565.747793 392.544488,565.747793 C389.060264,565.747793 385.658717,565.898989 382.357563,566.200199 C379.056409,566.501409 375.658995,566.661464 372.198393,566.661464 L372.200047,566.666248 Z M904.052031,563.021371 C914.132658,563.021371 922.474716,560.262937 929.094741,554.752567 C935.702955,549.242196 939.014149,542.402368 939.014149,534.210638 C939.014149,529.798798 938.469665,526.183688 937.353237,523.348771 C936.254821,520.513854 933.976434,518.160695 930.515891,516.270928 C927.049384,514.380983 922.157888,513.03292 915.862664,512.247412 C909.561534,511.455998 901.21357,511.066197 890.819953,511.066197 C880.739327,511.066197 872.938799,511.152425 867.429001,511.305983 C861.919204,511.459541 857.822583,511.697556 855.147408,512.016544 C852.472233,512.32366 850.886262,512.725273 850.413825,513.197759 C849.953198,513.664339 849.712492,514.375313 849.712492,515.320285 C849.712492,519.094269 850.974076,523.658486 853.495709,529.015298 C856.011437,534.366204 859.548809,539.564143 864.125544,544.602027 C868.696373,549.634006 874.366799,553.959617 881.140367,557.585949 C887.908028,561.200468 895.547927,563.021371 904.051795,563.021371 L904.052031,563.021371 Z M661.880767,350.053823 C652.408403,350.053823 644.920866,344.616865 644.920866,335.722135 C644.920866,326.532278 650.126178,323.818435 661.003806,320.587811 C669.596256,318.012761 672.611586,316.029795 672.611586,312.060616 C672.611586,307.058168 669.162086,304.566985 661.963444,304.566985 C657.115058,304.566985 652.038721,306.916541 648.584025,310.666782 L643.084503,305.305126 C647.407302,300.231806 653.8791,297 661.373134,297 C674.524602,297 680.390499,303.322456 680.390499,312.57728 C680.390499,321.76123 674.080511,324.997761 663.929019,328.080734 C655.047201,330.72075 652.699188,332.488144 652.699188,336.090556 C652.699188,339.539705 655.269542,342.485657 661.298725,342.485657 C666.365613,342.485657 670.036449,340.865147 673.266738,337.557744 L678.710867,343.076264 C674.157754,347.482198 668.854648,350.052523 661.880295,350.052523 L661.880767,350.053823 Z M64.2478208,349.250951 L64.2478208,319.40695 C64.2478208,305.232363 70.8613498,297.000472 83.5699081,297.000472 C96.3552375,297.000472 103.334905,304.854375 103.334905,319.259298 L103.334905,349.250951 L95.6117396,349.250951 L95.6117396,319.111646 C95.6117396,309.70917 91.7964556,304.725031 83.7175447,304.725031 C75.9991034,304.725031 71.9621283,309.934192 71.9621283,319.637877 L71.9621283,349.251541 L64.2484114,349.251541 L64.2478208,349.250951 Z M272.019757,349.250951 L272.019757,297.812558 L279.733474,297.812558 L279.733474,349.250951 L272.019757,349.250951 Z M743.706875,349.250951 L743.706875,297.812558 L751.420592,297.812558 L751.420592,349.250951 L743.706875,349.250951 Z M908.929826,349.250951 L927.37507,318.160767 L927.37507,297.812558 L935.098236,297.812558 L935.098236,318.160767 L953.525055,349.250951 L944.639103,349.250951 L936.555704,334.993089 C934.725011,331.679779 932.148398,326.752929 931.268484,324.851172 C930.382664,326.752929 927.746996,331.897713 925.981263,335.057465 L917.972272,349.25036 L908.929826,349.25036 L908.929826,349.250951 Z M167.794225,349.239138 L167.794225,297.810196 L175.277629,297.810196 L175.277629,324.47968 C175.277629,327.344128 175.213259,334.476307 175.213259,336.38397 C176.016402,335.061009 177.787333,331.970299 179.033386,330.062695 L199.527117,297.810196 L206.881191,297.810196 L206.881191,349.239138 L199.37948,349.239138 L199.37948,322.717306 C199.37948,319.846952 199.462747,312.505107 199.462747,310.591538 C198.724564,311.9145 196.522594,315.731302 195.19977,317.863101 L175.656228,349.239138 L167.794874,349.239138 L167.794225,349.239138 Z M341.698326,349.239138 L359.544047,297.810196 L367.700674,297.810196 L385.333799,349.239138 L377.112212,349.239138 L366.528439,316.543683 C365.571754,313.531584 364.095742,308.905944 363.658738,307.057342 C363.215828,308.905944 361.749029,313.458348 360.79825,316.470448 L350.066841,349.239729 L341.697617,349.239729 L341.698326,349.239138 Z M446.89826,349.239138 L446.89826,297.810196 L481.140502,297.810196 L481.140502,305.303827 L454.621425,305.303827 L454.621425,321.536091 L469.385085,321.536091 L469.385085,329.029722 L454.621425,329.029722 L454.621425,341.746098 L480.033227,341.746098 L480.033227,349.239729 L446.89826,349.239729 L446.89826,349.239138 Z M543.517555,349.239138 L543.517555,297.810196 L551.084225,297.810196 L551.084225,318.158405 L562.692005,318.158405 L572.897237,297.810196 L581.801496,297.810196 L571.291542,318.822839 C578.2718,320.588756 582.604048,325.656171 582.604048,333.883337 C582.604048,344.472934 575.042692,349.239138 566.078198,349.239138 L543.517555,349.239138 L543.517555,349.239138 Z M813.379538,349.239138 L813.379538,341.672272 L828.364653,341.672272 L828.364653,297.810196 L836.078961,297.810196 L836.078961,341.672272 L851.064075,341.672272 L851.064075,349.239138 L813.380129,349.239138 L813.379538,349.239138 Z M551.082454,341.967576 L566.077017,341.967576 C571.291542,341.967576 574.815332,339.024873 574.815332,333.662449 C574.815332,328.0753 571.220794,325.430558 566.077017,325.430558 L551.082454,325.430558 L551.082454,341.967576 Z" transform="matrix(1 0 0 -1 0 999)"/></g></svg>