<svg xmlns="http://www.w3.org/2000/svg" width="1000" height="1000" viewBox="0 0 1000 1000"><g fill="none" fill-rule="evenodd"><rect width="1000" height="1000" fill="#FFF"/><path fill="#000" d="M0,81.5745 L0,9.4435 C0,8.86975 0.467827938,8.4065 1.04198041,8.4065 L67.4650417,8.4065 C68.0391941,8.4065 68.5027691,8.874 68.5027691,9.4435 L68.5027691,15.776 C68.5027691,16.3487193 68.0381627,16.813 67.4650417,16.813 L10.9301618,16.813 C10.6542033,16.8118698 10.3891593,16.9206257 10.1936269,17.1152236 C9.99809441,17.3098214 9.8881791,17.5742326 9.88818142,17.85 L9.88818142,39.33375 C9.88818142,39.9075 10.3560094,40.37075 10.9301618,40.37075 L45.600465,40.37075 C46.1746175,40.37075 46.6424454,40.83825 46.6424454,41.412 L46.6424454,47.7445 C46.6424454,48.314 46.1746175,48.77725 45.600465,48.77725 L10.9301618,48.77725 C10.6534646,48.7761144 10.3877721,48.8854526 10.192116,49.0809715 C9.99645989,49.2764905 9.88704507,49.5419968 9.88818142,49.8185 L9.88818142,73.168 C9.88818142,73.74175 10.3560094,74.205 10.9301618,74.205 L72.2581515,74.205 C72.828051,74.205 73.295879,74.6725 73.295879,75.242 L73.295879,81.5745 C73.295879,82.14825 72.828051,82.6115 72.2538986,82.6115 L1.04198041,82.6115 C0.468167328,82.6115 0.00234209418,82.1479061 0,81.5745 M144.707687,8.4065 L155.965329,8.4065 C156.339591,8.4065 156.688335,8.6105 156.871214,8.93775 L190.542066,69.054 C190.726051,69.3838399 191.074319,69.5882872 191.452204,69.5882872 C191.83009,69.5882872 192.178358,69.3838399 192.362342,69.054 L226.033195,8.93775 C226.217223,8.61040686 226.563355,8.40742028 226.93908,8.4065 L237.261065,8.4065 C237.839471,8.4065 238.303046,8.874 238.303046,9.4435 L238.303046,81.5745 C238.303046,82.14825 237.835218,82.6115087 237.261065,82.6115087 L229.35052,82.6115087 C229.074562,82.6126302 228.809518,82.5038743 228.613985,82.3092764 C228.418453,82.1146786 228.308537,81.8502674 228.30854,81.5745 L228.30854,26.01425 C228.30854,24.94325 226.879538,24.56925 226.356421,25.5085 L194.871601,82.076 C194.687933,82.4063079 194.339604,82.6115087 193.961463,82.6115087 L188.003036,82.6115087 C187.625789,82.6115087 187.277672,82.4089183 187.092898,82.08025 L155.506007,25.49575 C154.98289,24.56075 153.553888,24.9305 153.553888,26.00575 L153.553888,81.5745 C153.553888,82.14825 153.08606,82.6115087 152.511908,82.6115087 L144.707687,82.6115087 C144.133874,82.6115087 143.668049,82.1479061 143.665707,81.5745 L143.665707,9.4435 C143.665707,8.86975 144.133535,8.4065 144.707687,8.4065 M462.022619,81.5745 L462.022619,9.4435 C462.022619,8.86975 462.490447,8.4065 463.060346,8.4065 L470.873073,8.4065 C471.447225,8.4065 471.915053,8.874 471.915053,9.4435 L471.915053,81.5745 C471.915053,82.14825 471.447225,82.6115 470.873073,82.6115 L463.060346,82.6115 C462.488193,82.609171 462.024949,82.1462518 462.022619,81.5745 M553.112971,8.4065 L560.921445,8.4065 C561.495597,8.4065 561.963425,8.874 561.963425,9.4435 L561.963425,73.168 C561.963425,73.74175 562.431253,74.205 563.005406,74.205 L616.30802,74.205 C616.886425,74.205 617.35,74.6725 617.35,75.24625 L617.35,81.57875 C617.35,82.14825 616.882172,82.6115 616.30802,82.6115 L553.108718,82.6115 C552.535597,82.6115 552.070991,82.1472193 552.070991,81.5745 L552.070991,9.4435 C552.070991,8.86975 552.538819,8.4065 553.112971,8.4065 M685.848516,81.5745 L685.848516,9.4435 C685.848516,8.86975 686.316344,8.4065 686.890497,8.4065 L694.69897,8.4065 C695.273123,8.4065 695.740951,8.874 695.740951,9.4435 L695.740951,81.5745 C695.740951,82.14825 695.273123,82.6115 694.69897,82.6115 L686.890497,82.6115 C686.316684,82.6115 685.850858,82.1479061 685.848516,81.5745 M856.48663,45.458 C856.48663,27.608 843.259859,14.2205 817.75473,14.2205 C792.245348,14.2205 779.231226,27.608 779.231226,45.458 C779.231226,63.206 792.245348,76.5935 817.75473,76.5935 C843.259859,76.5935 856.48663,63.206 856.48663,45.458 M768.717856,45.458 C768.717856,23.664 784.853667,5.814 817.75473,5.814 C850.65154,5.814 867,23.664 867,45.458 C867,67.252 850.65154,85 817.750477,85 C784.853667,85 768.713603,67.252 768.713603,45.458 M355.306813,8.4065 L370.532486,8.4065 C370.899027,8.40851078 371.23944,8.21713846 371.428027,7.90304772 C371.616613,7.58895699 371.625395,7.19874558 371.45113,6.8765 L367.997709,0.544 C367.815539,0.2090765 367.464785,0 367.083318,0 L333.136022,0 C332.754555,0 332.403801,0.2090765 332.221631,0.544 L328.76821,6.8765 C328.393948,7.565 328.8958,8.4065 329.682601,8.4065 L344.91678,8.4065 C345.712087,8.4065 346.213939,9.2565 345.831171,9.945 L306.610178,81.07725 C306.434534,81.3984669 306.441366,81.7884249 306.628155,82.1033007 C306.814943,82.4181765 307.154015,82.6113213 307.520316,82.6115 L315.860412,82.6115 C316.24318,82.6115 316.600431,82.399 316.779056,82.06325 L327.31369,62.373 L331.894151,53.97075 L348.570091,22.882 C348.75143,22.5434752 349.10449,22.3321537 349.488735,22.3321537 C349.872979,22.3321537 350.22604,22.5434752 350.407379,22.882 L367.079065,53.97075 L371.663779,62.373 L382.198414,82.06325 C382.381292,82.40325 382.734289,82.6157516 383.117058,82.6157516 L392.70753,82.6157516 C393.075113,82.6157516 393.415611,82.4226756 393.60267,82.1064701 C393.789729,81.7902645 393.795435,81.3987645 393.617668,81.07725 L354.392422,9.945 C354.214281,9.62282057 354.220397,9.23041869 354.408493,8.91393963 C354.596589,8.59746057 354.938472,8.40433874 355.306813,8.4065" transform="translate(66 458)"/></g></svg>