<svg width="200" height="200" viewBox="0 0 200 200" fill="none" xmlns="http://www.w3.org/2000/svg">
<g clip-path="url(#clip0_2_85)">
<path d="M200 0H0V200H200V0Z" fill="white"/>
<path fill-rule="evenodd" clip-rule="evenodd" d="M20 107.054V93.7427C20 93.6369 20.0863 93.5514 20.1923 93.5514H32.4503C32.5563 93.5514 32.6418 93.6376 32.6418 93.7427V94.9114C32.6418 95.0171 32.5561 95.1027 32.4503 95.1027H22.0171C21.9662 95.1025 21.9173 95.1226 21.8812 95.1585C21.8451 95.1944 21.8248 95.2432 21.8248 95.2941V99.2588C21.8248 99.3647 21.9111 99.4502 22.0171 99.4502H28.4153C28.5213 99.4502 28.6076 99.5365 28.6076 99.6424V100.811C28.6076 100.916 28.5213 101.002 28.4153 101.002H22.0171C21.966 101.001 21.917 101.022 21.8809 101.058C21.8448 101.094 21.8246 101.143 21.8248 101.194V105.503C21.8248 105.609 21.9111 105.694 22.0171 105.694H33.3348C33.44 105.694 33.5263 105.78 33.5263 105.885V107.054C33.5263 107.16 33.44 107.245 33.3341 107.245H20.1923C20.0864 107.245 20.0004 107.16 20 107.054ZM46.705 93.5514H48.7825C48.8516 93.5514 48.916 93.589 48.9497 93.6494L55.1635 104.744C55.1974 104.804 55.2617 104.842 55.3314 104.842C55.4012 104.842 55.4654 104.804 55.4994 104.744L61.7132 93.6494C61.7471 93.589 61.811 93.5515 61.8803 93.5514H63.7852C63.8919 93.5514 63.9775 93.6376 63.9775 93.7427V107.054C63.9775 107.16 63.8912 107.245 63.7852 107.245H62.3254C62.2744 107.246 62.2255 107.226 62.1894 107.19C62.1533 107.154 62.1331 107.105 62.1331 107.054V96.8008C62.1331 96.6031 61.8693 96.5341 61.7728 96.7075L55.9625 107.147C55.9286 107.208 55.8643 107.245 55.7945 107.245H54.6949C54.6253 107.245 54.561 107.208 54.5269 107.147L48.6978 96.7051C48.6012 96.5325 48.3375 96.6008 48.3375 96.7992V107.054C48.3375 107.16 48.2512 107.245 48.1452 107.245H46.705C46.5991 107.245 46.5131 107.16 46.5127 107.054V93.7427C46.5127 93.6369 46.599 93.5514 46.705 93.5514ZM105.264 107.054V93.7427C105.264 93.6369 105.35 93.5514 105.455 93.5514H106.897C107.003 93.5514 107.089 93.6376 107.089 93.7427V107.054C107.089 107.16 107.003 107.245 106.897 107.245H105.455C105.35 107.245 105.264 107.16 105.264 107.054ZM122.074 93.5514H123.515C123.621 93.5514 123.707 93.6376 123.707 93.7427V105.503C123.707 105.609 123.794 105.694 123.899 105.694H133.736C133.843 105.694 133.928 105.78 133.928 105.886V107.055C133.928 107.16 133.842 107.245 133.736 107.245H122.073C121.967 107.245 121.882 107.16 121.882 107.054V93.7427C121.882 93.6369 121.968 93.5514 122.074 93.5514ZM146.57 107.054V93.7427C146.57 93.6369 146.656 93.5514 146.762 93.5514H148.203C148.309 93.5514 148.395 93.6376 148.395 93.7427V107.054C148.395 107.16 148.309 107.245 148.203 107.245H146.762C146.656 107.245 146.57 107.16 146.57 107.054ZM178.06 100.389C178.06 97.0949 175.619 94.6243 170.912 94.6243C166.204 94.6243 163.803 97.0949 163.803 100.389C163.803 103.664 166.204 106.135 170.912 106.135C175.619 106.135 178.06 103.664 178.06 100.389ZM161.863 100.389C161.863 96.3671 164.84 93.0729 170.912 93.0729C176.983 93.0729 180 96.3671 180 100.389C180 104.411 176.983 107.686 170.911 107.686C164.84 107.686 161.862 104.411 161.862 100.389M85.5699 93.5514H88.3797C88.4473 93.5517 88.5102 93.5164 88.545 93.4585C88.5798 93.4005 88.5814 93.3285 88.5492 93.269L87.9119 92.1004C87.8783 92.0386 87.8136 92 87.7432 92H81.4784C81.408 92 81.3433 92.0386 81.3096 92.1004L80.6723 93.269C80.6033 93.3961 80.6959 93.5514 80.8411 93.5514H83.6525C83.7992 93.5514 83.8918 93.7082 83.8212 93.8353L76.5832 106.962C76.5508 107.022 76.552 107.094 76.5865 107.152C76.621 107.21 76.6836 107.245 76.7512 107.245H78.2903C78.3609 107.245 78.4268 107.206 78.4598 107.144L80.4039 103.511L81.2492 101.96L84.3267 96.2227C84.3601 96.1603 84.4253 96.1213 84.4962 96.1213C84.5671 96.1213 84.6323 96.1603 84.6657 96.2227L87.7424 101.96L88.5885 103.511L90.5326 107.144C90.5663 107.207 90.6315 107.246 90.7021 107.246H92.472C92.5398 107.246 92.6026 107.211 92.6372 107.152C92.6717 107.094 92.6727 107.022 92.6399 106.962L85.4011 93.8353C85.3683 93.7758 85.3694 93.7034 85.4041 93.645C85.4388 93.5866 85.5019 93.551 85.5699 93.5514Z" fill="black"/>
</g>
<defs>
<clipPath id="clip0_2_85">
<rect width="200" height="200" fill="white"/>
</clipPath>
</defs>
</svg>
