<svg xmlns="http://www.w3.org/2000/svg" width="1000" height="1000" viewBox="0 0 1000 1000"><g fill="none"><rect width="1000" height="1000" fill="#FFF"/><path fill="#EA1C0A" d="M971,464.126479 C971,495.688798 933.448143,603.75294 927.286984,619.971034 C923.236027,630.626931 915.476421,632.135436 905.423826,632.135436 C887.229448,632.135436 873.508063,627.805959 866.818514,622.449769 C865.432757,621.346632 863.718,618.980871 864.881112,615.515295 C871.720195,595.133859 897.680832,521.745404 897.680832,505.889484 C897.680832,497.210594 895.112019,490.684813 886.445181,490.684813 C833.902483,490.684813 737.367623,602.782712 719.442424,622.82191 C713.57703,629.370951 704.983303,630.753193 694.943997,630.753193 C682.518646,630.753193 669.285771,624.160958 668.026292,623.509709 C664.0983,621.47954 663.912201,619.236719 665.075312,614.501872 L668.375225,601.084813 C674.413429,576.540035 705.691137,485.730669 727.37484,436.518172 C728.295362,434.438163 729.195941,432.710359 733.904877,431.976043 C736.091523,431.633804 743.26626,429.962487 753.259044,429.962487 C760.586637,429.962487 774.826435,430.484151 781.964607,434.3119 C781.964607,434.3119 782.024428,434.205574 782.024428,446.183904 C782.024428,451.357347 782.589363,468.947716 799.148739,468.947716 C827.093301,468.947716 877.821543,420.994522 922.674415,420.994522 C962.107194,420.994522 971,445.323326 971,464.126479 M413.042524,503.796184 C413.042524,510.348546 405.409197,528.384157 404.329164,531.048962 C397.466814,547.971468 379.471826,550.716017 366.803895,550.716017 C347.798662,550.716017 341.268625,543.891194 341.268625,533.122326 C341.268625,524.788996 348.280519,510.40171 349.204363,508.281828 C357.761535,488.677902 373.078044,486.548053 388.195154,486.548053 C401.012639,486.548053 413.042524,491.877662 413.042524,503.796184 M250.519413,462.395353 C250.519413,449.915295 249.931213,432.032529 240.171051,432.032529 C208.404833,432.032529 152.602109,480.607067 147.005884,486.199169 C142.865214,490.342575 145.962405,489.993692 151.492165,489.993692 L222.91713,489.993692 C248.223101,489.993692 250.519413,485.737315 250.519413,462.395353 M326.776271,468.947716 C326.776271,530.098669 289.154626,542.781413 247.415567,542.781413 L218.088561,542.781413 C188.778175,542.781413 129.751972,541.053608 129.751972,541.053608 C125.016448,540.960573 121.473945,540.020249 121.473945,542.781413 C121.473945,562.720929 144.03497,592.80797 178.406547,592.80797 C205.473797,592.80797 222.91713,575.902077 226.712199,571.898225 C226.712199,571.898225 257.813774,568.309709 277.779397,568.309709 C297.166797,568.309709 325.74276,571.41311 325.74276,582.454439 C325.74276,603.992175 255.756728,638 197.039581,638 C108.633204,638 29,589.980353 29,532.085644 C29,435.072798 216.264137,362 270.880493,362 C320.066779,362 326.776271,440.325986 326.776271,468.947716 M561.412248,466.880997 C554.752601,466.880997 544.849549,467.917679 540.359936,474.124481 C523.551326,497.393343 512.412052,555.577126 512.412052,571.761994 C512.412052,582.81329 520.091902,582.108878 530.353863,582.108878 C536.325611,582.108878 545.962806,582.2584 551.402843,576.593198 C566.171029,561.212424 578.912071,491.515488 578.912071,478.932426 C578.912071,469.984398 578.267381,466.880997 561.412248,466.880997 M672.512573,463.774274 C672.512573,490.33593 646.282767,548.655944 637.855196,564.857425 C602.619596,632.593968 555.546845,632.135524 502.402657,632.135524 C476.435375,632.135524 418.558994,632.434479 418.558994,583.83336 C418.558994,562.096262 437.504406,522.253777 453.063504,484.478011 C459.679942,468.412761 487.867093,414.438837 583.837018,414.438837 C623.422654,414.438837 672.512573,420.652284 672.512573,463.774274"/></g></svg>