<svg width="200" height="200" viewBox="0 0 200 200" fill="none" xmlns="http://www.w3.org/2000/svg">
<path d="M200 0H0V200H200V0Z" fill="white"/>
<path d="M163 95.5518C163 99.74 158.017 114.08 157.199 116.232C156.662 117.646 155.632 117.846 154.298 117.846C151.884 117.846 150.063 117.271 149.175 116.561C148.992 116.414 148.764 116.1 148.918 115.641C149.826 112.936 153.271 103.198 153.271 101.094C153.271 99.942 152.93 99.076 151.78 99.076C144.808 99.076 131.998 113.951 129.619 116.61C128.841 117.479 127.701 117.663 126.368 117.663C124.72 117.663 122.964 116.788 122.796 116.701C122.275 116.432 122.251 116.134 122.405 115.506L122.843 113.726C123.644 110.469 127.794 98.4186 130.672 91.8883C130.794 91.6123 130.913 91.383 131.538 91.2856C131.828 91.2402 132.781 91.0184 134.107 91.0184C135.079 91.0184 136.968 91.0876 137.916 91.5955C137.916 91.5955 137.924 91.5814 137.924 93.1709C137.924 93.8574 137.999 96.1916 140.196 96.1916C143.904 96.1916 150.636 89.8284 156.587 89.8284C161.82 89.8284 163 93.0567 163 95.5518ZM88.9611 100.816C88.9611 101.685 87.9481 104.079 87.8048 104.432C86.8942 106.678 84.5063 107.042 82.8254 107.042C80.3034 107.042 79.4369 106.136 79.4369 104.707C79.4369 103.602 80.3674 101.692 80.49 101.411C81.6255 98.8097 83.6579 98.5271 85.6639 98.5271C87.3647 98.5271 88.9611 99.2343 88.9611 100.816ZM67.3948 95.3221C67.3948 93.666 67.3168 91.2931 66.0216 91.2931C61.8064 91.2931 54.4016 97.7387 53.659 98.4808C53.1095 99.0306 53.5205 98.9843 54.2543 98.9843H63.7321C67.0901 98.9843 67.3948 98.4195 67.3948 95.3221ZM77.5138 96.1916C77.5138 104.306 72.5216 105.989 66.983 105.989H63.0914C59.202 105.989 51.3694 105.76 51.3694 105.76C50.741 105.747 50.271 105.623 50.271 105.989C50.271 108.635 53.2647 112.627 57.8257 112.627C61.4174 112.627 63.7321 110.384 64.2357 109.853C64.2357 109.853 68.3628 109.377 71.0121 109.377C73.5848 109.377 77.3767 109.788 77.3767 111.254C77.3767 114.111 68.0898 118.624 60.2982 118.624C48.567 118.624 38 112.252 38 104.57C38 91.6965 62.8493 82 70.0967 82C76.6235 82 77.5138 92.3936 77.5138 96.1916ZM108.649 95.9173C107.765 95.9173 106.451 96.0549 105.856 96.8785C103.625 99.9662 102.147 107.687 102.147 109.835C102.147 111.301 103.166 111.208 104.528 111.208C105.32 111.208 106.599 111.227 107.321 110.476C109.281 108.435 110.971 99.1862 110.971 97.5165C110.971 96.3291 110.886 95.9173 108.649 95.9173ZM123.392 95.5051C123.392 99.0297 119.911 106.769 118.793 108.918C114.117 117.907 107.871 117.846 100.819 117.846C97.3731 117.846 89.6931 117.886 89.6931 111.436C89.6931 108.552 92.2071 103.265 94.2717 98.2524C95.1497 96.1206 98.89 88.9584 111.625 88.9584C116.878 88.9584 123.392 89.7829 123.392 95.5051Z" fill="#EA1C0A"/>
</svg>
