<svg width="200" height="200" viewBox="0 0 200 200" fill="none" xmlns="http://www.w3.org/2000/svg">
<rect width="200" height="200" fill="white"/>
<g clip-path="url(#clip0_5_125)">
<path fill-rule="evenodd" clip-rule="evenodd" d="M104.559 79.3903C104.587 79.2629 104.581 79.1306 104.543 79.0061C104.504 78.8815 104.435 78.7688 104.341 78.6787C104.245 78.587 104.129 78.5198 104.002 78.4828C103.875 78.4458 103.741 78.44 103.611 78.4661H103.57C103.44 78.4399 103.306 78.4455 103.179 78.4824C103.052 78.5193 102.936 78.5863 102.84 78.6779C102.746 78.768 102.676 78.8807 102.638 79.0053C102.6 79.1298 102.594 79.2621 102.622 79.3895V94.213C102.594 94.3404 102.6 94.4727 102.638 94.5972C102.676 94.7218 102.746 94.8345 102.84 94.9246C102.936 95.0162 103.052 95.0832 103.179 95.1201C103.306 95.157 103.44 95.1625 103.57 95.1364H103.61C103.74 95.1624 103.874 95.1567 104.001 95.1197C104.128 95.0827 104.245 95.0155 104.34 94.9238C104.434 94.8337 104.504 94.721 104.542 94.5964C104.58 94.4719 104.586 94.3396 104.558 94.2122V87.5112H107.723V94.2122C107.695 94.3395 107.701 94.4718 107.739 94.5963C107.777 94.7209 107.846 94.8336 107.94 94.9238C108.036 95.0153 108.152 95.0824 108.279 95.1193C108.406 95.1562 108.541 95.1617 108.67 95.1356H108.724C108.854 95.1617 108.988 95.1562 109.115 95.1193C109.242 95.0824 109.359 95.0153 109.454 94.9238C109.548 94.8337 109.618 94.721 109.656 94.5964C109.694 94.4719 109.7 94.3396 109.672 94.2122V79.3886C109.7 79.2613 109.694 79.129 109.656 79.0045C109.618 78.8799 109.548 78.7672 109.454 78.6771C109.359 78.5855 109.242 78.5185 109.115 78.4816C108.988 78.4447 108.854 78.4391 108.724 78.4653H108.67C108.541 78.4391 108.406 78.4447 108.279 78.4816C108.152 78.5185 108.036 78.5855 107.94 78.6771C107.846 78.7673 107.777 78.88 107.739 79.0045C107.7 79.129 107.695 79.2613 107.722 79.3886V85.7351H104.558L104.559 79.3903ZM117.079 80.2674C117.2 80.2958 117.326 80.2934 117.445 80.2605C117.565 80.2277 117.674 80.1653 117.763 80.0791C117.85 79.9947 117.914 79.8888 117.947 79.7721C117.98 79.6554 117.981 79.5321 117.951 79.4146V79.3676C117.981 79.2502 117.979 79.1269 117.946 79.0104C117.913 78.8938 117.85 78.7881 117.763 78.7039C117.673 78.6177 117.564 78.5553 117.445 78.5224C117.325 78.4895 117.199 78.4872 117.079 78.5156H111.663C111.542 78.4873 111.417 78.4896 111.297 78.5225C111.178 78.5554 111.069 78.6178 110.98 78.7039C110.892 78.788 110.829 78.8938 110.796 79.0103C110.763 79.1269 110.761 79.2502 110.791 79.3676V79.4146C110.761 79.5321 110.762 79.6554 110.795 79.7722C110.828 79.8889 110.891 79.9948 110.979 80.0791C111.068 80.1653 111.177 80.2278 111.297 80.2607C111.416 80.2935 111.542 80.2959 111.663 80.2674H113.392V94.2138C113.364 94.3412 113.37 94.4735 113.408 94.598C113.447 94.7225 113.516 94.8352 113.61 94.9254C113.706 95.017 113.822 95.084 113.949 95.1209C114.076 95.1578 114.21 95.1634 114.34 95.1372H114.394C114.523 95.1633 114.658 95.1577 114.785 95.1208C114.912 95.0839 115.028 95.0169 115.124 94.9254C115.218 94.8353 115.288 94.7226 115.326 94.598C115.364 94.4735 115.37 94.3412 115.342 94.2138V80.2641H117.071L117.079 80.2674ZM124.305 95.1372C124.438 95.1534 124.574 95.1425 124.703 95.1051C124.832 95.0678 124.953 95.0047 125.058 94.9197C125.16 94.8366 125.244 94.7328 125.304 94.6151C125.363 94.4974 125.397 94.3684 125.404 94.2366L127.589 81.3319V94.2366C127.564 94.3602 127.57 94.4882 127.608 94.6086C127.646 94.729 127.713 94.838 127.804 94.9254C127.897 95.0148 128.01 95.0806 128.133 95.1173C128.257 95.154 128.387 95.1605 128.514 95.1364H128.567C128.694 95.1605 128.825 95.154 128.948 95.1173C129.072 95.0806 129.184 95.0148 129.277 94.9254C129.368 94.8379 129.436 94.7289 129.473 94.6085C129.511 94.4881 129.517 94.3602 129.492 94.2366V79.559C129.523 79.4086 129.516 79.2528 129.47 79.1062C129.424 78.9596 129.342 78.827 129.231 78.7209C129.118 78.6124 128.98 78.5329 128.829 78.4891C128.679 78.4453 128.52 78.4385 128.366 78.4694H127.415C127.279 78.4495 127.141 78.4587 127.009 78.4962C126.878 78.5336 126.756 78.5986 126.651 78.6868C126.548 78.773 126.465 78.881 126.409 79.0031C126.353 79.1252 126.325 79.2583 126.326 79.3927L124.302 91.6581L122.278 79.3927C122.28 79.2577 122.252 79.1239 122.196 79.0011C122.14 78.8783 122.057 78.7696 121.953 78.6828C121.847 78.5945 121.723 78.5299 121.59 78.4931C121.457 78.4563 121.318 78.4482 121.182 78.4694H120.189C120.036 78.4385 119.877 78.4453 119.726 78.4891C119.575 78.5329 119.438 78.6124 119.324 78.7209C119.213 78.827 119.131 78.9596 119.085 79.1062C119.04 79.2528 119.032 79.4086 119.063 79.559V94.2625C119.045 94.383 119.056 94.506 119.095 94.6212C119.135 94.7365 119.201 94.8405 119.29 94.9246C119.38 95.0104 119.488 95.0744 119.607 95.1115C119.726 95.1487 119.851 95.158 119.974 95.1388H120.015C120.137 95.1577 120.262 95.148 120.38 95.1106C120.498 95.0732 120.606 95.0089 120.695 94.923C120.782 94.8388 120.847 94.7347 120.885 94.6197C120.923 94.5046 120.933 94.3821 120.913 94.2625V81.3343L123.111 94.239C123.116 94.3711 123.15 94.5006 123.209 94.6188C123.269 94.737 123.352 94.8412 123.455 94.9246C123.56 95.0097 123.681 95.0726 123.81 95.1096C123.94 95.1465 124.076 95.1568 124.21 95.1396H124.303L124.305 95.1372ZM131.342 94.0013C131.31 94.1506 131.316 94.3057 131.36 94.452C131.405 94.5982 131.486 94.7308 131.595 94.837C131.708 94.9456 131.844 95.0254 131.994 95.0695C132.144 95.1136 132.302 95.1207 132.456 95.0901H135.673C135.793 95.1185 135.919 95.1162 136.039 95.0833C136.158 95.0504 136.267 94.988 136.357 94.9019C136.444 94.8177 136.507 94.7119 136.54 94.5954C136.573 94.4788 136.575 94.3556 136.545 94.2382V94.1911C136.575 94.0737 136.574 93.9503 136.541 93.8336C136.508 93.7168 136.445 93.6109 136.357 93.5266C136.268 93.4404 136.159 93.378 136.039 93.3451C135.92 93.3122 135.794 93.3099 135.673 93.3384H133.287V79.3903C133.315 79.2629 133.309 79.1306 133.271 79.0061C133.232 78.8815 133.163 78.7688 133.069 78.6787C132.973 78.587 132.857 78.5197 132.73 78.4827C132.603 78.4457 132.468 78.44 132.339 78.4661H132.285C132.156 78.442 132.022 78.4493 131.897 78.4874C131.771 78.5255 131.656 78.5934 131.561 78.6852C131.469 78.7751 131.401 78.8869 131.364 79.0102C131.326 79.1335 131.32 79.2642 131.347 79.3903L131.342 94.0013ZM111.369 104.22C111.443 103.722 111.398 103.214 111.236 102.737C111.074 102.261 110.8 101.83 110.438 101.481C110.067 101.124 109.621 100.857 109.132 100.698C108.643 100.54 108.125 100.494 107.616 100.566H103.768C103.611 100.543 103.452 100.556 103.301 100.605C103.15 100.653 103.012 100.736 102.898 100.846C102.787 100.954 102.703 101.087 102.654 101.234C102.604 101.381 102.591 101.537 102.615 101.691V119.115C102.591 119.268 102.604 119.424 102.653 119.571C102.703 119.719 102.787 119.852 102.898 119.959C103.012 120.069 103.15 120.151 103.301 120.2C103.452 120.248 103.612 120.261 103.768 120.238H107.669C108.178 120.311 108.697 120.267 109.187 120.109C109.676 119.951 110.123 119.683 110.494 119.326C110.856 118.977 111.13 118.546 111.291 118.069C111.453 117.592 111.498 117.083 111.423 116.586V112.962C111.503 112.359 111.372 111.746 111.052 111.228C110.732 110.71 110.242 110.32 109.666 110.122C110.244 109.881 110.725 109.455 111.034 108.91C111.342 108.365 111.46 107.733 111.37 107.114V104.216L111.369 104.22ZM108.299 107.708C108.322 107.876 108.306 108.046 108.251 108.206C108.197 108.366 108.105 108.511 107.984 108.629C107.86 108.749 107.711 108.84 107.547 108.894C107.384 108.949 107.21 108.966 107.039 108.945H105.672V103.212H107.146C107.303 103.189 107.463 103.202 107.614 103.25C107.765 103.298 107.902 103.381 108.016 103.491C108.128 103.599 108.212 103.732 108.261 103.879C108.31 104.026 108.323 104.183 108.299 104.336V107.713V107.708ZM107.092 111.502C107.264 111.48 107.439 111.497 107.604 111.552C107.768 111.606 107.918 111.697 108.043 111.817C108.166 111.934 108.259 112.079 108.316 112.239C108.372 112.399 108.39 112.571 108.368 112.739V116.476C108.392 116.629 108.379 116.786 108.329 116.933C108.28 117.08 108.196 117.213 108.085 117.321C107.971 117.431 107.833 117.513 107.682 117.562C107.531 117.61 107.372 117.623 107.215 117.601H105.673V111.502H107.094L107.092 111.502ZM120.216 100.569C120.059 100.546 119.899 100.56 119.749 100.608C119.598 100.657 119.46 100.739 119.346 100.849C119.235 100.957 119.151 101.09 119.102 101.237C119.052 101.384 119.039 101.541 119.063 101.694V116.613C119.088 116.769 119.075 116.928 119.025 117.077C118.975 117.227 118.891 117.362 118.778 117.472C118.663 117.585 118.524 117.67 118.372 117.72C118.219 117.771 118.057 117.787 117.897 117.765H117.41C117.249 117.787 117.085 117.772 116.931 117.721C116.777 117.671 116.635 117.586 116.518 117.474C116.403 117.364 116.316 117.229 116.263 117.08C116.21 116.93 116.193 116.77 116.214 116.613V101.69C116.238 101.537 116.225 101.38 116.175 101.233C116.126 101.086 116.042 100.953 115.93 100.845C115.817 100.735 115.679 100.653 115.528 100.604C115.377 100.556 115.217 100.542 115.061 100.565H114.283C114.127 100.542 113.967 100.556 113.816 100.604C113.665 100.653 113.528 100.735 113.414 100.845C113.302 100.953 113.218 101.086 113.169 101.233C113.12 101.38 113.106 101.537 113.13 101.69V116.758C113.055 117.255 113.1 117.764 113.262 118.241C113.423 118.718 113.697 119.149 114.059 119.498C114.43 119.855 114.877 120.123 115.366 120.281C115.856 120.439 116.375 120.483 116.884 120.41H118.39C118.899 120.483 119.418 120.439 119.907 120.281C120.397 120.123 120.844 119.855 121.214 119.498C121.577 119.149 121.85 118.718 122.012 118.241C122.174 117.764 122.219 117.255 122.143 116.758V101.69C122.167 101.537 122.154 101.38 122.105 101.233C122.055 101.086 121.971 100.953 121.86 100.845C121.746 100.735 121.608 100.653 121.458 100.604C121.307 100.556 121.147 100.542 120.99 100.565H120.213L120.216 100.569ZM129.72 108.521C129.743 108.688 129.726 108.858 129.669 109.017C129.613 109.176 129.519 109.319 129.396 109.434C129.27 109.552 129.12 109.64 128.955 109.691C128.791 109.742 128.617 109.755 128.447 109.73H127.067V103.239H128.568C128.725 103.215 128.885 103.229 129.036 103.277C129.186 103.325 129.324 103.408 129.438 103.518C129.55 103.625 129.634 103.758 129.683 103.905C129.732 104.052 129.745 104.209 129.721 104.362V108.519L129.72 108.521ZM132.817 104.22C132.892 103.723 132.846 103.215 132.684 102.738C132.522 102.262 132.248 101.831 131.886 101.482C131.516 101.125 131.069 100.857 130.581 100.699C130.092 100.54 129.573 100.495 129.064 100.567H125.136C124.979 100.543 124.818 100.555 124.666 100.603C124.514 100.65 124.374 100.733 124.259 100.843C124.146 100.951 124.061 101.084 124.011 101.232C123.961 101.379 123.947 101.537 123.97 101.691V119.115C123.946 119.27 123.96 119.427 124.011 119.575C124.061 119.723 124.146 119.856 124.259 119.964C124.374 120.074 124.514 120.156 124.666 120.204C124.818 120.251 124.979 120.264 125.136 120.239H125.913C126.07 120.262 126.23 120.249 126.381 120.201C126.532 120.152 126.669 120.07 126.783 119.96C126.895 119.852 126.979 119.719 127.028 119.572C127.078 119.425 127.091 119.269 127.066 119.115V112.343H128.446C128.621 112.318 128.8 112.334 128.969 112.389C129.137 112.443 129.292 112.536 129.419 112.659C129.545 112.779 129.64 112.928 129.697 113.093C129.753 113.258 129.769 113.434 129.744 113.606V119.115C129.72 119.269 129.734 119.427 129.784 119.574C129.835 119.722 129.92 119.855 130.033 119.963C130.148 120.073 130.287 120.155 130.44 120.203C130.592 120.251 130.753 120.263 130.911 120.238H131.688C131.845 120.261 132.004 120.248 132.155 120.2C132.306 120.151 132.444 120.069 132.558 119.959C132.669 119.852 132.753 119.719 132.803 119.571C132.852 119.424 132.865 119.268 132.841 119.115V113.55C132.938 112.97 132.805 112.375 132.469 111.892C132.134 111.409 131.622 111.076 131.045 110.965C131.63 110.722 132.121 110.293 132.44 109.745C132.76 109.197 132.891 108.56 132.814 107.93V104.216L132.817 104.22ZM140.74 116.613C140.761 116.771 140.745 116.931 140.693 117.081C140.641 117.231 140.553 117.367 140.439 117.476C140.321 117.589 140.18 117.673 140.025 117.723C139.871 117.773 139.707 117.787 139.546 117.765H138.862C138.701 117.787 138.537 117.773 138.383 117.723C138.228 117.672 138.087 117.588 137.969 117.476C137.855 117.366 137.767 117.23 137.715 117.081C137.663 116.931 137.646 116.77 137.668 116.613V104.191C137.646 104.034 137.663 103.874 137.715 103.724C137.768 103.574 137.855 103.438 137.969 103.329C138.087 103.216 138.228 103.132 138.383 103.082C138.537 103.032 138.701 103.017 138.862 103.039H139.492C139.651 103.019 139.812 103.036 139.963 103.087C140.114 103.138 140.252 103.224 140.365 103.336C140.477 103.446 140.56 103.581 140.609 103.73C140.658 103.878 140.67 104.037 140.645 104.191V106.243C140.628 106.377 140.642 106.514 140.687 106.642C140.732 106.769 140.806 106.885 140.904 106.978C141.004 107.074 141.124 107.146 141.256 107.189C141.387 107.232 141.527 107.245 141.664 107.226H142.669C142.806 107.245 142.946 107.232 143.077 107.189C143.209 107.146 143.329 107.074 143.429 106.978C143.527 106.885 143.601 106.769 143.646 106.642C143.691 106.514 143.706 106.377 143.688 106.243V104.023C143.76 103.529 143.714 103.026 143.552 102.553C143.391 102.081 143.119 101.654 142.76 101.308C142.393 100.955 141.95 100.689 141.466 100.531C140.981 100.374 140.467 100.328 139.962 100.398H138.339C137.83 100.325 137.311 100.369 136.822 100.527C136.332 100.686 135.886 100.953 135.515 101.31C135.153 101.659 134.879 102.091 134.717 102.567C134.556 103.044 134.511 103.553 134.586 104.051V116.754C134.511 117.252 134.556 117.761 134.717 118.238C134.879 118.715 135.153 119.146 135.515 119.495C135.886 119.852 136.332 120.12 136.822 120.278C137.311 120.436 137.83 120.48 138.339 120.407H139.988C140.497 120.479 141.016 120.434 141.505 120.275C141.994 120.117 142.44 119.849 142.81 119.493C143.172 119.144 143.446 118.713 143.608 118.237C143.77 117.76 143.816 117.252 143.742 116.754V110.598C143.763 110.447 143.747 110.293 143.696 110.149C143.645 110.005 143.561 109.875 143.449 109.77C143.336 109.663 143.199 109.583 143.05 109.537C142.901 109.491 142.743 109.479 142.589 109.503H140.068C139.938 109.483 139.804 109.493 139.677 109.532C139.551 109.571 139.435 109.638 139.338 109.729C139.244 109.817 139.172 109.927 139.128 110.048C139.085 110.17 139.071 110.301 139.088 110.429V111.244C139.073 111.362 139.086 111.481 139.126 111.592C139.166 111.703 139.232 111.803 139.319 111.884C139.407 111.966 139.514 112.027 139.629 112.062C139.745 112.097 139.867 112.106 139.987 112.087H140.737V116.613H140.74ZM145.512 119.115C145.488 119.268 145.501 119.424 145.55 119.571C145.599 119.719 145.683 119.852 145.795 119.959C145.909 120.069 146.047 120.152 146.197 120.2C146.348 120.248 146.508 120.261 146.665 120.238H151.29C151.446 120.261 151.606 120.248 151.757 120.2C151.908 120.151 152.045 120.069 152.159 119.959C152.271 119.852 152.355 119.719 152.404 119.571C152.454 119.424 152.467 119.268 152.443 119.115V118.634C152.467 118.481 152.454 118.324 152.404 118.177C152.355 118.03 152.271 117.897 152.159 117.79C152.045 117.68 151.908 117.597 151.757 117.549C151.606 117.5 151.446 117.487 151.29 117.51H148.595V111.583H151.088C151.245 111.606 151.405 111.592 151.556 111.544C151.707 111.495 151.844 111.413 151.958 111.303C152.07 111.195 152.154 111.062 152.203 110.915C152.252 110.768 152.265 110.611 152.241 110.458V109.98C152.266 109.827 152.252 109.67 152.203 109.523C152.154 109.376 152.07 109.243 151.958 109.136C151.844 109.026 151.706 108.943 151.556 108.895C151.405 108.847 151.245 108.833 151.088 108.856H148.595V103.292H151.236C151.393 103.315 151.553 103.302 151.703 103.254C151.854 103.205 151.992 103.123 152.106 103.013C152.218 102.905 152.301 102.772 152.351 102.625C152.4 102.478 152.413 102.322 152.389 102.168V101.684C152.413 101.531 152.4 101.374 152.351 101.227C152.301 101.08 152.217 100.947 152.106 100.839C151.992 100.729 151.854 100.647 151.703 100.598C151.553 100.55 151.393 100.537 151.236 100.56H146.665C146.508 100.537 146.348 100.55 146.197 100.598C146.047 100.647 145.909 100.729 145.795 100.839C145.684 100.947 145.6 101.08 145.55 101.227C145.501 101.374 145.488 101.531 145.512 101.684V119.115ZM159.842 108.519C159.865 108.686 159.848 108.856 159.791 109.015C159.735 109.174 159.641 109.317 159.518 109.433C159.392 109.551 159.242 109.638 159.077 109.69C158.913 109.741 158.739 109.754 158.568 109.728H157.189V103.237H158.69C158.847 103.214 159.007 103.227 159.157 103.275C159.308 103.324 159.446 103.406 159.56 103.516C159.671 103.624 159.756 103.757 159.805 103.904C159.854 104.051 159.867 104.208 159.843 104.361V108.517L159.842 108.519ZM162.939 104.219C163.013 103.721 162.968 103.213 162.806 102.737C162.644 102.26 162.37 101.83 162.008 101.48C161.638 101.124 161.191 100.856 160.702 100.697C160.213 100.539 159.695 100.494 159.186 100.565H155.245C155.088 100.542 154.928 100.555 154.778 100.604C154.627 100.653 154.489 100.735 154.375 100.845C154.264 100.953 154.18 101.086 154.13 101.233C154.081 101.38 154.068 101.537 154.092 101.69V119.114C154.068 119.267 154.081 119.424 154.13 119.571C154.18 119.718 154.264 119.851 154.375 119.958C154.489 120.068 154.627 120.151 154.778 120.199C154.928 120.247 155.088 120.261 155.245 120.237H156.036C156.193 120.261 156.353 120.247 156.503 120.199C156.654 120.151 156.792 120.068 156.906 119.958C157.017 119.851 157.101 119.718 157.151 119.571C157.2 119.424 157.213 119.267 157.189 119.114V112.341H158.568C158.744 112.317 158.923 112.333 159.091 112.387C159.26 112.442 159.414 112.534 159.542 112.657C159.668 112.778 159.763 112.926 159.819 113.091C159.876 113.256 159.892 113.432 159.867 113.605V119.113C159.843 119.267 159.857 119.425 159.907 119.573C159.957 119.72 160.042 119.854 160.155 119.962C160.271 120.072 160.41 120.154 160.562 120.201C160.715 120.249 160.876 120.261 161.033 120.237H161.811C161.967 120.26 162.127 120.247 162.278 120.198C162.429 120.15 162.566 120.067 162.68 119.958C162.792 119.85 162.876 119.717 162.925 119.57C162.975 119.423 162.988 119.266 162.964 119.113V113.549C163.061 112.968 162.928 112.373 162.592 111.89C162.256 111.407 161.745 111.075 161.167 110.964C161.753 110.72 162.243 110.292 162.563 109.744C162.882 109.196 163.014 108.558 162.937 107.928V104.216L162.939 104.219Z" fill="#353535"/>
<path fill-rule="evenodd" clip-rule="evenodd" d="M56.7675 103.324C50.5338 101.863 41.3922 98.9336 38.6303 95.6265C38.4291 95.3831 37.9869 95.5405 37.9999 95.9689C38.1664 98.9524 39.3272 101.794 41.2973 104.041C47.2356 110.604 57.7988 116.072 67.652 115.231C76.3522 113.933 63.4158 104.681 56.7675 103.324ZM90.3335 99.1194C88.5778 100.926 86.9956 101.289 79.8776 104.611C75.5205 106.422 77.3039 112.504 72.3976 114.693C75.3469 114.132 86.5801 111.281 90.052 103.192C90.7059 101.64 91.27 100.052 91.7412 98.4346C92.0358 97.4074 90.8926 98.5441 90.3335 99.1194ZM90.6013 108.273C88.0276 112.76 83.0272 116.597 75.9359 118.07C63.8045 120.591 46.7269 117.207 40.3723 108.001C38.5873 105.411 38.2944 107.116 38.2806 107.667C37.9991 117.683 53.6292 127.972 69.5546 126.474C86.1364 124.916 90.5339 114.777 91.5254 109.456C91.9311 107.265 91.0159 107.545 90.6005 108.267L90.6013 108.273ZM92.719 86.9498C92.1559 80.9148 80.3594 72.2552 65.8547 73.0511C52.6239 73.7757 40.1573 80.8337 38.6693 88.7867C37.3289 95.9137 53.0264 99.7246 69.4475 99.1964C85.9222 98.6601 93.3486 93.8415 92.719 86.9449V86.9498ZM61.7249 77.0722C53.8831 79.727 48.0381 85.2848 46.3497 90.7421C44.0308 89.7222 42.9176 88.1595 43.3338 86.1652C44.0981 83.3254 51.9399 76.6041 63.6178 74.8272C71.527 73.628 78.2159 75.443 80.8569 78.0548C76.4066 75.0795 68.6313 74.7282 61.7274 77.0674L61.7249 77.0722ZM90.5056 89.1193C89.9027 90.5027 88.6022 91.1266 87.6099 90.5068C87.1163 90.0691 86.7854 89.4772 86.671 88.8275C86.5567 88.1778 86.6657 87.5085 86.9802 86.9287C87.5969 85.5753 88.8699 84.9668 89.82 85.5583C90.3212 85.9849 90.662 86.5695 90.7864 87.2158C90.9107 87.8622 90.811 88.5316 90.5039 89.1137L90.5056 89.1193Z" fill="#353535"/>
</g>
<defs>
<clipPath id="clip0_5_125">
<rect width="125" height="53.6205" fill="white" transform="translate(38 73)"/>
</clipPath>
</defs>
</svg>
