<svg width="200" height="200" viewBox="0 0 200 200" fill="none" xmlns="http://www.w3.org/2000/svg">
<rect width="200" height="200" fill="white"/>
<path d="M37.0013 61.0013H40.4467V138.522H37.0013V61.0013Z" fill="#B2A16D"/>
<path d="M111.077 112.338H114.522V138.522H111.077V112.338Z" fill="#B2A16D"/>
<path d="M111.077 103.38H114.522V108.203H111.077V103.38Z" fill="black"/>
<path d="M111.077 61.0013H114.522V96.1442H111.077V61.0013Z" fill="#B2A16D"/>
<path d="M114.521 61V64.4454H37V61H114.521Z" fill="#B2A16D"/>
<path d="M114.521 135.076V138.521H37.0002V135.076H114.521Z" fill="#B2A16D"/>
<path d="M50.4727 118.884V102.966H55.8131C56.6744 102.966 57.4668 103.069 58.1904 103.242C58.914 103.414 59.4996 103.69 60.0165 104.034C60.5333 104.379 60.9123 104.827 61.1879 105.378C61.4635 105.929 61.6013 106.584 61.6013 107.307C61.6013 108.065 61.3946 108.72 61.0156 109.306C60.6366 109.891 60.0509 110.339 59.2929 110.649C59.7407 110.753 60.1542 110.925 60.4988 111.166C60.8433 111.407 61.1189 111.683 61.3257 111.993C61.5324 112.303 61.7047 112.648 61.8081 113.027C61.9115 113.406 61.9804 113.785 61.9804 114.198C61.9804 114.956 61.8426 115.645 61.6014 116.231C61.3258 116.817 60.9468 117.299 60.4644 117.712C59.982 118.091 59.3964 118.402 58.6728 118.608C57.9837 118.815 57.1912 118.918 56.2954 118.918H50.4727V118.884ZM53.5391 109.65H55.8131C56.6744 109.65 57.329 109.478 57.7769 109.099C58.2248 108.72 58.466 108.238 58.466 107.548C58.466 106.791 58.2248 106.274 57.7769 105.964C57.329 105.654 56.6399 105.481 55.7786 105.481H53.5391V109.65ZM53.5391 111.855V116.403H56.261C57.0879 116.403 57.7425 116.196 58.1904 115.783C58.6383 115.37 58.845 114.853 58.845 114.198C58.845 113.475 58.6727 112.889 58.2593 112.475C57.8459 112.062 57.2257 111.855 56.3988 111.855H53.5391Z" fill="black"/>
<path d="M75.0384 112.096C75.0384 113.13 74.9006 114.06 74.625 114.922C74.3493 115.783 73.9704 116.506 73.4535 117.127C72.9367 117.747 72.3165 118.229 71.593 118.574C70.8695 118.918 70.0426 119.091 69.1123 119.091C68.1821 119.091 67.3896 118.918 66.6661 118.574C65.9426 118.229 65.3569 117.747 64.8745 117.127C64.3921 116.506 64.0131 115.749 63.7719 114.922C63.5307 114.06 63.3929 113.13 63.3929 112.096V109.788C63.3929 108.754 63.5307 107.824 63.7719 106.963C64.0131 106.101 64.3921 105.378 64.8745 104.723C65.3569 104.103 65.977 103.621 66.6661 103.276C67.3896 102.932 68.1821 102.759 69.1123 102.759C70.0426 102.759 70.8695 102.932 71.593 103.276C72.3165 103.621 72.9367 104.103 73.4535 104.723C73.9704 105.343 74.3493 106.101 74.625 106.963C74.9006 107.824 75.0384 108.754 75.0384 109.788V112.096ZM71.9031 109.753C71.9031 109.099 71.8342 108.513 71.7308 107.962C71.6274 107.411 71.4552 106.928 71.2484 106.549C71.0072 106.17 70.7316 105.86 70.387 105.619C70.0425 105.378 69.5946 105.274 69.1123 105.274C68.6299 105.274 68.2164 105.378 67.8719 105.619C67.5274 105.826 67.2517 106.136 67.0794 106.549C66.8727 106.928 66.7349 107.411 66.6316 107.962C66.5282 108.513 66.4938 109.099 66.4938 109.753V112.096C66.4938 112.751 66.5282 113.337 66.6316 113.888C66.7349 114.439 66.8728 114.922 67.0794 115.301C67.2862 115.714 67.5618 116.024 67.8719 116.231C68.2164 116.472 68.6299 116.575 69.1123 116.575C69.5946 116.575 70.0425 116.472 70.387 116.231C70.7316 115.99 71.0417 115.68 71.2484 115.301C71.4552 114.887 71.6274 114.439 71.7308 113.888C71.8342 113.337 71.9031 112.751 71.9031 112.096V109.753Z" fill="black"/>
<path d="M87.9585 102.966V113.509C87.9585 114.405 87.8208 115.197 87.5796 115.886C87.3384 116.575 86.9938 117.161 86.5115 117.643C86.0637 118.126 85.4779 118.47 84.8233 118.746C84.1687 118.987 83.4107 119.125 82.5494 119.125C81.7569 119.125 81.0334 118.987 80.3788 118.746C79.7242 118.505 79.1729 118.126 78.725 117.678C78.2772 117.196 77.8981 116.61 77.657 115.921C77.4159 115.232 77.278 114.439 77.278 113.543V103.001H80.3444V113.543C80.3444 114.577 80.5512 115.335 80.8957 115.886C81.2747 116.403 81.7915 116.679 82.515 116.679C83.273 116.679 83.8242 116.403 84.2377 115.886C84.6512 115.37 84.8235 114.577 84.8579 113.543V103.001H87.9588L87.9585 102.966Z" fill="black"/>
<path d="M102.498 105.481H97.5712V118.884H94.4703V105.481H89.6123V102.966H102.464V105.481H102.498Z" fill="black"/>
<path d="M60.9467 96.4887H59.0173V89.1156H52.5055V96.4887H50.6106V80.5711H52.5055V87.4274H59.0173V80.5711H60.9467V96.4887Z" fill="black"/>
<path d="M75.1417 82.2938H70.2148V96.4888H68.251V82.2938H63.3241V80.5711H75.1417V82.2938Z" fill="black"/>
<path d="M80.0342 80.5711L82.6182 88.5299L85.409 80.5711H87.9241V96.4887H85.9603V90.1493L86.1326 83.4997L83.204 92.0787H82.0326L79.3451 83.7409L79.5174 90.1493V96.4888H77.5536V80.5712H80.0343L80.0342 80.5711Z" fill="black"/>
<path d="M93.5401 94.7661H101.327V96.4888H91.5072V80.5712H93.5401V94.7662V94.7661Z" fill="black"/>
<path d="M135.402 112.579C135.402 113.543 135.229 114.474 134.885 115.335C134.54 116.196 134.058 116.92 133.438 117.54L136.056 119.917L134.092 121.675L131.06 118.884C130.819 118.953 130.543 118.987 130.268 119.022C129.992 119.056 129.717 119.09 129.441 119.09C128.511 119.09 127.718 118.918 126.995 118.574C126.271 118.229 125.685 117.747 125.169 117.127C124.686 116.541 124.307 115.817 124.032 115.059C123.79 114.267 123.653 113.44 123.653 112.579V109.822C123.653 108.789 123.79 107.858 124.032 106.997C124.273 106.136 124.652 105.378 125.169 104.758C125.651 104.137 126.271 103.655 126.995 103.276C127.718 102.932 128.511 102.759 129.441 102.759C130.371 102.759 131.198 102.932 131.922 103.276C132.645 103.621 133.265 104.103 133.782 104.758C134.299 105.378 134.678 106.136 134.954 106.997C135.229 107.858 135.367 108.823 135.367 109.822V112.579L135.402 112.579ZM132.301 109.788C132.301 109.133 132.232 108.513 132.128 107.962C132.025 107.411 131.853 106.928 131.646 106.549C131.405 106.136 131.129 105.826 130.785 105.619C130.44 105.412 129.992 105.274 129.475 105.274C128.959 105.274 128.545 105.378 128.201 105.619C127.856 105.86 127.58 106.17 127.374 106.549C127.167 106.963 127.029 107.411 126.926 107.962C126.822 108.513 126.788 109.099 126.788 109.788V112.579C126.788 113.061 126.822 113.578 126.926 114.026C127.029 114.508 127.167 114.922 127.374 115.301C127.58 115.68 127.856 115.99 128.201 116.196C128.545 116.438 128.959 116.541 129.475 116.541C129.992 116.541 130.406 116.438 130.785 116.196C131.129 115.955 131.439 115.68 131.646 115.266C131.887 114.887 132.025 114.474 132.128 113.991C132.232 113.509 132.301 113.027 132.301 112.544V109.788Z" fill="black"/>
<path d="M148.253 102.966V113.509C148.253 114.405 148.115 115.197 147.874 115.886C147.633 116.575 147.288 117.161 146.806 117.643C146.358 118.126 145.772 118.47 145.118 118.746C144.463 118.987 143.705 119.125 142.844 119.125C142.051 119.125 141.328 118.987 140.673 118.746C140.018 118.505 139.467 118.126 139.019 117.678C138.571 117.196 138.192 116.61 137.951 115.921C137.71 115.232 137.572 114.439 137.572 113.543V103.001H140.639V113.543C140.639 114.577 140.845 115.335 141.19 115.886C141.535 116.438 142.086 116.679 142.809 116.679C143.567 116.679 144.119 116.403 144.532 115.886C144.946 115.37 145.118 114.577 145.152 113.543V103.001H148.253L148.253 102.966Z" fill="black"/>
<path d="M160.897 111.924H154.351V116.403H162V118.884H151.285V102.966H161.965V105.481H154.351V109.478H160.897L160.897 111.924Z" fill="black"/>
</svg>
