<svg width="200" height="200" viewBox="0 0 200 200" fill="none" xmlns="http://www.w3.org/2000/svg">
<rect width="200" height="200" fill="white"/>
<path d="M90.8717 93.8162C90.8714 93.6495 90.938 93.4896 91.0568 93.3718C91.1755 93.2541 91.3365 93.1884 91.5042 93.1891H102.834C103.182 93.1891 103.465 93.4696 103.466 93.8162V98.0836H90.8717V93.8162ZM103.769 106.47C103.65 106.588 103.489 106.654 103.321 106.654H91.5051C91.1562 106.654 90.8732 106.373 90.8727 106.026V102.862H108.786L109.022 102.626V93.8933C109.022 92.8095 108.588 91.7704 107.816 91.0054L106.153 89.3543C105.381 88.588 104.334 88.1579 103.243 88.1579H91.0954C90.0038 88.1579 88.9568 88.5885 88.1848 89.3543L86.5217 91.0054C85.7499 91.7704 85.3158 92.8095 85.3158 93.8933V105.949C85.3161 107.033 85.75 108.072 86.5217 108.837L88.1848 110.488C88.9574 111.254 90.0042 111.684 91.0954 111.684H103.614C104.705 111.684 105.751 111.254 106.523 110.488L109.15 107.881L109.158 107.556L106.238 104.367L105.894 104.358L103.768 106.469L103.769 106.47Z" fill="black"/>
<path d="M48.2105 88H40.9358L30.8942 99.2348V88H25.2361L25 88.2361V111.526H30.6582L30.8942 111.29V99.5661L40.9358 111.526H48.2105L38.0263 99.3946L48.2105 88Z" fill="black"/>
<path d="M56.0263 88.0789H50.2665L50.0263 88.315V111.605H55.785L56.0263 111.369V88.0789Z" fill="black"/>
<path d="M166.632 88H159.357L149.316 99.2348V88H143.657L143.421 88.2361V111.526H149.079L149.316 111.29V99.5661L159.357 111.526H166.632L156.447 99.3946L166.632 88Z" fill="black"/>
<path d="M140.5 88.0789H134.74L134.5 88.315V111.605H140.26L140.5 111.369V88.0789Z" fill="black"/>
<path d="M132.605 88.0789H110.5V92.9898L110.736 93.2258H118.605V111.369L118.842 111.605H124.5V93.2258H132.369L132.605 92.9898V88.0789Z" fill="black"/>
<path d="M77.14 88.2355V104.576L65.7306 88H59.3406L59.1053 88.2355V111.526H64.3899L64.6262 111.291V94.9507L76.0356 111.526H82.4256L82.6609 111.291V88H77.3763L77.14 88.2355ZM171.484 107.813H172.775C172.815 107.813 172.848 107.846 172.848 107.886V108.359C172.848 108.378 172.841 108.397 172.827 108.41C172.813 108.424 172.794 108.432 172.775 108.432H171.484V107.813ZM173.572 109.887L172.839 109.033H172.891C172.974 109.033 173.055 109 173.113 108.942L173.404 108.653C173.463 108.594 173.496 108.515 173.496 108.432V107.813C173.496 107.73 173.463 107.651 173.404 107.592L173.085 107.304C173.026 107.245 172.947 107.212 172.863 107.211H170.844C170.836 107.212 170.829 107.215 170.824 107.22L170.801 107.242C170.796 107.247 170.793 107.254 170.793 107.261V109.91C170.793 109.917 170.796 109.924 170.801 109.93L170.823 109.952C170.829 109.958 170.836 109.961 170.844 109.961H171.432C171.44 109.961 171.448 109.958 171.453 109.952L171.475 109.93C171.481 109.925 171.484 109.918 171.484 109.91V109.033H171.975L172.718 109.898C172.723 109.905 172.729 109.91 172.737 109.913L172.829 109.956C172.836 109.959 172.844 109.961 172.853 109.96H173.539C173.55 109.96 173.56 109.954 173.565 109.944L173.576 109.918C173.581 109.908 173.579 109.896 173.572 109.887Z" fill="black"/>
<mask id="mask0_5_130" style="mask-type:luminance" maskUnits="userSpaceOnUse" x="169" y="105" width="6" height="7">
<path d="M175 105.842V111.684H169.158V105.842H175Z" fill="white"/>
</mask>
<g mask="url(#mask0_5_130)">
<path d="M172.079 106.227C170.68 106.227 169.545 107.361 169.542 108.763C169.542 110.167 170.678 111.305 172.079 111.305C173.48 111.305 174.616 110.167 174.616 108.763C174.612 107.361 173.478 106.227 172.079 106.227ZM172.079 111.684C170.468 111.684 169.161 110.378 169.157 108.764C169.157 107.146 170.465 105.835 172.079 105.835C173.693 105.835 175.001 107.146 175.001 108.764C174.997 110.378 173.69 111.684 172.079 111.684Z" fill="black"/>
</g>
</svg>
