<svg xmlns="http://www.w3.org/2000/svg" xmlns:xlink="http://www.w3.org/1999/xlink" width="1000" height="1000" viewBox="0 0 1000 1000"><defs><polygon id="a" points="0 0 37 0 37 37 0 37"/></defs><g fill="none" fill-rule="evenodd"><rect width="1000" height="1000" fill="#FFF"/><g transform="translate(25 425)"><path fill="#000" fill-rule="nonzero" d="M418.836137,115.81268 C417.780179,115.81432 416.767178,115.392415 416.021648,114.640468 C415.276118,113.888522 414.859637,112.868641 414.86447,111.806866 L414.86447,40.0519605 C414.86447,37.8443955 416.640697,36.0529123 418.836137,36.046151 L445.86271,36.046151 L445.86271,115.81268 L418.836137,115.81268 Z M498.976332,34.1321961 C499.720992,34.8855957 500.139761,35.9041247 500.141586,36.9663217 L500.141586,111.800732 C500.141589,114.010686 498.361684,115.803157 496.16386,115.806541 L476.128812,115.806541 L476.128812,2.35563712 L474.634114,0.858826236 L419.324202,0.858826236 C412.460467,0.86008515 405.87945,3.6081098 401.033984,8.49624245 L390.577202,19.0291289 C385.724074,23.9228859 383,30.5521829 383,37.4632138 L383,114.395613 C383,121.309161 385.72706,127.940524 390.577202,132.829698 L401.033984,143.362584 C405.87945,148.250717 412.460467,151 419.324202,151 L495.675796,151 C502.539396,150.998065 509.120166,148.250144 513.966014,143.362584 L524.422796,132.829698 C529.27649,127.936321 532.001518,121.306777 532,114.395613 L532,35.1137115 C532,28.2046726 529.274997,21.5776334 524.422796,16.685761 L507.914014,0.0490760837 L505.851941,3.16894585e-07 L485.658271,18.4954299 L485.603364,20.6731671 L498.970231,34.1383306 L498.976332,34.1321961 Z" transform="rotate(90 457.5 75.5)"/><polygon fill="#000" fill-rule="nonzero" points="-1 1 -1 47.073 70.154 110.67 -1 110.67 -1 146.505 .495 148 148 148 148 112.165 146.505 110.67 72.252 110.67 148 47.073 148 1 71.166 65.5" transform="rotate(90 73.5 74.5)"/><polygon fill="#000" fill-rule="nonzero" points="103 56 103 92.479 104.495 94 252 94 252 57.528 250.505 56" transform="rotate(90 177.5 75)"/><polygon fill="#000" fill-rule="nonzero" points="749 1 749 47.073 820.154 110.664 749 110.664 749 146.505 750.495 148 898 148 898 112.165 896.505 110.664 822.252 110.664 898 47.073 898 1 821.166 65.5" transform="rotate(90 823.5 74.5)"/><polygon fill="#000" fill-rule="nonzero" points="638 56 638 92.479 639.495 94 787 94 787 57.521 785.505 56" transform="rotate(90 712.5 75)"/><polygon fill="#000" fill-rule="nonzero" points="537 5 537 145 568.102 145 569.597 143.505 569.597 93.668 684.505 93.668 686 92.167 686 56.332 569.597 56.332 569.597 6.495 568.102 5" transform="rotate(90 611.5 75)"/><path fill="#000" fill-rule="nonzero" d="M330.219791,1.49152196 L330.219791,104.978795 L257.96041,0 L217.490514,0 L216,1.49152196 L216,149 L249.469368,149 L250.96599,147.508478 L250.96599,44.0212053 L323.225372,149 L363.695268,149 L365.185782,147.508478 L365.185782,0 L331.716414,0 L330.219791,1.49152196 Z M927.732609,125.482656 L935.906001,125.482656 C936.162404,125.482656 936.370259,125.689803 936.370259,125.945332 L936.370259,128.940552 C936.373789,129.062301 936.324875,129.179738 936.235869,129.263207 C936.148775,129.351453 936.030194,129.401788 935.906001,129.403228 L927.732609,129.403228 L927.732609,125.482656 L927.732609,125.482656 Z M940.957866,138.620225 L936.315281,133.208131 L936.645149,133.208131 C937.170494,133.208131 937.683622,133.001144 938.050142,132.629785 L939.894958,130.803432 C940.266568,130.431531 940.475228,129.928075 940.475281,129.403228 L940.475281,125.482656 C940.475898,124.957677 940.267136,124.453975 939.894958,124.082451 L937.87299,122.256098 C937.500437,121.884085 936.99538,121.673997 936.467998,121.671665 L923.676456,121.671665 C923.630253,121.673907 923.586609,121.69348 923.554283,121.726456 L923.407675,121.866476 C923.374587,121.898692 923.354947,121.942187 923.352697,121.988233 L923.352697,138.760245 C923.353386,138.808419 923.373146,138.85437 923.407675,138.88809 L923.548174,139.02811 C923.58098,139.06477 923.627221,139.086714 923.676456,139.08899 L927.402741,139.08899 C927.454292,139.08899 927.503357,139.066924 927.537132,139.02811 L927.677631,138.88809 C927.71072,138.855874 927.730359,138.812379 927.732609,138.766333 L927.732609,133.208131 L930.841919,133.208131 L935.54559,138.687191 C935.577887,138.728954 935.61979,138.762362 935.667763,138.784597 L936.248086,139.052462 C936.296216,139.073394 936.348297,139.083775 936.400803,139.082901 L940.744062,139.082901 C940.814416,139.082814 940.87851,139.042597 940.908996,138.979408 L940.9823,138.815036 C941.012848,138.750886 941.003318,138.674907 940.957866,138.620225 L940.957866,138.620225 Z"/><g transform="rotate(90 418.5 531.5)"><mask id="b" fill="#fff"><use xlink:href="#a"/></mask><path fill="#000" fill-rule="nonzero" d="M2.43636364,18.5 C2.43636364,27.3580543 9.62008383,34.5454763 18.4969697,34.5688133 C27.3904278,34.5688133 34.6,27.3745606 34.6,18.5 C34.6,9.62543945 27.3904278,2.43118666 18.4969697,2.43118666 C9.62008383,2.45452365 2.43636364,9.64194569 2.43636364,18.5 M37,18.5 C37,28.7017434 28.7264624,36.9793765 18.5030303,37.0060477 C8.26065858,37.0060477 -0.0424242424,28.7206079 -0.0424242424,18.5 C-0.0424242424,8.27939206 8.26065858,-0.00604772802 18.5030303,-0.00604772802 C28.7264624,0.0206234966 37,8.29825656 37,18.5" mask="url(#b)"/></g></g></g></svg>