<svg xmlns="http://www.w3.org/2000/svg" width="1000" height="1000" viewBox="0 0 1000 1000"><g fill="none" fill-rule="evenodd"><rect width="1000" height="1000" fill="#FFF"/><g fill="#000" fill-rule="nonzero" transform="translate(82 82)"><path d="M337.751599,457.925503 C361.326226,457.146891 381.619403,447.111445 398.026652,427.99219 C414.433902,408.872935 422.810235,385.947131 422.810235,359.733854 C422.810235,334.904776 412.534115,313.968759 392.154584,297.444878 C372.897655,281.872634 349.754797,274 323.33049,274 L190,274 L190,303.068189 L227.045842,303.068189 L227.045842,532.931811 L190,532.931811 L190,562 L292.24307,562 L292.24307,532.931811 L258.910448,532.931811 L258.910448,302.981676 L326.266525,302.981676 C343.969083,302.981676 359.167377,309.210574 371.602345,321.495344 C384.037313,333.780114 390.341151,349.092821 390.341151,366.914389 C390.341151,385.860619 383.173774,402.211475 369.098081,415.447882 C355.022388,428.68429 338.097015,435.432262 318.840085,435.432262 L284.730277,435.432262 L373.588486,561.221388 L374.020256,561.826975 L433,561.826975 L433,532.758786 L393.018124,532.758786 L337.751599,457.925503 Z"/><polygon points="614.322 533.01 522.895 533.01 522.895 302.99 560.333 302.99 560.333 274 455.127 274 455.127 302.99 491.437 302.99 491.437 533.01 454 533.01 454 562 645 562 645 485.154 614.322 485.154"/><path d="M803.141084,255.261895 C782.128672,205.454696 751.950352,160.749276 713.557302,122.442698 C675.164253,84.0496483 630.458833,53.9577989 580.738105,32.858916 C529.201489,11.0682664 474.465453,0 418,0 C361.534547,0 306.884981,11.0682664 255.261895,32.858916 C205.541167,53.9577989 160.835747,84.0496483 122.442698,122.442698 C84.0496483,160.835747 53.9577989,205.541167 32.858916,255.261895 C11.0682664,306.798511 0,361.534547 0,418 C0,474.465453 11.0682664,529.115019 32.858916,580.738105 C53.8713281,630.545304 84.0496483,675.250724 122.442698,713.557302 C160.835747,751.863881 205.541167,782.042201 255.261895,803.141084 C306.798511,824.931734 361.534547,836 418,836 C474.465453,836 529.115019,824.931734 580.738105,803.141084 C630.545304,782.128672 675.250724,751.950352 713.557302,713.557302 C751.950352,675.164253 782.042201,630.458833 803.141084,580.738105 C824.931734,529.201489 836,474.465453 836,418 C836,361.534547 824.931734,306.884981 803.141084,255.261895 Z M769.849814,566.64336 C750.653289,612.127017 723.069094,652.941249 687.961936,688.048407 C652.854779,723.155565 612.040546,750.653289 566.556889,769.936285 C519.516756,789.824576 469.450145,799.941663 417.913529,799.941663 C366.376914,799.941663 316.396773,789.824576 269.35664,769.849814 C223.872983,750.653289 183.058751,723.069094 147.951593,687.961936 C112.844435,652.854779 85.3467108,612.040546 66.0637153,566.556889 C46.1754241,519.603227 36.1448076,469.536616 36.1448076,418 C36.1448076,366.463384 46.1754241,316.396773 66.1501862,269.35664 C85.3467108,223.872983 112.930906,183.058751 148.038064,147.951593 C183.145221,112.844435 223.959454,85.3467108 269.443111,66.0637153 C316.396773,46.1754241 366.463384,36.1448076 418,36.1448076 C469.536616,36.1448076 519.603227,46.1754241 566.64336,66.1501862 C612.127017,85.3467108 652.941249,112.930906 688.048407,148.038064 C723.155565,183.145221 750.653289,223.959454 769.936285,269.443111 C789.824576,316.483244 799.941663,366.549855 799.941663,418.086471 C799.941663,469.623086 789.824576,519.603227 769.849814,566.64336 Z"/></g></g></svg>