<svg width="200" height="200" viewBox="0 0 200 200" fill="none" xmlns="http://www.w3.org/2000/svg">
<rect width="200" height="200" fill="white"/>
<path d="M88.5011 106.47C92.026 106.353 95.0603 104.853 97.5135 101.994C99.9668 99.1353 101.219 95.7074 101.219 91.788C101.219 88.0755 99.6827 84.9451 96.6355 82.4744C93.7562 80.146 90.2959 78.9689 86.3449 78.9689H66.4091V83.3152H71.9482V117.685H66.4091V122.031H81.6966V117.685H76.7127V83.3023H86.7839C89.4308 83.3023 91.7033 84.2336 93.5626 86.0705C95.4218 87.9073 96.3644 90.1969 96.3644 92.8616C96.3644 95.6945 95.2927 98.1393 93.1881 100.118C91.0835 102.098 88.5528 103.106 85.6735 103.106H80.5733L93.8595 121.915L93.9241 122.005H102.743V117.659H96.7647L88.5011 106.47Z" fill="black"/>
<path d="M129.854 117.696H116.184V83.3035H121.782V78.9689H106.051V83.3035H111.48V117.696H105.883V122.031H134.441V110.541H129.854V117.696Z" fill="black"/>
<path d="M158.087 76.1672C154.945 68.7199 150.433 62.0355 144.692 56.3078C138.952 50.5672 132.267 46.0679 124.833 42.9131C117.127 39.6549 108.943 38 100.5 38C92.0572 38 83.8859 39.6549 76.1672 42.9131C68.7328 46.0679 62.0484 50.5672 56.3078 56.3078C50.5672 62.0484 46.0679 68.7328 42.9131 76.1672C39.6549 83.873 38 92.0572 38 100.5C38 108.943 39.6549 117.114 42.9131 124.833C46.0549 132.28 50.5672 138.965 56.3078 144.692C62.0484 150.42 68.7328 154.932 76.1672 158.087C83.873 161.345 92.0572 163 100.5 163C108.943 163 117.114 161.345 124.833 158.087C132.28 154.945 138.965 150.433 144.692 144.692C150.433 138.952 154.932 132.267 158.087 124.833C161.345 117.127 163 108.943 163 100.5C163 92.0572 161.345 83.8859 158.087 76.1672ZM153.109 122.725C150.239 129.526 146.114 135.629 140.865 140.878C135.616 146.127 129.513 150.239 122.712 153.122C115.679 156.096 108.193 157.608 100.487 157.608C92.7812 157.608 85.3081 156.096 78.2746 153.109C71.4738 150.239 65.3712 146.114 60.1219 140.865C54.8727 135.616 50.7612 129.513 47.8779 122.712C44.9042 115.692 43.4044 108.206 43.4044 100.5C43.4044 92.7942 44.9042 85.3081 47.8909 78.2746C50.7612 71.4738 54.8856 65.3712 60.1349 60.1219C65.3842 54.8727 71.4868 50.7612 78.2875 47.8779C85.3081 44.9042 92.7942 43.4044 100.5 43.4044C108.206 43.4044 115.692 44.9042 122.725 47.8909C129.526 50.7612 135.629 54.8856 140.878 60.1349C146.127 65.3842 150.239 71.4868 153.122 78.2875C156.096 85.3211 157.608 92.8071 157.608 100.513C157.608 108.219 156.096 115.692 153.109 122.725Z" fill="black"/>
</svg>
