<svg width="200" height="200" viewBox="0 0 200 200" fill="none" xmlns="http://www.w3.org/2000/svg">
<rect width="200" height="200" fill="white"/>
<path d="M82.378 91.1422L84.9163 91.17C88.0822 91.1979 91.4427 92.9277 91.4132 96.2231C91.4057 97.2705 90.5423 97.4727 90.2364 97.468L88.889 97.4558C88.2379 97.4484 87.7055 97.1445 87.2703 96.1909C86.7658 95.0869 85.8922 94.3885 84.4948 94.3748L82.4708 94.3579C79.1174 94.33 78.1993 95.5565 78.1667 99.3399C78.1321 103.13 79.0289 104.365 82.3811 104.398L84.6376 104.417C86.0349 104.428 86.9231 103.74 87.4453 102.655C87.8986 101.701 88.4357 101.403 89.0903 101.41L90.4397 101.42C90.7358 101.424 91.6003 101.643 91.5914 102.687C91.563 105.986 88.1703 107.657 85.0048 107.629L82.2376 107.606C76.6714 107.558 73.8354 104.947 73.8846 99.3022C73.9302 93.6536 76.8149 91.097 82.378 91.1422ZM97.6014 99.3037C97.57 102.823 98.941 104.779 102.46 104.811C105.984 104.842 107.389 102.91 107.419 99.385C107.45 95.8748 106.083 93.9119 102.557 93.8766C99.0408 93.8514 97.6344 95.79 97.6014 99.3037ZM102.585 90.7888C108.455 90.834 111.792 93.3285 111.74 99.4274C111.685 105.522 108.304 107.957 102.434 107.908C96.5626 107.855 93.2261 105.365 93.282 99.2649C93.3343 93.1703 96.7132 90.7354 102.585 90.7888ZM117.91 104.111L125.814 104.18L125.903 94.5094L122.561 94.4835C121.145 94.4682 120.176 95.304 119.851 96.6506L117.91 104.111ZM115.765 95.6522C116.669 92.0985 119.808 91.3063 123.045 91.3373L129.076 91.3852C129.647 91.3899 130.121 91.85 130.119 92.4224L130 106.338C129.989 106.91 129.51 107.361 128.938 107.36L112.719 107.217C112.147 107.211 111.671 106.725 111.674 106.157L111.685 105.085C111.688 104.513 112.175 104.063 112.747 104.063L113.61 104.069L115.765 95.6522Z" fill="#0A0B09"/>
<path d="M137.242 100.537L137.231 101.894C137.213 103.798 138.097 104.209 139.839 104.225L141.491 104.242C143.236 104.257 144.119 103.858 144.132 102.43C144.143 101.004 143.27 100.59 141.524 100.576L137.242 100.537ZM141.934 97.4558C145.947 97.4919 148.338 98.7839 148.302 102.468C148.271 106.157 145.859 107.399 141.846 107.366L139.421 107.341C135.413 107.31 133.021 106.024 133.058 101.857L133.103 96.976C133.143 92.5865 135.556 91.3003 139.523 91.3298L142.329 91.3565C145.637 91.3836 148.138 93.0603 148.117 95.2482C148.11 96.2717 147.266 96.468 146.972 96.4653L145.662 96.4543C145.028 96.4472 144.618 96.1508 144.172 95.397C143.834 94.8286 143.051 94.4835 141.913 94.4709L139.876 94.454C138.18 94.4403 137.291 94.9047 137.273 97.0149L137.266 97.4138L141.934 97.4558ZM158.805 95.4865L153.28 101.643L158.751 101.691L158.805 95.4865ZM148.974 102.357C148.98 101.629 149.224 101.148 149.647 100.691L156.808 92.7074C157.229 92.2457 157.761 92.0592 158.486 92.0619L161.847 92.0914C162.416 92.0985 162.873 92.5401 162.867 93.1082L162.794 101.728L163.975 101.74C164.552 101.743 165.01 102.187 165 102.76L164.996 103.766C164.989 104.316 164.527 104.774 163.953 104.768L162.766 104.759L162.749 106.447C162.746 106.995 162.282 107.451 161.708 107.446L159.71 107.429C159.165 107.426 158.708 106.979 158.71 106.433L158.725 104.724L149.985 104.648C149.414 104.643 148.957 104.177 148.962 103.628L148.974 102.357Z" fill="#A01D26"/>
<path d="M58.0266 105.523C57.83 105.684 55.2532 107.616 53.9961 108.505L53.0763 109.15C52.0439 109.872 51.2105 110.441 50.5255 110.891C48.8132 112.019 48.3991 112.175 48.208 112.175C48.0276 112.174 47.6968 112.068 45.919 110.874C45.891 110.854 45.8586 110.832 45.8294 110.812L58.9461 102.117C59.1455 103.185 59.2868 103.968 59.2963 104.116C59.2963 104.303 59.2963 104.496 58.0266 105.523ZM41.7006 107.927L57.986 97.0938L57.9923 97.1249C58.1498 97.9379 58.3219 98.8308 58.4874 99.7001L43.8056 109.417C43.6829 109.329 43.5636 109.246 43.4326 109.154L42.5419 108.528C42.2462 108.318 41.9679 108.118 41.7006 107.927ZM39.3271 106.201C39.012 105.966 38.7436 105.763 38.5177 105.587C38.2907 105.393 38.0598 105.18 37.8533 104.982L57.5363 91.841C57.5229 92.0565 57.5094 92.2688 57.4948 92.4732L57.3906 94.0227L57.5189 94.6899L39.8158 106.563C39.6938 106.473 39.5738 106.385 39.4605 106.302L39.3271 106.201ZM54.5216 88.3736C56.1292 88.1625 56.725 88.1165 56.9398 88.1165C57.2485 88.1165 57.3835 88.2089 57.4668 88.2887C57.5537 88.3736 57.5734 88.3991 57.5789 88.4062C57.6243 88.4872 57.6449 88.718 57.6508 89.0424L37.5532 102.44C37.7017 101.604 37.8999 100.523 38.1387 99.2232L54.5216 88.3736ZM60.211 96.747L59.6591 93.8989L59.7468 92.6041C60.0279 88.3071 60.0279 87.7225 59.0819 86.8111C58.528 86.2811 57.789 86 56.9398 86C56.4822 86 55.5828 86.0951 53.9357 86.3149L53.6669 86.3515L36.0763 97.9997L35.9954 98.4294C34.9097 104.303 34.9132 104.314 35.0838 104.943C35.1355 105.128 35.2918 105.694 37.0171 107.167L37.0558 107.199C37.295 107.386 37.5825 107.603 37.9216 107.858L38.0586 107.957C38.8569 108.55 39.8778 109.288 41.1846 110.217L42.0792 110.846C43.1033 111.567 43.9284 112.138 44.6043 112.594C46.6762 113.985 47.315 114.287 48.2045 114.292H48.208C49.0825 114.292 49.7592 113.98 51.8228 112.625C52.5232 112.161 53.3739 111.582 54.4265 110.846L55.3511 110.196C56.5623 109.34 59.2083 107.366 59.5091 107.119C60.9217 105.975 61.551 105.27 61.551 104.124C61.5545 103.844 61.5565 103.688 60.211 96.747Z" fill="#0A0B09"/>
<path d="M42.1876 86.577C39.1049 86.0663 38.3723 86 38.0796 86C37.6135 86 37.2115 86.1393 36.8782 86.4131C36.1331 87.0258 36.0413 87.4287 36.2734 92.2243L36.3582 93.842L36.2339 94.5603L37.896 93.3807L43.0077 89.7584L43.0355 89.738L45.3024 88.1312L46.4621 87.3082C45.3692 87.1156 43.7317 86.8316 42.1876 86.577Z" fill="#A01D26"/>
</svg>
