<svg width="200" height="200" viewBox="0 0 200 200" fill="none" xmlns="http://www.w3.org/2000/svg">
<path d="M200 0H0V200H200V0Z" fill="white"/>
<path d="M69.3696 66.6812L86.3482 43.0369L119.425 66.6812H126.845L85.3422 37L64.0874 66.6812H69.3696Z" fill="#481E00"/>
<path d="M83.9588 66.6812L104.207 43.9171L129.738 66.6812H133.511L103.956 40.3957L80.5631 66.6812H83.9588Z" fill="#481E00"/>
<path d="M130.744 133.086L113.766 156.731L80.5631 133.086H73.2685L114.646 162.767L136.026 133.086H130.744Z" fill="#481E00"/>
<path d="M136.026 143.902L124.833 156.479L98.5478 133.086H94.7746L125.085 160L136.026 147.675V143.902Z" fill="#481E00"/>
<path d="M43.2887 112.316C42.0009 112.316 40.921 112.142 40.0491 111.793C39.1769 111.444 38.5262 110.914 38.0968 110.203C37.6679 109.492 37.3593 108.721 37.1713 107.889C36.9837 107.057 36.9501 106.024 37.0709 104.79C37.1915 103.556 37.3658 102.389 37.5938 101.289C37.8223 100.189 38.1242 98.8743 38.4994 97.3448H37.4934C37.091 97.1302 36.9837 96.5064 37.1713 95.4738C37.3593 94.4408 37.6679 93.8839 38.0968 93.803H39.4655C41.1289 88.5185 42.0812 85.5272 42.3226 84.8293C42.5909 84.5073 43.2215 84.3263 44.2142 84.2864C45.207 84.2462 46.1727 84.3601 47.1119 84.6284C48.0509 84.8964 48.574 85.2718 48.6815 85.7549C47.9305 88.1155 47.1256 90.7983 46.2669 93.803H48.762C49.2185 94.2326 49.3729 94.8833 49.2251 95.7552C49.0774 96.6274 48.8023 97.1572 48.4001 97.3448H45.3008C44.3887 100.484 43.8658 102.322 43.7319 102.859C43.2754 104.522 43.074 105.904 43.1277 107.004C43.1812 108.104 43.5971 108.681 44.3753 108.735C46.8973 108.869 49.017 107.219 50.7342 103.784C50.868 103.623 51.0758 103.59 51.3576 103.684C51.6397 103.777 51.908 103.945 52.1627 104.187C52.4177 104.428 52.5183 104.616 52.4648 104.75C51.2573 107.245 49.9224 109.13 48.4599 110.405C46.9978 111.679 45.2742 112.316 43.2887 112.316Z" fill="#481E00"/>
<path d="M56.0598 84.7489C56.6502 84.454 57.4215 84.2998 58.374 84.2865C59.3263 84.2728 60.2518 84.4067 61.1505 84.6883C62.0496 84.9701 62.4856 85.3123 62.4586 85.715C61.1974 89.4708 60.0437 93.3743 58.9974 97.4253C61.3318 95.6546 63.3978 94.7692 65.1953 94.7692C66.8856 94.7692 68.006 95.2656 68.5561 96.2583C69.106 97.251 69.0993 98.539 68.5361 100.122C68.4552 100.417 68.3142 100.846 68.1129 101.41C67.912 101.973 67.724 102.496 67.5493 102.979C67.375 103.462 67.194 103.999 67.0064 104.589C66.8188 105.179 66.6779 105.702 66.5839 106.159C66.4897 106.615 66.4362 107.044 66.4229 107.446C66.4096 107.849 66.4698 108.151 66.6038 108.352C66.7383 108.553 66.9662 108.641 67.2878 108.613C67.9319 108.587 68.7099 108.084 69.6219 107.104C70.5343 106.125 71.2722 105.018 71.8356 103.784C71.97 103.623 72.178 103.59 72.4598 103.684C72.7414 103.777 73.0163 103.945 73.2848 104.187C73.5531 104.428 73.6469 104.616 73.5662 104.75C70.9908 109.553 67.9321 112.075 64.3902 112.316C62.512 112.45 61.2578 112.088 60.6275 111.23C59.9971 110.371 59.7759 109.231 59.9635 107.808C60.1781 106.252 60.7952 103.945 61.8145 100.887C62.2439 99.6255 61.9623 99.0487 60.9695 99.156C60.1112 99.2363 59.1185 99.7997 57.9914 100.846C56.65 105.89 55.7108 109.499 55.1742 111.672C55.0939 112.074 54.1684 112.329 52.3977 112.437C50.1974 112.598 48.9096 112.356 48.5339 111.713C48.4537 111.578 48.4404 111.431 48.494 111.27C50.7472 102.738 53.2693 93.8976 56.0598 84.7489Z" fill="#481E00"/>
<path d="M73.5134 105.756C73.3252 106.078 72.9428 106.092 72.3663 105.797C71.7896 105.502 71.5951 105.179 71.7827 104.83C73.4997 101.692 74.7072 98.9148 75.405 96.4998C74.2241 94.6484 74.1837 93.0655 75.2839 91.7511C76.0081 90.8387 76.9002 90.416 77.96 90.4829C79.0201 90.5499 79.6308 91.1334 79.7918 92.2335C79.8719 92.7703 79.8184 93.3876 79.6308 94.0852C79.9794 94.4073 80.5559 94.8769 81.3606 95.4938C82.1658 96.1109 82.7829 96.6208 83.2124 97.0235C83.6417 97.4259 84.0709 97.9154 84.4998 98.4919C84.9292 99.0686 85.1236 99.6521 85.0834 100.242C85.0435 100.833 84.782 101.45 84.2989 102.094C82.7966 104.079 81.8978 105.676 81.6029 106.883C81.4685 107.42 81.5017 107.849 81.7026 108.171C81.9039 108.493 82.2998 108.641 82.8904 108.613C83.8831 108.587 84.9763 108.198 86.1699 107.446C87.3639 106.695 88.4305 105.461 89.3697 103.744C89.5041 103.502 89.8463 103.556 90.3964 103.905C90.9463 104.254 91.1677 104.522 91.0604 104.71C88.5919 109.673 85.0501 112.209 80.4351 112.316C78.6377 112.343 77.2762 111.981 76.3505 111.23C75.4246 110.478 74.9753 109.418 75.0025 108.05C75.0025 107.299 75.2102 106.414 75.6259 105.394C76.0419 104.375 76.3974 103.61 76.6925 103.1C76.9879 102.59 77.4978 101.745 78.2222 100.565C78.3023 100.431 78.3627 100.297 78.4031 100.163C78.4434 100.028 78.4704 99.9075 78.4837 99.8C78.4969 99.6928 78.4899 99.5788 78.463 99.4581C78.4364 99.3369 78.4094 99.2363 78.3825 99.156C78.3559 99.0758 78.3021 98.9687 78.2214 98.8346C78.1411 98.7002 78.0807 98.6062 78.0405 98.5525C78.0006 98.4989 77.9201 98.4051 77.7989 98.2711C77.6782 98.1366 77.6043 98.0561 77.5773 98.0295C77.5508 98.0026 77.4704 97.9217 77.3366 97.7873L77.095 97.5864C76.3706 100.162 75.1768 102.886 73.5134 105.756Z" fill="#481E00"/>
<path d="M99.9415 94.8896C101.202 94.9167 102.295 95.1516 103.221 95.5942C104.147 96.0371 104.797 96.6006 105.173 97.285C105.549 97.969 105.77 98.7268 105.837 99.5585C105.904 100.39 105.696 101.208 105.213 102.013C104.516 103.435 103.302 104.475 101.571 105.132C99.8405 105.79 97.8484 105.944 95.5946 105.595C95.7822 107.607 97.3651 108.64 100.343 108.694C101.229 108.721 102.107 108.607 102.98 108.352C103.851 108.097 104.797 107.58 105.817 106.802C106.836 106.024 107.668 105.018 108.312 103.784C108.446 103.623 108.654 103.59 108.936 103.684C109.217 103.777 109.492 103.945 109.761 104.187C110.029 104.428 110.137 104.602 110.083 104.71C108.553 107.473 106.823 109.452 104.891 110.646C102.959 111.84 100.719 112.423 98.1702 112.397C94.897 112.37 92.509 111.578 91.0062 110.022C89.5038 108.466 88.8599 106.521 89.0747 104.187C89.343 101.396 90.4901 99.1358 92.516 97.4054C94.5417 95.6746 97.0169 94.836 99.9415 94.8896ZM99.3779 98.7135C98.6535 98.6062 97.949 98.9683 97.2647 99.8C96.5807 100.632 96.091 101.705 95.7955 103.02C96.869 103.046 97.7679 102.778 98.4923 102.215C99.2165 101.651 99.6861 100.994 99.9009 100.242C100.169 99.3035 99.9949 98.7938 99.3779 98.7135Z" fill="#481E00"/>
<path d="M118.387 94.8896C119.648 94.9167 120.741 95.1516 121.667 95.5942C122.593 96.0371 123.243 96.6006 123.619 97.285C123.995 97.969 124.216 98.7268 124.283 99.5585C124.35 100.39 124.142 101.208 123.659 102.013C122.962 103.435 121.748 104.475 120.017 105.132C118.286 105.79 116.294 105.944 114.04 105.595C114.228 107.607 115.811 108.64 118.789 108.694C119.674 108.721 120.553 108.607 121.425 108.352C122.297 108.097 123.243 107.58 124.262 106.802C125.282 106.024 126.114 105.018 126.758 103.784C126.892 103.623 127.1 103.59 127.382 103.684C127.663 103.777 127.938 103.945 128.207 104.187C128.475 104.428 128.582 104.602 128.529 104.71C126.999 107.473 125.269 109.452 123.337 110.646C121.405 111.84 119.165 112.423 116.616 112.397C113.343 112.37 110.955 111.578 109.452 110.022C107.95 108.466 107.306 106.521 107.521 104.187C107.789 101.396 108.936 99.1358 110.962 97.4054C112.988 95.6746 115.463 94.836 118.387 94.8896ZM117.824 98.7135C117.099 98.6062 116.395 98.9683 115.711 99.8C115.027 100.632 114.537 101.705 114.241 103.02C115.315 103.046 116.214 102.778 116.938 102.215C117.662 101.651 118.132 100.994 118.347 100.242C118.615 99.3035 118.441 98.7938 117.824 98.7135Z" fill="#481E00"/>
<path d="M137.839 85.6744C138.295 85.0303 139.395 84.7754 141.14 84.9099C142.615 85.0174 143.42 85.3124 143.554 85.7955V86.037C142.534 89.2025 141.293 93.4816 139.831 98.8745C138.369 104.267 137.329 108.386 136.712 111.23C136.497 111.927 135.572 112.356 133.936 112.517C132.299 112.705 131.239 112.504 130.756 111.914C130.595 111.726 130.541 111.498 130.595 111.23C131.319 108.252 131.856 106.051 132.204 104.629C132.553 103.207 133.11 101.269 133.875 98.814C134.64 96.3587 135.371 94.3799 136.068 92.8775C135.666 93.6557 134.921 94.5679 133.834 95.6142C132.748 96.6607 131.816 97.318 131.038 97.5864C130.259 97.8814 129.548 97.774 128.904 97.2643C128.26 96.7546 127.892 96.1914 127.798 95.5743C127.704 94.9574 127.791 94.5011 128.06 94.2056C132.54 91.4693 135.8 88.6256 137.839 85.6744Z" fill="#481E00"/>
<path d="M156.285 85.6744C156.741 85.0303 157.841 84.7754 159.585 84.9099C161.061 85.0174 161.866 85.3124 162 85.7955V86.037C160.98 89.2025 159.739 93.4816 158.277 98.8745C156.814 104.267 155.775 108.386 155.158 111.23C154.943 111.927 154.018 112.356 152.381 112.517C150.745 112.705 149.685 112.504 149.202 111.914C149.041 111.726 148.987 111.498 149.041 111.23C149.765 108.252 150.301 106.051 150.65 104.629C150.999 103.207 151.556 101.269 152.321 98.814C153.086 96.3587 153.817 94.3799 154.514 92.8775C154.112 93.6557 153.367 94.5679 152.28 95.6142C151.194 96.6607 150.262 97.318 149.484 97.5864C148.705 97.8814 147.994 97.774 147.35 97.2643C146.706 96.7546 146.337 96.1914 146.243 95.5743C146.15 94.9574 146.237 94.5011 146.506 94.2056C150.986 91.4693 154.246 88.6256 156.285 85.6744Z" fill="#481E00"/>
</svg>
